<mxfile host="app.diagrams.net" modified="2021-02-10T09:20:37.489Z" agent="5.0 (X11)" etag="J2ztoqQzlV41Vk7eNgz6" version="14.3.0" type="github">
  <diagram id="piDafpqhtRUU5qUU-vj8" name="Page-1">
    <mxGraphModel dx="395" dy="220" grid="1" gridSize="10" guides="1" tooltips="1" connect="1" arrows="1" fold="1" page="1" pageScale="1" pageWidth="827" pageHeight="1169" math="0" shadow="0">
      <root>
        <mxCell id="0" />
        <mxCell id="1" parent="0" />
        <mxCell id="8962rQQDY3VNNf6We3Pp-1" value="" style="strokeWidth=1;shadow=0;dashed=0;align=center;html=1;shape=mxgraph.mockup.containers.browserWindow;rSize=0;strokeColor2=#008cff;strokeColor3=#c4c4c4;mainText=,;recursiveResize=0;strokeColor=#FFFFFF;fontColor=#FFFFFF;" parent="1" vertex="1">
          <mxGeometry x="10" y="10" width="1150" height="1330" as="geometry" />
        </mxCell>
        <mxCell id="8962rQQDY3VNNf6We3Pp-2" value="Page 1" style="strokeWidth=1;shadow=0;dashed=0;align=center;html=1;shape=mxgraph.mockup.containers.anchor;fontSize=17;fontColor=#666666;align=left;" parent="8962rQQDY3VNNf6We3Pp-1" vertex="1">
          <mxGeometry x="60" y="12" width="110" height="26" as="geometry" />
        </mxCell>
        <mxCell id="8962rQQDY3VNNf6We3Pp-3" value="https://www.example.com" style="strokeWidth=1;shadow=0;dashed=0;align=center;html=1;shape=mxgraph.mockup.containers.anchor;rSize=0;fontSize=17;fontColor=#666666;align=left;" parent="8962rQQDY3VNNf6We3Pp-1" vertex="1">
          <mxGeometry x="130" y="60" width="250" height="26" as="geometry" />
        </mxCell>
        <mxCell id="8962rQQDY3VNNf6We3Pp-4" value="" style="verticalLabelPosition=bottom;shadow=0;dashed=0;align=center;html=1;verticalAlign=top;strokeWidth=1;shape=mxgraph.mockup.containers.videoPlayer;strokeColor=#666666;strokeColor2=#008cff;strokeColor3=#c4c4c4;textColor=#666666;fillColor2=#008cff;barHeight=30;barPos=20;" parent="8962rQQDY3VNNf6We3Pp-1" vertex="1">
          <mxGeometry y="110" width="1150" height="590" as="geometry" />
        </mxCell>
        <mxCell id="8962rQQDY3VNNf6We3Pp-6" value="Dropdown" style="rounded=1;fillColor=#F1F2F4;strokeColor=none;html=1;fontColor=#596780;align=left;fontSize=10;spacingLeft=10" parent="8962rQQDY3VNNf6We3Pp-1" vertex="1">
          <mxGeometry x="900" y="127" width="90" height="33" as="geometry" />
        </mxCell>
        <mxCell id="8962rQQDY3VNNf6We3Pp-7" value="" style="shape=triangle;direction=south;fillColor=#596780;strokeColor=none;html=1" parent="8962rQQDY3VNNf6We3Pp-6" vertex="1">
          <mxGeometry x="1" y="0.5" width="12" height="6" relative="1" as="geometry">
            <mxPoint x="-20" y="-3" as="offset" />
          </mxGeometry>
        </mxCell>
        <mxCell id="8962rQQDY3VNNf6We3Pp-8" value="Dropdown" style="rounded=1;fillColor=#F1F2F4;strokeColor=none;html=1;fontColor=#596780;align=left;fontSize=10;spacingLeft=10" parent="8962rQQDY3VNNf6We3Pp-1" vertex="1">
          <mxGeometry x="790" y="127" width="90" height="33" as="geometry" />
        </mxCell>
        <mxCell id="8962rQQDY3VNNf6We3Pp-9" value="" style="shape=triangle;direction=south;fillColor=#596780;strokeColor=none;html=1" parent="8962rQQDY3VNNf6We3Pp-8" vertex="1">
          <mxGeometry x="1" y="0.5" width="12" height="6" relative="1" as="geometry">
            <mxPoint x="-20" y="-3" as="offset" />
          </mxGeometry>
        </mxCell>
        <mxCell id="8962rQQDY3VNNf6We3Pp-10" value="Dropdown" style="rounded=1;fillColor=#F1F2F4;strokeColor=none;html=1;fontColor=#596780;align=left;fontSize=10;spacingLeft=10" parent="8962rQQDY3VNNf6We3Pp-1" vertex="1">
          <mxGeometry x="680" y="127" width="90" height="33" as="geometry" />
        </mxCell>
        <mxCell id="8962rQQDY3VNNf6We3Pp-11" value="" style="shape=triangle;direction=south;fillColor=#596780;strokeColor=none;html=1" parent="8962rQQDY3VNNf6We3Pp-10" vertex="1">
          <mxGeometry x="1" y="0.5" width="12" height="6" relative="1" as="geometry">
            <mxPoint x="-20" y="-3" as="offset" />
          </mxGeometry>
        </mxCell>
        <mxCell id="8962rQQDY3VNNf6We3Pp-12" value="Dropdown" style="rounded=1;fillColor=#F1F2F4;strokeColor=none;html=1;fontColor=#596780;align=left;fontSize=10;spacingLeft=10" parent="8962rQQDY3VNNf6We3Pp-1" vertex="1">
          <mxGeometry x="570" y="127" width="90" height="33" as="geometry" />
        </mxCell>
        <mxCell id="8962rQQDY3VNNf6We3Pp-13" value="" style="shape=triangle;direction=south;fillColor=#596780;strokeColor=none;html=1" parent="8962rQQDY3VNNf6We3Pp-12" vertex="1">
          <mxGeometry x="1" y="0.5" width="12" height="6" relative="1" as="geometry">
            <mxPoint x="-20" y="-3" as="offset" />
          </mxGeometry>
        </mxCell>
        <mxCell id="8962rQQDY3VNNf6We3Pp-14" value="Try now" style="rounded=1;align=center;strokeColor=none;html=1;fontColor=#ffffff;fontSize=12;fillColor=#008CFF;" parent="8962rQQDY3VNNf6We3Pp-1" vertex="1">
          <mxGeometry x="1045" y="127" width="86" height="33" as="geometry" />
        </mxCell>
        <mxCell id="8962rQQDY3VNNf6We3Pp-16" value="The d company" style="text;html=1;strokeColor=none;fillColor=none;align=center;verticalAlign=middle;whiteSpace=wrap;rounded=0;fontSize=13;fontColor=#0066CC;" parent="8962rQQDY3VNNf6We3Pp-1" vertex="1">
          <mxGeometry x="140" y="130" width="100" height="20" as="geometry" />
        </mxCell>
        <mxCell id="8962rQQDY3VNNf6We3Pp-17" value="" style="html=1;verticalLabelPosition=bottom;align=center;labelBackgroundColor=#ffffff;verticalAlign=top;strokeWidth=2;strokeColor=#0080F0;shadow=0;dashed=0;shape=mxgraph.ios7.icons.video_conversation;fontSize=13;fontColor=#0066CC;" parent="8962rQQDY3VNNf6We3Pp-1" vertex="1">
          <mxGeometry x="420" y="320" width="310" height="170" as="geometry" />
        </mxCell>
        <mxCell id="8962rQQDY3VNNf6We3Pp-18" value="re" style="verticalLabelPosition=bottom;shadow=0;dashed=0;align=center;html=1;verticalAlign=top;strokeWidth=1;shape=mxgraph.mockup.graphics.simpleIcon;strokeColor=#999999;fontSize=13;fontColor=#0066CC;" parent="8962rQQDY3VNNf6We3Pp-1" vertex="1">
          <mxGeometry x="680" y="800" width="50" height="50" as="geometry" />
        </mxCell>
        <mxCell id="8962rQQDY3VNNf6We3Pp-19" value="" style="verticalLabelPosition=bottom;shadow=0;dashed=0;align=center;html=1;verticalAlign=top;strokeWidth=1;shape=mxgraph.mockup.graphics.simpleIcon;strokeColor=#999999;fontSize=13;fontColor=#0066CC;" parent="8962rQQDY3VNNf6We3Pp-1" vertex="1">
          <mxGeometry x="780" y="800" width="50" height="50" as="geometry" />
        </mxCell>
        <mxCell id="8962rQQDY3VNNf6We3Pp-20" value="" style="verticalLabelPosition=bottom;shadow=0;dashed=0;align=center;html=1;verticalAlign=top;strokeWidth=1;shape=mxgraph.mockup.graphics.simpleIcon;strokeColor=#999999;fontSize=13;fontColor=#0066CC;" parent="8962rQQDY3VNNf6We3Pp-1" vertex="1">
          <mxGeometry x="880" y="800" width="50" height="50" as="geometry" />
        </mxCell>
        <mxCell id="8962rQQDY3VNNf6We3Pp-21" value="" style="verticalLabelPosition=bottom;shadow=0;dashed=0;align=center;html=1;verticalAlign=top;strokeWidth=1;shape=mxgraph.mockup.graphics.simpleIcon;strokeColor=#999999;fontSize=13;fontColor=#0066CC;" parent="8962rQQDY3VNNf6We3Pp-1" vertex="1">
          <mxGeometry x="680" y="890" width="50" height="50" as="geometry" />
        </mxCell>
        <mxCell id="8962rQQDY3VNNf6We3Pp-22" value="" style="verticalLabelPosition=bottom;shadow=0;dashed=0;align=center;html=1;verticalAlign=top;strokeWidth=1;shape=mxgraph.mockup.graphics.simpleIcon;strokeColor=#999999;fontSize=13;fontColor=#0066CC;" parent="8962rQQDY3VNNf6We3Pp-1" vertex="1">
          <mxGeometry x="780" y="890" width="50" height="50" as="geometry" />
        </mxCell>
        <mxCell id="8962rQQDY3VNNf6We3Pp-23" value="" style="verticalLabelPosition=bottom;shadow=0;dashed=0;align=center;html=1;verticalAlign=top;strokeWidth=1;shape=mxgraph.mockup.graphics.simpleIcon;strokeColor=#999999;fontSize=13;fontColor=#0066CC;" parent="8962rQQDY3VNNf6We3Pp-1" vertex="1">
          <mxGeometry x="880" y="890" width="50" height="50" as="geometry" />
        </mxCell>
        <mxCell id="8962rQQDY3VNNf6We3Pp-24" value="" style="verticalLabelPosition=bottom;shadow=0;dashed=0;align=center;html=1;verticalAlign=top;strokeWidth=1;shape=mxgraph.mockup.graphics.simpleIcon;strokeColor=#999999;fontSize=13;fontColor=#0066CC;" parent="8962rQQDY3VNNf6We3Pp-1" vertex="1">
          <mxGeometry x="680" y="980" width="50" height="50" as="geometry" />
        </mxCell>
        <mxCell id="8962rQQDY3VNNf6We3Pp-25" value="" style="verticalLabelPosition=bottom;shadow=0;dashed=0;align=center;html=1;verticalAlign=top;strokeWidth=1;shape=mxgraph.mockup.graphics.simpleIcon;strokeColor=#999999;fontSize=13;fontColor=#0066CC;" parent="8962rQQDY3VNNf6We3Pp-1" vertex="1">
          <mxGeometry x="780" y="980" width="50" height="50" as="geometry" />
        </mxCell>
        <mxCell id="8962rQQDY3VNNf6We3Pp-26" value="" style="verticalLabelPosition=bottom;shadow=0;dashed=0;align=center;html=1;verticalAlign=top;strokeWidth=1;shape=mxgraph.mockup.graphics.simpleIcon;strokeColor=#999999;fontSize=13;fontColor=#0066CC;" parent="8962rQQDY3VNNf6We3Pp-1" vertex="1">
          <mxGeometry x="880" y="980" width="50" height="50" as="geometry" />
        </mxCell>
        <mxCell id="8962rQQDY3VNNf6We3Pp-27" value="" style="strokeWidth=1;shadow=0;dashed=0;align=center;html=1;shape=mxgraph.mockup.buttons.multiButton;fillColor=#008cff;strokeColor=#666666;mainText=;subText=;fontSize=13;fontColor=#0066CC;" parent="8962rQQDY3VNNf6We3Pp-1" vertex="1">
          <mxGeometry x="204" y="810" width="200" height="210" as="geometry" />
        </mxCell>
        <mxCell id="8962rQQDY3VNNf6We3Pp-28" value="These companies&lt;br&gt;trust us" style="strokeWidth=1;shadow=0;dashed=0;align=center;html=1;shape=mxgraph.mockup.anchor;fontSize=16;fontColor=#ffffff;fontStyle=1;whiteSpace=wrap;" parent="8962rQQDY3VNNf6We3Pp-27" vertex="1">
          <mxGeometry y="33.6" width="200" height="84" as="geometry" />
        </mxCell>
        <mxCell id="8962rQQDY3VNNf6We3Pp-29" value="" style="strokeWidth=1;shadow=0;dashed=0;align=center;html=1;shape=mxgraph.mockup.anchor;fontSize=12;fontColor=#ffffff;fontStyle=1;whiteSpace=wrap;" parent="8962rQQDY3VNNf6We3Pp-27" vertex="1">
          <mxGeometry y="126" width="200" height="42" as="geometry" />
        </mxCell>
        <mxCell id="8962rQQDY3VNNf6We3Pp-35" value="" style="verticalLabelPosition=bottom;shadow=0;dashed=0;align=center;html=1;verticalAlign=top;strokeWidth=1;shape=mxgraph.mockup.markup.line;strokeColor=#999999;fillColor=#008CFF;fontSize=13;fontColor=#0066CC;" parent="8962rQQDY3VNNf6We3Pp-1" vertex="1">
          <mxGeometry y="1180" width="1150" height="20" as="geometry" />
        </mxCell>
        <mxCell id="8962rQQDY3VNNf6We3Pp-30" value="" style="shape=rect;fillColor=#ffffff;strokeColor=#eeeeee;shadow=0;fontSize=13;fontColor=#0066CC;" parent="8962rQQDY3VNNf6We3Pp-1" vertex="1">
          <mxGeometry x="425" y="1230" width="300" height="40" as="geometry" />
        </mxCell>
        <mxCell id="8962rQQDY3VNNf6We3Pp-31" value="BUTTON" style="shape=rect;strokeColor=none;fillColor=none;fontSize=12;fontColor=#2196F3;dashed=0;" parent="8962rQQDY3VNNf6We3Pp-30" vertex="1">
          <mxGeometry width="75" height="40" as="geometry" />
        </mxCell>
        <mxCell id="8962rQQDY3VNNf6We3Pp-32" value="BUTTON" style="shape=rect;strokeColor=none;fillColor=none;fontSize=12;fontColor=#2196F3;dashed=0;" parent="8962rQQDY3VNNf6We3Pp-30" vertex="1">
          <mxGeometry x="75" width="75" height="40" as="geometry" />
        </mxCell>
        <mxCell id="8962rQQDY3VNNf6We3Pp-33" value="BUTTON" style="shape=rect;strokeColor=none;fillColor=none;fontSize=12;fontColor=#2196F3;dashed=0;" parent="8962rQQDY3VNNf6We3Pp-30" vertex="1">
          <mxGeometry x="150" width="75" height="40" as="geometry" />
        </mxCell>
        <mxCell id="8962rQQDY3VNNf6We3Pp-34" value="BUTTON" style="shape=rect;strokeColor=none;fillColor=none;fontSize=12;fontColor=#2196F3;dashed=0;" parent="8962rQQDY3VNNf6We3Pp-30" vertex="1">
          <mxGeometry x="225" width="75" height="40" as="geometry" />
        </mxCell>
        <mxCell id="8962rQQDY3VNNf6We3Pp-36" value="" style="shape=image;html=1;verticalAlign=top;verticalLabelPosition=bottom;labelBackgroundColor=#ffffff;imageAspect=0;aspect=fixed;image=https://cdn3.iconfinder.com/data/icons/peelicons-vol-1/50/LinkedIn-128.png;fillColor=#008CFF;fontSize=13;fontColor=#0066CC;" parent="8962rQQDY3VNNf6We3Pp-1" vertex="1">
          <mxGeometry x="870" y="1235" width="30" height="30" as="geometry" />
        </mxCell>
        <mxCell id="8962rQQDY3VNNf6We3Pp-37" value="" style="shape=image;html=1;verticalAlign=top;verticalLabelPosition=bottom;labelBackgroundColor=#ffffff;imageAspect=0;aspect=fixed;image=https://cdn3.iconfinder.com/data/icons/peelicons-vol-1/50/Facebook-128.png;fillColor=#008CFF;fontSize=13;fontColor=#0066CC;" parent="8962rQQDY3VNNf6We3Pp-1" vertex="1">
          <mxGeometry x="920" y="1235" width="30" height="30" as="geometry" />
        </mxCell>
        <mxCell id="8962rQQDY3VNNf6We3Pp-38" value="" style="shape=image;html=1;verticalAlign=top;verticalLabelPosition=bottom;labelBackgroundColor=#ffffff;imageAspect=0;aspect=fixed;image=https://cdn3.iconfinder.com/data/icons/peelicons-vol-1/50/Twitter-128.png;fillColor=#008CFF;fontSize=13;fontColor=#0066CC;" parent="8962rQQDY3VNNf6We3Pp-1" vertex="1">
          <mxGeometry x="970" y="1235" width="30" height="30" as="geometry" />
        </mxCell>
        <mxCell id="seymav8gBYocV3_De4xC-2" value="d" style="text;html=1;align=center;verticalAlign=middle;resizable=0;points=[];autosize=1;fontSize=37;fontFamily=Tahoma;fillColor=#008CFF;fontColor=#FFFFFF;" parent="8962rQQDY3VNNf6We3Pp-1" vertex="1">
          <mxGeometry x="100" y="110" width="40" height="50" as="geometry" />
        </mxCell>
        <mxCell id="P9Vxpw5uslFkjje40E4V-1" value="" style="shape=image;verticalLabelPosition=bottom;labelBackgroundColor=#ffffff;verticalAlign=top;aspect=fixed;imageAspect=0;image=data:image/jpeg,/9j/4AAQSkZJRgABAQEBXgFeAAD/4VboRXhpZgAASUkqAAgAAAAHAA4BAgASAAAAYgAAABoBBQABAAAAdAAAABsBBQABAAAAfAAAACgBAwABAAAAAgAAADEBAgANAAAAhAAAADIBAgAUAAAAkgAAAGmHBAABAAAApgAAAN4AAABDcmVhdGVkIHdpdGggR0lNUABeAQAAAQAAAF4BAAABAAAAR0lNUCAyLjEwLjE4AAAyMDIxOjAyOjEwIDEwOjIwOjA5AAIAhpIHABkAAADEAAAAAaADAAEAAAABAAAAAAAAAAAAAAAAAAAAQ3JlYXRlZCB3aXRoIEdJTVAACAAAAQQAAQAAAAABAAABAQQAAQAAAPYAAAACAQMAAwAAAEQBAAADAQMAAQAAAAYAAAAGAQMAAQAAAAYAAAAVAQMAAQAAAAMAAAABAgQAAQAAAEoBAAACAgQAAQAAAJVVAAAAAAAACAAIAAgA/9j/4AAQSkZJRgABAQAAAQABAAD/2wBDAAgGBgcGBQgHBwcJCQgKDBQNDAsLDBkSEw8UHRofHh0aHBwgJC4nICIsIxwcKDcpLDAxNDQ0Hyc5PTgyPC4zNDL/2wBDAQkJCQwLDBgNDRgyIRwhMjIyMjIyMjIyMjIyMjIyMjIyMjIyMjIyMjIyMjIyMjIyMjIyMjIyMjIyMjIyMjIyMjL/wAARCAD2AQADASIAAhEBAxEB/8QAHwAAAQUBAQEBAQEAAAAAAAAAAAECAwQFBgcICQoL/8QAtRAAAgEDAwIEAwUFBAQAAAF9AQIDAAQRBRIhMUEGE1FhByJxFDKBkaEII0KxwRVS0fAkM2JyggkKFhcYGRolJicoKSo0NTY3ODk6Q0RFRkdISUpTVFVWV1hZWmNkZWZnaGlqc3R1dnd4eXqDhIWGh4iJipKTlJWWl5iZmqKjpKWmp6ipqrKztLW2t7i5usLDxMXGx8jJytLT1NXW19jZ2uHi4+Tl5ufo6erx8vP09fb3+Pn6/8QAHwEAAwEBAQEBAQEBAQAAAAAAAAECAwQFBgcICQoL/8QAtREAAgECBAQDBAcFBAQAAQJ3AAECAxEEBSExBhJBUQdhcRMiMoEIFEKRobHBCSMzUvAVYnLRChYkNOEl8RcYGRomJygpKjU2Nzg5OkNERUZHSElKU1RVVldYWVpjZGVmZ2hpanN0dXZ3eHl6goOEhYaHiImKkpOUlZaXmJmaoqOkpaanqKmqsrO0tba3uLm6wsPExcbHyMnK0tPU1dbX2Nna4uPk5ebn6Onq8vP09fb3+Pn6/9oADAMBAAIRAxEAPwDxy502e2m8pk3ZGQw6D610OhyQW1n9mMbCYNv3nvmtLS995YP9rYwhzuLbRg/ielTpbWlyZBZ27KsWFM4PGa4Pat6MmlK0lcj8VaCJdE07ULeIB3jETg8YIGd3HH9a4zSNYOg6kLg28dxwVw3T8K9U0+5mk0uaAWzSTRq4inMJkUcd1wecEjPvXl2pabdtq9vbzWrWjTorRK/UqSRnH4Gt6b5tGb1Y3szYsdTi1e8vC8RVGJZSR932q2TN5cciYCheC3G4DpVe0lGhWU9jdWiyNKwKSDjaalkS7urJWkjMcAYqsn8OcZxn1xzSfka03JR5X0J7LT9Ovraa8vrsWwjHy7DzmstNQtSJhL59zHGvytjp9ayZQ0l4rxtuK/wnuKdcX80EU0MVusKzDa3OTUcmpw1FeTNoG11q3fbNd28rLgR5LKfb2rn9T07yJnNuJPIUhd0nUt3ras7z7FFHcQLuR0AOOxFVZ9buNOv7dIyrLFKJiGXPJPIrZNpcsUdM4KMFZHPqzMyg5IHA9q64yXKaLaR7xtUbzjqfY1f8Q+HrO31C21HTYStvcRhognKmUHJ4PIHStBBFLbSnyVLyEGYEgbc+1YVayTVkTGLT0ODsLYajrCQySeWJmOGxnBrvtP0hY7qOBot8g6uq58welcrqWm/ZZJLpIZIQpBiBBO45/Suq0m9vo9LWeEPDeKPk4/xqK03KPujpzcW7nVW9p5ltHNLYtbxIdu12H8u1c1rs66RfRhLmW5efgxKAAo7YNNu9aum229600bEjg/dJz2b/ABrGfWvsGpvNMBlGKMJBuMZ7fhXHSpT5rs0dS6vctlNXlu4XhtS1vE+F2DgfWuvs4/Ms5ZBAsksZ3NEpKsPfHeuW1W+1m60cyWMZ2pLt3wDBIIznFdDpMOpRWsN1e4kmMQCBeHx7nvSxFOTir7fiEd3Yv204u48NKskJG5OMshHapkkRNisD5bHDAr1z0JqjpelfvZiJRH5ku8xBDx65NaBkMMhjdRHCpwzN6e1RhYeynJX0NI3erKcW5Z5VjVj+84QnGPxrQvYZNR0lYoZVh3MFctzn2H4VVmaCGT91OJZHYbgRwBV6wlxApdWYKSRkYwPUDvXbUk3TbiXNKxy2rGOxuFgksn+zsSfPL7CWq54d1Bo/Pa6jYoNq7+uQelXNck0wRQyXXkKZiVTzVJOfaqWgWhgllCziSIMSwxwp7YrzEuanaa1ON/xNGbU8kSyqqhzGOMUJPI84t43O0jICnqKrXtp9oVpoXYIq72AbnPqKq2LS2kCTNG0vzAA7SGIPf6Vg6SZpzNPU0S8jyCYgBcbVb3HrUF1cJCAYgJGK/vCeAPpUxtwiXELBiVlWRNp42msiS0FxI0uJJN7FSgbAQDv71vGl0ZTk0tCeKLzfKZG2kS5bJz271pTQRw273Sr8ijLHPB9qrQWL/Z3WGXzY2AOfTApZNLnnSCN5pBbLkyFDgfjVuKta45NpXSKLXomdMRlV6j2rQtyZ3gZ127COc9Qayblxeay/kLiNBsz7DpV60tbiJI2ZBtYho23Zx3xW9GCSsFOTtqeb2Gq311eLDezJAr/cQpgH/Ct+S/g0tPLWUo2eZEGQrds1wVzcNJqHmuxQM+QSM7a6jQNVnW7ihNtHc288h86JguJgAeQT0P413TpJtM86MbyO+0m7lvbaVTK8V9sHmYXaswPcc8H/AOtXG+Iba4/tOJYLERWKy5iYxjzGkxglm5J5zXcQWcumxTJK6zQFdsckxAZYyD8px1x079aqWF1FNpN1HEq3M9o5ZmUkfOB8o5/P/wDXTTseglokzyrURqA1My3Jd41baPT6V1XhN1v11DTZt7RvHuAVclWwcMP5fjWfb6BrOryPDOHtdjG4uJZ4yNn4f0rT8NYtLr7QroFYmK4Yg8p7Y6GtpSjayBK2xk2MaafezebhNp8veR9314rIS+ih1tpWZZULlRleo9a77UNAW9kmZVDWxi3l42yMnJGSfpXK3Xh5LmKN7Ep5ucSo3UVipRv7wqtPm2NDULa2SKK4tUxCqFnQdzjtXC3/AM85dj+8I3MD/Kupjee206WCYsssWV/3gK5O6V57yVlRiepwK3ppkyTVNI9Y0W9i8V6DbLO0RvoFVVWMklVHHzk/dzjgA1IlhFBuWZIo5dxJDDBbFcr8Nbud9QuLABfKCG4DDCsGXA4P9K7PW4ItfhDxl8RKHSXG1mLcYPqeK5a9JXuJS92/UIhHdaW+NuYpQ/OKyLvxEtvfRwmEPGT82DgtUlij2eu3GnLcyTzJbESpFHkGQdsn09ax9R0vzdTCtmOYIpaNSDhjzUcqja5k3K12XvEF1DNOls9s4ilAB2tkDPTJpg0yOCG3stUsvPi8zAu4QCQM5w/qP1FazaJJaCGK9mWVpoS6gDbt+grFnu5JpDbQTszICXCdAfSkrxlyo0T53odLeadFBbRrYSfIPkVo85zkbAfUY4qXSby5vUeK502S3ktiYmeIc57EHuOat6VqMKWaSG13SXCrnBzgAck+laUT2X2cixMcfUt82cmufE1nTSTXzNkk3cVLp4njj2CRZVIVycYx1yKy55pXuQjIrIoIGBz7HNX5lFzbl2OApyCo4B7/AErNuppIwXgjLAjCnIyfWrp00pGy1GxRyNvZMEAgnjnA61tW7RyOpVg+8DJx0FZdrLtViMiaQbMf0NWtNeNACo/eMu04HTnvXVa6sxTH3Vg+pXjNNFGbaFty5HJ+grMlDWksksaty+NgXAPoRW+0pSJgJd5HG08YPvVGXCbfPYyDOMJzg44rzW3GSSRly3lcpJIpKiX/AFzZ284AHvWpb3LXGYWYF+AGX7oH0rBFlPc35DM5AYjA4wPrU4ke2iuI5cZTIDL94jtV1KbXvdv62HK66Gtfws1nBCgaaZJQPMH8KZ7+tQQ6Q1vcNMr5VvmXOMhuc4qDw7PJqFrcxscnP7skYIB9auWFyDAyyj5487geuOlCp1G9H0FC00mV2t/LtAFn3Sq25lUdc9jUVzqxhTYYpCspx8q4H0rTdwyoiLjOOB/d96p3jxK8SNGhycfewFP0rnlJx917ilF9zFKpY3HmIyuT98Meo9KtRXUO0xwK6ByACecGoX8uaUt5R2b+dp6VHPdfZowvRSQykjnryK7sNe2prD8DGv8AQ9HuLTESoHZSYpNucn3rT0zTDBa2cEtnvsWRt7RxjdAx75Az19a56f7VJACAsVouBy205+tdPaagumul1KzNERsDfwngZz7816FWpGolZESan0tYdq2pWdmYby4iuJt0iwModlMHHDhc/Sl8OWk7T31vJMlxD5hcSL1kzzknqTx0J4qtDfwahfPAsJkgKnyw8e7JPQH1Gcmuj02UW0ok3Fx5QBb7uw4xyCPrzmsnsRu7obdxsNJ1CQxoGeM7N+Q+0DOOewAriYbq3nBSEHLtkqv0711q3R1GKWBGkiiuuHm2kh1I59/X61zMNlYadc/uLiG7tJG2eejNuHOOnY/0qGtdClLll5F/Rb6NopYPIkkCZBbeBxjowz068/40y8sbd45haSISpDtIPl3ewHHSnWtolnLPbzxQsZG2oHjYllIPIYfd59a0b5Hn0keTEYWtlyyv8uCODuGPxyKb2KT11OLNjORIGUPvB2beSR71k2Vyf7SkKgYAaB129eO9dXLFdPaRSWqqw2n5s4A9cZ71g2Phq5je4uJGiSFxghm+b68VcK6W7CdRK1jsvDOnyaRaWM8SRqZQzzgxjKr0ABHvitN1uYtZtds6TJIxUYX/AFZI6cccHOPrXPrLdLJo0K3PlZtmJG0sj8hQCR0znvXXzW88lkRE7QksCVI+UemOefr7dKbk29TNNs4ewgkXVL65njlkktmYM6Pt3M2MfUkZ4qeXT9P03zL97C5nkbDRtLIyksxzkgc8V0aaY91KLWKH9+w82W5b5CSpAx7g4P1pbwN+6cxbxvLukCh8ADgbu3XpUtWjoS4WOcgMGpW6Xcty/wBqi/dkEnjNSG0k09PLsrWNRyxlf+L6VSlvSNUnFnaMkTEKwYYKOav6pcTeda2y253LAFO8HIPrz1HesIwu9Qpxu7LoaljqU95AkTwRW+WKEAfe46iiS3NpOFgaRgSGKEcg+maZaI9zYK18vlPGdu9PmD1fdR5Clow4YjMg4C+grCs1GHKkVrfUd/aEMGDPtjyPnHOVPbOKqXMZlZlj2MY0y7DoBn+fNWF2TwGZIUJY7WwMjP8AWpLKMP8AumVTI2Wndc/LGvv65wOa1w692z6GqdtTMTYXjlyQiSYY+vuKtpchDN5KhVLFQO75qvJ5huGZIf8AR2fAAGcirDNBBa75CfnYhdvGCa6dHqE22WIpEuLeMBdszththz09ar3RBykakPE2ZFyfSpLS7gaIHySGCfNz8wNU/tISaW4j6Djcw+8e4NZ1qdlzJ6kpWtqUlu8QOnmlCTneSeh9KlRNsZkdJNp53dQakEkE1g5hhJBkBKgZx9PapUkm/s+UFRkn92D6VMpqat1NLqRNpaiGd57c/NGCxAONyH/A0+4yLkP5oKSRbSAMZaqdrcPtLhSGXhGYYVgeoHtTpIJnulgVgC64B6AGnbTQmOjLloJHhkYSECJTlm9u1Y8GpQXNvMt1C8pUkI6Dr9auh5YtAuQzBZpH2DnOaw57GcxS7JkjKoAY87c1y1IxUmRVdrWNSCZ0RRw3mDdtyOB71n6lM8iKfuwOxUjr5Z7EGobe+ePyYni3TIMg7s8VLaRLfK3mDamcehB/ya6qUdNHdGsI3WhnWmoy6MsETMklrKwMsJG4E9MnPtXUx2lhc2NxHYhTbzDIR327HAzwPTpXLQWd2dC894FkjhZndnOGUDnA9TU+jysl5FJFZi5885XOeM9xg1u4SiveRjDmteSLlvYHQ41j1K7gjmuEbywrMWkXg4GeMcirLXb+RAwmWZgpTZIwGVJ7988cGtS9s7e/ikjey+SJgqSBFEkfOQRk5I68GuZg1nVbO+i0+6tLkSwDKkbQsseMBuQeeKlO7E3ZnR317OWit9PhCPAFwJEBU9uTjjvXKWltp9vqjxzySu0jEKuMCMepA4ziuia7Nzp8l28ZUSqAuDlyexPXHXt1rHku7q51jTohbRebcbVaUrg7em4j6VLuKa2Z0Nvbw/Z3W4t1VocYXGMr/fXsecVFZXojcWTxO8boqiTaOQckE9O2O/b2qOe1vbHVp4ndLqJP9WCuCCRyR9PSkvEltbu1zFGwiTfCTgLweh9u/vmq6Gj2GwWzadeW0FzazS2ysdzqoYKT90EDPsK4d766k8SzWNrFIILiZkjQuNwH16V6fev5tvJFaSOQi/eGEG7g4zxzWLbWsFxajVPsKm9jlKPlAvlt+HHI9KUUlujNx0VixFpH2WDTrl5Cbi2TY8bMcNGf4eO+ec+1ai3sUkq24R23L5kLBcHvxz7k4qCNXvGWZS8cUWDyN4LdxjvgUv8AZUKhh5e8Nhd6MBgnpx271pLl+yaNK2hJYTS280/mFSiuNpZDkIQBgqMbjnPSotXkFhpjXEETnZ84wdoVSx6+manx58kcTQRPMkxSSVskH5d2QO2SP50l1am50ciaOMqpBnZRgowxgHn7vXkf1rPyJlqmjFMEt7Bbq0eLm4cTCQdMZzgj1xUl6j6hcpPDGw39cclcf0Jqwkyxs1xMJJlcFEji6hR95uO2MfrTHsr+KRIrJxGw+dwOAc/w04e5sOj7o0RfZ7WOB2+To3sc1qmCNrZVWRhu+UIy4HPrVKe0nW8MUio77Fc7D8uD3qVm33EkUh+YKADydpHfI7YFZypqW+xtUhdXQ2CwlsZ/sYwYZVIVyeBzyB7+9WY7hYormMjZMCseCnUHk856UomF5by2txgMFDxbV4OOc5rOtpSJLyUxHzVIKoRlfw9e3WnFGK2sXNOksor7F3MHtWj+V1zgH2qCeWG8nhSOErFE/wC83H260t5Ytdad5tuCsO3PyJyD/SqOl2qR2LXt/cSJFE2xcLks2MZ+lbt8qsU7EiSWzyO8bMwjGS7cYA7GkElpI0MCOCbh8kfpWRql2LWSOKCUPDcuQxT+7jo1EIe0uXnln/dxqMbVz83auWcb6mPNqzXvYbiJzCm+PypDhowNpp0F491CoAVgjElCPmHqfpVJ9UmTUo4PIVxcKGVu4PWrELTPdi7XYsuCQM4DADpUQg+duS0HSvzehatCGSWFkDYywBTAAbrzVyLbcQSFVIO04YjrwOlVzOlxZyXFkrIyEctg4B/yaasrNcLOEJaVCmAvBx1PHStY6aGq0Yy6tpRHs2qjQuMsWyAD3rFkhe61w20ZaSMEKXz97jk11GsSxCNZYVWQSYdz6nA4/SsO9u7J5Y7yNVtnlXcYkHocVzu85NIVSKk0iCHS3TVjBcPHFGELRgnqe1V/OdL2WJGjKhsvz046CiG9lbWJbmQiRYU4V+4PAxTdKhZpGnlibYD8xKnBOadFNaXNYwaTsWbm9/ezSW00yREAbDyp9ap2dpJd2d1LppaNEkGJUJBj55PHT61IkdxYWkLuVaLbwP72e9QWOozWUgaACDLsd45r0HUlUHzcyujfubo3NiLCeWRiy+XKyx/MBjO5T7YH1qgIbv7LcWtzfJcABEtbudDuwf8Aa6ZIA6+lbDvBeaabqO1V7xUMgjDD5VzxjqD15HH0rOtY2uHRA8kRPySwO28AYP0APORx3rNp3MWtSC6jxplyhSK1n3eZmPlHxzgHseM+nrWzaWSJKLiQCS58zezzMG3+mAOABz09qw7y2jgFyWZWTzNpUg5x2PHTnAz71oeGr4XWmNFPkR25IhwP4gPoc/SjpqiVvqal0iGZhIDJK+PK3LtIbn73145/nWRrVq8kiWDQiNjgxSH5izd13fSr9xHOlrJKZNzOoaSIruZV+uB9RWW1vPqUEcf2pJYXcNBKAQVqdmVJtWNG1kjkjDlzJPv8pcksQOcY5xk4/Krdhd2jRmASRb9nmfZ1IGwDgcgDc31rIsZES6mgDBWGFOVO1XBbJBzz1B/KtHTNLfTbi5uPtEB80jJKArtB6HutAttBlncyR3jbY8JGpzKFb5DnoQOp57VcgvI79GtYJy4j3BnKEJt5OST3JwKzNUv4be3vTFcNKJJFBYMVI6cZx/n8aqeH7eC9s5HKjO7aqNIQzMR1HUH8aAbtZF65lvntRbRR7pVO8uML+76DAyDnk9q1UjtZ7PzpJECONpkU78rt5ycj5s/X9KpuIIiZLqNze2p3w7RlWyMjP+R0ptkAL27mnJSJBviY4dDIw+b8iP1oYglIiEs1nK8cMUSLCz5AEnGRz3qv9vGnWKXU24TsQiH+8auXczzWKTSBd0f78B49qlhyD09cCqsd/KYxcCI7UO1i8YwWxx/XpUy8yZ9GjSvrwLYWs5jZS64LBT+79s9MVmm6RNytHHsLfMxUMQDxkGtmK0Fxb3EbRKJiT5qhwVXgZxzzWBJbfYUAFxGZDj92QSWU/hilBJbHRB6GlHKNiXEfLoQpVX3EjjOec55xjpUbT5nbMwSMkjyUQgngc57/AJ1R0+6VJ5YbnchwvkiJFIznjPf61q2u24vg8SqYwcyGRMbW6GnK9rxM76lW3F9FFPHb3LxxhTxtySueeKZNqdutxYWNxaEWM3yo8iYZs8ZHpz/OtW6nxFPPE+xIjtAfHI9ePxrkvEX+l3iJPJlslFZBtAXHGBW0k3Zg1dXRa1XT7e2tpbMxZuwN6u4/hHcfjWdBfqDFG0Yb59vynO714re/s+8u9NgDWrBli8sA4Pnptznrkcjn6iuUCQ29ysCQvb3YO0jdk8+maxkkmYTk4vmOijt45WjeFcGE4LkdTnqKrpbGLU3EiyLNBIDGrNxzzwPpVgTG3jUpuKL8hAHI9c0yCaC6mFzFOfPUfxAkGnZNXW5qrNWNLC2jNJblY/MJR4s5yM8g/wD1qZII45ISvAywIB5Ixx9TVG6Z5LmGSMKxjfJc8cN/SnQ3KyAqV/eRhhuJyRkdf0qdrjvqTyX0Oo3VnYAbfJyGzxuGO9ZuoTx278xRTWyKEROCfrmtrThH54jdUmk8ndK2OOnSsLV7mM7CqJHG77jEoHH9e9Z8id79Sormlqc3fzukclxhsKvPHUHpzXcaQi/8ItEF+YyruyeeCe1cV4kjZIoY1RmZ4s4j42+mfXjFdpo0H/FJWEO9VmSAbRyefStNkdTf5FT7Ut/pRj2h2gLYwuPpmsaKe2FoJLrf5YYM5jHKDPIH4VuW8X9mBJImLvI5DKQOV9TSa9pyf2Nc3mnJHDKRueNRkH/dGK2b1ucqlbVFUQDR5nbyPtETRlkdSXWSPIOWwRtOCOOhrQTd5f2m3kUxMVHmIyuA3IGTjPfGfzqv4XuZ59HY6hcxpbOp2fvQknow57VbsLURXjoZWl3AsiO4wYzjg46/40STW5N2x+qQDcytMHG0MyBMYBPAyR7dhXP6feCz1YoVdrchmA3jG77pI9xn9a04I5ZLmGKWDzGmuCkdumWaNR3YcnH1+vasq6xossoikSW2kYkSDkA9sZ684GanmfUmTZ1U+pRRkTbvKWRPKZ2j3ZPGCASOOxPNVSxhVBGw8v8AijVciM5zlarLIpDW4uBkgb5Gk/dv6joTnOeRVVJpY3Y4zHIAUAbk9iPUkdKNy42ZLqDQTXG62clQ+8yRjjpg8HuOla1peXJ06eIxosaBgyhQST/e+vvmsTzE8rKW0nl7gSyA53HsPTH9K0NCH2N2kvZFwGyqyZw+TkYwRnk+9LcW7M65e4+ywR/Zo3g80MOAzuwHt1+la9kIprCadrdmG9mIYBSrDPHB6DI5plxdzpqsweJ5IyFYqo3GP1244BxnnrV21S3uS8KW6xP95SBuJHvgE980m76Ck9bMnvHPnWkkcB8lkbcyjIbjOPrgVlagdRFtLdYECTSBLdIyCxAJB3ED3P51cGqTWuofY5BAzKCRI5C7MAnvjrx+VYGqec2oWdsskltdENIV8z5dx5Uge/tQgZ0hSA28QggkMLoBOzSHGP7q+nSo5dkVtEZZVhEjY+b5wB0J9qZplibfSPJaWdC6YKIAy9sk56k81HNBFfny4nEEzH5YSC3CjOcjj1pMXS7NSKwg+yrHY3jKk2JDkAb8Hv6ZzVHVdHjv0MUXleYr/u9hOSe4z7Vc0u3liuFVTIpWPd8+V4HHftz2qK6nglxNFcrEsEnmK8R78hiSPUmpvsFzl9Pk1L7U1tCzFkGcBcsAAQSD2rStb6T7RI4LZYBiAvDP6kfpS6nMsm82TSRaiIvJO5dvmDP6Hr1q1oFvFFPK8PmzRxAhkk6kjrn0zjitE5dOhMW07LoWPPubOL7VKsd1HIvlRwK23AycsBjkZz1rHvyl7NHJhsmMrtI5Rh0wa0kfTEdvtEbwtIoOQciEsTjGeT7/AFrnp5GtdQhd5CFMhC4OAcnjOfatoz5bp9TohLl3O0itTcrEsluoSZCPOUlTGVUZz04PFZN3o6SeIPtdvFHtgwoxkBiO/PetaKaG5nYb7iSeBdiSO/ykA4GCMZyepqUT/ZUkUuVuJzl0K48sYx8uevIPPvWcVFy97YyUU37xzeprNYXqpL8yyFgZBwM56H1+tZETi2eVsFPMlEca9Scg5xWzrtvc31/HHNI8Mm7cP7u3sRWY0qWM8a3biRixVG296mooKbUNgnGzfLsWRn7OkjfK7ZQkjrjoD+dNuYoX05zDhJCRHvXqeO4qrNes8gMiyWyEbCNoIP8AnBqb7I0MbfY2ZpyS5U8rtI4X696TQIv2dyrWWI5lSeNtrHuyEY5NYerRILmGWCDd55+8p3ADPFWtOkfT1iN3D5rSOd6NxxjjPpU9/LDrLI6q1pFBGDGAc9Dk/Ws0rbF07XM3Vba4S8to44fMlZCEjTOSPfNdtGq6dY5ZY4jHEFGTwOP51ysk08k1ncRwgDztpkJ+ft2/u/41019NBdSLaPNG/lJ5jxLhlfvg1copq9zbn0sZ8Kw3sUcwRI7hlHmR7s8dAR+Qq7K0dnC8UkrbgB+7ByhHQ5Pb/wCtWNbQzm6nFpcCIucBW9xjj04rQkMs9o26N/tMQyZTypGeCPbFXfQ5U7q6ObudDbTzJciMPtk3W6Ou7OezCtOOa2hWwaVIzcxDYCTkA9x0I49DV97GV2t5/LYRmTJ+bIBA4x/nvVfUNNTUPNuIG2XGSyruw2fekmEE27Ilivra48+7tn86WM/vEUDBAOMlhzj2rFvpbrUENneRNtGPLnUYAB/h9AOn0xVGzuptJsLnY8lvdxNgyKoOVJB5z7+npWrHqX9qLGboQySEMDOFbCHHUgHk5PpRsKT1sQ6TD5dm32hW8vzMyNv3cDoR6E5x+FWrdZNOja1t9qRO26FZQXLse4xnB96lDfZAtt9mhuI51EhVSQOnXOeuSeKq22opPHGGj+eMf6O2wYY55U+xJPNJb3KirIktBHORCkMaGPHms0xPPoFqXVLUAWrwMs6IzHIb5cgZ/EfKfxqOSFra9gEkwjkfEjrEudjnkc+g6Y9q05IrC7026s42InQk7hGcA7skAc9s0Ja3EtWRaHqFxqH+lSLC8Ozyiwzk4AyOvPr+NaA+y2jRzR3IWVWETSDouQOCvIPqevWud0mzmiv7gxmExmUHYxwHA54HTkc4+lbl7DGWN3YWyrOrFpIZMYkXk7lB74H0zRIa1K2p2Cr/AK2N23kOctuRcD06jk+o6+1R28KXd0h2fZ7i2Rt67i8TKeSB37etSWtxHeWUseRtSHdGnO7ORnPp0PHvS6fqe+OMWsGCMqJZMhF47+tSIuXF00MBkLwBm2hkwzEBgOQOgxx61GyzzpBcKUkuYWJUqoXcmMnI4z/9eqT3cqXlx9pMTxsnylCHVgwypVh7jv0rV0vyLogLcI0/mBY1mywzjOAR1GBVXTGpLVDp7iSAhbtWVbsg+bG/3CQOAD9Krunl6Zdw2O24XecJtAYkdcf4U7UlvJiAzLv+beXXeq5PGPQjHGKpzTPZPHawyusPm7Wklj4JPfdnA60lZ7idjEhjjNmjvaLb30UW5JCGBkbIO3HrWtBbN9oMV7cNCH/eE2+SzHrznnGT+lS6l9m1m4ig06RHkikDblXduI4JLegzVPXZ2t7u5RywkVIzAQQQ/uDj2HGeKpMnRXsa96M6dKrBIc8vKzj5lB64xnB7Y9KyRoMmo3VtIF32sCh/mbHmjPIGQOMVZimbU9KkaWKBYlKAtKSWxkZC+gFXonMu/wAq9+y2o4CphioBGM+3Tp60rlSaloWLuSa24trMWtukeIZiu1e2R054B61W+wtcapa3ClZzOuJQmdjAD36HAqzCkuqIby2AMXy+YjqTyOPkGeQOnOKalqklvMuoF7eYKNrRYAGSR6nGehFNBfsRKp1GeUfIkqB1hWPggA8D865MxyzzC3vIzFIsgBJGSDXWaa5gjnOJIGjYlW2Zyi+g6moroW1220kQTs2VlI4Zj2IPNQxyfQ5c3kUt1LZTo2wsTG+NwfAwKvIPKeV3dmjYfeX0Hbn3NVJYm02K4miDXDKPNKyLgod3LLTLC4nv9ODQKWMhAbceeDn/AD9Kq+hMZXdjZ8q7KmCUAu+Bwc5GPfuKs3jGGMQqoSNIDECeT2yfzp9vOLcwGaaI9FJ3cscdQO1VNSvf30kqIZiSfMXBwBjgihS0NYy1sQTRLZO11cvvuWASNZJQo2jsD1zin3txLDbW98LZLdZztYCT5whHGcVmeF7ePWdc1F9S2XLRxp5ZlOTH16Dp/wDqqTWdQaWCW1uIlSWNuqvkY7cVEn7yNYrlvdmJFNeWs2NScKUkLPCerYrr7CQmOSZpDPbPHmCBSAHyc4JPTFV9VtoPEFzFmKVGOFdwMEA84z70/TLe30y3XyXugnKAFsrnoSc/0rWfKpaPQ5FDklo9C7FefbYrfCFmaRsoQQTtwCV9QKoXWqPaSPMbcshYKWQHC9env161NBdpBcpq1sPKDL5LlIx8rHBUc8fU+lV/Fd6Lnw6/l7554cMZUUIuCcHp1pLctprVGTLNKtwGvoRFDLmKSQRbiRjI/H6etRy6PPp87zxykWkpAZ0QhkGe49vriq9ur61pTIk8sM0IBWMjKuwHUd84NatsLm68PKUSWSV5B5jOUCcDBABGe/t0ptEbrUZpV4s0YtmbzPmAVWfkHPQfgDx71toA0BtykCQqC4iZOWUdv5flXGxwNZ3ltqNvHIohkyWYcY6dvyrbv737dvSSIRyAMyxo2CWOSo9OM9/Woa6kt2WpFa3kFyF8uyi2BtqgO4Z2PPJJ4HOeMdKvSG3S5S1y6wzriJ15AfnIPGcGo7TR/J0lZ2mLO7BJFjQqN3XBI4z9f61FqtxMrvarMn2ZGVlygzGy9s9h1pqzYQL9tBb2lxLCdyxIR5W9dxDlF9ew5q5b6iLac2s9xIzKoZJSd4dAR8uD2x6dDWDFOxSSUSTR25lAaNsNIOFLNgduc1oQBYbZLWKAPOsxaItKpxHt3DBzgEg+vrSaG3bYZq15bWVobp9zPJIqOinZtB5P49amt7yKCyyrK8DN5nnTZMW8ADaw7kYqhq0RnIlu9PnUqA0ke7IkUHjB7cEdvSp7G2gsovMeOS4WQmRLVpCNuBkDA6sef0qW0ProWLLTbOeISjUgkN0TKPKt/LLle6r2Uc9K17PRYI4SzvL5mI2DAqMYzyMd65GK7n1K4juZLZbVrWQptOQwAGNij0Ix2rooriTf8sk1yZEEZjUYMIHB5PygEge+K0t0GuxYutVlhlWRXVl83yt/BPYEgDqOKptcTtpr2lxukM7uyjtng/KScg9aiivYVlt5oIoGe2flomwyY4IJPUcVegluZdT8+aXEKjdlgGxkZ9wKHHuJa7sdpmnx2kcFxBsVFBYBgAWOMEHHbmse8Vbi4u4ZZGSVcC3VjlCTz97qR6fWt1EN9tgtEklh27WbAXdnnGT9D6Vwt99psfFcKLHKnksrFC4BwOfp6VNlfQmdktDStEubTSysy72dV2mOTPJPRh9O1dVpdmdjpKExKnCSYQLkc5UnJqhf3Mtzb2k9tbiCN/3sIbDcA5yccGr15fnToNtxdxSXLtnzZEyqN2Bz26dKSCLsrEOq2sFpJB5cnlwiREkhjkOOeAcfnVjxDOUtIWj+dJZvLfzBjAyOfoCP51j3MclrYwm5dwjqgmLoN0boeAAOQD6/StKO7l1K1kdLSXyERJi6FfvBvQ9RgAe340x3uCusGqT27EKPKQi4MpC7fUH3x0rn9WV4pFuoCzwnDSrnOGHfnoK6mZi+ltcQ28rQGDDwu4BP0PfBz061zzaXcSw/Ybgh/McOVz8wJ5AJ7Ae9KQSVzPe9mSQwr5Zknjzkj+D29etU47hNM1GIs5WFQxOB06ckVsXOn3drqts0cSieCHy3Rl3cZPemabDFPdTQyoglXDuuMg+n61Ck07MG+Vlie3smVZnbBC5i56k9D68Vk6vfzadGblLktKCu9QAQ3atyIQ3NqzynbDuLtsckkDAAz7E1g6jZwFnEfEshU4Azt6g9fwpyatY2pxcnoN8O61arqMuozQfZyyKjxjJVsdDgd+ata4ba+uY5bfyyrr82GwWx6DHFWfDcFuFvpI4/mtwYWDgHc3XIP5VjtrImaT7QkcTxHEaBNxIzg5I5FJfFp0Ccvc5l3Opt4VguPNhkzDK5G+UF93ONpxyD7+lMnup7nVRb2y5nXCgAcFgSSe3B5/CppxNbTfa4YVYBfmDnIj44OFIA9abbX0NvYiaFLeRz+7fPBiDsc4JGOT/OtdwaHXE90GlkuCLp3GxhbnKBgeDsIGeMiqsVnbyO889wYLSaLEm4AZPP3Rnk4P8AKp5XBgIkDWySMXl8r5vM9CCcY7fr61FNGdPLQ3UbiK54TgYUdc455IwOMdOlNaA9EYupWkOjXwkDSwNI3yERhVYdsjqp74q1YacbqFooJPNneQyCePAXp905x/8AWratxBqHh8xXCpcOyu0DBsuXGQCR3GeM+1ZFpYXGnyxyecIY5IcXMTAlGkOQGAPr60vUwdk/IgvrmO2sY1WFVmABb5RtGRkgjOOoWstpTcbBLgWXMrOGJLEKO3bsPwrp5dPtr6BZmt2ty6FRmUYZlOMbeuOO9Y5a2EardxGI2am3lRx/rH3FgB+H+eah6KxM42SRCdW1SC3URpL9m2N5Z2hdwPByO/bGaRYri80SK/KuiFyvlnG1iD/nr61DLcuIZi0LRs4BEhz8uD/nitW3t98AUJutSo/eKRzkcj3Ge/bim2kD5U7XILexZr2dZzDF5q4QFiF3jkc+mCB+FT2NvJceX5E2xkLI5HRTwDg45NMiKTai9vc+Ysbgjesm4qCuevQYIHan29qdFlEcoaSJm3xzSfKzf7WPrQ3pcEr6pix6jeO97ZG0C24jDBDk/dOCcnnk5q95Zt4W/fzrMV3ykFWUZ7A9R14rLR5xq+LmB1Xyy8UhXG45zkHvj/Gob3UoIZRL5bOgiMYVX5Jzke/X+dK92Cqa2ZNZmZfO+2oxnWQbSAC5YjPXndg9Mn0rX+xSW95DLHexhryQFoZVww4IGQDjGCKy9H1W1ktI99y0R35OF5THb1Gfm5zUN1NHc6zPMIWE826SFwSflwMcDtxwapytoEprl7m9Kz3Vk1u5jFwFI/dgAAgjIz+f5Cqp1q30+zlEStc3EcO2GQnO3uflrKFpcT6bHevIscgXamDzJnA6fhVS33yOVmwREgDOoxznHT16Upaq4NNO/c1tEvr65sgLBpEnLDzYmPDHox+mB2HGauXxXULQyKkcV2GKMpiPIwfT04GeM1k6NdCS4kclg+1lV3TcFPfI756VpxTSWN88cd0BFGrRyiNyRywyMd/w9aPQSbcRssEdhJZ27DzVMDbVViAh4z39RT7ywfWNCS1t0nS+i2tK0vAPqSe2MVPY30V1fyOtvGZd/kxM/CgY9fpz1rRklYvJa2rA3BwZLl33A9wB6gZIP+TSV+o1a2pmx2jNp5tb6ZJYkQyb4pdxGFOVz+Rqzp92r6VbNc3UL7ZQxtxFgOQNqqSOeQM9DzUOp2MdpZyvbtGDIWbZuAXHIJUDv7c1HquntFBCyxCG13ozLkSPHn/loQOfwqosqKsaFvFdX8QMlxFbW8u2W3hkfduI5KgDtz0rMlkkis5be1jVAZAbgkndyPu/nVyS/tdN0i3023RZrss+W8vaxbeSCM8g9sVZ0yzk1LUI5UhSCHcZUjZSRIc9CT+eelNrsJlbVYjYxCGBfKnubQKS7liHyQM8ZyeaowRgqspcqXjEe5SRz3Pr2rR8RIqxtN5UVvuO3Jfd0OenY8/yrHaZ/LeGNiztyGA67v6EVF1q2W+VEN6y2kH2SJ5PK278I3UZyfwzWUYpL2RIo1kMki4znofUVpXOmzWsiSzxKzTZXAfJx6U0pczRxXpzb3MTbUMCdACBjB61ipNnRSlaL8iLw1qf9lteW95A6Sr8+GBG9hx+vFNvdIX7Y+qGFba5nYv5UuNhU+mK6C8FzrV6Le+maRoWySIwnQd+KqXTWlxH9lmma5libIR2C7PQE+lW1LfYyqqy38y5puqQ39q1rDdZvgp8x5Yl6E5b9aZDHHZyhJwkQOC0zLwhXBBABHX6VVjCecB5Jht1UxuE2sVOex9+D+FF5Yzx28wRlnhYblwp5Xux49B2/HGK2Su9B6mzcyR6hIsKA7mCuxxjc2PTAyOf/r1NaNb3NoguISrQgsJpZA2wj2PTknjpWLo+piWXy5JTIsbtthIIZeMjG0HjOau3nn2NoySxyLvXLeXGcZI9T65xj0oa6FaMmjivoFki0q8jjQS+X5qcednnP4ZxjPXPrTo0kj1MWs4ZxIrYSdMMD1wuOCPzq1Gxg0SONZ0s5Jt0iszZ2DGR27Y7Vm2XmW8yTXlyjmLc6Mpw+3BJI/2ueh74oM3oUbmG3sruWGa2MkzuwEvmMFReuDkdQcVRu9Pu3899m8Aokc2Qqk4Ck4/i4xz1qfUPtGqC6vLYyvaRKJROjjcpJ+YdcnqTVRfEL3EkVrLkqGX5jnBGDk/n7Ut0ZuWg+xtr+TSxZtcxJEUGzd0JGeq981g6dIsV00CHG3LSOvcK3OPwP6V0MkUVzAwKP5aOP3iHop44B+mayrWwtodSmV12Rs5VEY4IXHf8M1KaadzJNW2Luom0udMlRHUXwkaQoPvEYwST3H9c1bsdXM2m2izQLcHaPPNw7Fix4DAk8jpwP1qJrVZ761SCJVWNDHkAArz1Azz3qp9k+z/aUW9EsiyFBGF+dQT3HYfSriko6bG2i1iaWq2d0uXhmJXZ0dAEizyVB6YGe3pUNjaxjV4NOcQO8yEkMQAwAzjrgfdNLY7pvtGJlbyQXxIfkJ25A/RufUiqULz69N+8gjEscbEyrCRsTHU7RWcktmZtRuM8Q25e6jdUXy1ITAXDADI+Yjg44we4xSvqXk2k95bKkboGQKzHcwY4yMegxWbr+ot5xlEsTiREY+ScrgADB4HPrx61pWt8tzpUsFuF88/MWKZ7cADtyetOzWrMna46C/C3bmc3ckUQVoFUAfMepOB6d62TcqbcxQWMDRKu1uQDuxnr3P8AWqlzf29hpRAi8u5MyuY0UbduMY/M1Z021inN1DGQjRhXRnIwdw3EkZ570OpzLlRpzp6IhspyrPZR2TW6SDJnCkGNhjJPYjvVS4VoNkcch82STJKj756DJPYjrWzcRzCz86d2uLeVwkwB2BQMAjPU56dKr6ofJsp5WkEkBUFUGGKdQoye3Tp6VMZWsgTaiole1lXyWdQnnSlnERHC56D/AOvWhpN9HeajdWSCRLheRvVWJI7D0GM89qy44lOnxzgNAzAAxucEYJGTntjH51p6be2729ykVzsvHUpHgDBBHr2J6Uk9SIu7NHWdOd/NVDArRqZFjEu47ccn8SKyLHXG062MNzczyO8rNuU4weAM9yoAPFSzalFBfRPdRysm4x4PzeW2MAg8dKrajZ2sGofbyyS28qCQRxN93IPHv1FNvlV0abLmias+l2F/PZSwv++8x8oWBJUdXPHvW7PdW8ej7Jr2WBJHCAEbintx0HH5VyEMVxprpqaRERRKfMdQRsDew6k88d61ptVuNPha7jW3NkuYSY4wZY5DxuB53Ej+YrVaq6NU+o/UmunKteXAKFP9GCgMh6Ahh1zjHNcxqc6xaiwt5o2knXasIGDHj1+tXJ7OK506S7uZbgXIjSQZ3bCzM3ykAdQAPzqDQNKXV9Qle8jDXBQkMsh27fbjg4pNKz7kSdnc2X0SXW9OilWdIGh+YM3QEdahuIDp1jGLy6jlfduWWH5ldeevpVbXNUuBYixsZIFsl58iJtxTHG0/z71WfTxdT2nnu0SMm8Rt0bGB/WsFFRWmptBuaY2XVr671Kaz0+NzO2GBKgblAyw/SqekXS69rSgWYWNWDsQD25P51ranLIl9LDbWuWT7kkRKk8YxVlEisonX7O8UjoucgHAA7YrWnHnSky5wS1ZLrOnXC/ZprXfNaH5duVxsAzkkYz3xzWTbX1yjERTb41QqGJI3L3BP0rqHubWW7Yld6uuxmboRj+72yPTFcVq9nJpUSS+bC9nJI5VYiTkZGOvbpWi0eopJx3N2W4k3NLZgiAOE3LJjy1JyFyOoY5HfFNv7u4m3olx8iqgGDw569SMnmsuxmFtLEnzrBdrjynUBmXaedxHA54xWtBHassyWDzSLsBaSUAnd0OOP1qWK9+oWly+oiKwRgPszZkleLLNgEntx6cUahLPbPcItsssKlZEkQbgrMMEZPAbp1HapLjUJNIL2iQxpFI2+RkYq7A9i3Y55ouN0thAY0MkUUbSh5BwFPALdt2T7HIoT0E9jKutLe08Ko6zy2t2D5himHM+7nK4Ofu9Qf61zXkyRRRXzl1cybtzxjaWJ5H0611viGKW90u1mtMBZCZRliWbacYHoFOeMjr0rJvZvt2lIFDCVwTt3FgGGSOOxJyPxpXaOWekkiWO8kktJsJsV0CYVfvMMA98DAqOGG6lvY/JZZUlQMC54L/3c8jNZtijXtpdNOxWLzYzJJu5GTg8d8gGrD6TPbRQ3kHzQIFaPenDHn5gMcDIHSs5NRdmzNOzsaL3U1pOpBVDbkQmNurdeMn2OM/SqVjGkutssjlJZEZiDLy/zHls+nHX0q/pl1FqJuv7SiE0jE70jABXPcY54NV7+K0sJrW3h/el9/mM5x8obpn2x09q0vZWRvtG62Ibi4+wXsjAs8BZQyLhS5J6E8/L2+lbulFLa5ubmUbVUIWW2kUODnPAPGOOnpXH6kWWYESqySBXXZ0wTkD68c1sWVxPqM4tUjRXSIFufm475/Tmpdt2ZKVpXZlatA9xc3hubaRZZWJLtlQHJyTjpzWjo+nmGCJX8vN3tTzVc4Q9efz6fWrc8wm0ia1aYu5bcJiCSeMnHqfTPpVS11A3V5a3km5Y4tuVjTbuKkZx6HBzRfmj5BNpq5ry2qabcy2YnF1HHmYyOoHQgepyeRiqlrqF5BY3q3FoBD5iqW3Y3gZZSSecc0viiKXT7azmsWjaF48EowLHkkblJyDg/Sq6KLvTLWGaxElw2ZQC38HAPI79KlRjC8hTtGRMHe8ZpPt7GJ5N6yxyAqjHHysO3PFUrl3huxDNOpCuMqx3KwILHr3HH51JDawWjvG2mzPG4H7yJzuBb1B4AGe9QzQeXf2jROLmyLbzLty+GIXawHoR6d6alcWu7Olgm0+/0aON4nS687zDKOqgHPT6gU60XSEmkgaNWimBd7iZCCGyT8o/GqUunXlncqsy+XG2JcBsFvfPfg9PQU7TIftQkzJHDhVKHd6n36DHJ+lc0ZxitClfqjdMIkQ2GGNpJGPL3rtCP94Y469Af51lvqUFoJBMivCMKIFXaSRwCDjsKjgvT5UkLmMCR8xTbdzcHI+oOD+tO1h57S5CqYpd8QRvKUBVbqR7Hmui6dpF305iK5uC9ukTu9vazsJmeQ7QVUHABP8Rx7jNR6dqVpeaw+g2UTrY3XKuF/eSEc7s9iMcYHpVDVpHnj8m6mDiNEEY5ICgng9ge/wCNS6JYmHUVvFQeSiFyI88d8DHIB45rVWshxknZdTevjdDTo9IhuC/mIqkzMCwAyQScDHy/yqazsjYWTSySpdzwFS4iPyvGQMYI5/Puays/adUH2JJ1YSgQwMNztxyBnIOMnr0qWN0tEk02W2/fTtt2A8phjkZ6Z4zSbKlJLQ4rUILc6/ImnCSCOScKiZP7tSeAc8k11f29hfxxJ+9toHSMTPH8/HXBq3qWiwXF6l6Jo1eJd1yUH3WA9e54qrDdwzQg2KPJMyDJkGAOefYmphVfK0aU5WWm7NZLXyLi8vJcs7EmJXbhQT8vvWXBcAzXbTRZcgqXVuQR3Pp602K0uLy0upXcwmIkgPISPlPQVbWOWygvDJEg80YMpxycenrU8zUdNCnUvbUV2K7I9jHH32BwTg8ZqVrmHULZklkWJeVCtDzyMYGDjqM9B9aLt7RbeSV0kWSRl2IDwD3Pr2NZs8IVHaUlEHzqE53Me3+fWqcn1CU/duzNvbIqsgaWby4m8tGMWTkc8Y6En9KuwytaNBfWk/mwg+VISm1i3QFh3H5danS+nkh8tofLiOSB0LL0GfpWVPPE6C3jeOLchz5rcr7Z9SelNNPRGLsbNzqRvBci48prhMKrkgrsKjHI4yOaboV1FaB3WMLJu2SO6mRMcAfL9e9WNBa1upERcxb7f99uVS4dfkHykdOOnPrVK70DULC8M0ZVbQuAJI8/u2B5BU0O6dym5aM19Q0bzorT7LHCJC6rKYpGaEqQefQMegGc1zerXE2q39vaWltH5kagZjUjeueOOO3Hp710VhqE95ZyRSwlbUKIFKsASSck7W6krx+PvVaa2W11+X7TbyJDNC0EJLBWwCOWAzjn1xTsTJJrTqcpp8e+S4XMitBPtIddwyB044Jz71a06Eys8Iu/lDfLCfl3euB24yamvZkGnnTNKnPlDbDKo4Ejk/Mx/Hoe2DVbSEmZmk3NJhise3ggdCQfpUVI3VznkknoXIbOXSJyY4cxs/7mQJlnx6/hn86rXotb6eG8mdoirESrKTtJJwSB296mv9WmtdQMscQlQK3LZB2/xKe3WsrV33xi4Bk+xl0cpuOAQQSAemcVnTUm9Rxd3YdMJUaT7NChkEJkB2kmMEj5vbt+FW9LW4TUrOO2R5JHTeyJ944zwc9upqxDdafFqcMljbSNHNbyeYGkDFsIcg5xgd+/SksYJrfMmmiR5Am5pVbDIvGcepzxj2pTlyuzE1rYgu45LC6adFaUgsVAU/uieO3TFItixhtmckxCQP5RG0du/vxWprKmWO1vzchp2PlS55MjZP3gBweMfhmorDUnOoRpGqHy4w21kyCRjGR7Z/lVO6aSKstjpNXtlv8ATJhqfnJCkauyOwyz44I9TwQB+tc1ZXMt/wDZ7KwYxmNSiFV52Z/iz6ZxW7c3P2+1a5ktrieRiT+9jyiHAyQwwcjk88VzmmlINSdWQLNJKYPM6CRc/eHpwB9aqSTdmXUtdM0oI767juYUlX7QWCEEkMVBweO/X8qreFJ4tI1S7aVoJLNj5bq5yUOCdy++cio7tlFyLtLx45EDDBG4kEc9AO3es+3tbeWJbogpE5K5jQjcSep61EZcuxk5p7HSpqcF/d+Z+9UCXKMWwR6Ej0xn86y7hJHu5LZ4EaNSFV4ztG0dSB6471HdQTxrFcRRhbfbgyAE7QDjdgY9vyrT0q6fzZUnKA5wsRUdc9sfpWUla8kN3tZkeqXNtZwRR2iPvZ1jZXIIXPuOajvXnKiC6DGFw20oMAk+478H9aPEcKWc6xu7Rgz+ZhTkHggEHHTPanicKx3y+dBLH5oGAvOB8w9CPpVxdkmTqtjAu4Fmt/Ig8xYWdpBukyRt4PX6VvaJNDDpEcFtEZZpExMXUbVwcrgnHXp+NYxudpLF9sAy6ouO78LnHGetdLp8NtcaXdRqpspJ2H7tTyVwMj2Oa6E29DSEtbEVm7XF7FL9oNvcRoFiMICnrz/n3qfWtSkS8iVSl0V+Z2VdxYHp1xg8mrATSNEkSJUM0q4EkshOeeMA/gawLgs9/dpFIgSPKDdndk8/oCKJdkOct77l+zvrS/V7uFDEQ3lyPGuFY45yM4K9smliurO73xoGtkjyEuocBSQcEcfXvWfDptxdaetuip/Z9p8h3grubuzY/E4q4jaT9khs3u0S3BJkSIhXfP16DPpzWMopMiDjsy1LcSWga11BTI2Q8csa4WVffHf271kSate6ncy74FV4ULRRHouTt3H1PIq7qE1qbKA2UheWCVRgsSWBzjnNayWjTSTTFPKj8sQodmAeck+vJHWlB72N6Vk7FW7dZxOkhMUkbrJEGTAkGeo4xjgk1BNb3ElnDbRvl2+8WPPsadbLPdR/bBcO8yAb2JGc9Rj1z1/OoFiMhklSXamBChJ4HPGfx/nWll1EnrZjpLe6eznWA+c0cZD4BLMPVe2OKhs47HYiXG6P59yvFGCC3Qbq2xJNpUdnDBcp8kTs5VgQ3qT7jnFRyx2k0txIy5mI+QqMA5XPAHuKW2iKkkonP3NuNOv3uI7hJvNVwSr7cNjjnrjBx71etNTimjieCOVWCtHIzScPwB19awZ7SS8vUtty+cVU4YEEN6H6f1ro7/R5orJLe1SKcxFWmSNhuRwAW5I5HToap3a1M05Si7FeayuFvbKcWJuII1CpbROSSBnbzgY/zzTptPttUKXWoG7sgivHNAxLuj9VznJIO78hU+jarqY1eKwuMwxHCBlO5cYIUMF69ak1K+u4opI7u0jlmLDZMUCEIWwAT1DdCOMgZ6VUdFYdPbU4xmtrS3gCytuZz5qHG0gg9PzAHNOiu90QiiGHZ8fMc5X2J79K6HVWSTT4tPeC2X7DGpSRX38OpDfMB7scdjisqXQrrSNTKie0l2IWQKCwD91z2ODn8qUmvuMnEszGSPRvnbz98g2FlxnJ5Xjt8p5rn9QN4NPngmV9koEnzDgYz0/lmteWE3CLdxLIW3LJ5ayApj3BwRn2qbVoJ30mGNljzYoVV43J37wTwOwyOlZQqWduoo6M56DzWgllAzlBIcjtgnYPqOtWhrNwbOYWnkWySYTHWQg5JbP0rOtIwlgImuWQupLp0C4B5J9x/OrNpp91qksaxNAMRlUkdyF+UdCT29K3lGLeodbI7Dw9qE8mmPE5S+vAwhS0aDIVEAbcGI6jpWEkdrb+I5k16WSyjlHmKkY3ZJIwPYdTz6VZ0+31+G2W1vNbh023ghLAMP8AWB2Pcdcn19q27c2sMN2rpa3HmurOWiU7jgAqD6Dhh7ZpSajq9TTS3vCxperfXGm2sE13bJEW2Rv+7wcfNyc+1V9Y025t9SleDzVRXARIFwIwBxxzyPWp9aufIbz3uYwSweKWE8PnqrH046e1ROE0y0bUBqFzuuyGt/L5RvUYPcZrNptJoJrTQraZZzCK9ubkxmF0PlmXrJJg4AHrUWnxWcyiNV2vHjCkkAEfQ89KZ9tY280Mtw864DfK/CsWB3dOSBxTdQcafGmoSKWg/hES52n61LehimrGmLZX0edlchCDujlyduTzgH17msnS5vsV8g8ie4jiORJCwB3dcfN1HOPpUs1++rW0bNaSea65gSbIyPrn6cVo3uxbG0ukEC27q0bCTPl71PIB/A+tRGTjfmRWrV+xPeavaJYgwwNNHO586C5UFo+uQCOg6kYrLvrzT4rQuIh5MilY84LAegI6jPen3jxXUNukcUbNGC5USjcMKT8p6sOuM1TutI3Wdu8zuiTviEykAIQSWyPpVqcWrMV29ylFLcRWDcO9uuMhQMKV4XP0wTir0hWPTElmvQ92Pn8kHIJHPUdTUR1KxjtXiixbyyOwSRTnKkg8D061zt017K27zPKjUCME8Ej/ACOtbRi2+yFsdPodmuryRWs91IhkOVKjk8Z7/TFaOlWUjnULmWY/O5iiklUcnorH14xWdf6hNHZwAbY5reLeXUYJxnaf5cVo6bcXl/a2qrEIoF/vchgB1Ptk1nKTtccZLtqPiiupmbT4rshkZlYr918jrjp7UWkKppj2926KxwshfBBxwHHfHGKuyzxwELOVkEiqkzRkhVG47SD29x71FdXcCRRWiGMANuMiAHapyMZ7/TvSUnbUpJLUrTxaba2iObhD15UE4YA4XPate3mim0sSvmNIlQInmHBAPHB7Hg/rVSA8uFj3pKvzFl9+uD+FZtzfGa8jhHmWwjlCJE42hQCTnA7HjH1ohF1U0joprn26FzQJVuYBbGRppVkZJWUYzwMHB9v1qGacRwKuxpCMlj2GO35Csx2FrLLLDP8APIwSQBCOT0+nfmtSUPL5ylsJcMXYHsemV/D+dVOK5rmb3TRLf210V/tCaykt2lVFcleGY4GSO2cj86nVYrqECVpkMG0FdnykDr82cZ9OOmal0bUrrUr+aN4XlSRyjIsmQWC9Tu4xx+lNvZL21uWjmLv5ZEhhdAFaMZGfm/AeuDTS1Nbr5M5SZI31ARIoJLlt4fHy57n1rovDAFnLqUUD7y6EvLMGKxdieOW5PHHeqFxa2Mj3DwXHkCQYCKu8ckkKefxqvo1wtpeLCt+8Elw4jYqh37W646jp7Hr7URd9DFStPQv2WmyjU1FnD5tykgkYzjasSk43MCevtWvq13cWM9x51jZvY52GVW3AjoeT/PsSeaZPJLdK0dnH5k8jNmW7fbIxXON3AB4II4qis0+p/ZoXhjtLglYHDBiZlLfMeRj1ycjrTS0sUla6K1vcrObxblBJG7JHalMDk5xuI46ACr2uFbXTLlxLuNw5KqBkIduGbPpxj8RVXX7eHTZ47ayV0tjJgspBQN64zkemaoG5t2upoZlZliZVR4WOyNDyeD14+lTNaEVFYztDv7mytnbzQkCMpZSo3HPHy5rPluEnia4W5xIXIMJJTevqO3f1rrNcsra3sYYYlhJfbE2xCWQZznpycVzErm1FpIjq8CRmNeNpBIJbg/WlF80r2sZu6ZXtQpgaUCOdo4uVyV46Hj+I+vNSwzGDzY3coXbGNv3Tgdu1W4PsIVZLPcqBmJEhBZT27DnAqO2s5LqCRThJWG9nl48wDsPfkVXMru42k5eRqTzSyrFdSFmMMas4RgcLnG4fTHT0qxZkzuYoFWG1LfNO8ZZQcHHA5wOn5Vz9lO+mz20cW0l8uScgvngL6fhV+C4Sy0+ZreOeATklADkbeRznnOaGuqI5tbmzLp8yWy2Mj2otblABcSvjlcnfz054x71S8QRXarplus0cuwgM9uuAFPA3HoelXHSbWfC3mKI8QwnCSNlg3UYPrjJ7UywvJoTPczWy3BtIyJIcHae2CBwDRdpOxstrdypAMWFzEZRGI4yGj24LbSM4/L860fD9q/8AZt35kHmuu6SJXc8EA9B+f6VWvb+S5sJ4bq1W1d0PkgDOR6A/57VJGmt21zZXapE6upVQc4GRgE/mfyrByfKYW1JNOtW1OImZ2iueNizLlfT5CDx+lauuRvP4QksXtvJmt2LrHw284wSv1BPHrWJcX2sf2omm21ylrGVCNJHEuT26kZyTnp2q20lrZ6g9jaXMl9E+UkluAAUYdc8DpWfLU+NvQ2ldWMDXIY0vYJ4LcxxBFkxu5cBduPzHNQw+INjW/wBqtTLFGgC278gjOR789/pXS6rt2IPJj8iEHHORg8dPUZrlJFtzNcXDTOsKjCEJvLADGBnvn8q2pTUkZFe8EV4hFpCIMsWWRk2qAT90ZPQf0pY1v9Q09mmgKmKIyLI54ZRgHnuc84qzZTveNb2l2rxQSDyht6rlgd2O3OAfzqxI91osdxpl4hMYRiuTgDJHAPcYHtWzcoqyQPR6kMd/Lb26X1zh7jPyIVBVkIGc+n4etLpviCaGeGePfAyONuwkq/I4I+hqtdR3Ul1cIsYlXIWEzSElRg5C444DDP0FUdLhusSYRWOdqSOCTn0UdsYquWLV2I6x9StLnUZyskyxTrvlILKEI6Y/GqLQXdvfRTW1+JbaQ48wLuI46Gl0nTp7K7EiXALHKSBl655IPP6VuyO0Nj9m+zBtiqY9i88cbSe/Wsm1HRBe4ulNqighT9oKKwxjbhc54PNW7qLYsUtzE2J3REZvlK8gbc4wTyaz7N5LO4W4D+ZcMNjhD8p57jpx0rZvl1u/smmMSCEoZRuKsEA5DBfXNdFCEZKSO3B+8pJvU5e4AVXubaLfGoO12fJY/px1FaMF1DNpkF85Iknf5z1wVO0j26Vi2lxdPMYztjSPClSuNwzzx+IrVci0lClRcNPHlY8FjHL6gZ46Vm4q5k0r6Fv7bai3lMSIFEIzjAJ5xj3rTe2lvdOtpZLbyR8/lxjJJzjovUDAOCeuaxYm0+3MlxPb3EsJBMYRflJznJ7kDFaFt52o3jXAE7vsVw5U7VJOeeg4HFTK3XqNefU5yxkhgvZJLhY2k3fu4ihJJyBkAe3fFPvb2c3y3djOkDqflZUGcY7HGR+dWtY03y7qW+sbuO7KbxIyLtKttwAPUc1z0dxctJLJZwCV8BChiLeWB0+vSqSW5nLzO2s9OvIoLfUdUu7SeKGIyKsj4Zgw4DHrz0GfatS7e6Ns1/rpQRRAPCsLBmhHB6dwSRkZ7VyEOryWUq/aYpA8iDMbRjaykcZGcYz/ACqxJqlxcW832q93FF8t1Kjc4K4YfT7v55oVzWE1sNbVbe00WWwkVJ/tBzu3ZDHPDBsZ/A1HpVvaSbr2SYpaxrIixtwwAXndgDnpjr9aZ4s0n7FqNjeOFWCVCqeS4wMbQM4HXkU02cf2e5W/jkgSfLQyICFYgYOemTgk596mVorUiT6Mh1LUX1V3SyjMsZXIkA2lm45K+2MfrUVnpFxexXJWF4J41V42UDqPcdeh+lWbTQsESCZZhyUVQRgk4zkc88CtO11aKyS4t5CY1VwpyuDkqO/5Vzyl/IZORzdzbx6brUO24lkmlkVvLTjkHhjnvn9KZf6vJqmorLKpYohV1Tu4yu7GOO3+NdHPbC5gtN7pHOrFkO8FmwxO0fryO+KxvFcVta3rW8MaGYrudtxLDpyfqc9aqnNNqMtWD1KrTNq8gm2JaR26/uFVshCMDLHHU84rprCJrjREuHt4mfaxcY2tweW+n6VwQvY4bBVjRmk84c5+RgM9cHPXFdh4lumso7S5t5IQjJseGGfLxZUBgcZB64PrVVKcnHlTsUo2V2AmtrbS3gglC3nmv5hKjlM5UnPf0FSQ+IItKultpreSR2ffMrPtWUEcD6c596z7G9t76zwWQXka7CCceah7Hjr1OSQOlMn05YLyOZ42McQYOxHyhhggZ/EVbVk0Dlpodmf7P1K7t7qSy86SRghjZwEJOP4fTGTnFcj4h16W21Rk04y7SQIS7ZxgYIA9PSt2y1a1mUzLLFm2id0QIFPHfOeewzXN6Ml5aXzXjQwTLCgklBXzCB1DY6/lWNNRjGzCTXLY6TRodUkt1vr23gNsfnEMiDdnjBz13Ek1YsdHsr20mdbwwm1meRQVGQAwOCD1PWoRqN/qirIsIhg3ZjO3/Wgduccn3qtASWuzaxNBu5kLON+4nGMD3NZqUm30DmuYF9qZZrg/a5Ht3TzJl2/ebJ5BJGfrVO4jV1iEAJtHOQFADn1Gc9s/rU2q6c5uFgiUwyyH7rHjaFz/AC/nVZLe7trmO1tcTyXMKllA9Rnb9a6YWsmmRK/U19OtI4JLeSRg6yysxhEhLrnOBu6nHFdN9l0/WEe1eR3ltEG1myGYqATg9646ye3ttdKTJIjBlVlcbSAR82M9D2+lbIupV1BZ9LtvMflHRlZhgnBIPrxW0pRaudnOpQv20M2TRL3UdeFrIkqRRlnecjbyf7uOPTFbdnoNvd38VlbF44rfPmSqx3Y7/iTTZtSvZ7MwWCpHLJnfPLw2BhQMdc11PhzSl0nSVjUfvHG9yeST9e9c/O7XfQ45xtKxwd9NaWepPotqhhl2MfMA3NuA4HqWNbcUCSQzwXH2mMvHsTzQVKcdfXOR0rFkSwt/ijdz6rk2pO7CkZU7Ac4PtmtgX8l1qcrefcG5ZfMjL8qQDj5exGMV2QpRnBNbs6qNKMo7a3Oeu7XWFk/4l0RlW12gLxuKnJyPXPOaffapqNpvZS8KRRRm7RAMqHYfKCe/WuvxPY2v215IZDNlwyEgMBnIx25/lTE0OTxB4Wu3kuA0mobGjkKbcKpyuR+f51jKcqTswqRlSd07PYX7DZX7wIqSRbVwzKcE5A/z+ArP8U2zpaxTwXDRywQ7kYKAQ2SQcj6UUU38SM9tUQ6aLm6sbe9Eix+TaCVVXODn1HrUWreIbvyZbuBVgYMsKxqcqOp3fXtRRWMleo0+jJbbZH4fl1DUL2RWuEaSeJ2YsuASozzj1p+g6k6WFxaui+X5nmNsABJxk8/jRRW09E15GslY6Gz8LpqTy3rXAitpFwkYjDN75z9KyvEGh3Ph8Wl5bXanzWKISh3AbfXJx/8AqooqaaXKmLlXJzdTm7u+lnis4kVUKSr5YySAVCgZznPc9K6nxnZXTm2iuLnzZVkbaoysagBRx36n1ooqpbERd0zMj1ErHIqB4JUXDNE3oQCBkdMgEVauLSO60GaYuWuYZkh5QBGUFV5Hqc8miis0lqJJWZnkx2dxaBw8qCfbHuYEqF6Y4464rI1NDea0l1dEAzqz7YxwFB4HbJ4OfrRRWVH4kxLYx8SrNeW+9IlVGJESDBwc49eo61o6Eqy6VeISdrusTZAYDPIIHqMHvRRXVWbULoufwoYsEVvqC2wUPkA73znIz6Hoa0deuLm72sblxG6h2j4xuGF/LpRRWUW2rvsYodb3MKWs0IhA82PyASAdvzZz/nrWfb30+hXTwod5kikjZgcH5sD9MZFFFTHWTTBPQ17HWLzzY7K4neaSQARjO1E4BHTrxWvb6lNZ3GpQyKnngqoeMcYByRznOaKKmcIpNpC21Rk3tvLqupqZLkkIgY/IF+ZhngDt8uKrWGvJpl0XgidnjIEbPjPPqevUCiimkmrCbZW+0S6vqcVqI4kuN5RpmJbdjpweg4rptZs4tE0aExBjNHKZAyttyzE4/IdKKK0klGyQzlNIJvNXiLs2EfKgnPTnBPevQ9N8X/bXltlstjICSxkyMD2xRRVTimgfQ5Oy01NevLjXr9z5cjbkiUZ2jt14yBXX2lpCbiPSLJEhnui1stxKvmFf3ZcnqOw6etFFOlrWUXsdGH3uT+ItBezuNLt7G4MdrLE8nlkn5SMZxnPXNXba9a40lEt1WJo5Fj5GRwRnj0NFFTmHxJnVW95K5//ZAP/iArBJQ0NfUFJPRklMRQABAQAAAqBsY21zBDAAAG1udHJSR0IgWFlaIAflAAIACgAJABMAN2Fjc3BBUFBMAAAAAAAAAAAAAAAAAAAAAAAAAAAAAAAAAAD21gABAAAAANMtbGNtcwAAAAAAAAAAAAAAAAAAAAAAAAAAAAAAAAAAAAAAAAAAAAAAAAAAAAAAAAAAAAAADWRlc2MAAAEgAAAAQGNwcnQAAAFgAAAANnd0cHQAAAGYAAAAFGNoYWQAAAGsAAAALHJYWVoAAAHYAAAAFGJYWVoAAAHsAAAAFGdYWVoAAAIAAAAAFHJUUkMAAAIUAAAAIGdUUkMAAAIUAAAAIGJUUkMAAAIUAAAAIGNocm0AAAI0AAAAJGRtbmQAAAJYAAAAJGRtZGQAAAJ8AAAAJG1sdWMAAAAAAAAAAQAAAAxlblVTAAAAJAAAABwARwBJAE0AUAAgAGIAdQBpAGwAdAAtAGkAbgAgAHMAUgBHAEJtbHVjAAAAAAAAAAEAAAAMZW5VUwAAABoAAAAcAFAAdQBiAGwAaQBjACAARABvAG0AYQBpAG4AAFhZWiAAAAAAAAD21gABAAAAANMtc2YzMgAAAAAAAQxCAAAF3v//8yUAAAeTAAD9kP//+6H///2iAAAD3AAAwG5YWVogAAAAAAAAb6AAADj1AAADkFhZWiAAAAAAAAAknwAAD4QAALbEWFlaIAAAAAAAAGKXAAC3hwAAGNlwYXJhAAAAAAADAAAAAmZmAADypwAADVkAABPQAAAKW2Nocm0AAAAAAAMAAAAAo9cAAFR8AABMzQAAmZoAACZnAAAPXG1sdWMAAAAAAAAAAQAAAAxlblVTAAAACAAAABwARwBJAE0AUG1sdWMAAAAAAAAAAQAAAAxlblVTAAAACAAAABwAcwBSAEcAQv/bAEMAAwICAwICAwMDAwQDAwQFCAUFBAQFCgcHBggMCgwMCwoLCw0OEhANDhEOCwsQFhARExQVFRUMDxcYFhQYEhQVFP/bAEMBAwQEBQQFCQUFCRQNCw0UFBQUFBQUFBQUFBQUFBQUFBQUFBQUFBQUFBQUFBQUFBQUFBQUFBQUFBQUFBQUFBQUFP/+ABRDcmVhdGVkIHdpdGggR0lNUAD/wgARCAHEAdYDAREAAhEBAxEB/8QAHAAAAwEBAQEBAQAAAAAAAAAABAUGAwcCAQAI/8QAGgEAAwEBAQEAAAAAAAAAAAAAAgMEAQAFBv/aAAwDAQACEAMQAAAB/mqZP3eu000IXYUdyw/NeLm6JM1K/wCi+ivHVYJj9h5vgcZAAdtstdUhGXwIfe6wnrYA2OoVp0l3B7tPAus8/RMGT9EPqxnKoLvzbaHyXfId0t7T6sd3vSHjrhYITz/yI9kpXHvRfKq0xwS+3nP44Rq99szzzlbEikbqhPmRv5ArvUY0pd9Yrh1Hz6Opx/Mqt9PouDwt2SVPnfcC+m9BqFeXLFGOim83nNYe+Y2u9d9tMhD4U9U8cgufPwgLYqyS2mOxjupfKN1NmA7zH2J8X6ykCg8+ijwZtK6Tz6fn2GfKXruYWzKKJAfzGcn9zy/DJbmC99I5bqv072XFjZnkngDMqo15rWTc/RjHFH9tpaVOoNfxB/zlCh+jFrn+tfsKG5XHbYTdf1qdU7nqhYCQ5AehbrANz3++0TPMgODp/U8rBN55bWgFC+rAoM+i+fQbGZKSUWEmpyvkZP3ziT50nyHILl1Hl0HfQF6J2B0jFr5Hnl/IEgpngvThsFVNo2SrJvjdqFW5OQKNM/f55WsaT3ZumXIjctbLueYYP6LOWj886Rqtw1jPW9OeK3OS0zXJelDBI9XTRj3N2+c4lnSlmbspO9wbSjaPK7FPv6LQY+cIp8tGaqTUqWbsiAqU7nqiAgxu91tJS98t2z+d+fQo9QRFrxe31UTjpPfgDI2yiJkrN9b1o5wbo1A6xZXtRxvF9CRop7Cd/oklFvPOlY12tX4RQz+cbPnLPzQo5NCrLoVfuDcXD3yfMbKVx0ifR7CguS7lbJ3O6/JtUaxN8fV6Uo3zqUV908y2b8smGZ6pl1pYlGP3log0yzYaAyrxpF7kQIto2sJqis1BUWN+eHvYahuKTPG6TdOX54LPSo9ibCDjIwN95pEoSMfa+nPvAZZNwolyiSp63P03s/TP4B8Kd8wTw1czPBvuz9A3SQ501UUdfo8OdcUMup0508xVKUCekT2Sb64avzPeB/QkdtdL3M0y/Mjsn2ctSjCp1FM/QAYJI2vaKalMIV3k0keyKSFufqZ8a352EnhTZG/l8VFyKedQ+nOhi2pDjyVtkM2uLPzzY0ZgjhixfRKhnIk3qnib7LSXWfz+/wCV8EThQdLH06QH57zvi4bUrHcYpfYLFmt09MQLcia4HB2pmdIP8r9uddnd1GOiYliQv09q1XmsDsiryb88m6Vvc3pb0iZTf5GnGTQfsQ/ASuliavHhMzSLh8hcHepCXeYPhrZv0x2o34lP3zpvPprfx+oZ9AzfzAH8zNIAVdwDuG9Qs6xFqt5v6HkzhhfeaFsD2mtkzW87TUkxzOW7Q0BjOhDwWRKF5OFHXWuaC+xHwB65m0Pl95Wvn2SuXtk0yVkxENxHNZ91dSm2jaMo6d383Q0ub79UFPPAfRm9RyxOWkwl4xDl5pies0P03mRKWxoGkn/egXQOpmb2beSoqPMkipZwT0t/YvCT0lR1V9JdPLSx+a8JwynEznTkcJZWbSQKuRzCY27JqbEl+epnMbPt1eYoKZLqcLlQPBdNGEZPPUscYxUqkqSHPesVZKtrusOU9HpvxucA337h4MaG1/nhLSrwyTPEPlOyFirzBR+1btSW0uEKAnpmZsAnZkXNY+iAlc8AIsIewWxqCoPrJF9VlvGFajJAxGJdahbZlYXL4SqCyz2Fjk1nC8w4lDPx0ypRS3oS9IlJwE9ZtvkgSGW4reZ0x5ap/BfUqKb6oC0sQlOldt57PXGF6zvfopbcU6DvTUl93rUsqqw/OQNAQdNGLJ2YGPLnmwGZ6qwxNbWRbzhXnYJmP9ixkv0F1BArlVdL54bLa17FrdivRtJHAeH7jBxllya71unC43pifvKsQ5IRuHVkE1nTlvM7lTGEcvM8Rrm57P1MCwq/W1Bl5BF6n7Hz8z9NpPbh6eNcGYU7aoGWrR4t2+pcA5eboiUFi/8APzNzfBqYEIeM1WxpB0orzPWCgKjX1bdX01WDz8fKtzdstc0xmOpfgJp0OBwLN5vkDTKKcqSR700Pk60qEnPo5gcFPjz3N6EDvZDP4VPgL2apk88SZvy0wPQ9nCZdD52bD55EBzFk1PTZswtDFQXVl/TKBHR2C89+ZH9bb9OJTK+gUYvpUftnYPMgmLcoFgWAEE+Euk9RNj/dvoENQkzy0zd6XlxoLU8Krks9oM4V+aAqYHMsWV7myeMXqpwBalYPIK/K/oOv3nGvXeTDiQlA03gMHuY751OD/wAdXo6DdtAlU7yHY1kiakixd3zByNplWJplbrd5CQVbcoJaOg0vmKB9WxzfblHMxf2+4QFKeDlOQr+VReXXhcUva8pkKB3lal6fk29IHTwznwxlv2kyr9zEakJQkaNtaMb7ztBmpxZElhakMarA2aSjtCE4AD4mQBPkvwKTSsSm0jaPy9aYX3YTJ06E2dfjnj8UthlpbpFv2SeRiA89Smudt5kg3pekyrqcectZZmWlT41T5G/QklfWoDjIlnTtFde+Vb7/AH57kHgSWa10QFOcuFahvjKLmrhwHEdJ2udPdg5cYOQxLnUZmoWl+x524PgiYO4l6wVDu8L4gQ/CVL1Eyt3r0aMZ5PaUMiCcfh3OoblzspM5VyGjKole7uuUe2EtBLo7NyAnj3XmbsdKcD5DJ2vzV1T1y/RISO9lT848fozVeeGE2jYHQVIiumZ4SoieiIVPV07vWF8HFJDOaNeK/wBjHe6rzhWE4X2OrVkCDN6AvfBEowky43xjvDaVjEVrd3nvkvtY4MLHCAqBglOa8Mxi/Ai0SuWVuGqHVYlFb5vMJC9PUM8z1vV+YG9ip2MUNnsoXD1LDY0TwxII20cY75apgsISnM2/QjArqbiNGpufEMIeekkmVNxDTtyZr1e4aUZqKrGE5uXKJwzRD7zUeCQyLythmWzp0kM4sZ2mCvACZWF+p30NgloemkUWRa5CtXVt9J5VUjiUyUvyfZoz1QWamhphZlXMMeo2mVbvWlrbYqFKT2+xcZunS9HXvPRwxaiO0Dgn9V1kKU5NWDoa/N8tq13HID5E3ZnP6cmrz+jHSDxFZ08a6sWYZyLA/KkY66mZTLhSC/ka5rJoeQ11N2HsuVJyPX35c9N2SqJRgnpW3+aC1ykgOGwFq0Ntdqo2Jh8HoI7S+PmTi7QgGI5+sgjVGMdwduUU8TpZrsW/qbPHkpLLdi5+wsJ+S6DPGR7AdCFyvYIzFIwsnsEA2OhOwdg5RoPMYn7GWiFOujIwm0Q/Z9yN9RV9BVJbUPHN9uqhBZQyDSKimlDBB5t2u0JlMu8afWeu7NK8qC+p6ikxLW2O6yhPo5VfVFJe8uB9iH5O1XguGOEXMXvNFay5antm2D9ILic1ZcVjsTIHlg6NIsVBMSbzTlWCDO0p4wG0lfJuhYAKdmUFDjBe46pIbObh57F1Jvc4ytsaUtlY9dbSCZ7HAQOyl7Dn2yPkeENtmmytjv8AgiyHJmZlZwCUnATvqqTjcq7UhWfDzKqW2Yqfxswubonciaw7BMHVqxmHqcIFw64Ue86O/UYZOv5NJpOwJHpFqnMOjXcZJXIUNjNnvw3bWrlgEAVLmtZ1IGMGJSvo1J2dFUKKh2B1TTF3uUMJfOxc136day63kny/z7QKTGSalSr7Pg9gsHXOqkt5gVtlVIpvo6ZBkME5NClXdXh3GWT2ttdT54K80HMH5TWbuc2BaIL01y4mfs7Vc2WvfELITjQTQiqg3UeMCLMC1Zo9Fxg2mElBgYce5jwfcE7EgoYWWUSuAoYLKmN0qzsp+X7E8XvX4SHzZAnuWmHxnMOWwGhBOBjO0wSsqBaIjMv1d51whSAYL5hJAHmy10L+oRc/E1wTZkcewBcRUqqDaRY8SovASgOaxaTlXedItYKS1NgMcL0zH2sEFgQLbkphpyqFPDODbP5Hj3VMgCl6iIYCNU12S3A2r+UiJtUHIOonlTLzS7IwGaTmnJaTaRS0+Mrnkg0Yo+G8F6sHRVBd7NalfYLGd4yGlnvUolOikTlfMY/R2VFApYPy6cdDHotudEFhg4MJtOGU0RFqsGv870/pvSaUmNCs2dQ+gKCaspS3h0swR9GlGanWc37lA56LiO5WLnpdzGaNk90aS7FjNlMKDvRc6NiTGFkqQkTWbfGvY23wSWWVAcowRBx3i5Zl0Wc1uJbcGWD9A2HUYMHyIrsmbE2rE+UNAwR6espIXF6r1vELUS18yQvAE43agKlGC2D+A6oc50Erp1Kgtp1GBqjCJqIJ9Irkk61HjKxHBuyVQM4cvtjGOs+poo3KZGc2Lud8fS0v9JGHaVAfzThl3snbqE8UqjaUVEoTkGecBkdRlb3nIgMXI2RP05WgAzdUl3Ga0uBo37YkZ3z2pQW4xiTptlm3aVsBIAHJxIhAHEVJvV4UZstgtno3Od1FirVrsREHcVixuIJAm+c5OS5BmvibSQ0i1xF7QsQUD3o9uxcEtU09aqjw61LmzaakaffYMKFLqVQJBPMxMBchnNrhIniGJKswYqeO1v1YtAmBZXRrFeQz/cxETdYvaBHOdd2vTKOMFaWQMx7GjGyYoV6r3zGRUUnDQc6GFN23pEM+mbEFzImgVCaXoBsQtKq9zPnLVG6dkPBZdEZuamQF0FZ7NfOvD8boj6HWegjGe9DYh+T3ZhyqFTvPHCFBcrNyL505Vpa/Htjq+kWqV5avLJzO9GAZPRqz7muia85bU3JOWpJdGDVjaGu78lngNSyNdCpgBFXaWptjlpfM1YJG9uSUJnFHITsFbuaeb9PXA43NybGSytVUVXcosQSpdLaenfNyTNphMawM2mAnxm8fphrMqA3HiuS8WRop06nyauGn4eSbN+k8kJ2ea0HloAp5rHBYEyPain4mPP2csRO78zXFt+aoUnnDANZHdz2KtnrislyDNItGn84npGpVkytW3EMTBJYz7ibSEXU5fKyTH186Pnuize5zGrzD+85s/wBatUkXGjkv2Zrd7Ithslb8GqxoeIEUgt9D0HnrlzX20qzbP72B6VjTFzlhzo7wpkimrY3IaGtsRkC378yzhAygU2XBV8x8fux++fY870tg3AkKaoVaqpG85i8A+aStOEHouuyhjR1j75zgapobFO14O8fsEVfEro9Fy9Wd6WRIVpTuNRbdX6B7O3WuGRKY97/NCmimKacRkLBylqhidcKBSZtxVnmmLZN083BtHj0KZ1zlPjeZx+umKxakW5pyVoTTz0NHEjRKzdQIkaOl0uCaMtQ6dXrkalUjtn8WlSq5dfDYDYNL4paQFdHp5KJA+HpqfPBTUq6Oy9H0zsFSQ1g6g4k/axNeXAUsOd7JcMvymXLvabP52Imc2tE0a5eLiz8Ay7V9FncqCb87faGZv0gmuiKB6F2hq95DLnxU3Vs1mfpKFz1CAVFzwqtmKnVd6atWJ+GvoSnaBSoBB27uumJ1TlxJohUrBpntKqV9GmVz122UsUderoFFk0HPCxKXNOfsClerx6Wx6iS6TIQZl6BKlxQyeTcuMSBnfSj7axY3aQvQSSqWlGw6UYqpmkKoGOZ9ktl26moo9CLbCfGS447E781cSS1rRtUMWkp1rl4EO/U2dUnkeAM2h0RTpsGRqZf1DtPNzHcTu9lyMxlLmjJwdnGjjb2eh+WtS1z7dOHUXLpgGZ1Z7GCDpvJn+z1hqdCeFNfiIYyYrF7E/OxJtdrqdqlMM6xftfP5Olr8zFT7D/OLOuyiAdoBRDI4f6k0Q65J9Bb1Li2KbiybWpDXvTj9BSDYsvM68XoLs5aKkscUrVU982sRXDU0UBx+6HL9iWx0a1RgUU3AsVazcUbHZ71TABzwPW4XuKWb4V00QsxxEmU8zX6+RfJTr9M/ZJ4ydZ1hzJeLzh2m/USIRliRQMNCxptLXgCR56wgmYV3/R6cciimV9xix8/Xe9RKPQ6kAYm9tuJ4XQuW8oYiUuVFz408x3VnAkofMjksFGpnFt8ztbK0wq05izE+XOZrN7jfhgAqezLeb4ql016p449qdctRB7FKOqlMKLhdiKu0PJCxSQtrMdENi8Jg+UuLL4akporY3zzI223eUQ+6r/KI0xkUCcsZYMaKbMeV+2uYn80qi9jQLnmkJ6VLEBq86m+l1YTU8fqrSluIqJ/2MbXsNCJLPunG8LZ6nhZU3qtVueP2uQnWFuS1SuJYmcAxD9R0EsoVFSoRerz4w/vp3hxzrsVUz5D5F0Ir+avjnHBaSC3iwYC/UjfWV/VOnli0XLDUsppJk49tZQ5Xq9znaSVKA4k4W3tOTLcV3hQ4mauB5r4JHPfS9LaEj42ofTc5o8wfRdSsiiD646PCFUOuBgPZYDNrN2uXpkBxE1i1hKNEaWfAh1Q2l+hY1JjU0fUII3ckRlkdgXp8pZCkb1xBKyFxHmCj9VL1z1PF4IQs4hWdT8KyY9eRqx7RhgsJb50m3oWrgSDUwpelnrRXQZZcDgHZxkldH9D19p9beVza3JDpHkllZUiR7JE1nm5urvnbjiA+ZY8vPimTW9UmRIfk0cvVQ5UoBCGFFdVjJ+mhbOgnR1WtC4b0HeDqUAheRN0xVDrZ+WNU9f7XqymfJ0bjWcVMkNcZ8zn7mktLxz5vFH8EvZTML3qeo0Atua5BEXLvN6sv89XXoaEdwCxHnnsspsL681o5sSFBCwArLD+Yz8KQSJoeK1LfFvJygqkBH0VbBIbCoHe810dBO3XCiVSYZOheumBx8vOMZIUh+1PSzr5n24Mhp4GgDpncsbnolmRdtjm3YMDGvptJ5sfP5/qjRqKF6B6KytPuCTJpTzSYUqmaWV4L5RgOMb8viI8ykn1vV9rlbBPy7JCWPx5NGhV13oQbCBGa1axRwIUyGl0WE5Le/SrpYNkPSfTcTddXNLZ2qxGSn12XMwSDj90UZ9PdnUIo02eebCexM8voj7Z+tzaP41CJmYkjJizW63pfOkSdyUmdRGVyu+ZJdoyOcn5ugV8JJbO217fVaiTNxxc7HVlIjGlAknBiNR+bpo8SHMhdPBPVNbVEyHGafLU3R4draZJSmHyEsrQUBjuevydJTriUnQYvpoXsY0gnr7nUYO5siP64feWNkokal9P7Jvz8ZLfGWS2CuTNL4Q4aOROQ0MsNb6nz9Y6nUiZVy5MVBzsVVFAldiSSohL7WgNtsUNj1xS+Dx4a5nGFYtIZVYZNImLa++ZR87ubdHQEYOtmp4fXKuvJITeV3sjb3vUKdwqlsX0eqyewRkg0kK19ipNh89T51O92SeFTNMUiThukkUlrOaY0SjPS1uGlcpE5g/E33imV+XT0Knx4SpunqAsQ6uhXcz7Z9SjMpPfzNgLCYMvBRjFx2rAU0CV22vVliuLCXDt6E+yTGdoOSvTyZzPpTdgUOSmuHPW2W4cthlYRFrVz62iHjl/MOooobm+Hi885y2kmI2kKK2Qs06lXXK7iZYzrgLGnUD6iVO3n41dex9bT6GEiUwTSDFE8ByyKlAoKN9bOdtK7nLPVAzzpp7msQTvLcESGh5nQDub4KipAiJoUPdpa/NZx+zfOTqpTJPCs13KEne3FtavI3c2t/OwexlhW/wAyDzGpF2oqhts/5syO1AwhQJxeby1YwBkvQJPB0UWCOcjyYZIR9PNuwrjFcz4iXRm/FPaGtvmSwlRm5TxbzWWLPP8AkPrpPQ87YWe8Vi2/TVJx0kBbZNGmIh7QzgyWhbdSYyzwK49UKJ3FqyknzZfJaznyPJ2HduGq+qG+W44n8+qDpktCvp6uXpeaRfSNA70JTZaFCWkjpukp2gKIV6c0IwXCQTu+pGlT09awtQ3hVDIZ+ikX3ZoRm8zVGzxPbvlZeVWk9WbfMXaX7aK4TN1qQPPnOTIuGtynMFHtVVDbgezO4/JnK1ectIrPyQT0dTB0o3ZP1NbzqyMhSKjY16B1EDip9R2CtNb+edACjHPXycelRiTVXa1xvjoQzNbXigDot3zM2L9NQbl9a8XJellTIW5iadXjs8DgUxNXUB+nYg2VjOl6oVWIO67Mw0TV8bGjKCbI+iu9T3MqDZJX8X7KEzQ9yzs+Jb2zvKc+fvkRC9Bkb6BbrRtirPvSL0NB39HIZzUb3MaOWoWqRES0nsm85vGnmcQqmzwYUJfpmeCPLHzHoCAZ6snyAqSPk7xsom1oumX8QOpeU8jaaapT6r6jSGTVHlUsmrlTD1ej9BefUOKMQzpmXL3Gfqm+jBKhPfzsqc0hPOGkV2cMnI/SfSqRinp+08uYaibNvNVmyzddD3jSNDyB711QuS0MMpTWhHPXedUudYV5qb1vcsqVIXE1BB7u+zNhrQYsEVZPljurseG1nahcIh4jPKJG0fONs9bNC4Z6egzEpTB+otrBoQLlJoonplz1UZKFdDf6KiZFJS8bjhlS6MewXJoKoY2MZUzV4mgSl9tDNAqcz9zqIZ8QU2ndTvsEnnItrk/NiaaAlAMpwbT0iwupk8s9JM1UCnMmLcCYTRY+932sGamjUjIViUJMe5gnKJD/AJydHz1veq9933InzpU6JBJkt196cnyv1KrZ5RmNRBTNFNPymdZUY2WCZi55XcmDl+zeZQqJhSr2c9BSN/U8tYQTB2O8h2GxtsYdqsNpr0VQtSLJTVcc/wBatcGGDys/UoLfN380qGIZt+z1hC8CWzqYdR4p/Kct6WrzHTtaSg3wKpDSANMxTPmk+59YjTGJ53h/WMfeeH6ujQesGsQYMqocuWwxK6sqfLj8WVpqiIxe88KceSa705yHJ6xQrMEc+hkU3VycwzYA3pFXeWM2wuir9GTrmp0s/eSmU9JdlEQWYvq9HU4kjcf+awclQfop+U9kz03nNtopYNicSSpYDqfDdFoo2IZjzADZ+NFn731WKnz3k/OoO61SkWug9S14lVa7nQTFHm2hL6FWttWy3DA+LJCYJOS63dkriQBewq2FeainvSzFq9Q3EtOS3pfijJ+g1zU6eekmdFx4ZFfQW871fPqYb2Gqzi5sQyObBeigucUl+01PpOMspYoy55+JVx9Lm4YlVmO5d6VrNJ2mUQCJZK9VDKlQ0bAfV2XL64iWJDSNIB7HSvIIlk3vSIAKlDzSa4bRG5LKEHgAoAyLYDqPqaHbUFyBnMen2GYloA2XaFhvoXKXJFtcMC0Io65FR9a3k1E3Qp12/jNka+zrFH2RlxAuXSyDldW9ZaQNdfJL68/z5Z09a8DZaf5y+h3vXofSpvH84mTX8qo3fNkatHfVSpkbMsFnUfS7xGJ6FOqHR5pgm541L4e3XzE2Nyo+Z0iqR3KPyMmFa1SBaYWvb6QYhby73tI2l8BOVSwzV34u9LFKudtMbhruftleTcQvXamYV4NOyS9DiTTOPBoh1AdRa7Fi4WgUe3+R1yM04M4R9Y/paPZX07R4YPhrPk8ZugJz2iUpBiNEU9tGtdTCK1KZy4j6GTzS6TCMktQDRHLNWuZ8Xg89pYsVE/WsQmq9zNAtZjkLzTegwRjMcOwminNWV2X0xx7h3HXM3R1pdC87t1KLm4m9mMVHNfWSYtNtMYQth/UVeDy5YRlNPUAk6lAyOw+A+4rqUDaW728/bulfDT1r57wRiyT9tzscxkVxu7On+eU6sFLem/Rr6OspGeWs1lVIFjfcKffz6vyhzPoeu3j6G1LDB12iqIUvlomKKfDEDemci1pGNqvMkaRpjfU60Tsy7SULIUxa3FdQNlbdaauRewCE7Vh8qMMnPqCX1nzy4lZqR3Xq2ZbH5U6xU4qKsv62jrTKOH+W9t4kblE3/8QAKRAAAwEBAAIDAAIDAQACAwEAAgMEAQUAExESFAYVIiMkIRYlMTM0Mv/aAAgBAQABBQL/APBEPx5/H48+gh8b/KePiKGfAnxGzru7dc5SJWFCUf6QCj6mwBb5vFtlEWtZ5nPyd1EtxF/X11vZmrMT0N+fYXCf6nX2Eyu0/s+ec2eTxLcvnxY0Xy5g0IKeb2VzufStGt6PvoU1VI7Mvd/YUxsWLCD/AFYSwoXORLOYsHbmflnjQdqXIS3feUW8742ck6oQH2aNGp33Mb5U0Tf9/jw15MVO+zaM1QBP71Yr1+F9Qz5/yEvYqFe7lvPwwznGrV6aTT9mH2VLo4XSjyXxufUsNmDxxalSFlUxuLDIqFzs6f8AKsNWOdS7ofpBnOpoR5XrsU/mEud6GIIfOUr8w0o3BMf/AH+MUgBuRh+ByaLIYeStE42KEv5JY6x83PP8v/xf5JUzIs1U/XklvAWAf1QP3+FffxOH9xWKs+c/M5RMT0YggowQr8VjZpmNI/BMhKhw6IZ8xqUL1C8R8e79DQ+N36+3EvEi6AiiQfvoJ3/xI4ITFglz7doe6JtDWSSh56GAXLqntR/I7tdY/fY1KTHxV0beUNoLOj5cdQluSM9LP1zoay3b7cL8lNb/ANireqz18+ef+VcpfKL7yb/YzU+o86cigMgOAuW8aFt7DYmle0wJgrxNX5372NAe72SMOF1axGI8FVSideqZuN9gK1elWr8hr8xntBe/62YBDSlIlZG0qeZrCx6RaskEfkmmvEMUzzlD9zxWTr/GQ4uL7Er2YlAELTkbVV0xGSWX/IUlgGs8U6Ll6kWUkgIZv11jAb8h5Pu3+R8yP9fV52yvWlLZKPr7ZRUZdLn/ANUbPuWI5bWqoQK9GB4jv+6dQarxx/dn8Byige7IsOn8ZIDNEg/pwqOziUvqj5LIwKMSdXy9BoVLcuhT1hx2NsGrnydGLg8tMI79KyTExJK+6wagfvlJrJlb3GhGtFQYO+kyd/IrLVu1lJomZmBjNwaWrqRNzGIxcWy2Uq/PRUS2J9i2z/Gw+Zq/hejmbMtHnTdrnyhgomOY0rEFCfVqaUSn6GaMoNY4SiwOpn0UplvRr6Lrvb6J/wDxntzyNH9lxGJ+hJ/6F0iWv49eOHsyj50WZ9Hh8H/Guuzl13x5ZFi9B5KL5jZg0Vr0LLOp+bOX2EnnVuV80RDdmdVRyycpapOhH93Q9/8ArHg5Vuf/AM6xvygKKXYOnhID7+7n5peD/wA+N0kyqxl23h/j87Fqma1m/Txb9+xpKjxOYiGJX6QRzzmpdObG1xlqwdpJZ0F5hy4zyZ+pbpJE277TrUqfzjXsS2f7dW4eQ3k1Swei/pGDi6fHCiHrypgn6aVJ8Yn7J/jiFf1HQmz9tTWpY1bPtE7ZmroxuXAH31u/ZDiSzk62WOmIKip7TZaxuFZWntE/TPczkO+lNyRtPlZvP8uGSgOWW4jIt6snR5i7nBGkVJV6fEs/LrV/bfWIBN/roszEMQRNc36no/CVtUtpUT4ZkWJGazF4JG0v2DLim/qHfXN4TdITwtb6tHPy/O0c8Nc77B4f2Lyeb7khfr2xvudKAs0HkQfxqr9nPggfx96mG/yewHq7jyq7k/Ho7lWRZz7uSLEXdWZuofCGQlCNcm8pyh57ftPafr3/APO75/BWvczaUjNZGFSLucPN5KSnVx+ij3rTzsebeN/WeWo3doMGt4lGzUl1PyqTZ8i9es8z5+r1BvlR/Pjqi/QgsHXn/ksxA/rjdL4SPpa3z7rQyxPsdJLmmvGT19B4rDgM3X9YNwZG+xeu+fHH/wCZ9s8Kg/e9+6a2CDCL6eG7PfvBcYny3JPm8VToeOh0FNnSf+jtMwZeF9YedsymomiLm8xsP3N5Z8c5h0Bd9rZ0wMF51/XMD/10gsdJBPnRs42DZ/FuKHMbVHJPZIOVb/ITDqdLh1+nn22V9Cnmrpi87/TbZ50WOpmh4npGTlLa0pErNx6loV+AsgY0BMSHVJ/9EtL1gvNbHOv43d1u7uqX9zMad/2k/wB1G2/lAqDa1qspGTSj2ghfIksnr/V6qRaOEyjCOhbvsPwXhCJYz6LGj/nZ7VGvopTct8DWcya7787oX/TkKvH+Tc7+Nzb6av8A0nTF/XjbnmUe1qbDCxdjzU9icov5/wCdi4in8vzU5NvznMk23ruhHOq2FNq+Yr46fRVsXTJ9XPk9hmzr9V9rudRNQpKx3xwU0mWUwaGe0tERDA9fiTP0LuDMp+Egc/59HfetDxVOkvkMYzGPdha1mo8eP3PXfRhaBEv7557hwpPrrhDVlUoBrd/+ZUe7eozFUh2TFU3y/wAWZl4fzWKC+dUwY0DUz9WWMWT/ALujIln5PyZIqOUP2K526bqvzo2ZhOkiNc4zCdL5vtJkKkIYfyD/AI+vdf7k8nP9n8dYa7md/wBPTWodGuwFO2MOxQ1TB6jRHGIiTetCwhonz/r6bPmyJiSoqXqmKPCSyYleUTbQDpFfGTfsdQn9lXsFHnrHcWn7LxOtaub427SYMrcVmw/R9ki8qkbmbWAY3P8AZlDseJu9h+/51DfVCX0eRXbqee7WrQOAz76vXzHrMlKzwEpjo+C3N7er8VSbLEM3GK/xbfbrK5xPT6VvIrcnR51dUWppX9K2oa52diZc1Doypnfx/rs38fmUvnpX/bCax7UE5TjTPh+NE5po+Pm8/wBQKQwr50N13Uo5KHNZ0vZRfnO+3itKRKSFnhi1bZGD7zSX3nMIFfTObzvxkWL+4A9355hqPXJo3SpqIsL/AFIls3GV+z2Sq3GWCOnLrsapeE54f9F0OYNbRVzgmEFHJMc4q/N4o2OXL8tcn4HObSULJmy9zyWBnIu782SFyzEmG56WU0kNfMQo239BU9nYEn1xcppokSr1O5ogmVmYjvKx6B+35evzCXzI+xnzyNcHTKVvN7f/AJMTE/5fq9Vimq+J49wWXbOc840I/j2/PlI/7FYbHsZp5Kn6A776KQKRzCEkhiiPpPFuLYWuo5Pq86o4CvRql4ggF0/tKkMI1ACGbU9NKaxWP+vRkLCR9Ax+Kz6n/wD0XD/4ZmaVHrycGSZEv2gR+mpVAv8AA+uJ59DZ7ZesqhTFRV52a0fx3F3lYVW/fyRJrhWk6V3/ADFnOto2jE7O2yofilZeznfDEW8Rl/nZGsuOyb6N43MXGNbMYvKCwIHs0aZ99oUegy/9T0pvjq2o+iql5NM6T9h+j82t/wAfJGN+jKc1lMq6EwCE4i5k3RdaS9e7HPo7DLUD8ULrrNAybrfEdD7MnrN93UQLGkgs8naU5ej/AFqJinu+y9lP1EydbM9AHF0qRbDypcJvQ56tVyqlZJc8feP1XnIM8MXJc9WAo+eyKrzSSYXrZ/HX72fYvb1uUO4cyLhGKfpKOvotr59CqFnLVRqkcksRtGMDDo/KwuNMvyVi3r+GPcyT9DfwqNEbFN37oDUOWCjl/PevDpuuUpirGslyW7XLH/IM0fQOC2VPQ9Y9Kb4P/wDpu0xDyj7LKxTVNkjdd50pGICm0k+H9sHma5i7LBBK+ml+Pb+w4H4Gagd8RawaPr9LJMGzy3QUAHJXFqSUXRrPA5FGKlH/AN2JY/HN5ozt/kPP/wCZf1ejkTIBSIgnMJIenv8A8bLn9IEqlp6NIlIcn5J+DDs/V7mDUxeLOjpCh8vNrAqz0cZ2owpFc2s4/o1LJsVg4BMJylqJuEypfqSSnrmPoNXLQYkuKSDITVgFVMlatRH62VfTAQRq1i9clBsdKMB/r6CtwpPrSrsc/ZzEd5XMHoULLrCVFCWe2WgGggh9kPGn3DWaxHGZbBy2ATL5Tme8R1UbTmd0c+pRYX7nuowrM1qjqApOdz/0nSvZi6YJd58EtqcEbFTvzpnQ1KOh/H9q3kvufHK1sauqk64ObMh3ivmZ1IMDyv1iTrRhzJNXfGj5WdOJ8Us0jYe+/n2a5445BsAiOWoprHWfqsn+tLvxfpGtWZ2qdYF6tH18279Lugz1sJuZm2tYxWr8WWSUP/XS38+ahQNFkij/AFV9/Vn0OevTuxQQyv2cBqXj14tQKUf3MFa+P1SUNm+fBZrcuz/FbBRR0nDfZT8TLRfsw0s+xuZ+fP40rBR0f9jJ/wDsx85MDgbs7PyrYL5fV5m7KeLmZ4dh/T9Xwrh0fsDSMHuaOefH9e64UXJks+k8OnusL0TcJ9nQv6E2epakIgopFz5OkMi3BjJoTzqeSdM8BaKOgKpPypmU64LZGWTRc8uQuxQXj7t3PVrlzNeG+v2MJJe2aQ3iEvpynnZdR/IhQNH8f6a6Egol1NpL2zfFT0Z+jc3C86np/Vzt9mOrOadTc9NhkIUJ++8/nP8AfYdbC6Ci+fyb6OmazH+Ln7uOxgkaY2Aj2lMIWEISWFJqmCcT7cHoOixnl0v/ADtA5wGw56VfTZERjXlIZK/InzUjzzzxLFbe+Bty4uV+ZVMu7DczUxDZhUehiZUs2Wm9yZ13D/8AadIRBTNDQew5LSf7fJ3Od5p+xLObpUWSlJtBn9xORiqSWYwfYlgQdAyAz8v3/XGWwNoTleNr1dLSB5KEcR7sUxZIMMnNRuMvorSXMur5DEk+2VuMovt9rKt+lGL1ybXi3P4qJBx+lIWbBPhyUo3XKXhh9/zFHfT+6nD00Lxc7sVUFU4GkkiiuVw2DUGhJ0ecD4IsCVILIfDn/IEFpt1QAYVhraOzH6p85YIaX6EOpmKqYZ10r1Yoc566HLZ7WNQLKgERmJj50p6YxQn7W5WT4qBpVQpS5pX5oyWi/WgFKkMbz/z1dGfGO4I6Bkyn5vmb0o+TGbanpEXswXLUPrcZiKi+2OZ8+AhqDmt9tUas51F5npFrXmA7sCkrbnOlJMP5AUqKrAf1fn0THi1c+mel7gfzGwVbQZg4MikSyfQUWX6RDxrmLnG0SASlLGADJpWADK3B7F4WLnxj1v1jXUJco4LRe9huSvGkcEDWTrRzKba1b8da+1rhzXDPUIqlg2IPGypoY2b6Ir540DUj1slmL1az7eYQVbPziwP7a1nlurOrm76npGiLo9NIJmn5xK8tg9eSuMtDDd0ccLWLz5hDV/f2b+NQgnzdXXH/AJNKtjCq2b5mz3tYpbFBaX18UndcAI6Ki4rIXuomTfBUnpK7Ch98V5P13t5efUmDdhTWAmdIzuboNWFDco/2vzKAVPqJaXMnVzaScV0SZFBibQ2Fz3OSYZLQpK/WCsbdXHCPTL8/PsZMvP8AstrLWeQboHKzS2lAseVjJex0YRvi/tfw8if7+J5/6JgXSzbAZMLqdHzlUgJ+24m9ExUjcSue+rFgyv8A7VvB3kkQIGl+SC9nu1D2rmtqUOwKz6I4wztvIwP2FWHLIY7dIQUyTeq1GALEkfuSQuV/Iocku4nOnmyioazlL6edWLWvo+4dDqLn1jD2RjXAkXapimp+fCIhLPbS0AbUPP8AVMrT/UtCi+Na2sZWfrR1FqnOPPZD1hbzpJJAqkj+0i6zo8GqXQ/F6G85ftdXQkCdQgQLpvlytI9Vyqy6FXSB2RFaxB19AerLX/zZz69/p5Oi2jxKNjY2vKm1zMQMyVsNyhVibyqXhUB5JT79Msb43kMxlLNS0r6fEevJ1ey1sspS9HoWJlS5uEo4srVis0Ve4T7Ep3wpUdSJCQD7eYJWt/2pkz0EfVVI/sTZ5zxcxzJyf5yR3l+VUSsVshzqSr586uMPefemNfLfN7PV/nKNHKOpTqmOjX+2znsq53INYrJorx182N6Cxdn9gLIBwvznOzH3mnZYpZugKU/0hLer3TlZrgi+NP7us7WGRcDiIWgnLSTK/wCzl532M6WTyeEopJhdjfJ0/StDP/VIyZkplp+/Zi9g+rkzjh+4PS9rylli2QK40n5lhtTAzIkKFb3Pb+QtaVFjI0yeSyeptVv+FPSVN4uo+1z6eY5iFJZJkUyxtYwoTonEd+RsROKnV/qRGnrqxuWPXPdFOpQt6+IXTaCLTSDVar6+Yo53vH7ANKUthMt3/H1RwCLrx3n1M6ZsZZIF4DynyqNgdGetSJfE2t1RyrlBtSCqm5ChtGM1D/V/17ObQgvJpPd0HEvLUh/YQt5px0yO1YMBitnpY5Yq+dlWNu/n+MNGrnb8rHEgtNnUhtbzOepMn2GOipZLrK+nAX665gL11UK9SZVf8FnMw8eWjUxlEE8n8gbQBKkHxHrA3U8+kUVLNLW/1gOBk3iZ2HIXPF09AEMcDRVMyGboB7f6mtLsl8rRnqm1XoZ1Vz+DcZMf/lRPKRqZbuJrq2aiGV/1b0HE3QBMxLePV6TiOkm/j6Ka0+Qqnc9VVTHR+764X5yKnP0P4rDiWr1OI3LaS0u8tQ9GzSPgbTaofAoxHnMbvuU3MbcX3TrFqf3L6GK53GkHn50Uv86GZ7yaPuX0k/ITDrXqD9bJp/yMETUFWM87HNWWfB0wz9Ap/IG6jBd+/nkgEzohoegTFVF/Qy5q69TFD0KUZbQnxLVS+fl96XIG6YQdMm2j3xc+VtT12Zx1KOausHn7I+s1MTSVUP5t9lcpOKyV/Mpd3n3Uc1WO87qxftHy13EcCNor32TO9mU3ubUDI0wDJM4DpKKF6AN2+04HuD7q6ftWz7Cfd5pTXyEGyBi4xp64Kx7y2cpirHpiU6efQGQdVYIc9/8AlNU5juQXrbqqCotqnjYbC/JlOCj+wyby7p6DpqTKzq8V6wlSx+zmK2AwDemlwePNip/7AXlL+elkxgdB8lf05f8A0N9JTNUXt8YgrTopk/YkVwefov8AqrjWTsL+P/iKPmpEPT+JDOn6SoN29DoU+9McvrVJ8xZR8Fd35tk3lsHWTF7qucIqYI/JXw5M5CB/P2bCmqtAJp/sqkOnLhJlqL5Gok+GbLvG7ovDMYAwraeKMvLTbCTuwjpI4RZHN2NWUg5jC6/H/H49x4rm9Ndc9UpunUwp30cjdV1+WEk8RJJXUydBc5ylI60gK8J5Lz+PVb1mMVqU9Pol00Q/61yH52OUZzbapkBB/ozoLqOad8+0H+DLzY3pQ0ocNGW2+dGsuNJzasoOe1bHXPKh3QNlLmc3JNmkJtfO/wCYq6jkn6dS9dEX9shs5tHj8xLlK9nw288de5tvGiP/AJu5H9qbALpc9vu5UMzCeVZrC/t5oayUlo/KVxcpTZvHmX53XaE/Qw7VoiwTTzKqJ/XWKBAyW69b1L509RKmk3P0gpVofbxWJrZ27pmczm3+hh8lFsPHxUzenosp0U7vFaXPs25lKOpgsJPH9Esq1+aLEMFqJp2I2dR7Omzp3ayz+2HfBbPCyHnr+93cZBIjoP6M0QDJ4St46xo9h1Vuzyt3tDkTn7TciUE4Hr7ZDm/xjor5p1X66aGF1DqNDnL9RM67lfnbL0VTCFCrYJqZq5Kqd5880TkebJ9h6qToUJ0iqL4o8tLfp9Co2kRcVyh1IEiTSHYud/bNoocz0n7BJs6f8CUEQT8+Xokk5Zt2PUDM8aPHcrQVBb9fNYM/So6bMdJAf2fKLdZ9H0zWM9gWTyQ0OFa3sSKwUw5V0nZJLQ0UQW/nblAtV1eeK9ywGkzIgDno2eWYQOaGkWBbB/Yayf8AKrm0izI1soTLSI0K683373LK5jkNmks6RHAq3ZX9H7jFxesvE9j/AHT8WfDVY71bOauWzo2E96G09KvekHKpb9n32GAUzIybo9OnXvdYmdY2fCTf6w937ungbSHeU3n3TRlXMz/e2WdHxdWJsRC7oeYLY8XWFD5IFvqvnlp8pplxwRrMiRvXOdhTSX0CTafezwGJjh0mh46xs7WxZsSp2/n48eDor/JXPD7/ADqvo1mk00Zoxz3z4SOSHrqChdretxEpFkRqZ8i3AFc6ep3mu5/K6O4p0bf18ypW7sIHR2wyJT6i06LA60kH8ZpzyRJ+9Cp7O4K5ZmfFnaS3jq/JlBrORDp3942CulOH0N/xP65vjWf5hT8msSYTSPm0Z2vrzFex5M5ug4tKPyfBxQc39U70rUlObzkFRrtRudJfNoKfztfxr9nnpbi4OwFaKuc76Vxs8bLieN+H7tWx1L9H3MKo2IAmTo9O1s/WddivdrrGA3yMz/J0GtRO9jx2XFuGEwGfRtpw7tcwrnx1jQutq80hzFYfPec0GO1EwsTXlsu9F+oXCuSYpAuIb8Q1n1RAxy7jwnfxwW1PZKrmUPl1FvFXtjujPRtH2WGDvsS2zcJC2/pmkSCkVlzaqW8TooZL8WD0MrR/XUMe0DYp8uy7z6Z2Cj2H58GtQfbp+Vk2BouCq1dIx+RxZBs0U/PXBllCnT/onmNxurvF+fLk7zXJyxMTxKoWMVznmqq5X9gIF+ZnUloJMjS2CqjXhX0nkMPVD8h9ISnB5xvKf7dF0KZZTTifJcJc+u0qImjSN+IFguGXebYXkCQ1X6H3OTMtQdRQPzkzPp5nVk/C+boTQP8A0uuYtLrATIvJnzFkgan9ON/zn5u0+XxbI45NO6/PoqkMnXGr7rZ0kSMYR2Dzqf7DOtSGClIC6L0S00o9HkQuB13KKwXTgVn99nL8/tHF5OtFqDlopuq57I5aGZRdb/xbF1M3OgwGEluyAIe+Try/nX/Hb6KE+iG4qqmyrfWC04odxPPVX51vy/fmr0vPqtFzLya5DKeyS4UmxqZXLTClTek3ZZ0rD2zUbRVB8kkCV7Ix/wAUK2tVn+3zOo1fjKXF47mMsHm88srkJoFZa7Lbut+zVKS16XCV/Oo9re6s2bF0vayoPqddAfR/XGdl4z6zl84HNV3nzeIcmxNCdxaut/6w2E2tWiMA4oregqmR0CRXTG9CuQQ0O6soJbEO6W8plj6IErIY5w87zZSnh3XXZRn1o6odXOZ746fhOOL7fjrkWreo9KM5mzs4V2C/zBJKZTDJOd7VpjyxMin6lJxK8bz6cHnCznTuWSxLNpV+r4As+3n8fvpTd+FDRX+JzdD8ps6DfZz+mn9XPIbzhp9XhdhlDK0omAq/e3q9RRs5qxUa41er45NRdDoEouoVFMvP5hdaYcfQ3jTbPE3FyTJndZKt5Ko+RKyfot2azFK3HasFhv26VBzq/saAfzFZ+ns07I52PU1fSwjQwKFeoXofzNJHOm9gxxrnpwF50r11pq3GrlHS2gX/AI0t6y+muP6TUWV+6mF/3YBgqCVy2j0FlFzyEWEyfVTe6qjw0q6lLXtRReP3LUbho3RZzEOLApYRzB7LOtJhS86L7noZ9+JQCVv6o8pVPa+eWPLd0vGnnFZByl2Nk58sR9T+SNqRDuUz5G2mp/oknoasdDnYW179mfi+vn2/DQ7/ABDp8wpMiDoSHJJvuphNg8NQKop6nrt933a+tgjO3+zb2JpfWxm63nUGqeGcWt9XsAPssRZ+okTA6nuV/i8J/wDZ5S0sd02gPMBBi6vnUqh6tn73TtIKObQZmpal50zrdHiSDlTsyPmzHv7KEqCn9Y6uxW3dGT5khJvwqPpPWpjk171eVYhfM6Zgm+VgBIrMT14x5Tubequ7qRO/s0c+391fvdXzEfmu7/Xn57W9Kbos4keM8ndoU9gfcCOYNWUjNL4XszLIt/PLo0b72LGGoCeVATK5hiPj3Pp3n76nW109Q+iX5UO6H2X/ABqBZH1pq+XaqYtVE1sDVP8AZcYa+oPuNCasJnvfOdrUus5EgEvprYrySsJn+0TqqJSIcyb9Rp+tXP8AVN4H8fpsm/T9Su6ORVn0VNnrLXVZF7PNzfnnOMPOV+NvPRx/eud0/MdvN9ZyM9hZhTqRXiwaa/lg71Op0LU8Gp8Y9+ddBxJYNdVcsJf1na/DVxXI9PnMnODkh0nU+dif9PR36SwnSJPr9LVsr/InpRjPCpntUy/VnzSXcZUthdIBlNYgtVzeaXNT7cvTVLKJAmOafq0F1OlHzplBOvf0RsDU/u+jStSLbBzocl4vFWPFnnIofCiw/uekP9iLmrcbEV2BxFv8587mW3vH1/2JfllZs+lMmoOrWOHP2HgWVYjbXFTRKJvTCR+sqAYA562Lo/8AcHJMujbeTUU2KijSvkv6D4BoDXL4LFTcK67KSl6R86Dn2k9r5f1L2cvXQgqkhFjMK2daaekDDPCzpVRlMp7FgKj/AErfzbVJlaoN9HkgSXeB6tapB5O7sVMfO0Pa1xnq6vuimaiOgKAqjvwvZyS39M3LV6j5+sM6qjzmUqnUMMpUfp+3QvWeh/8ArbvSYS/znSMFGT+aWw1Ev9tXJzLA7mmm/j2f7+hf7qXN2PzLoqQ6cZ8lfEzclalpOL5RPzUnTVWj0TKta9M0Dyj/AE+oHi7EUK/3uQbF8xo8+bfpXeP1mTPaXO85f/Sy7jf/AGKgmXRTV8oJv6HW81uo37zM6TdaI/LB+/2Oiczjs5a5aL/XYU9OW+Q0/leCkCvYDZ5N0G8/IYv7DmT/AKOPH8/rRVxncuRpixHLpyMtEleF2UVLq/x2AGpVeQx7KbPZvtyfIvWGBtBG8bOX+n/X0JvYl5KTJ/HPWuf+U6LVfxhbXlJiJsZiSRYiWXyC0mYr+OjDV1qcp01/oSLmxvypt1BJ+3iaTJHQ1a/P7D9Pl1HqfzHm5XQk9Tr5f68eZVzf63pcv/Mhp/HJ0DQzOMxlY6vm+KUp7rGEzx+qmH2OtH7asV0EITuS/aZ4t8FKz8nLnpZfHshPxzoDs/dOl+yU5UNDpp6efMiJhdLo2mCZ0NHOa5LlWISGQSJd5TFpwj8x+T9X0NGVSaH/AOaKhY9dA/8A13P3/mrmBAjTtbTgVqeK9qvJUfdLbgKhc49GjJ9/bXznMcUGUdGfsbNzJuh71uWHRjQ+kPOU7Jkd64RQMxnKinPk363TTr/ONXLNz2m6iVAgdEsqj3s6f2V1wmFdmNmsrGJctoXJp5xc1h9ZRg+x1R2Lc8qlEpxrYDA305G0xYoEpkrjDT++/SXP0pljQaLE5Jo358QfRUXXaRediUBHsFRLFHNHwEU2f9SAGnwKv/MLTu6G/mbdRrW0QV+jJRo4AeywZetNDP1vtAc2h7mEAsmKfj82gG9ULJvszh+yOW9wnvM7Rpi/M2bc+7/HjqqUUfOSBNTt05qn6uBkyLRXOwQv836TUD9D8l5jE29mnVsl5lVg1ynFGWjlVif39K+r0lLA59vXMRPnssKYc+lvX5qFR1JxZLeQru6H672TbhW2b9lqNfjXMV45qW0wXf1vR4rMCq3ho6O5xmcxwKf0KlMpTT14aiP9n6Zm9HOq3UfSKFH0QbDSjRPHSVnTHcvZs/uzu58tNP8AUNL7eBA+J9GJfzpjAPJW/e8GsmbdXTaHSAlumpF97afk3NlAeaI1ANYeVc5tCEILB5hqDFz6+TqPwNhYFU6G6vTPH+BVqU8alqXgKqKbur8sVfjJpFrc8v8ASMnB9kwPmk1PUmS/ewAs6eezp7O2qhqVmZ6OMf8AZVS2/wCj9P1cTcDX/FDz5Y7PcvRn4zTU2LKegpLXELk7z+Z/Hp21N7f6vx2SVfm9NEMpfLhFuIAuhoj0MWSHP/KXfoylWs+B+c2kClh86n8gxzeZ1EX39OSFHPjYzWpkol8n7FV21TKggW6kWUWGx1EqHQyylP4uRi/I9eAdMiyicCf5s1YxNCA5f6n+u8KEBQhopCl36mqsbRh1MTi6jf5K2qPzih+h1LwG1/VdP4gv2UURzujni/8ACm+pI9ipCB367wet1jwsa36isJ1IXLNlDaIG896raY/C6CnKq1C65aDVQHxvgctLEl/Gbn7Ap0svX6GvksrcqXHixXu0lRFqGdMNRIrludlCt9Mv/snQV6Y5cWLliD3cPsMj5zv4y0/J7/8A4/1Zuv8A/IOXyOLTex0fo5dHLpJocwrj6OTDFPWxRM33zyaPqsYsaVxPNs9dszexZ+5kNRmV3Q9BzDuspkbOEdU/On6tA3bMWo86NGn/AB3jx7HLXqGyQD+jLIg/cdgZk/RQvberqs5n/udCkf0eyi9YE3BrEjbXjGnVQc8u3/sWjm4zyvdVQ1Q0eclIlN0TyipPcGbJek50snSV1m3nPYXbfLfyrQVpzOFhlSquamKlPnFvnR0bQwHx/fyzHMW6kWpc0kh/8ssGGS6zpO4xLk5pmhEd263y72WKFPR506uhTh15rV0l8lFuK17cuyAJcuv381Uf5nv6woc1iH/eyJmollmOroaaZrbv9Etjm113KKGakgfX0/slNYK8V8TEudcr+iz5dq/PuLp6mGgJGGFMX29leqHyXM0uc3P0XdNFrk1f9K27IuxgJONoCbOzHz0UcaW8LpZC3+L1ejy3mKcKBSrpaP8A9px3LQxgMZTpqT0d52Ugz0Jk6RKoRM3YxJ2iiZX6BUqJkeyo43TPvlYyawvRB0VzD1HFOjg1/oV1a3bR+g3KoUavJzVXPZz7G0nE3lzrWsF9xB5zFXre5fQmofxZEMstNaep+730J6bXH/WkBSbh3XZqioQx1kcSPU//AJBdh1r/ALL4Wk2MJWNpGeb5B0T4KYDNPnE9g79PdIH/AIhVwStrBTrZW/V74GVB0k4gKPVpu5es8VX9OcfL+aebb9Lr++hVbetlw8Wzeh0Urn96FMk59Z6dUXSrFV5E+1s/4qEA7ZhfOnEfYKMawG1/L/Jvq6b9nrE46F1j0PZJyP28/btLexP7MyxTNn4YAu/sPVBLBEyvQ38llnxZyOOKdC0VtoR0lIbzL1q2op3VdD7/ADH0sPwmFO6HD6nj+z/z49VpSW7bzJ0qQdvJcoJG1+9LbFvT0vUnfnWfWVlJNZF0sYlYjP8AobFAmu0J+bSE3JaC0w5MHQYxDY0eVWe0uV8K5HWgKMI3y8xt9aXB0PbDTGP2Rz7Pxp7NqqPCgdVZvuCKadt1AbX0TmxpEwN6Cz+cp1uymjpC+i8P65nKmmpRJWT6urTvPvm7dFs2cvK2/wBW5tN5n+KdIc7y8F9Lkx8YkOopVIEjwWM0i1dK6LZ6PxCvFzG4ZeT+nWZ+RXN5E98nZDDyrQmW0fjxPwfnsKafkh+muTb9qqg+lDmDOuVc1kIc1S1T/ok6Rw6/ZjYDN+Pv9zQcl5mVpLqRQoVSFUF8a+Sp4/nEGog22tWzwtutpoCbsv603Chf/YfyB8qSkFuokuQKOZNhed32QeZCaAnP0Hi4aNLN/PAzEeP571eGbI5gsHJJmTjJDetPRoRW/Oe5yp4rj5M7P5IdFHa+Gqcq1yYK7K19rpUmXA/jIdFj2hw61tZq30kb+p9fyrgWYLr85qV9Ec9nNZti3PVpy9GrX2DzXNEvyMoamBy2Z7M8pvx08q3UeIpGQnW686v2WKL4J8a/+ov/AEzEmZHz9kzOjjvKQGPoUG2bFe+3buToI5Uk660bG8+K2m2Wz+PyTJhuPlwxTl3JM043IWpLY0HNL09z6Z8/NA6bnaMLovX0KupzJ+Xu2P6Su5HknkaRrko5rHESNhcu6hctKhNexTPht52c+STm0V4V06VSVTiG83KyqB0XJbNkqgr0YWVpfKBE6jo/ALmJX2hXklfVjT05ppj/ALNp/RTaxrQcuwoF/wAaCmqTNetosBQxpv8A0+S14TF9rZI+z2ZKgqaTisc9Q81+Hyk0rSWP+1ZdBiqHTP8AOxn1ZPoxTU049bI89/O/jFFk+yU8WGTi9AX9Zy6RTbkwt6+tLl88Vs6VsqzOqlvmCwEnBlvMq5qtTK9bDquZbKnpnKCSbU6qbY3Ylu5bmn52Xpsydg88J/5K5dkfW9mRWOCv+RdMTq/UzaIeM+jKnlOnlc6d0vUkk5blgv3KoVbKCdSyOU+izml+J/7ZQp60AMXd8mznckI5m4y5lca+fMvq5b0ZSnWqY0knpp/Ou2G3nUXN0OaLv6muYxlWeosyQ/y+UcwkEnCFsKh5SmX1tf2Wp1Eq/Xa5uYpWYxA3GErsT0so7iqhtUrtXd4/yUxzY2eJlH5C+7TmYzXK+c3MCdDJx6aI0Li6FfEJZ16xJR/KA4kp312XviaTw6dwzjM4ieueSYmOlQpSpNKdDWEYcTgSYtlWSKaz9MfJY+NfW/7KiZicnPUYs1uS17pw5nsWNqmIJdHq5S5Re/u9r6+fx6H1r/kO/XkciY7a20Kg5SXgPla0mafqY2Lk6vQ/mafV2mAYunnAD6SklMvoFporbEwe1t1vOYxzdXzYEWcv1P8AYKfGTsPwPdPMFu1eTmqivmnm9b+T8U455HftVAZ8nzUy1kMSUbce89GdMElGBj4Eyzo/krvStn/niLmok/hOM3pfyWFCFhSR6PSV0YxVs5ISchIuQRX0h/Q/1X1Mmf0WyIpcB43nDIl1TfUxo0r29ieYpS55zrfYw5k8m76Vu6As8kkbC02UURc/iCFa1+se0v78z+OO/rOl0ux/Y1QVDbLByZnDeerX/Gpk1Z1OEjqu3j/eNMdKj661rhV0CTvQq34g9FOl19Q6/wDkE9oc3oYydmTl1qCUzzsDso5JhIqDCFVi2p6N3sR/EKZpVfyO2joq5K/sItOBP6f2j15Pzkg6Fq5E+Kv/AJK8KrMTjgQ1CTa35Zx8HQ1Gm9AfRI0DPw+p12WtXL9JespauGpxF50+sJRS/wAhOvw2jm8T1se/pzpRZRrL14YhyATE6ws7DAJan8Tnn8FTemRlWu8/ius3A/y8/kV65ebFE2s+ZyKBLERcmXlpqhlK39BcxC55GXqGxdLNCffWm4vkO5/7SiNQdLqDn66i+OTMOefxpIO7PQUM9uGWK5M6+iDW/nXXDPRzwVn0Y0vx/wAJiSxXfHGeOAIgXpKUFRrd3WfuV6/+qFxi66UJOdIe0z//AK3XO9tXE+S5LyL0zFu1pPUa4B+FZ/s/UZt6SxEJ/wDIrHEhnKjVZDy2GnwbTlZJ/pX1nEDdrb9LR+jv4xCqmkx+iOtn3vR//s9+ObyGNpd399vUmSEMROM+RyS/Z/KpvgpeRzkfn5bz2oBx1P8A/8QAKxEAAgICAgIBBAIDAQEBAQAAAAECEQMhEjEiQTIEEBNRYXEjM0IUUmKB/9oACAEDAQE/Aft9Ok3sVwRKKn8jJGK+I/F2LM9OJBxyi8NMvZlrjYovuI3L2OKRh+inLyxi+jyZMlSJR4PiV9sM+OmOPlyM8k5UhaZ4yjY2N319v8nsm4x8mTy/kdro5plJ9nLj0SfPZQhLZKNEnSsxqUrJ8PihZHj0YpeJVbRHy+1P7OyWkXZNeGiEb+RxopLYnyVou19lJvRVLZiivkjtH8GSCiqKrs4Ls+nk4ny2KvZmSSHJvSK9M4ejBzhXEz5ZQjyb2Sm3tjjKKtokVKG2QyPjsu2YkuXl0OXhUTco0yK49HIzKUtIhj4x2P6ZPdlNLxFOOVV7I5eMuDLEiP6ZXkSj9mv0Z4Y4dFRZHG/x6LlFUyL2XSI3JEXZyXE5X2cleiW0Nk5VEUpNWYbWxvdlkI2yWNx+UiGRQFGUla+2X92Xezg+Jjk8bqQ5IlT6M1/ZpPoxLzVk/wDH5EoLO6ZmxuLoxT5xqY8adoh/ljT9DjekNJOieOUVZglfZkmoyF5bRVDn+MU3JWjJLVsxRcVyifzIlcvij8cha+0WmSdouuxyRknGP/JkUsvqjHyj4sklNCx2Y7RDJG+JHxybFFU6JQfyZjip7RVIad6J4rZJLFDiYHcaFfIyeq+zyOqRiUb8iGRvUT1THx9mWL+aVIi4ygjJxlLRqtjhqyUXQoyHKhN/JEciyw2QilcjJLlKzAtsy02NqC0hNtdEscJSMkJN8RxjCI+9GLDynZzSbhIlF1TMXuI5Jw4yPp9aHT0xQroUdFG7EnZJ6+08cpdH1OOajaIc6IrwsxRbJrRCDjslBJ8/ZNX5+iLUsehOLVHx6JO0OXEVT2Z0nsxK4kkbHFFNHRFbtMTUkXQ25PyMjfEWmX42X4jj6J44z0Tx1KjHtEJOM6ROWuJkVMi5Rficb+RWxuSeyU/OzJLVkJb2fTyS7MsyaWVaPyuCqfRjqUbRkhun0Rn+GojycnTEqWhN9El+iMWit2NHRzdDcsg4UYkktmNb0NbGJRcSOP8AGQd6Px1LRkQ34onO+jHlrTI472J8dDq9nZforZhhynUiX0qxvk3oUFVxOiPkifGKM6hxTROPKOiC8SMPZnk10cJSPgxx2pIdPyJO39sfjGxxuSZkzSTaZyZ8o6HHiYciiyeRSexeLJNPsxxSdI48o0xw0o8dHBLVHxYmN0OqJ+PQ3obfX26O+yKSQpKKPyLoxzbJZePZGd/bY76JRHBWPDFkZcWkZb5aZCpMj4iGiKsxcuHFrQlSpEmkrkxb6JJSnsnB5X3obUNHBp8hDgquhLlGieB0fTrx4yMjS6H9sLfKhS3RlW+RGKhjuQuCjUdsd0uRkr0SXGKKtWQjGRKKi7Q8jRHJa2Sje0eiI4uQ76JWS6JS2IbEm+xLQ8bbMMFKY8ahLRnfGNmB7PlEglxG9kirG30X6EnIpE/imjH9FOV2ZvppYl5GPHjcaZCLxy4+iUt0jI0o+SMXFLwY3IhaWziprYkqoaoTvTHFuVojKT9EVSJRTls4Y45NmTBHlaZ+CGNWmeKdslBTJKM5UzCpRsyynOWj8c6uZ+OUoji/xGDwZNczikZP2Kf29kWxqzqWySopJHZ12cyEk3RKVuhrgjLjldoljctNCiq8THLRpElTJOhyolZC72fk4oy7XNEX42SyL5IlKH1GOmh4cijaIN1sn8ddkZfkjxmYZLoWyqIZt0fIlbE2uyEkarRGHFmTVyI9cjM+cvHonJN2WqH3onHjPkOU4wsjzbVEnfizA0tHuiOObnsyLjDmJpq2OUos3WiDdbJEGjlaPZKQm+2be/skcXys7VlwvZKdSMr0pHUtdHs09knY/wBGdKKv2LJJIjcuxq9EE1CmY+qJz4u0c32jJLy0Oy03R+OMTFGhPZPS0Yr5eRGXF0Sqy10vstHaszZPGjAlLxZ+J45Uz8tZeLNDkTh+SJkUlVCvkactH+rZtz0eqMs+Cou3ZEbrolGz/n7J+hukWeiMOT4jwqJTRFiaUTTY+xXVMUWlTOiKEh7ZJqWQeVtaMGTrkZIR7Ir/ABjg60SVs58HxZWitG4ztl6slC3ZflQyThy4yRSXxHG3yQyKrsbS2zDmeRmdOyFUKfOWyNvI20V7Nnog1F7JNXyj2S5pk3+R8TDj2cboyYotVI48NI/s2KhP7JbsX8k79HYrbs72TzqMaI/EllrQlfRFolryY583yXQ9sWiT5dEvCJdbIxi1TIwjFolU9GD40yDJtRjyRCf5FZFcWSaUddmkk32Nvtl3s8W7Oj6j5WjFbjsRSKaRkvhoxw4qzJj5wMEqfES4z2SuErHRY9FJfaTqfZBcnbMPdsjwsyXJcWcFY1chviiD4vf2fRFD8exOyynei6HC5dmWXGNIjfIc5LyRlbrlEj5YzHovYhd2ZFyVjhezltUJcZIyalZjdrQpK2RdIxz4/wBHKMlyQ3F7MmRwRyWQV+0SVdEbejPG/KJijJM47s5DX2rkqJLjDYuxYo8VL2cVKB/Al9teh9bMsPIlXSIR8CC/Zf5BvRwcZWN/sdMjFEhfwVyWzHBKVGuRm8YrifLZGNysytvJSMvFIxtLsxp//wAIutE9PR2fETTRXiZPJUjgppS/RGHJpmbxZh8cZOfBivkYWsnZwUC7P4ZPG4vkuiGeLdWWmIb4iyPnxkZPDcSLtDHa6Ip9snLiPBfmRk6N+hocdF12XfQ5ezJ5O0Qjc9jkoRF5LRjlxWzhasyxQ43olLgJsl+kRHfonfYlZNOicqRjviYuTmZbcGzH/k0YlJdljETVnSH8aIZafFnCyEWmZVJyE6gQxrIY/poQkmz6nFyx/wCL0QlyVeylGWyURcL4jxKM7Oto5D1sp8rZxuNCQ2N/aUVNUxLiqKlf3k2T2U1sQ3GOxR3aMijDZCddDfsUmJqaJocOX2cbdnocmtFpdkY8SpLZmjyMWS40yWNpeJBVHizFjePLQpcVshlU9o1Vk2kjVFknXZOH+TR+SUJUxRvZFeWzipF8NIypTSSF/iaKTy2iaTyWMljjJ2uyHOvIUiaclo4rica+1ssascWpfe7LJdDLalsllrQj5aF86PqE7MbrsUlLoRjdEkhvizochjocFzJ5K0iMk1YynAjkj2Olk2OLJfjupD4w6PRJWqF4o0zO1JUdKzFGTVsj0NKOyP7JVexVWxY1OGiEZQuzlexrQ1xHTFNrsi+atClboRa9E20tCybojISTZF/opsVFr2SlEvRLaFLlqhqjF+2Vuz5dkk56RgxuC2RZ6J6Q9qxvR6H0VY17JQTWiD4PhRx8rJ5GpUxS5SGr2RXJE4r2J2yV+hStD6FVHFzmcZkL4kJP2Z5KqPp5ckZ+znoxdaJtzVEYpRIv0SXkLyMuFNC8R0pdmnsjxsmkPC+XNEPI4q7PZ5S7Fr7ZW70QVLY9M/oyPpCpItE9KyOzE2nRexSQ5WOy0+x6iK2YppOmiTuVE/8AGh43PyH5LZl5+xfyY5c48THkeOXFkpo19pJrovnEl2UkScviYdj+Zlmnpo+ntQMqOFriYriY58/H2OKgNbNsdJaITX/Rl4ctE4rsjXYmkOSoj+iCUSXY0J12a6GtE4KjhJH9mmqQlQ36ES7oUeJFNPsviQftknKO0PKn2JKrJ636MeNSVsemYsak7MkVJ8TImvEdst5E4sWNy6Pi7Kjk2uyKuY5K6KJaOicqkS07O9mFknUjxfkxdCipdmaovRB3Aj4z5RMuWPKmOTiy0dI+RxS2R2qIyaFKzXQqR/I5M5WheS2Kx67HL0x3A+RHRxblbMlt6LaQubQlrYoqJqh9aK0ZFT2Rkl8Tkx5LVHyMS47RN3NSPqV5WyS9o48nowfSTjtn/lioW+zE5Y50yEvIlO8rIu0MhfsVGn4siqMXJPYpJSMrdaHcYbINUZHF9kdmNLkZKc9kMnIl5bNsrirHsri7Kp2YY6of29UdErXRB/s9l7GnN2dF/oo/ok2kQeiKSFOG4in6RH47JH8kl+RaIt49C5dsxd7OP6IaRkyyi0fUbSY+foi6Hlm+jDKTjsyf7tkePrs4rkRVE2iDaVjyfoUUxKmXJI5Uxyd2ZJWdkY7uX2WjI1HdDx4owU12OSf2krRL9Ia0N+NoeSlaPkr+2R2tEeX2SI7JdmROrRCXONMqtEVTsfiNJogqX2aUWcP0Qtdk3Ho/IkrJzcNo5xzM90RiSioaR/8AkUtVI5cyt7NMR+SVaHGXO2Sir0alr2JNIcrdEdKieKtopxjs2no5ta+2WcovQ5a5EJclf2USySUkcVOOiNfof8jFfKieRLQncaRPaHkpcULXY2npEKj8i3IT1sjUTkmykKDiS3tHfZVp0Rv2N0R8uia/ZztEbon+2hVJUJRm+LPxxx7OUeyLlyOXIq5aPqHujDHfIcrFJdCfHsbogP5ciXjOyEtiVSN8i0RloryJL2SlxIq2NR40Rlx0VRRO49Fu6JLh5IxT/IiTY2khttaKvsg90VFohDdjkrHI0xaVnf2pdo5JDNVsSjVn8xN0L+THKXIzVNaFFIkvE9UcU0QxcUPa4lpaZjUnITJSdnDk7kKPHoUV2clY27opF7JRkujlqmTgk+SFJtCK8h6I/snK0d9k5LpGDGqtk4KzNJ+iMm47HT2fGVDcNmFcBJSRONbO14iyemSjGPxIx8f5Iq6bMtRlRKkiaog7iUOxypURqX2qj1RBNaLoltjyU6RjbgtjezNPhSIXJ2TlS0RkmrJ8nOiV1ojkWOaTM0489F8pbL/Qm4upF8Sboi7Q9HXRoyJ9o84y5I5JEexUpbJyV6E9EE29mSFRMPD8fRzXRafsk7fEjkivFiiuyVHCLKvxPi9GZRktCh2PkmYnomm4mPJUK9kZubtnJR7JzUlRjnBaHrZaJOpGhN1RbIvx2LbG+PROXKWuxQl2S0QfMzK2T8YbGmkTy+iFS7Jq0STe2YmmMXRkbujUFsXGYvEmlLZbZO4eyE21TIxdn1EPcTHpbJ0lZJNbFtWY3ZJr8Zjl4qjK1H0RoacZkNO5EXO+LLUVstei5RlZGakOexN32Thy6EpJ0RyUqZHy6If4zJka0xcpEN6oddMqtGJ3J2fDYpJ9M4cycuOj4Oxt/wDJHFJO2NUSVkXwZZm5TouS8ez8ca8SGNR8icqlRm5RSoxdmT9RK4VyZ7syuzHVGa47HKo2y+fRLGnGjnWhRahaE5SfkSnqkVZTcvtiUWmTaSpGK4R6JyXHyRHIqPqfpedzRSWpEMkWR3HiyuOkON6OCiKjI4voilFEoqa/k4N9kZfjRN+NjXN2KTicmpaJpvZDatlw6FLdSFBqRVEtujG98ZEk5eKK/HGkK6GyUdmVuKohEhC3aMkYwl4kp8UNqW5EpKTqxWNc3bOTl0bSPkmQj4mXJ40alHixLhHQpN6HDyoyyrHoUXOPJi6ItylbPmJ6MMJPsmseMUXkRmUl8THCT+RHK72ZFDLK2j8cUKSY43G0KmSVovi9ix48iOCgyUmncTkm/Elsg6j5Esl6IxuiUU3oi+DHJJEo6sdceSHJ/wDJyy3dF8fJmPylzFJpNnlP4lKOmPxVmRuXQr6kU+OiEr0N0J8ibTE+MuTOX5I2jcpUKMcaJ1ak3omuH9FqLoXGRCakXxfJHy8iDXskueOmO4RqJBtxpmLqzG/SJ30hJcEjPKp0z6dVAz5ZUzkvbJEFWxfopLR1o6E7dE430Xx7JZHFjyfkI8sWyUoSx8vZJts9mN8Vo2+hS46Y+y3xN1S6ISS0KWtk7rRi62Jp6I6ujT+RKbrRFKa8xuMXSMeXdF0KW9HKJVk01dEMj48Tk1TaJu9MjPg69Dpw0KO+R8VotwdscvRC7on4dClyiOXF7K2NaoxLj0TS0xtJH1EF8j6XOpxo+rvG3Ri4yhsbZFUZJfonHnFSIrktDe6E6dk4c9ompQNT2fNdCtaojGlZORinBPyP+tErRxk1dHGjnxFJxIJVbJS9EZeJHUOiV9RRG09lrlscY+jiPsXGhtuBiy+mPFzYpKPiSqMjxq0KblGyM1LRLC2RjJOidOVM4RJXLxI44rstWTTZjfjsnjjPyOPjou9kW3Ia9syS4xokuUXEwt4dE+b2z+h16F2fi1sjrRC4bRal5SPFpkKRkTkddEZKSJxd2jH5dmWNO0YMXPbOCTFG9CfpMSaFBX5HFvSJQ8bR+TeyLsWSRKck+QqnsjkjdGTldow70yUKdjI/6qElyIprsi6k2NrJpCXjxFHjHQlT5E6nq9idUSjzlZKNQL5T0SjXkjJG5WyNOXZGLotQlRJtG5K0QcoTtif5FszycNGOp7M2OMtoyZq8Sky9jjuxCIL0ydXRNJR0KRWyeKnyMM4R0ytiahaZKpGPKuPBE8tSojlqRe7HJv2Ql5H9EuMJGaLmriKRjetkslqjFPj2TzXqI+9kJ26Rx4rZPWyDfCxu5WQlepCxpToqnRSizFJcdjy8nTHSOKqmR/gyrwtEeuVClbo3IxpEKVk8nmSaa0Y4tksLTtsxKLSZ9TLy0YXUSU7lRKPFbJZH6Z30c98RRaIsunom6ZJKWilFqiT3YpNkscW7RGXJ0SholBSj4kofihT7IRvsljj6Px8WP6eUI8iq6IOUiSh7JKUfgOJ8exx5u0abocbRJ+KMab8onKc0ON9jfhRHu2ReuUSG5WzJfMlTkeCVCX7OMpnJ9Dm4eJGVmmqJQ4ZBWkPvQ2/RXlTL4ypGJ/szwfZiaiibeTofL8dkucFZHyVSJYo86Iya0Vbs3Rj/AJIqLJY6lZJLkSp6ROPSKa6F/JOP8EetkeXKvRlflRFpLZOcHHQ9yQ5rJA/2PiQ5RJyTRBVGiTblRk64ohiXDYmvZx2QVNmKkKLp0ajHyNcaKrSMPJQ8j8iWyMuV2K+Y/N6KljnYlzfkOEOqMsUmc5XoxyUj55B1Filb0erJbZOZS4chZXVGNTa0jInDaHy/FV9kf8ngyampCV7F4jTa0cpdIXZ0KUfY6vQ+7JzrYpP2KSbPyuLpkmyJOPmXbIR8W2K2YaiPi9x7JSlFkvIk2omKPDyZ/wCiPtHPk9GTUiyNJWRyqMnZOX+O0RfKrMsE+hXdEpX4Mk1dRONRt/aDSIXk2Oa5G+SbMmO46N3sh8bI1dnq6E9aNyRLw7HBT3ZVyOj6bPwVE4vIzNGoqjHCnyMs4yjRyGhsvRJlzToqSIq2Sa6ROaiNv2OW6Ix5SpmZRqiK2J/s6ZGlAaVEONmO+dGd8OiSU9slFtEsqUeKNyI43GGjI2+x9HNmqs4PgcUkQb42OHmmfUcbpdiXDY/KJxroRilotT2ux4pVY86hokuUeVCm4klcbPzJOh90VKjN4ocZ2V4jlZBL8RF8X0ZL9mTULRKji0RZ2VSofi99D0KROdeSIw5P8jJ9JGSaY6fkY6k79mVTi7IT/bJ2uhSo5uWhJy0cGtjbXkhzXNNnPeyTTV2LchPjLojLkZeKkTha0dPYsPNaG+Oht9kXaJSumSqezimtlVowyg1THC7oS/HtH438kQy8nUicXzINxXkTaapE3ehwjHoW00xRpUiTcmW62KWqFvshHhG2ZM/iZ8iaSQsnKFGSSiiE8WSOxoS0Qv2O5CNdDipxdEV4aFGnbE09EtKkRUV/Z9RvUiFI43GxO/RGTu0LUbiRm8qUfZLHKGh5fRB+5GR/ohUWK2+SLiz8cZPRypUTZhlcaHJxm6IxS0yUuPjQm4kpexSscqIvZKSObfRHJT8xLdoljUnZOTk6RgivZKsb0KUXAxfyc/SIuo2yU+b0Li5CXlR9TNLGoIa5R4i8FsuEYKSMsrZFRohikx3Y06sjKtMTvYpWcoolro20UOWyuTsy3ZrjZarRz4uzT2JtCdKzHK+xpWZKUtDjKuTGRnxRzbIXLSHicXTJr0fTtNUZ6THLZPJ0Rtq0OSvi0dPlE47JJxFjbRGMuVMyR4mGTfjIin0i+LZG/ROTohJtOjGlGNse8mjJLgxOtok7doTfJM5QlPZGnLRlpOmRmpriSdMwTVXIc6qifZXoy/43ZzWSOiLpcSXKEk2Rd7ZGQ5tM+RuBy/JongcY6FLiSu7H+y7H8dEZuI8saGrVoncVRf7JKxb0Qk4rQm32SrswR5eTM21RWyUSDpUjDSl5Im+L0KO+R+WLdM76JvjLRKUpdnKjHkfRkjD0PQo8hPg6RXjo4OrHKKdMUI1tm+iEnB+SOcXk5InmUNok3Nc0zC6tkVzlcujJHk9H0+S47Jzs5puieJT7HDjpHjDbJPl0JP0JxaPy8XTFkUtCRjxVLmZm4rsjjdWiUtlJ7PEl/B12J8HY7eOx7EkPa2RX8EIJ9icUOKbMWT/mim3aJuN0hZEmY0sstmRVLTJR/ZFOMbZDyPxtxJqhNkpWRpF7svxMTbdsxuKts/JzVIlcYbIJTZlSholL+DHcyeGCjYsUmieL/wCTBL0RqiTpJk48dxMDbk+RtTcjHkcmN07HK40cbIRp7HG0Ukba0Q+JKuzOlKOhSlHHSFwhHyMnHncOiuSsTL3bEa4Uh45Udqi2yE6WycmtxOVjZCKgrKcloladH4+XxIZfxS8hz22OViXJUyUHjdmOfJUS/RetEaZ48RUxR/Y5KOiFylRLFXRL8kyMHCBkfIlvohk4Ko9lXLbP/RGOmTlyVpEYbtjlyg0kT3iiiEm+zkZdQ0R8OhR5LY060ckxKV2uiNttkscZiUsWjFJuQ2+h429kZOfZJuUh6OX6Ho1VEGcXxsjm5aY+XoTUVchxlF3Lo0/6IkdzHJqRdxqjIKbWkSd9il40UK/0fjeSOynDRpiSZF0iM040Lsl49lkJ8KkOf5eieRRdCzSTHUtl0R6LSexSx+h5F7JN/j8SMn8UQj4qxz4SORz5aJPypEXU6KqfFmXC4OokPHxIfKh8pXR+ZrxZGf44mK8j5GTlx0SvhbJKlZJe0IemfyN6VH5OWibNp6Jxr5DalSFNXxoko+jcXokmtsxzlQ6W2NUxv2xU9kZRGzHmrTMyjP4kb6PxSohKKhU+yeHjtEEiZB7tidsg6bZtyN30Rg2ZY1KkbXRXOVHBfGaMcPSFjro+LMc/EcHytkv2jHHlIlxekQhwd0TyNz2Sk0rJy5b9nLRCX6Mq3sX8GLHkIp/FmV8Y0T5PRWtn9/avTOH/AMkKskL+S/bHvZilJej8XPbP9czl+WOzDGT0Ti4x2O2P9MxqHGmjLBx+Jz0R62i4romvY5z/AGSl+VEZtKjpkqPWiHhslTVkJ1LZBcoWRuK2SmmKXjxFHn0c1FWyOfyWiX1HBvRL/JK0jUUNzmLK64lpIttWOVROKa5GaG9EXT2aWjHjXZ9RF2RaRizWRyxnKjPFPRJwhHiN2f2Noa0J+RFedk4li6OIsjriRyPltCyr9DcRVJ3Ez7VH4ZRjyLb2crgmxZX0PydkZemRUZTozRro1y0P+SmcW1Y6bVlJdEnqi3RerFJxJ5LWiNx7GlGWx40n4sytJUYt/L0Y8q4OzHCFXR9TicX4kMabsfF9HLdH/NjnzfFEvjxRli+NlsltJkZJJUZcf5NkopH09XQ8MJEXyfmZu9H0/wAjPO56E1yHCLYmqoir6M0q6FF9jbI5I8KY+KaY8m9ovyMcktMlPh8C+XZmbj4rouuitFnZHHRDjFOQ7lBHfaKVFLlonJJ6OSmxy0dnslFr7Kq0K/ZXNdkJUiXk7NqNshjc1oxRccVyMm+hWqTJd6O2Q6oyKpEMi6ZNOSolgiojpwoi+KISuJlXkY5U6RPIoEM0ZM4/kns8ISpG27IpcbHbPZCoS2ZlqxSXoo6JSscv0UuN+ycZ3yl0QyrpmNtPR9Rf5NjFdHvZz4mOKvnFmVtdkHrRq3Y58lR0RfEyyUn4/bTLro5WNuqFvRjlWmNUziy2SbRjlWkKeWuKJTljVMp2XGRF7ohLdMyxcvIinXEp+yUuI27K/ZhXjoyY2uhccaOUJLZPFTuBjd2cqNdClqhXR8jZNXjOyC5MlHiZJqkNbItDl+VcR3jlsx5m7G/yE1s9FEVyjQsLj0SaXyLj/wAknFSHoj2SONsehUz/AJoSjXY9vRRxVWLvsUJt0ZItKzvs+kXJ0jDhlHaPrm4Ue+xLjIeNdjtbMU+eOpFNSse1yJTtFH8EcTXbH4OyUnkd0KXJcTG5cqMjitGNPi6P7IxcnonGWPv7KzlyjRGP7MMlHbJzHZEsxTUJWzIvy+UTHNwTPpt3MzZOUirGR5XSHHlD+RQ5SqROPB+I032PZrsguTs/6PdMkqLHXosQ3seyL4slO1QjFLh7Ppfqk4H18vypJIct6OVn5GcGzyx6FLmuhvh0Ri8jY3ROX6Mck5XNlxm/Eg5W1QsKWxVBNkW57JeDJP8AZh8Nj8+x6Ha2QSpn8E6S0W2qHGmPQ02ymjFNpUyVStISjjhXsp1shGUpaH4+L7IbZilxTs3ts1xs4c1yHVCOjEoTSjBbMn0flsj9PKfZkxcGkSsv0dIQnqqF0Rjy9GKEZ7ZkjTPo3CeLx7MsseKKUmZHvRV9nFxZzom3KSOfAlbE6YnxWz/Y9Dx0Qxy7RGMoxFzb2ZFyP9a2TychKLiSqOiN9j2h7iR7oe3TO0J0tHb5MnT2KHsycaG1wtEPHyJTblYshDR9RtnUrPF+THKtEKXRkS7NPoYnR9IvyTs+rcsL5mLPLg8a7Jyb1IkRRKTbol8T6PEp5KkfUY1jlKCR9LHFxu9mRcVUTJhnx5+iMnijoyKWmxY1HbJSVji30SgIjSdsUmyc+IlyfIi+KY5Otn5JRiRl+XZyRlqVGW7ohSG66G7dscqlocrGyMt2SncxwslaIxbIwk2ZIOCNynTK4viyFxbj9seK9si/K2N9lWR/ZsVob5MXZN+Wj+z6fK8Ls5S+pn5GPH/5ZWzHwzzbZlSc6Q5aoj+yGyLlGS4kF4csjOH02V3E+oxxww5xJZJ5FwrRlquL7Mz6JOuzIkpaOdonakYVyMrXIxyasuPHyJ4+O0OFK2VZUvZtEHumdvRkhJKy9HkkPizVkvslZNfol0KFkEoijJvxJ/2SdClyjTIuuxrdiZap0NOqEuH2Umuh22KF9DuJ/wBOzTdCbgYZueaz6nLx8TDOMJWZ8bWP8qJRff2jqRhdZBThJ8ZGP6fF/wAmb6OLSQ6x+NmecMs7ih1JbHG9nGiOVY/RJrKNuDqLJtSls5OPQp8+/tlaVE1/8k1w7Y4t7Q3eiM/HiZJPqzCo3TMj1o42UxbWycK7KrRRpvRGvZcSUtHTJU+jSPWhtkdIpcSv2f8AByfSL/YqcrJThHolT+yo583RFqMrMjbnZHlEhJzXCRTToSI1dkpU9GOUuVmFtLlJ0QzrP0fUYscfIWO7kjjfYop/aL2P5EuxrZWjHpI7lRlZJ+BFcuyOlQ4rZLRL42fTJPbMjpCZjVMj0ZXy0xb2RSUbKrog7Fpozv0OPiVSGiD8iXyHox/ZiehRXY9MujtkixIl2T0Psj8jKvL7ZHxVIwwTVshFbJ5JVGItPRkxrJFuQ1xwaMe+z//EACkRAAICAgIBBAMAAwEBAQAAAAABAhEDIRIxQQQQEyIyUWEgQnEjFFL/2gAIAQIBAT8B8CMjsTMc/D9pRfgSd/4S0c0+xpdot9IxYZTWyOCtDXFjVnROiKInNR7M0n4J53Q5u9nLZDg1o4uTpEcPFbMkeJlyTXQk8q/p6WUoOpHp+ilfIu9j0TkkZZoXJuyUeaJ4fvoaU/pMk/8A51xiQkyEt7HTMTXRKShLZF/bRa57HGPgnJvRVMStJko8hIhl2PMpdCd+3/CMiI0ibLE7Jrl0LE/JxUUQ4vaMedwJ+q2PPzmRdj/pOcW6QslaInqLrQslqmZcqgzJmv8AEjy7PSx4K5DyJuomT1M8emiXqVLseGdWifp3XND5c9HpL4Ed2j8VQtnqMUuyeTjOj08pZIk7iSdseJSlZLBZKG6Mnp0ujFi+ooKLJw5MUaRCP2tkoO7FA4Ebihr9DjRKHBEWRbLfsrZDS2SOBR0aJb6ODZDHxQytiw27Mn1donm0TXGdiblKyEmKXMzKno+BZELBx7RGFnDVIWNqR8Kn2ep9Hjl0Rv0+XjLoywpV4MeJJnp4OKsclGVinFnbPUpyjSPU4JqVEMeSCVshOl9h12hy4vZ8lMklJEI8kzDB8RflRwrsdD0KVoj3Rk60QdqmRlemNEp2eRTSFLl0KyLIS8My14EqXvWicuJCbZ8q6HvoQujKOh/dibixZZIjmWNbHP5HZ0KX7FBdoVGWKStC/aPUcuzLjeT7MWS40y3BmPLcKR8c5KzDi/Zxpko2ZMkfmqQ1jltk8cZL6i9PLjYsMZqzJjp6JRqJim4OqFHhInFc9GSDcdEcciV2KLodY+yMuTOH6Fjso+OJlSXQtkPod+2qI9+8rsuzJ2R/ElDyR0LYiatGSNLQ7I9GPslC2NeEPG6tkIWcnj7FWR6MnJaZi6J4pZBR4/Vk4SWyC59ixLwV/wDkVIey9GX00XLkx4YKFI3BmN/IqF9EySm3Y7MWXCsW+yUuWOxOux5koizNshb2N8lof3eyS4I9LPktiGRbkTghYv0OP7K469or7EY7JpVoejKLQqb2JxJbQ1RB+80kSxp7PhTPj4vRO6sxvlImtEPqZJKTI3/qOX1+xj9RFOrMnq4xT4PZH1TnuRjks0DjxlsxRvZ9kySsh/Cj1UZSjUT7snk8GOXFWyFMck4Uh0nsavaMCk8VMyKV0fHN6JRcJUY8qjo+RLaPlsjU9Mh9HoxvlssiqJFEjkWeRT+o8tI5uQ2NHNqWhZqPlTGiK98yVCJ3FkN9mWNx0Qi8crIS5M9QuESLtmOL7KTQ/T430eo9PkxzbMGT4clZTDSpro9VjbfJGDIuNMbs46FoiZmxUl9mTV7RihLIuJHDLHHZ6aCzaZn9PCMqHFcqR6dNIzw4ZUyOBShzJLD1Lsz4YR/EtrRGNix2Qw2iH0GrIYZeTJj4K2N8ui7fH2pMZJsV0KfgTtnaGrRVdkFv2iQS8jS5HqYLhaEiUOTsumJ2iUbODxvkieVZFTIJR+wvVXLijL6mWKVCyPJ0ZILItmfAp5KaPT5nBVIuOWJH6CXJlaJHJvQ4KqJYYpDwNy0emhGOQlH5Xo+P49EoNTJY/tZjdbR6rE8i0YZL4KvZOFysmqIY+TOFEIEZJRonG9oi6WybS2NxyQpksTjI0JKyUPKOV+zN9i3sgvbsTadHPwyE1dI5USkfJKqZYtlC17Sp6JRpkFyjRDCoyMmKMtsjCKMmiUrlYqlIxRSWjgmJJEnSs/NWRN2SVujiOUlkIyaVolBVZ80IS2ZJRm/qRhxdD2qZH6id7MsLMcXElstxIzkyLlWyOyWeVjzaHOx9+1+COvaWkKSop9kC9jPtysX22Y/rKx/YYtnQhY21YtuiX6Jwyt3E+9bMEiXZJyofKrQ80/xY+XKmODx/Y9PltF7LO2JJI6Iwc2fAomVSgSSIO1si1dM9Rji19TGnVCvv2qiKQ3cjJLwjg1srCsasjGFaK+tCuJJ09Ck3oQkPR2SQhnxoV9D+onfs7Mc/tRlyuEhepmyE+XZX1KfRVF6og+MrMr5PXtJoxRp2UidJEs3LWMyco9kpc5WjFWSNSMcVB8TVDpCypuvfE5KZKckZc8HHiyjd2hy2Rl4Z+G2J6I9jI9mR8WU7J5GKfLRCqE7HEdFeREeyR0/avZujkaaIxSGSFD72ShyFhpCpOjpU/dEi00TnNdCxS7Zj6KizIlexYuDuI3z8DxPG7YlfR8aeya0KNkMUOQ8dEo0dMnIlFuQ75URuO2NLsdy6MmOXxbMNOFC0/ZUSx3Jsiv2ZFxRjlzlotwkQE7I/0v3W+xtezdde0zoWveftdbMT5NIy+njHaM2NTha/xvfsyK0K07JuzlQrKUlsapEHaERYuyc3RyslpjVjjWy7meo+qtGPJbqRCC7RJ2qYmoyr3l1ZKXE7keq/Ew2nonjbdmJPyWzJ/CMZVv3ohHYu6JIomrRGDidlezR0JXoeHJjfKJHJN9nN9FbGqGWa7LO2dFiHG2PQlZKdOmiUdngxRVklRJ+zdnfRT8kYeTPHlEjglIxQlFUW5aPUKUXaMLuGyHJS2ZH9ScpMjKX+o8cpYrZBbok6Z4IR0YvTwjtmaEXDSKopkkRTWx5DlftIsWn7P2fs2xX7R2Sb9vAtqiHGP5Dq9EnRHI62LLbo+eKlTMjhL8TonDlsW0IgJJmWND2dIg+JPJZZJaFpCl9bL8lKaEuGh6Y1Y3WRo9PGnZ/9UePAik9nB87KItmWS4/VkPUTi6kTdytFjFOhtCaY9MnFVZVe2/ZEiv0I8jK/w6FsXZN/aiT4xIqUnZLDc+QnR37Lsl+j035OxX4JSYtnkcEcdiWz/g0/Iq8ironzhK0Xy2SI9k8X/pyILiqJ+lU9mKPCNC2N0Rqi3/hxtHH9HgUv2JciT8e7lxFOxbR2MrRXtft0MatCH9dnHn9hq9FcCrZVj+pdnRkb7PT5f/Q34Gr2QJbF0f8ARKyuJDH8hkgkxoceUaYvo6HL9kpKrRij/sN8p0ZVRHoh2Z9MhtDbIlWLEuBHf1JRUWJW6J4qI6KGUq9qoTPBsuXsySdnR37rsls6McpeRT5Ms3Y3oQ1ZKDkqMPp/jlyPSzj5Mkl0OjZokxPYm5OzHmceif27OiyyW4mOD47INLSErkSF0QM+2RFjcj8SMrITSVMdDFpkJJv7GRwg/qNp+0ZQXZLsrkJePZpnYvaRsWhryMR5GIkuKEzZyIpNlcGMw4Izx8j8ZaMMFN7M2NKWiX1XtLQ1a0YriPRB+6/KheST4xPTzuR1s5KT0eKG2ujJY7iZZxv6+3XQ+jlZQ/eMbJVHoTtk1aIWl7Niei6E9CZKmOXEexPR4EyTVltsY1ogrZlnwO42LWxt1bOVojKSdDPTz4O2ZmpS0ZY12Lo4t6Rh9FJrZk9FGEbNPRDbKGVWxMn9tGPDw2NcrMUeI/2xRclaGvsTs5o79lysTExqyhohInfIil7dFnftX7OjrZ9mx+3R/CqHTEiTTEyDXgy7lbMUiaJzvRAp8rOyx5bZObkN0jFLjIn6jItxIT547ZOP/oxLiLYkPSOjyOVow5Lsh2PaoxSUcXGhwXZw5GDHBv7E0oSpFkKbpmbFCELiJe9X2OPF2jTQ7if0sf8Ak9C37UWP2RJWShoxKkZP6RddDkJpshFNWKK5UZYKHQ99CJHgR8kqolnyRjSFyWTY2RLGMn+VHD6kIJFbO1RCbiuKJM6Ohb7KHonmk2kb9n7WiPRP9jlWkRdoolZsizQztHXsnYmdu/ZnRfLr2f8ARrWhXWxURdF1I37eRl+y2PehLyV7IsRdMck41RXEm48dEVY0O7NnZRY+yktkZWJFEkUhWy7RG7PJJi2ihISJR9n7aPIvaKsyRtFOJeziVsavZpiGm2KTWhEdM8HQtiFofRbFK0RGLTs7Y26PGyqOjMp9oeiDTiXTHv2ux0JUL30PR4Iq9j907Kp+zZJ7Oz+DWhIs7IZeH1JSHs2pFuvZyIy3TF2eRryiLpHZ0eCD2PTPJ8jc6KTOPEUxbP4cuMti2dknohvsyyqR3sh0MUvbyOKIUx6Zfs42L9MnF0QdHybLs67Izg2NnizyP2fsxf0lfgxQcVbJulZ4tFMb8HQ35Rp/Y62O2OVa9+zVFEv6dHTPI5rojAT4slIScp7IknxJypWzFNTaM35MxdnB+CRFq/8ACK4slsSGi6G7Pk1stN6Frsboe0fGl0ceS2LSoj+y1R0LfY2KXgX9L9pK0QjUaJVEe2T6FFpC+ov0XTJRUiyJ/R6Z5JbdDpD2P9olC9kW0VeyC2S7EOqtmsmj4JwfKJOTl2RexzRn9NezjUq92i2Wh+zVe3FMyx4i6tnFt2Wf8NjpIteCrViVj/Qlqhxoiy03RXsrkcFJ0SjxMeH5VZk+ukOTMe2T0yT1Yr7YmXYh9n+xJWhXE7FbFF2fJxlRdKznovWyWyNRlZ8lk3x2RtsnAj6l3bMuTk7iX+yLv2asSGrPxHs6FIn9keBTG7Z40J69nE6LJfsT/ZzIUzgr2NRP4fiqRxd2zhKrISdDkjsh2S/pL9HejrQv6eRj/Y/sh6XEqQ3+izhFyse46Iu9DX7JbIPY05dE20hRpWcnLv24s6/wosbOfE5c+jlx7L5LQjJshFUddC7G9kmPqxPwVZKDshH67I14H17SbFJ+CWVw7PmbQ3USP9NeBdkuz+nn2Zksq1se9ClWiW2Jy5U+ha6Kt0Si7I9UQjszN1SKKI/VMasxNONMnJRfsiXsvZMkfe9G2itaHdkdGkL7M1YkPTH+y+RHoiq2xSTGilVFbpCbXZyQ5EMjuyT56ZJfU/IlH66IRa/IjVUOfHRCVoUvuNofR2iNPsv9DW0zvY2KTsb3Y4p7RJcUTfxxs+TkIk67ItZFolp0Tl4RCb8l+3EaFSXvo/4KW/Z2mJpGR/YxsZHoZFkEUkrG6Fkd6JfshJ8jal7Wkh0lsjt+zsk6I7JCdGWPydGKFIdR6N0STe0KQ1QnUh7FrRKLILRNtGJ/WmS2Z5Xovic22OKmjjKHRG5djwyeSzHjXn2YnaF17PssWzoo5bokiY/suRGJasnLirRHLfZz/RCSkyVjIpLsnKjH+xfYb4syzvoS5dl1pGJE5JaJPZFjpkIrkWUowstUR/prr27Q/wAjoidnGkVfZF06JOkS7ORGSoTtk9aMcdDaQ8jb0M70KHH22IfZ5H7OKOyXZX1oWhwsiq0ZIJk8UsbMRRKKezZxTL4kZyjLY/2TRB+GQVStnH9Dx2tko8GJ7HoxsaHtUWkiLJQl2eRbVMbvo2JiEy9kE+RP8SX7McrkcGRi+ROrOWqQ22YYa37UW32UL2aHv3RL+HfYuxuhZN0JfbRJDXLZwfaE3QylQnbMi/1RLCuz5PBz5MTQ3qiGTRKetEpimctbI/XQnottlJnjRSfZ9ZEm4mO/Iii69l+yKiZPt0ZIctIw4uK+x9Wc/wBEWlK2ZJatEYKrPGvdbEmS0R2MVjYmXQp2yzsydn9RFtKyciEmiLuJaWhsm/rohHgrY5f7EZcnbOCFCkUPUTlKMiM/2OGiOPdlnLkRVIdojKiKl2eKF2ZETlRHIml7NE0zxRC2ShxRj0rfZKWiT0clRTlIw+ncY/Y4JHH3ijnqmSKOJo5Feyjsm0RRONm0JtwHJFb0YZXKjLFeDJESXknk/wBUcuT4iVCH0ZdIeTRDMpSpkpRk9H/BXdMlDeiuJBasy5fAoN9mqK39RJrcjJmSWji3sXaQ3QpckRf7OrE9aOTH2SxybHhXw35JYtEK57LvQt6R/Dr2tMl/ffnxE+TI0pE5pvXsnZS8ilsbUj+EJ6pjqS0feJBeSLqyWTwRmuyUeTtEaRQi7M1sWPjC2Rw85chYaRfgpR2/bijJL440TU3OyDbjs5f6o4uGxVLRkg2+CI6VCh9rK/Z50NUSvwR0rJJN2TkkJ2YsihHZm9Qsn0ohG50xLifLwdnyybskLojob5O2J2MaUokVRTu/b8h1Hod9ksjI9ExY/LFDRGW+I9DbTJcbskkujHpFUzo+SuzkS+52qHjdUiPI8kmq2fLFukNmT9FRHJI510RnfYu7Q4LnyJvyQ6O0Wr0Skn0WSlxEZsnEUtWQdsyJXaOcYin8sqRkxuKtmFXGzj7dHK0L9DNDdIi+XZRy4srZqqJQIrRMllYvUVojX5Ibs/6VoSr2ZPNxIRln6OMsX0I6P6Rok1FGTIrIxczhKPRjly+sjKLKnoTT7MrSVohkISc40ym42J+CKJPQnYvqLTM1NketGXF8phfH6M5//kk25Eo7IWnyJTU48WYcnx3Ecr9mcqE0xlbOLZaSojIavaHLRduial4FJrRPZxonhfLkY3oyz4ox5VPQ0uJOkfNf1h2N8dCi3HZDlHRGfKQ6YtIbMzUzJb0iDkiEnyo4K7Rmi0j4nCXI80VapkYJbIypkZ8tCxxsaSWiKs+sTJb6PsS4TiR0ZMj8E4cnaIPitkcsXLZmmvBgny0SlUjJibfJEHS2ckXZQn7xjsn2XxFO9DsSXtRkuO2J8iWTjqQsi5EqkRxuDtDlNohFvsi4xY58slGW+VIitH4IWa3RCXKOx2uiCadyOmR+7tnNKRCTUbOTkjIuPZxr7D48S0iEOTs5KL0KTkctEHodVY5J1Q9didj1I48mPEl2LHbonDiJa+xBU9DovdDF2PTIFpHM2xfUmRY7F0f9FJPoZKXJULGk7MiVE1GuhSIVLRDGujp2ZHUuQ3GLMOT5FTG6lRkk4sjViSSpElaMcr0yfWiMicExySVFoceaolF9EuUXsSbZFnFLZB0Q2hOUWYsnyy4nxJPRPZLo48jGmtsdyl/BTjYlzdmaHGNkKcbHKpHcjY15OQppbZyUuhWjYoyEcfJkbS0YuT7PIo0NkRmSV6JQSQlBro4cXaIP9jWzNES4y2Y5rmSV7JX5McP2RlRLZ6eW5KQr7FuRt6MmOa0QhWz5HjZyUlyPUW+iK0YvuidRgQbvZ0j83RgccEiUot3ElK2W/IpfGjk5dElKjc3o5SgTzNqmjCtHx7tmv9Tmr2aaFqROLkjDBRP6c2+hSY+jwPMRyuQo6sk/ZyXRN0ztjjWhupUIh+RLs8WZI5ZvSMPp9fY8mSrK1ofYvtElfMbXSFBLZJ8WSyWWTqSPT1x2SW9E8Mu0R4JUiUWOI99CtMcf2R6JKtiJxQpxWj8zjwiKXJH1ktkKvRk6ojJIljV2SutGNKRKKRFRRPQnQ5Jiboi/2SgiEJJaIcvI6YzhcrHGirZkmzH9nZKRDIjKtkHbok/CJWkNy4nDdi6Mr4mPcT1EqWiEmtsWTlsdS8Dinsa4mWf6ItqIpJIlmIffZTFDkSrGj5kyNyexaJy2SMk6JSsxumfk9iSStE0+LMEbjslEeN8mOWzk2RRMbroU77JRtkYcXs5JMa3Z5OkRbOSGrOaifJbJRa2iTkpWyGWL6RK0jHLlSZk0iL3YluxLk9nBDVGb1HDRk3tEWrJxXZlh5IJRVIf1HLezLOT/ABIxyfkxcmtifgXXIhPyj5I0RyLlRJqQo2/sQgZox4nHevb45N7IxV0T+vRjycnxJT+3FGeTiRa4pGGHMnjUWRirFNXSHkoxu42PZJCuhSbZPbPBJeRStaI2zvZCV6ZmMDpMnkvswxUo8mTlKM6SPu3ZjW7JvkKJPS0cr6FKjkZcfLZjp6IpWSjZK2SgNaJQ5dmL44xHJZHRKXHRLHy2h+nlFdnxTjHQ3OtmKLcLMcOMR44vZfFEtqyFPZzjElkk3olKceyD0cWnaFpmaMsjIQlaMSWKGzNctxJpJjSix/kQ6om6YrsYpq/b5VHRKXOOhPiQbloenZHJZ8SltiShdGT7GGFQMijFkP2zFkUzJSdlTbH1QiV9j0rO9HBQ2KQnaP8AU5p6ETlotylSJ5Vg8HyrLdEcsscaMk3wTRjlcdnx2J8VRObekYVUdkkKpaJVjQoOeyWEmmiD5o3EuNWR+2yMHZJTlHRzyY40VaLT0zzox35JRjMSpn/SUKFuAofsT1SJJci1DSNvseJdoT0NiSs+VEsik+zSiKEIbJ8eNkWkR+2ycLZKkjvRLnF2Rn8nYm1Oh2kfNOP1oulTIvROTOThs9R65y0YeU/xRGLn+R8tx4mOfLR8nglkUSWZR6RGbmzNmniZgy8nbHc2RJIqLJ1FfU52hVehNIipZJ0jFj4LZ6mr2KQ41scuJ+Ss/Eyd8l7SkfPRGfLojFXsb3Yrls7WiGuzsktE7OEpOkQ9O4T+w5+D840iUpRVMjJEpcVoWdMj93bJQfKx7K4rZx/2NEK7JY3dkBuF7MigenwYZK2iNdRVGSDu0OdEHxZj3KzJlfKkhY7qyUado4rIqZHE4XRDcCNIyfs5qKou0SoXdnZHJLG7R6bLPJG2epbTuQpUSlcSUriY3cSUXZF3olPgJKbJY4IWRJilbs0KL6NLQ9CsctD5SPxTMduVj/pCf6If+qqQ4fGKcpS4jjxdnpsjlKvBJ/onm+N7Fl5ohlUtIq1oyy4R0fJ9tsg20TjKcjg3ojNY4UY8vLRJLon6ZKVo+FpEYqK2RNsa0U1KyTdaMf4lVslLmz4yVR6KbOMqOLSOBgzRUFE9ZOLonGuiMeWmPFwZqJ/sW09E42jFEmrZwjEcnE+zHy6IxZlQ2kcb2VTJx5rR8cUhuL6J5XhkR9RPl9SUJVbFjp2TxfIz6YVxgRzKT0eq9RBz4yMHx19Oj44wVxIMyQbuyWOUpUjF/wCaoX3Z8ajEzZIwXExwuVoyt32Jyn0Rb400ShLFKyMuRihf4meDxqkY+eQnJxZj/bMuTeiCvbPk3xR6b06k7kZsMoz/AIOqIO5bE40J3Kokl8nQ3Z0VKXZNUti2OSTFK2dCaQ1aslslKSIuzyVsxw5tktMlkSdFqOkZIJR+x1tH5aZh/wDLY8znGzH6jkqYt7Mq5uj4lCNGT0uOWzBiUFQ+qItRJy0Y4J/dk+qIrijNldE5GOSTMyj2jA+IlyZOPP8AI3B6MGbg9E8jnIwZVgezNU3ZL6mLHz2zI1HSIfkhKXgyTjFfYnHG+icKdozuZhvHHkekmnFkZWSkkzkn0Tm72Y2q0Z15ZHk46IvX9JJpWRuhEls/Eu+/ZaMz4rkyVZXyQ3kjIk7jTOHN8URxtMyrVHNxXE9KpTnQkfGrPUy4xsx0+0cEvxNj3ofVCjKx7kqPmb8HGWe2iXBC+8iSVHRibirPmtEpVHZjcZytCTbPURr6oeXVM4K02Ry8tEnbL2YMtOmfPGU2prRHDjnGzJ6eMo3ElHl2ZbX1McnG+JRLQnscORqLPUNvaE5KuJCOR7kSui0qPV2vxIJtXZ90y2xN9P2nU1spIyNLoiqWyOGMtrs+KWORIzz5R4noouEf+l0x7KT0yUox0JqiUqLc3o+O3bJSS0R3l0cInwfdkvSMxwaZK+BHHKaoxQrH9iaj2h5HL6mKLxbIttWTerOMZVYkqJpKOihR5SpDkoonk/RheWtuhLjHZ6mMVtErbtmLaOzt0Y3xyUYns9W6Wj0v2WxJfIN0diez1O0YOzk6F0MY9RMja2KTm6YtxswupGWbZHyZEuCMWSUpqyX5DehdHqormX9x6iYiT2ZRryYG2PsjG2cUjI2Y9D2Y4o4RTsizJpaJMwL6nj2lFJGJdszPZF/dGJ7aJN8TKjNpHpuj/8QAPBAAAgIBAgUEAQMCBQMDAwUAAQIAAxESIQQTIjFBMkJRYSMUUnEzgQVikaGxJHLBEEPhNFPRRHOCkqL/2gAIAQEABj8C3/8AS0v6vEqQ9eWGYHXo4dvAhAOYrcR6fua+G0zmDuY1bDOZj2iHT5nNXcQI3TmDL6fuaq7jcvwTHyMMIVPcTI/9Ov0QAH8c27QOqkgTVZ/pOtdIBnQQVmusKW/bPzUivV7p+oZs+DAVH44hyZq5v8Tf8ifJgtqQ5MOB+SBj0tHU+madWDD7ifiO7JgMfIgpr4jRp8ZnJsbWP3RVO8O/SYdRnafU2GBiKuM5n5D0/E6NlMqC7wEbH/02aZXtNPmMIEUdc/IDFKnaKIy6g5Huf1CKgQ6j5/8ATGdpmwYH3GzsBCG2Ige305nK4YZ27wLkjJ8RUscmIEOceDGtJ0sdtpzn3LQCxGQkZ3m0JvXCt2mrT0wxq3M11kYE1atAM67CWhIxtsJy03xAHViW+ZlLuX9RWUCxV74multNg8fcfhbv6o7TGrE2Ocx622+DCpgYb2TVYuWmms8rMzzOYTuZsxU/Eo0dTxQx7xwWziK0L5wYXU9Q7wMBqInU2BjtDpPaVHGwhXOJ6smcxshD5mc7RbA22Y2ncQEeqBrXXR9TTqAMJr8doOdp5ucGv5n/AFOEWsYRceIxHaAsv8QB9rQO00J2MyvaYn5B0zXX1RWbYQfBEFYM/TYGFitxKHm1DQGXbEu6gOWZSCB0TleR4mx6z4ikr3gxtBSznkn48QaX1r8iOdWMwa+rV5ms1jQO0Do3LyOwmFzdnxNbA0v5Ersor1v5xOsdMO/9oWAwRDc3+kGmKbW2+pv2mk8Pn7i6F5Ymlxus1g6WEbqKtMMNcarzjtLVO0sGfMa298L4hspOxnLM27QjX3PbMXh8xtPaf5Y2n0kTD7TQgyIWv3EZaCAB8wVm7k3av9ZRZx3GtZWOnlqOqHiKuHsp4JnxXzIp7YEwj5Ii8zbPxPxnXQ41KX7wt9zXsFmAN4LAu0UuMMJY52jGX1I6LSCCyt5h0VtXXjL/ABPxoTn4lZ5ZWyFtzaYKi3aBc5+5mzE1cPaU+vEu4e/a/wBjiabVIYek/Mt4dySO+IgY8u1Y40mw/ImlvxD7manGPELWPkzmAcyA1roT7jLnMCZ2i14zjzNQOUicnsZUzL1zPvadU6BptEFhs6vifqdX8iC7tS/fEs0enMRWBdYuj+m065kDphcd+81k5mrHTAjL1fMKmf1MQam15m+0V+Gux8j5mpXFd6r1FZa/E6OcBhWb4+YF4ly9KN0DxOnZf/QHt8Q02FSyrqyDvETG05aHQAI4Lekxa37DvByewlda+o95gQivh14k29IQ/MWy7NfEkD8Ag/b8TWRnHiZhcdjMYyYRYuXm/RFt4YZ8xeH/AMQTSBsLfiU3U4fB9Y8iW02KO2Vafp7Uxq21RuadLeDAu7j5E0qn8mFFwJWMdQjkb5Had9JmPUT5hIgYrqA8mBfSs3OVM33SAV7N8wG/2/EOhugxluPMxLcejMavOazuIqhiYMHBECDxPVv5EL+2YZfxxWTv8Qsp2nLQZbzNOrI+41TsqJjYtEfiWxwrnGtTma6STUw7jvOTZUCCcqx90F6JycdhjvFQMWf3BvEpKjGe8XG4nNtrU6RjbvGsTavwIBWe/efOYM9oP2/MewHOITFsQ6XU5BlXEcW1lruurmZ2WJZVpezudPYy6u1d8+ILc7GLauMY8Tq7zPczUfV8CPXjaLrAyI60v+JeyCAnNT+ZVT+nbo3LQDl7j5hU7K/YR0I8zUPT5mF2Y98xU/3iGs9PmBH2HeaWbaYHmYZoB6sRlG0O+ZlcMPiacYMbbP1NC16cwFF3gC4H3DzGzN/T9TKA4iL2EKt2+YMbx1zvmM2IcvpIjVvvjs0HAcbQ9tD50W4zLaa9wgyHxnP/AMxb3sRQvcGVVbPWq6ta/wDEuLgrg+mBEbCDufCz9NzBco90P5SlP/2/BjsAGTVjWDA3L6xDoIVsQ6t5y27jaMB2/wDW+n+qirnQ0s5Raq9PUk5xGC0123AWv2q8xRSzWXn4lesaH+Iq1Eo3zKt9THyYpHT8wIveOirqL+IK8fk+JvjJmQd5jcsOwmtDAa1OB3irjb5mWGofIi/saDVscbTLGZ9Z8TLkBYwYZMz2E0qu3zHGdops8+Y/USsFuYJpAy0An1OVpmCBmEOJrr2EZs+oRyo0j4gVti0023iu8nGDKOFz0b4PiPw/C0OHODzF32+4y8Stn6x9gx7TkV8Sb8jUQi5Ijm/hVL2drT6pfprRNvWO8FgbcwKO8WoJres69B7GHFfJXO8dgehYy6cxfGTG1NBVcekx1VtKeJqF2TYNxmPqck2+37nLd/8Ap6PEZgehBiMrcPlVOzfM5hRmC9IOILeLoNa52b5lfLTtErr2J7mK1jf6znVvpx5mstrb7gOW0k+PEC68gwWIdxMlMf8AbMjudjBnqzG8CaSMkdjFFxzGRRtPyf6TAU4MC47CaSk2WatO0IMFy+geoRP82+806v7Rs7TJ3zNGcRnXuINR6oNPqnLfpzO+QZrTt8RdA/Im4gtpXVd8CUpdWzuNgGHaW8Rwh0XpgAat468S3I4tD0ux6cRl175xke4TkkctV3WPWLzZaR2Hics+2HTviA0jFidXfE/LSUw35Xc/+Jy+GYvWfJhUkaj8GAsdUZ2QgRLTv1RdY1VDeLeARVWOwha4D5V28Rqw2NX+hhQDXq7Y8ynVWGXGSvnEqPD06aju2oSxGOEHZfE39eN4+k5mg5QfHzMo2R+2VGxibGjLYu06FzPy9DeJyWtKknYHtMIc/O8Ry2Qw/wBI4YZ+DHA9SzmWH+0RtWlDFrxq+5k5xOYvxvNfeK5bc+JqC5i5GmNXnAfxFqtGNBguM1d8zf0gRdJ6poNepvmNY3SR4mpcYEsFm7eDDXb7Z1nY/M1VDog5W38QWJg3efEGnHNHS6ldpy8s4dd0Pj+J01kUlu+IVTp3yCBuY2aweK0HJaEeCfVMqVZ8+kQCxsAn1T/p+MHE11kZXzGKJzXb93eBW6XXxF/3grQ5WNU3Y9oUbxGox0Pscyo6w+rcAymwotNwHtlF/wDTx7/EqQnmVP8A+6whFzfiQeyOyox+zGrzjJi0IOo75mFfSAMYEZGbU33NW5z20+IENhLxWVhqilm3E5jepRFKsFY+rHaWaSHVfcO0Iz27xnDbHxFwJy2XtO/9py36MQq+6xR3qJ7wBZy51eYmnpdPT9xSSA3mEZ1CafEdz5EstJ3EIwB9zB7mOC3RPV6jCcZHzFDnOewEReZvnsY91Y1aBvPTlj4MDmvSqnVpErvanpfzOZXZaqKd18ZhqT8lhHqG2Ii3Vr9Fe5j8MUbhbF8j5lWMsc4YGV8UEVUVuqoNuZYtNHIsO6HvNNuqu8d99sRWs3MVlYID8zQtilT7prZ9TCVlWI2nHfqOGa6oY609sr5YW6r1YsO6xWbSAfSPMvSpMKB6xOZbaXcD0/tl3IZeIuxgZ8Sta0Cgd/uOfQVgsANrrtsd5qI5b9tMSzVotg5i6pk4zOv0RqwS5gXv8xzVnW22DFDag1pzHJ/mYZQV+YWT0wWrkL5jODqnKO5PmaWgQZYTI3H1Gtx/M5mekTWw/Ee01eB4isBpER0bc+IqQtjpMOD1QurQnVuIVYdhNJicWGy6dpZz6hzT7htK1d81Ptv2huV1Oo9OmV3WcTi/fIYTmaSgcboPic7Ro4coAyJLL0fmj79sUtSGQHOtTvObVSRzTqUw2XWBrD48zCD8h2bMtap3fA30zhjYh1atLYb1R7ACzDxEDdP1GtqpYMnUWJGMTSDufmcw4ZWGBNVz4o4vY48TUTqqxpJ77RLF3wnST2lFFtOlrN8rDVc66/gDeGkeotqYywO+dO2JZaMJ/M4hTqG+No5PrztmV/uHeFTM4Jh5ykau0fS3eIg/rjqLRV6iDvnEVSW0r2DRVY5HiL1dJmjO0rIX8bCag+MntF0tFT6mydY8Tev8R/2hDDKtH21fUaoq/wAxXQ7adLCIXOcntD7QJWxftC3pqEwhmG3M5vgbTxo0zpPaYVdWRMp/pH/Vv0r223lHMVXDnAeUrVRXxDE7/wAROWh0n2eZp5FyD+IeQGVCfdNDaOWbMAeYtiKTUOlYbGGw8SvjK2Br76T3htos/Iy5IX5ldqWjS++ojABmi21t98ZzAKbsY8sYicQdD4wFTyIi9iTEsDazp7GWCzHVtjHaWo5rqVBso8w123BMnYxSUW1k7HMT9I62OV62eIofNzt3+IqIdb56sSvlHGO4lWGFZc5KiIE8eYGYdQmoeZzPYNppZicncfEK/Wx8w02/1P8ANE0XCxP+JZxLYsJ7DEW9V0/Qi1506fM/K2neIi7oBDa3pEJAwogyuFzEZbNGO8PXrzMXL0mcyv0t/tANWEbYyvAz9wa3XfxL9fj4g1+IKV6YjFukQ2Z7RqNHbuZpVcrMKJbqP4xGKbEQ2MNaE7rOVVUV2/mcq7h6mr7a18Th71P/AEuT+VR/tKuJq4oLVn0dyP5hNlv6pPOnaPnasbg+ZZw11SnqJD+YtNa9ZOMRSFKsdpo06bnO4M5DpoXsiA5h4OvFjv1k/H1BWTWRt0HaPX09exD74/ic22vr7idLaWE5leLQpxp+YztUK/GIQulG7D7gHFsVuxg+AZaFoT8A7/M593DN/T2x2H3Gt2zjbE0t1JjVgQFPyGzbfxBXV6vMIdSzeZv/AGhXxASPy/8AM0csa27lu8S5s7bHE6dOj3H6i0AZVu5bzMIkB+4qr2zmHVgjxiVor6dXdYVXbzDYQMCCxs57ERWUYYQ42g4e3IDeYwBG05bKNPbecxOpfOZxCqDg/MFeN8Ygo0jnifCZ8TQG6ZabRjPaajvvMuN8TTawKsO0rfhKx098QDOlvIlgXixVd6QnkywW1sQ42wY/CG4ow9QsbtH2Z+H7qQIXOtqj8fMFq5QasH4j28RYMOPxA92ld1g3ztFB68b6otmCGXbSe02yWQ6gR4+pWtShbceswvxTb52qr31GKTUycSepSsr55xdWP9YNO2YKqnCu/q+jBXZpvZdvuVsV6R6gDKuIrHQBp1GcSrHItIGD7oeFt34RxnT5/iaaMGpu0NYKZsxqPuWc17OZT2GfmPnct2zDWFH5F9WPMsS71D4gQLMsWXSpwCu01ts53GJudWnbTOZUdPyp8wPzFOntpi5OGPmcvVr1eYUUM1rD1rGDDmD/ADRLQuMd4i+YFpbc94yNu/zLtW3xCWOJmpeuvuYuvLahCh7N5lIR9GO/3AlR5msRdezQsoPQMx9YOGM6j/pKwVxtgwlbOj4g74xK1SzS0FZclIdI1KfM5tXS3g/EZ6rxcy+rbBh/xLh7/Ts3zmX66f1D50o2cGHh7eHLcx9WGmqkgjOeUnicLbxBPEKNuXntOYi+o4VfgRil3MXOWTH/ABE5QyrHBT3DaV0UoAthxhhmF7P6fysa/lITto1TUyst/ZeX7TA1+eJZ/b+2Kauor7ZbUlKJaDvCSqhrVxq+Jyq7dSqmpgwmnibeXVp2yNoA7itNWQQJyeXopCdJcefmK19lWlWx0CaNI048eZoLZQdo9xPaGr/TE5bLoeKMf6w1s/S85Kppyf6p7TSzDt3jCoKvT7Joc4YTlL/rOZxF3SntaKgb8erBOJVcoAXTlip7wBVBLeZ1DODtFbwfEs1tu/aL4jqc5z2mnLCtx4E1VrywOxEZbd3HpYylyubF2MSxvErwdgcy1lGHYdxCOI6/5jEHCGDUdQPaNZ8zq2mXOIWrbMY3JzFHic3hz0tu1beqdA5qn5PaV3Yamlm0sfuWpRYycYx2cDvLBZUlmDjPuhs4bWmdmxFpsAqKjSrLDUxFmNtc0UsC/nri2WKGR4zFRle0alh1g4VvqPXnr0ZX6lJTJsB1Fj5l92vqA9J7NC72CqzvtH4hgqWHqLRVrttsqAGC/iMKq2ezHraGsdTL1ZfvBVyRTZWP6hHaXV8RZzbEGN9toNOK6ANhnvLLiC13tGYbrNONeB8x6qPxxbbPyA98GGys2GzuDDW46hMjZh2mrA5Q20ntmVqVX+0wCQ2PUDAz9hE6hp/5lTAgDzvOXQpQA4OZ+ias617svkTiznNfgGY5ZGnxiFn6As1k9I7QMe48Rbq107YP3C79/iZALoGzOYcYftqlQUbWeYU1YtmpsHHj5hNlYWvsIMtqJEbK+d4oXZk+YrHOZuuP5mlfSfdOX3j4EFpJscj0rFOBdZtqrsGCI2eED+MN2X7ilH5di9sRW3Fzbk+DKHFg02+wiYXG5/tGym+Ma/DGF9KVcs4IX3RkssxS3v74hZLNSnx4Mbiq8al7hoLq+IGpqhlcbRjzcHTsoEIe0oe+RMX4JUbb+qcsqnfIYnvBkAOzYwBPypU6ke31CIl76OGs7fzNXB9FjnBx3acPU/Dshsxn/wAyo1WsiDZRMc0dIzos7kxFf+lyyV0/MqbWR1b4jqFNlHlp+FWavysOj+7HxEbmBv8AtMyQeWTuBE5Wuu9fmVmh8uO/1Ga5+hewEeyvIUbCXDnCrA2iK3Wx7tOdw+RZjG3mUcXh6s9JVh3M/Ig794env8RFrP8AaFDn+Z1+fMH5Rp+oyVv37r8wLZuB6YNuoHtFcN0+6cpOwPeNT7K5sTj/ADS59YCKMj7jZTq8Sn/iBww38TTq3SMYR7pkE6hOHZ00t+9vdC1vD8qqw4U53WNquGtGHQe5g68pLFLA9guTv/aVWEE4O4lzJXnhl9rHG8TSNGkbL5ioSuWHk7ifp7mPMU4DeI9OxJGe8ufG+rpsB8TFLA3Y2+pyufr4gjq+4/Dhuv7MqCabHJA+1lOLdVrdUrdV5gAyREL9FaDXq+TF8NnOZUxdOpt9TZZIK6iTcW7d1MT/AKQ0KNiSO8swrcs+k42hpTCZ7sfEs4aluhjkkRXazRb6dGNiIcJ0275EIxrWAWHQCcT8rm0+0jxGY78O2+RDy20Y9I+ZVWtvNsf1V/DGa2ZsMNwfEdan87S1kANiDbVF4jlpZUBnA7Sy4UCtP3RAc9J3EOjbHiMcYacvfJi53z8QWjBoHcTSjYR/EfV6cbGWqOnxqEU2t0nzGuq7Mdoz2nf7hq2G2cx209S/MQEdxtAbOtjLNPnxM+j6ild38y/gbdCWXjpZvmLXxaniAcKjL3X4lldloCqern+YbmXmJ+9TuBAtl2ionK6VnNpU5DYDeI2AC/yYToQhm3zBTu+vct+2cjRniR6bQ3qmhs8xfMAv1DPvENaqrKd1MYqn5E7sIj2MR9CWctBk9mY7yo2dGpdWGMqVqjrxoQx1ZetR6s9o5SvUWXtHfT+QNpAPtj8dxGlqcmc1dlHTgQJSDXoXJaV1qdQX5n58M1nhZWgGu09zLa8D5DfEAF+4HYGLhs2Dv9zQW6B3EsdNdieIgGeWfBlaEmvxqn6wPXVYM6d9zPzEsn3K7lHjeWHXpyPTjvKeG78Oy50mBEbJz2zOavqhfP5SMwrYNNgik+O8uWvwe8LGAg6s/Ect2BhK+6VZb8i+RFrVlyq5xMMm31MNbytthAtSaj5xKlc527T1TX2wc4hrc6T2zM5LJA2n8i+Z2/6gHV1bjEe9+FxXjZl+ZX+MtQ4wU8LCyWq9Jz0htxAKjp4f1MQe0BBLgGagCmerv3makGD2BgSnhynEDuviY3JHtMK9gYdRC6NwcxgVHVurD3RjXpQWbdfiCx012L1dMHE2YrVGx8ljFsfSjjtp2mhrLXGnJzNINi/tI8mW81g2e+nvmXWIA1DHGT3liqmbLbdYsi1upufG57ywU6tIHoj6zluyzWqlsbbReaA7edMS5iErrG6rFsChqnTtOItqXF3fYbSurAyYptTv4jtXhTp8yvhmbHLHRtDW4G3cwKo1GdfD8xSNz8R7lX8YOArQOdOdfZT5mtt7P2waU/IR2nUpBnT6oQPO+ZjfH7R5jmkaQvt+JzSuaWOIor6gfiVpnBePZZ1DGPuEhcoG2MFKEdY3J8Rqs6gTjmR3bqC+YXVzX9GW2ED6ELHpGfE5b7r+4wtTqZD3J8ReKfiCjEekHvBSvEKwIzgROH1hdOcrKlLE0jbm4nD8P/h+b0XYge6chctxCjLavH1CGI0uNI+oi8PhmUdTD5jPddZbxYH41r8SviKz0+4k7zobmJnd49gTNSjZTArjRp9H/wCJjiQqvn3iPag0VMMf/Mc11FyTsfqcyw6f/EQOLbSu3T5in8iZ3DZ7S7m8Ugdjt+7M5Nr/ANQZH8Spg5ZqzjYT8aLzmPWXnRopPfPkymqyrLtsxmmqpv4Etx+I47HvDw4tB/cFiu6sFXbXOhOn4bzKGrQVsDkjwY4sCo6dKr4iYGjXsdBlNNbACpc6mhqsQfqM7uPiA9sRiLBl3wEHmPZanoGOXGfli1H65rXOk7aTP1YUGr/iZs31bxii9o9a7NM2DWZo6dbd2n6dV/Cn/MyAMd9pVy86V9TRq+cxz2jKy8xl3IM5WRXS3u+IULc2o+lh4lSLcIliLgn4iPQ+pV//ANTbwcbxVUdPmWYUB17rMAtkdh8SlaQ36lT16j3i2CwI43ILYH8Rq0pxX+1XyIOWp4YDuxliaQyE5LsM5MxSRYCc5xNesaqcakHmXDhmIcdyDLFc84v/AO247/xNFLaC25GPM1NxCf8AaIpVu8QFiLTscx6tbHSmRn58zC3Y1LjAG+ZbX+TUWwgPaWo4/UVjuintAOHsDozagG7LNd/4N+rQMy1aHS8Hye8QWf8ATGtQMIPXDY92mtm7YzAy1G9CM7/Mp4uldKj1V/BnRYV4jucCbWLziu3zBfbQVb3/AOaKRTy8+My1buK0YOFDSrLaQd+YNxiNZztdhbbac+5WWg+ZrZVL4zoYxmStK+r0gzA3PxK+Juy2R6JZdVpWvHZzuY9aNyX7iGizfOwMfg9wWX+QZrXdVG8wW2MytZ/mWe76hKgqxXzLHPnpxMMcK3zB0akaW3OMBBgAziD5aJw6outtxgbiVVP0Wv6ixnUy5SBamGAY2Az6/aD2mpP6Td8xGqH1vCXxrbu31LHrOBLOLtqNqL+2YQC+o75PcSlFRwV6gRHcNkgDpWHFZpt/b4MVbGGg98TKs2vtg/MFecOfUYvFFzZ+1Se0NxrrqVD7e5jc4MCvbI/5hLU5QnAxtvK3LhXqIOn5EdR1159cXGnJXXzF7QKxW0uex+PmA1oWHZ11d4VFmw9qdhCLG6LfUsVaNZrzg48icOFRVLMFJ74lyfp9T/I8zlcrP0PE/Tk8vWc5xLNTax4YCczVuT7Zw9fqyO2JpXNFgHk941TsFb95lXCAKLFONeYLNHLbsEHaJTYUNen0/E08SWFh31qfEeiisOjEYsPqEFl4Lsd+k9o9FTqFO+o+I1ljpalgxlZo/TgN7GMOt1GBlt5Y6nmIo2MatdtQ905edSy3bOkYOZz62JrMVigdcaf4gNfbyJYbOw2WCvqE3JCxyo/vBZr5eof1IauazWJsrwWXEu7DfMtGNidor1NjHiIunSobO3mLYWBAOMZnJP8AS75jZJYWHxHX52mrcEftis7alQ6TtGs4RkFb4LLFHE1s7dsrLuUjmxR5lVi1dbHOTHc8xOJH1tBwlqgL31+RLa71RsritsQKiY1qNR+DDQ1fOQdj2AMsTc2FNIzDzV0gnofT/tKwwbSD1SuvalmXKETlXU1s2+G8QFRrdySVU9M4dyNOobgzQWIXOdWItQ3U9WvwIhIW1UfOsd5qrYVMwyMT8ya2UbEGcPTWP066+rfdhG/Fzq2XGDF4ph0L2U94ajQ3T6S3iB2w7+A3mczlaGsbsJTSjoS+1gdfTOojlttCrrz276ZfxP8AS09lM5dGGLD47RuGtz+rO6nxiGjQWYtsT2n6dqGqOMKYLKiFsHq+4nDjufmZrGute6+Y/tZ/LeI4CBlPuEXWNdDd1hroOgBs4PeOfWCNm+5hvQRv9GaFyw+TOSN/4jUX6i2On4nLFmOH1eJW9dSscZzGXmcrTsYcNqHzF8mMrA6wNtMFiW9De2aMG/I79sQhmxj2xdGTp7fxGGjCgY+4XTYnviNp1mwHGrxE1htI7sveLxFd25B/qfcRVwL1Ocy0PqNgEFu+W7/U08czs6gMreJY9DIqv28mMhawtjYfJim+x2P37Y1PNUivrTP3KKbqsg7kxmDhEQ9nO8Ju4YIdOldEtWxSdPb5WIdWq3GFHiGtrhXpHpzs0sROH57I3WuO4l78ErJXp1FG75zC5TU3YBfEsVWLHmbk/ErvrTL49Q8RjzOZd+34lHDsQl2chyYr2H9Rv/tNCJykHgTn2vruAxpPiU8XR0suxH3Nb7MPMaxuq390ur0q6l9QZYgdMZ8qcGVJr0FOk474nLewAH57wXoWtHbLtvK2PU2rT9rF4p7TpYaRj5n430Nq2+xAjP1+JbS3TgbNKay5sz3M/Hup3gS1g3wo7zoXZhAqJp+TA+wHjEFht1W4xN1PS3mVjSN18QMlJCt3Mxj/AFjYzqG0bnj1TlBigzkERKVLvbsTYTA4xdvjI8xSgJJ6Zuiu3u+ZW1R1bdh2xDUjrpub0dgD8wtUiuF7shzEpIKZ7Mxh33Gw/mLzK+WdOGjKgGkn1GML1rs1blSu8HDV8NXVVj+oo6ppWhgFHVYBvmPwzWN1HpHicXzAOZUuVMLs4/H1DmRbbzq3Lll7Su3hrNyfyVH4+YC3o33+ovDtqZBnQ6fMD3htNgG4O4jU8AnSTvcYVr067PXcD0yoi8jPbBzmX/my2B37wpr01sO8TBzgadRHeVLaMdWNUat7FtUHZl8CB6XFm/oxLLSObzPZ8RkpfQr4ypPpM005urJxriV2hkHlvqOnDrrU5xqn536ycDEdrqEfPbHeISSAd8t4lSizHwvy05DJuzZMUWVMCzZzEC1OoC7ssruqGbV3hLf1LPE5jAEfEcsMY3XVKcgKuYpJ1Y8iG5upAPPiOp2QDaJYtxAn6e/cn3CLXpyMYBJh1A83xgT8gP8AMuv4fb6i62w2YuX0XJ5+Z0HmW3DvicL/AIfVWy2jJbmdj/Eq5D5c9/uFXRdZbJYHeW1LrZtWU+5Q9Lb6er6lRG4PSwz3EDVKVc9QAPcQg50HfB8GXF8A4wv3Bjb9xPYQIoxYv3GpduWG8nfESmlj/ms7R+LR88k41AxNa6ta6cE7fyYo5o0IRtH4a30jsxhpfpTw4lTKxwT6fiLcvlvEenjrNTE9HmaarWVBZjCdwItFANpX+o5PeUMpyjLk6vDeYa6CtmfWx20R+Dr3A68+DKOFuRuHT2H5n571I+fmWaAorfuJZtqVNliuUUMfYInEdSW+cdpenNyqkYSI1wQeF0iWcRcxrrQ98zNCVWonkwVWVhSyagYzNgojY1fU4W1ssKxsB5lDausv2Pgx6bW6kPeV8qxSreBGrUhm8zTSmCN2dpRp98WxhnUNoG9ITfBhsubAY+k9hHfmaEY9Ax3mRl8fUQekd8z8fXEs5xrX4EcauYceZ+QbzQdYYHBzvLb7qiw7Lg9oma9SJ3UQ/p9fJPRpJ3WIyWkOh/qecQPVe60psbG75lgrDXtX3zC1g6T4+I1vD2EMNyHhHFHUinshlf6bh3WpRp1d509j+4RmGNKtkZjV75sbPxOGrRdNuOplmv8AU19u7S1TjOMdPbHzHpNumtu2exltV1fMsI6PqLY+ApOnq8fco5X5azsXxtmZWvoVRlVltV9JStvMrNtf6ityfVtH4rSWUgmtfgxAvDottx/tGWsZZj+TI/4i1XkrjqLiWuxrZX8eZjhxpqYd4vNq5vLOBpnMRW6Tgg+Ic26z7oumzSc7hYxNT2fLDvBprIHzNdtZcYi36CtB3TPeWVraeV3xORcW5bbrolZ461uSy4rwZdwmpq6Gzp1zl5FqV14GJXz62DIdev8AdMrVy28rOW1HRZuLSO31OYoZTZ7pnTzHHfEoyQLAMD6iVh+Yg/dGq9GO85Spq1jAlRsGEqXqxGUDSgG0pTV9HEThWUqbOxmkPlQOxgrya6841CaKr9X/AHRAlJWsdy0yuNNvsG+B8xQjA6/n4hWx2rCHLHOJfwoY3cz0PMLcGX/mcQlleW9JxOIsQdCNpOo9ppcgdPL0/MFnDFDnwYVtQKce3tGLKH1bgqc4iXNinSOsfcc2lq1A6Rju0YMoKhtnjc114kWHSSE9Ihp4d+YGHcjBhBzYcbfRhdk53N6UfPaCywc3HTgw8OW00htbLL35mkHaKLuH0Ut/TsYd5QFHOX9w+I9erRWh0jO0r51TcUC/rD9o1lbJyXZm2PUI7W2fk05/tG4jiK8lNsmKHv5FanKhPMI1GxPkx63ZlT/zHayvkVjbUdpWn9Sstu3mMOHZVZjjlkbwXnStZGjo7ZiIr9WcSpTSFtDBcgdMC20MNYx8bws53PzHS2vmpnOvyIjH8lb+g+Vl9wdK2D6MWSr/AA2hFuVhnJ8S2riU6z2icOAHWtdekxUICIvtExw6a0HrJ3zKzbXyw+6wcKq/y0c5OCe0qCalAO5jOdWhl0gD5mMGZ05E4a/H402gVo9IwU9W0W041fEss4etX07FAcgw8viOVY/qr8CKMaWTYaRgQuL/ANMnuYym6p04jlbDbvPyV9TDeG0Ka0burbQrwtZbiBs6sel5g08m4DT9ROJa9GZPbnvHP6Za2UfjC+6ZNbJZq87ZltmkImc6JYtVgatQGOnsJSjDd+r7nNWsqh7ZmwIiWmpkyIW1kKhyAIamsXRcMiCriWDqW7iayBpz2gqLkirZPicPjIZtsmYu4cXP507maaqXSxjq0N3E4hgOWPOfEYWUHiC/kbCMy8RpLYwucymzX+NkxgnzLq1B3Gw+4w044hdt5y23GPEPD2bKDqXEWykBNI1KTGSzIB9RPtg5d+rS/wAbSt6tT5b3dsyh7M2AHOJZW1WOnCfOZluWFPjVDTYQQj6gTNb6eRklk8RWrPJvG6EnIx8T+lli/r+I3ELxJa+sY6T5lYRzXey/6xfdYT5nCt05J74icXzsLjGPkx7j8wucPkZ0/cYY/wD4xjgY7YnLx0sYyenfacwevEa3iaB1D1GE1W6QfEU8MN29zDaNxDW0i5ukDz/MTUx/UGzqc98ReFquD1qvVt2/vNXFr6zldPYLNbkVVqcpkTRccNXkHRE4PTtaSdXdollVW3ut8mG/hcYp9S/ujlM8PZgbLFILWMvqbOd4TbVytuze6UWphQTgznEZpUYTPmIrMCEHSvicrljWu5xF/LzOHHTg+2WdGSW/2j7ZfTlVU7g/MViDqrOCPuczUpHxLssoB9W0BIZ6BkoD4MrZjpceor3g4jJrZhs7S3KW9vWo21S5kRFHD7B/LH6ldjktW5JAzvP09jY5a7TDP04yIzF9bKcmEjsd8GBuXoYTTZc1TMcrtHd0WyxW3+5X+m4flPpy7eIKkclavA7TIq5upd1buJdxJ0oG6kD+Z+qo4kczOGpErwNLAHOrvDxCqeXvqYSmyl/x1eZxTLcUqxqwJU9NhfnturGPbe6hl9GDH4kOvMHo27SkWkWd8Fe0urJyucgfcGeryQI11Y27AR2u94hN7jWfSohNqZQ9jEY1Cx/O3aaaVZaAezT9M6aWHmOASEHzPzWJrK/jFe8/IuD31SitA44gggtnzLaW4okhtJTyd5y7uodhn4jcOtNeAnziVL6Vb147GUV9nORj4llXD2niOgjQ3taXO4ZkcdQAziMjdWSOr/icVw4sFdSNr3PiclXFlnpzG/w25RorJYn4gq4Ydx2HiLjr1CerS2MYcbGNbsVz/Tzswlv5AnTsmZXqGMe5fj5gamrUQcuVXGr7hGvKn7heqtjWdyy/EGe31MczG42gTUXSsxQAVJbLLnbEFdCor9imPVmNTu+26/cVUXR53j631W+2ElcOyxLXIO+AIK2+YlfEoxsD4Qx6Ub8iNjUD3jIcvZpxq8R/2qfEHGXWjU331YnXZy9B6BAiWaWdslmE5TWANVuD+6PWvErRRvk43M4fiF/Lw+2pVEuvq4ZqUcegwirBYNrG8e074I3aG3hs0sPPzMvxOutXzp8iMqDdvmPp3x04+pqzoUntFxZqb7lbOGjHRrAI2lH4uXqHiWOR2G0ZGUc1u0GeJFfnAlx5TU6z0t/4EHDGixrFGNz2iW70p8tvLhWy8QHbKkjEtTTpudMnfI/tAlXTc5gbiLAX1bMvYykGs07Y1GOlVCaM7WNvA6o/KsybDjaHS2tg3oMs4ZbiNu+fELLYvPG2c7z8CtXbYmly/uMFPpdWy85dCJrCeuzzDoBrcHqSODazaR0LmVq5VC24lFnDj8ejcQ0Hihw3C0nOorkn6h0WBMDPb1RqKNX6Zx/OZywrDP8AvC2TgDJB8znUoOnsvgmH9KhqsX+pSfYZZYWzpXIb9s4eyxw+N3fEe4V8+lD0ke2Jclf4au8su4k4xsFWdPZPES61jUnv8yqyhtVXsaNxHr26/sxq7xy13K6vEu0nHnfzG5SksB58TNystvwJztPK0k7uYlurXldllHC1b1EgtHaquscMow2RC+gYx0IT4lmtOsHBUmcmyrNZGFONooXopB7HzDw3C0ZHuPxDmrFiDvLF7Y8fMcaux7RLUzt3xBW2+PMXbUHEpLLt6RE4bTt5mrVq1fPiW76kHacpcsqf3xA1jKSR/eOq2qNtsSjhAg1KA2TNVtZqOrZfEpsz0+T9ythaQignSfMfhkQu+vCsRuspR6ztg7fMNdNysp35bbHE4ipFw9ng+f4gUVBLAN7VPmfnBtJbfHxGvbKUA9RnEDJt3whaI1i5wOxiWIE1dunxKQfIxPV11tpVZyuXyCF3+zLmp7/tMS6tiGzh6zE4Wh62wvWbB2+hKzY/WNgkDVvq3xgSlxe1fFHICj3GFtIF5XQ5HuhpBzqO4Eu5tLXHGPoSyoNy9W4HzLK6QcM2TiVhm/Kzen6hHNJPf+JyyuVPuYxrbdDVDYa94wFRPM3lpsf8iYxBRpyR7ZbajGtiOwi6jY9vYa91aWLxBPMPdV2xBUPwaAQpf3RPxCsjvq8zoZmzuyeGi2WWaOnJrz2l3GgbBz3jVvqss77t2EtTk6aCcawucReK4biPyLsQPcY9gC628LESukVkd2HeI2rLv4n5V0/Oe0KACp0969oF6Qo/1MrVPRnUMTib7G0WUDaLkbZntVyd8wtUy2DPVgeIhQKqocKM74nLRes/XeWFFWxwMafEC8SSVDcvVncSmkNzsjOfiadHQfQe2DPyP+fnYPmOKijHRkfOYxuH5XXCFu4h5WqriMY0/H3A1thNVzYbO+8FtNhKZ1aYiMGXHVito76uzknVH3xvlROI4hiAqNhB8zPkb5+5ztAZm8nvLdm1Dx8yp2XG3z3EwKyiWN3PeV9RRQOYc+Ytt4PWcqcZz/M0PQiuq7kDvOEetBprbc2Hpl96YTfx2jbDWx2PxCNPMvdsACcTzKwLVPSMemcDpxsMtF4pl6eyQWAcwucacdovITOGyJy7n0IBllz5ikubEQ6RkeJWbdKs5z+PvENbeoZ/mN7tth4n6hEQoM4xOJZrtNgPpiJxQ1bbMD5g5alrU2fXPyuM6c4jhV0ntkRqVLkvs1Yn4eE/U59djf8AEr/SBVrRNVmdjOHccTy3sJbR9Rw5Y2dg4GwgtN6unfpj8W5PN/8AaU9hBSo3X1n5jjOGMy2WQSlXTA+YeTdpRu4EpfUvLT2wFUH+saxVsHDWeTOnBZBjEBLVpnfQuxH95UQwOsZ6TuDBwrVDVbuuv0mD9Vbw2y405ljrxA6PZ4mty+SNog5PSu4Lrs0Tnpqus3THtz4l/Duj/qU6NcXhOJKros1dRlB/w9iHHSy5hdWOsePiAKTYHbcY8whzuO4zggx62s7bwEVhtPlDOWqnWOoqYO+vPqlFqgW/CneV8TumruolY0BQH9PmWotWS/b5E056oi8GV401tzLK8emG7lpRnGUTtmW42M05wRuWMYu3UT1f+IXfVyxsgj1WZ1galXzKbLqnqUpszt3MFdh0o264n/TA2fZ8GADHfqnKqsPL/cfEFX9XGwsPxLDVXmpTh2jCvWiD248TVSPzvtoi2kY+0M4jXWXYAdbxStLpq3BlauwyxxvKl4a3L6tbHyBLOFbUa33VcZl/DZ5dKjYP8ThbFNWKacKR5hFgBJJLACAsmExkgSl16zjIWWWFeU7fEJ1AAby+oL056YgJ0aYFD6fuIos0tjGn5MGlhk/MFHDcSX1KSyr7Zdw5bP32iIRlMY1fEeq4KBp7vvC1ztdSdlbtiBSj6921HcfUZ2sLY2K+JzbLH5S9lzOHWrZCc6Zr5Ryvu8Suz0aqyhdfc33L3FwHEZ/GD5EHRy2xqBDZmTao1mPVsyMdj4mK61sb3HzPVq20d41GjV/E53ewdOHHicxG2znB8/xHt9S8nYfBmrV1EbMZzAwLO3byJru1NxGnCVfJlb4LsfW8v4jh+KPPb8Zr+ompS1JMIqUvq8CFbEK5Hb5n6moqtYOyE7xUb8lif+38Q9GvWPVKubzCEG2+RmVcQwcV2fsPac2lzYnbBMSverUfMt16egldUZbcZ0yzTZposOSD4j1rXzNex85genQrjfSPCziOHs12CzIB+JyiBjPeN+uZ9Q9GPiAVtlAwZbBLdVnR6eZVBVwyqX7cw98zm33lbkT1Ad5w5qsazow2v2w311lnQ/2nONmt9y4+PqMTX/1idKBZjVlvMbiTYMnskrV1RcnuJWuohAnqHzF0qLHb/aKbF1Ovux2lek9fkxRx3WzbLolltXD/AJS+x8gR2ZirLsVxFFaDSO7d5dVcvMUDWCANjLKS+g5yyr2YRuQoPV2YxFBOotgqJz77f04Ttjcx+Frt10n12svacvh0swnrJlKVhrOLRvIxp+4aeMcV2jZSo2gV2GvqDZjpzNK/fzCQum1DuyxTw6tZg9TRbqVd+I1ZOPES6tNFpYdHaBQvQh928xWBXdp7Y2MfnItu+Ahill0kdWZVZnO0quVV0Lg9prv/ABq7bv22jXBjpzhM+YldZGqs5hRhi6pttPxOH4U1q7WLlSO4nEHSottXTv7TFrs1NYPQRvCi8Ly2Tb6/mGp1SxM50naLyRorPqQmGysZNadpWCehurIhrzhV3LN5lfLdjW3+0D0scj3HxLLb7OY5XRlTvFuUWUhB1f5vuFtL11EZydprNoNQ2l733acdKgeY/DcOuEtIP3DrB5ue5Meu525oOrA/8zIfTRo2VZRxFdKhD6t8lpbqTFdm+kS+zhyyMhII+YA2ckymtTha1yYvJJ23hQthvuUIqjt4ldeMLb5ifB8maAot0+nPbEeuvSrkejMus0aRncgwV3ZODvvDZqPD1HOD8yt+JqepVr9ecZli1auV7T8xzWgazVqzFc4fTtyvbBZwz/pxZ6w3oBlz1jazZnHbaC/QlrGvl7wNYv5Ad/M5jV4b1BvuLeDrFuWyBCK6zZrHYxXezGmw608RrKxoTVhdMNTWHR32moqRXZsdW+8/UBtNePAhwnMTUer6i8Q2TU+y/wAwZO6jaVBFw67nMDuNRffX4EerO2DpzOcbMWelkHkfMY8zqxr/ALTh34Q6OJq/qV99vqcR0moOfM0Llv8ANA1S86vzr7wXJSrFj6cRK+L4dFd/2eI1vDPr4a9dG++JegO4MqCgMO2gwhUCHXpKx6nHLQ9TYmrHrbp/iPw/EWAKV7kby4mw2VKNCsxjJvj4hKf0NmcmUuvUT2hcLl9W4guuVGS8+fiWrwxUIfSvgSxFQ2Wjz4Es9Jc156oOUAAfU3iDRggneW1M/WgyZjhvSTuwi1tVv8xOIAwgOInSXQb7+DEZ8qPiB03Ud4aUyud9XxLKOZzLcZLr2nM5otqbtn5lS1aatjtq2iUs2H7aYa7RggSzNgXYkHPeEDpI3JluhRYG6TqGZyqUHDfu1dzOKV+Gazh7R4/5ERFr7kgau+PuVFbedQe5UbZjLpwobv8AEcr1kgrK7zpcatTIe0OhArP7ANhOUihcbzTdjr75/wCRKWGTX2cLLOWRvDTZ6PVv3g4nidl8KO5iHf8A+JYtWxrEcVLqOcbzh9WV4jHUD4lDLvfgx+KZmpvbpQIdpU/6j9TYoxpK/wC8trfCnuvTLNdoJzkgxeV2DZK/GYHWopxBGDnyJVwNr4pe3IM/W2KOvwnZZY5qIKDosUeZU6HDm1Q4PzLETVzD0uMTXb6KxpCiDLaVBz9yqrXylOdUtsQc3l+rHYxOGep6kdsnPxBWuf5lR0j1aciY5K4QfMRVKh39RXxG4X/9T5bHeH841+z7nKq0Jj/eCviaTV/n8Sy3WDqnLtQqvyO0XiK3UjtiVcOM6eZqxDbZ2A2E5txC6j6Y69vqGwr2hX8nDC3yrbf3g5lhtNG+E7R2ZcFs6fqWGzB0gaYvFVtrqHcE6tpdYgyiY6onLYDbB/mIudyexjNfc6NadinYfUPPtr/T49TdX9pxnHD+gnpHbO0Xhubza86gyeI9mGuTyMbTia1wNRzk91mMliMafg/MLtZp2wsVdIHEg+pPIjJcTqY7JiHIyMYIcRXVgFff6EssDKQPjzKCScdxmI+SCTgCY5JFR9TCDBx/EbWcZ7nuYvLU7jUSYMVBwFIT4zGuwqBkw+fMB4bNOg4G8CBSWJOp/ickP6R/ErsO66NvqJUG04HRp+YRxb6nTp/mFlGpc6isd/Qx3GIw/cfUe+ZosrDD3EzXUvLORvNe5bGdow75G/zML3rr3jXMMjtkx1sTXafTiC1tQPZmlXN3TzHK4pRjjVP05bPLPiLZYj8tNsZ9Uqssziz2xGr31dlMYX1hCPDQcXwuWq99cNienG/8zVa2Bq2zK9Ow05H3F1AHIz0wa10qwyAY+rf4nuGCdWkdxCMcyq347j+ZhK1FXftNGUSs9q5xCaupVwi57wVvZm4LqfQN1mVsWyr2/M4fnjTXnKmPc2qxEfIBbYSo8xqb+IG+3SE8yrlLoI9o8nxOTw+qtLRuPuD9TUt9j41kdxmXKB/04bpB8ROXsF+41ujT17Gf9XpZDsjL4nNbTbpHY9nE4YVpo1nBQGVpymqrXzjaMvZ6H7xNQxjssr4O/hwawMHR3ldla5pb0qRkkRbhgZPiMtm/TpUD5hWs81x1Mficnhb00/1G1dMbkAG5dmT/AMyzcM7NnUe/aatJFwG6kbGOpfqGca/Ea/nbFtsGICWxnJYzKZ1OP7YhHM06R48xf+YWUav3yhdP5NW6yp1fSRsymDiKV6qxuF8ifkyeZXtj+ZyFDnVFQtrVRnCwJw9ROU6ljPqFafcQ6Syp3P3FOpcsMt9Th+GB/FBwvAdb4/sJXZbZqdG3B7RuGpBsuO4VBOVZWqH/ADd41XLDY6gIrPvc3tWcMB3FOIC3t+ZYMY04UGKPUvfMxSCPDGaGz1eTE0nbO8Ss2ctPcRviJyDrqY6edicZeLEeot1Z9UwtTcOzjKjPqnK4oErnUv8AENCKVV+rGrAibJxJX8aoDvLePdBWiH+lq6hNXEZdKDzNJ2ljEflxv9rDYzf1n6F/8wlE0sZyravUNKnO0KKxXSNXeGqw6xn0+YjMCt1ThvrEdOacYzoHiX7JydY1vnc/UBqANhAUfUr53Xq3LHeJfbcbK11aFUbp/MQquEJ3igjX+0TSE0pbsR3/AImg8LymC9JUTgbaQOZg6v8A5lFPoPuJml21V574nTXrA7sJq5RC7keYyurquNolms5Pp37R6Vr0cVXnUW8wkgayu8L1NoOf5GIv76rAJaqf1NWclZay6UZO+iX2WWdhoVZw+g44nX2MW+1+oKdQx8xGrGAyktqgpSnCac5zLqyxKHv9S2xm86V+4/KT8jHTq+BDbuufeDOUH0/LGM9FqMT895qGN/VKzX2IyceZtVoRMbnzMMu6zCjSp7j4l+QxyuUx5htI29whwuoHx8StrmAz2EtUnCRKqKtedz8mChNs+zHYxihK2IDrzN7FblnIJPicSlgW6zGlSx7TR6rVOrm+f4jcWnEirHvtO2ZWzPzmJ3AG30Yl3ELYqN2J7RrOTs69wYtlJBr04we4/iK7McDaJ+M2DOoExrVAXmDOYq16W0jOsRD2t21QJWNIdcGJwlW9SkEjOxOJmy0s2ey+JWlFjCvuxPn6lQHCcqp10Wae2nHmW/pXwPaCZhAeaw05EHMfrTcq3kfMxqVNNZKu20W3LNdcc7mCx+HHMTcY8wNjlfOI9oK6seJWiNpOOl4+blZiMDaJRbg1LvqEe3h3cP8AD+YFqbUxQav5lbVUabU7rq7yscXV+Unf5WNYc3Vn3rG0E6myScxa2TXmzVBxbVhNPQoEexV1vt/Eus1EZwuknBEycs7DSPoSy79MRSAVY/U06TpO8ekAgDEqrABqX2icRVgdR1DM34cV2JtjyYBqAr77jeOy50hcbyhEuVhndvIMfnYJI9s/U6NNWrdTOZyhTSBpAEYE+oxrHPURgCGq1M9OVceI4uXUrdjAeH04x5ga5NVhG5jstnLrsXvFSlsZ7MI/NfqJ9Qhs02Hb5jpVnhVO+G8y/wDw/jSofp0lhnMXhMDlVEfkXt/Eet15OvAFvbpifsUYWcmx8L4zKV2GvvqldY6gTp/iWCga/wByfULb4xiVqHVmbx+2enrrYdfmI/FMyoRq+zDhCeYelZxFC8JqFraVaIHsXS65/iFqSvEaejIlhuQc9ekOB6ZbniOWta7aviUU2srlfM1VqSvmcp+j4n6Cmk0uvVqHmaW3QHb6n4zlzFXia/0//d5jZAcr6cQ2q/6fzEtHGczJgsA052OPJn6ZXcN7lPgQrWd/gxv/ALmnx2iDmCxCfHiFVRbcb5MW5K+zDMORgsIhXZrejELtscxm5emxtvuUhlzg+qcylgLfJ+fqLZjOkdQx2hCU/wBTtmXUGvbOVea2UaCQVHzNNYYp9TU5zkdZMwh6WGhhiJUpzy/cIiLn7aULw3ftYfmN+PUmPT8RL84LbY8S2sDWFG+IQurSPPxP1WrVyjupXzKrOivyQk5PhWyDHLs/EOW6CviGniaCvlbP/E0rihQ2gqP+Zb/h2pHuTCI+mOVJ0J0jb4ih6ywH+sdAwpYenV4lTtaHTOM5jtqekYxkeZxL1E8o5YBoXUEvqztC1jbHdsytC2vAwpI9MXl51fM4bheHpFSJ2xvqMZeJqd7GTC+MQ1/pK/1CHTZqXcyxOHQVq7ZYifqOGBrVemwZ2xKzXqGQJXY7c7I237Sxw4LepZwltlga586tJ7CaalyPmZzpU9yZpctaMf6TktqyRse8RW1sMZBr/wDM/wCmY1XDcow2MrVsUv3wvmZr6s9nldpYMzHTjyJUrlq63r309yYtXDrhT48xasYI+JX9HtEtCanZcafuU8O7fjB5kZaD9Zla6d/LYnEUWvgWHUlnwYOvX8yvkLobTvn3QORp5Y9MSvShGd8jeLRw+kKzyzDkgbb/ADEHgjUw+RCadVWnt8NG5mUx1n+JcprZ9HUMfEoFIZQnqVh2jV19iMCdXp1/Me9bgzMuAMQK+QmckyunhzXrfdv4n6pBt3Gn3D+IOWW5nkmcRw9V4PT6yuQJXVXb5J1gwWW0OayeivHcy+yqkVUY9B8GcZa9YZa01LtK/wDEK6UVuJGCp8Rq2xo74+5kKwsfcKp2n6e0aHTf+ZQa3Qk1bnMsFZ6m8/EZmQX6m8y4MFrPhR4nDcM9Aa//AO4JQ1a6q0X0n5MxZworDZCWrDf6gSUx8TkWItgPc57RjTvw+vEspvHK4cnSbAM4jUKzGmtuhs+ItVSE6PU3zKbNGgMsPUF09OFmEzYpPqi/n/8A3BOfQha/sB9Sjjm6u3SPAMtzSUNK6tY7yrmrpYe8zC2bb5+MQactw9W4/mNew04bZB4je09szmWrqTPbMVAuFzsPiVp2XzFIQrXjAaVorKSDqyxxFa+no7giXX5Vt84nXSqtjGcwWb22Z7eBLGO7eZXYN8jeCzLWixsro8fUs1p6zmW18V0XU1DT/wBpljBshd8eYWsbJYYED+e38y2yoFM+PiZewJjs/iG78D+3Zv8AeUso1tjeLpOM7kQW0eoHOT2gp4ejmXsvqX2xuYBr/ntG4fhaw+vAc+RiGtOHHL9OG+fmF2ZFsrP4yuxH1Gr4jJQAsSDgziK0yUZdI3h5zq9SDo/1jk7MZXuEoG2oCcnWr59+I1dobB8N5mjTipTmfirzZ82T5JEW0bqNjA+7EbsIwRjYG9vwY1VADa8A58Gc/iuG5XDIvTj3RuDav8NvYfB+oUqQPk4KuNjHG9ZY5wJsMt3+zE5uNP8AmmpgQBknT2aVipMFvVGtpK2ZHpJ7TmcQnQNtS+Jyq21UndTP8SazAu04x4xKkrOAMxtOqvUmCRB+oHNVG1aW8w8StC0UsNkzDpIFZ8CJV6RpwcmI6Ar5DmWAHSdmLnxBXausodm8RURsE+T4h4e31Y0ZjcMxLavg9oWobnJ/uJoRsbb58TvpUzl26kHlgMgxdPVUvVP6hq6c6cSuxmLjGls/EdGX8tmnQRLeFLD8Uopc6awCSY4SzlsDjP1G4d8DO4djjInM5/MsJ08oDYTDJj4z5lnEnS+jfQxxKtRNP0Jb+nuHD3A9TnuRAnD2HiEc9V3cypKalezT1WFcf6xrOJoNxtO2B2H8xWStWqddYGckTiLsipmXZPLfMSgVarCcE+RF4YWHGotkDzNI62I8fEeo1dKnuY4V9GBqLMe0ZWsW0VA+uGpf/wCplWvoavuf8seqrLg9jG1fk8bdpXYqaK61w/2PiG2lz+m4jqUr3EOnUhznWYKrbhYudODBfXQj1150/X3GssVBzFxqAgtR9dyb7Rr6mKeQp+ZXVaMMX8+2G3Od8iVWqmcN3ivRWVcf2mjjHSxj4+IRwlRqUHOk+6HClOa3XmOB/Sc9KYzLTYdLAZCzVuf7wiy0oqjIDQbLpbIB84li5xcvVOErXSuExESuxCzeK4G7BoK6i1jjfpiMbWVjnIEbRfouxszy2rSjcvcntFcHT8icyztMV9RfbphqstNajwJYLE/HowD/AHimxwzt9ymvmL3zpHjEa+s6LHO8HEFN08fIj2cvTXmauHBCphTqaK3MOvm6Grr79pXVldSnSrMN45HEAMNphr1dx+7tOG4a11weplXY/wATil/w9HZ6dzW7ZE5qUkozZYJ2ETghUnSMDwZxWoooGAwY5xGKYWwEDUnpInFPwwF6avVnBlpuUX77EeJw9lJ1M6sTDWwA1f7TiVqdHON8nfEKlO4/0haus4x53lgfowNiPMG+G8NPygLzDlTK66/J3+4abEGcZGv5+oM5F/bphGNYZulv2zinVjcFqK7dsGaQM5HYyziU0ntkGainnJKCV2cxWUnO3eMw6VRNWTKuHUlV1a2IHaHFtqjOEVDLH4u+wDAO7RkrZ2TOB5hs0qHO8S1Q1bAeRDpwWc7nzOc1wpqC757mWVoNdbdi3cQcM4zdUDy/ho1mrlW50cozh9dWF5ZH8zFCAuAfVAXTSibdpoqUHG/3M2OEPxAyONvBEfRtbp7zLkMahhiO0drMGuwemaKT1jwsBdLCnltJJEQsf05Hhu+ItiZXHfec4ZrsJwVPxLOHr9OsMHjJqBJ2nKcakO5hpbgg3D1LjY4/vFuoxbZYDkd8QsjY2/vK1RCwXctGLMAT2I7QPxnHLgdwjS5+DtXmV51Bv/cEanR+E2ENpHb7g/T2OOL7hWM4g6CWFnUcbywNZXUnxjdoaNXJwcZbxOVtZzfck4tUPv6BmILP6gGpgd4bUVQM7AzXcdIY4OkdojVsWq933OSbilLb6jAncsmVOZXUfyEnCgQMz4asdhFWxtfEIdajzNfLHp30DeJjOp+nfzBXcq12op2+RKhU2NsZHzKuDVWa/HVj5gWxQ77Z0DtM1IG0/MXh8c18dQhOsBn7iC0uldvZVzLa7Fw1r+oHtKC1mssfV4EW9n/KTgBR04j4f8/bljvBhcjHYwVMd/I1bQJUhDMu5aG7DM1SZBX5i3YxZjIlSWZQoueobYnEXhc26tnHiLWyfl+ViLoOpvWVnI4OrVfj1HxKzZvYu7svmZOrGf8AeWPyyaVbWRLbGPKrTso8zS4CWkZ/tNHLX/ulS6kL9+mCukIuV6tIibnUPJn6jSDl8MI/kZiqN8jPeOuds4Kj3ThrOKC1IBpQKYPCtsZZ+fHbAg0kP4IbtGKPj+JzKiOV+7MzUa9R6Shbf+Zz7cVGoaibGzkxOFCDh+MG7EnYytbVVLK89SdzHfiEW1rR0k+IljsHNmCgQbDeXVav+qrIKAHZjmX2tXkWbHE0Oh0DfV8StuXobuG+RM2MNK9TZltVdWUYbHyBApZStTaQcdRlZqXU9I9WNhF4visWq7+mJarD6x3E51T4dl89pXZ/7iWDdviVijOoLptaJdy+lT0gj/mNxFYU2vsRGBBs4nv22i1V8Py9tdgJi28PWK9ClSw8xbd9htP1LLZzbCMKPiW8PxP5QF2bzKqiFddz/eLTk8hR1DPmXWIzmvOzLNAVtaHAUdzATXzG9wJj8Rdpr2ArVfAl9JKnm7dtxK+GUqprGTBjfmLpyDBVTS9Y9Oj5MV7VHNxv9Tk1HDOe/wACVrUo7YLQcL24fsT8x6Kg+pWOSR6oa0XSrrh9fYyutBirtmFzWSAdrF7RGu2uuGwHgRhdUHYoNviM2vUW7wBsDHcE7x+FVCK7Gyp8R0scM/dcRMay3oKrLuK4lAbtPQuM7/cChd1wdotzlNRGMCV6/wAq+ceJZZnd26T9Su269K/DZ8ymii53qQ56RiLxzNoakdan3y7kuUCgABvM4WyskuR+XV4ldQItQkgHEesrpf1cx/EpWv8AKwbZ12wvmG1ulw+dRML8MUetTjQ0Wy4IlerDDuJy06go7fE4iplxZjKGPXpN348Ef/iFkXGvfR8ZnKIVdIwQsZyMtjIBhdlTPfY74lGlW/G3UPDCOpQU12tq3OMQ1Wk2I3pbt/eWUO+pRv2gAPbc4mqzieXyxnT++cTxFhzmssPoQI5xXnM5xu52obJjtD+TI8JLdHrb24ja26frxH4jRsieT3My4xr74ma20uO0ct/9Sd5q/d4nMbPNt9KqN8RruWCSPV5lGbVfSMgxriF5XdJ+m4T8lnux4nMt3snEsPUq5ipXs+ZVVbRzeIXp2E5ltbBPqCmphaGGSMzlsMEeqs/8zgxW2qxLcOv0I57BlBmgqQDOnfWv95U2RzEPYQXOmKyujONoOISnVpHqPmaLs1jHVlZc60Oc7BpniRquPsh4qpsgjGj6iC9XZUztmMyoXT6E4e2ys6M4z5j0vVoRz2QylLf6VQ6s9/qJRWUBxjmGcPcro4azGMbwrl3PbAGxgSytlpb06vBmcAHV2HaZrUDDYbHcwalyNXeDxqX3bZlxa5MsM6vAEqNel7azhmQ9wZ6926VT/wAzqPjYyzCq6WDRv3EbS4rqCHmavKym7hOIOXOw1Zn5Nz2JgRrWNy9FKgf8yhjoudjpUA/7TiddWjPbMNdi9PbWPEtevo2Ff8iV1taoLjIJipctoYjAsHaC196nON/iauFUGnzMlxpb49sYoNSnV2+pw9Gkqzb47bT/ABDXg8tRo/maF2bH+soratkI76j3jW1nBYdh4jh9dmNu20awVO9Q30kbCLXURWlj5OTMqzE56gYFE4kf5DKbEdWLjT/E/V11K66ND1fEsVUZXTwY/LsZWr3YCNYzlrAM4z3WfrUTl6tsGarO4jWYGvTj6xE0Vh0T3Z8SkhDlvdD/AIe5HJsYNmVpXhq/3DxLObpW2sDLfIlwViOHrPq8RkKZf9+IysPbpyYpfFlS+oQfpU0JE1uW176YjCqytx2sXzM2v469tMopqVa25mo3eQJevN5ug6Uz/wAyyuwDnpn1+ZQ/KFSKdnzsYWL1tePuM/KF6WY6lPYy5bVYcTrDIh9MpHEhlY+Y/DBDp92fcI1iHpf1L8R+VqsKep4ebZy61HqxmV9BsCtvnyI7IOWpOcRl4is8llytoGdJjpWCV7zNd+ls5KEbiYUcxkPM5g8GenSjeJbkfk06hOFZc+neWPY7LoXoP3P8PtxkHd/nM5dFCr/3GPXY6oGG4PacTxFeMhNlhSul0sYE6BuN5+NdIrTAxPyL+I/PmJY1bLhtYzvjMsQ31nDE6z4gAOpx+2cU7Mc1sdK+CfmW1Gz8lu5DnsIEU6cfELXNlzvvCZdk5J6cTT6U+ROkcqvyzdzL7Xs6yD1t5Mr/AMTWxLq7Uzy5aDXzAdtvEqrr2XGwj0M+lgNUQZ23jEeRmUp7Tkyp8YZW07StcZDJnBlleNhOX41nfzB9w0ugNbV7iWKmw5sJ1HIjXXrrdNh8QhK0AH1OIvalOZoO4Eb5AxmAfLd5xrvWHYDYnxOFpb+mF7Sq2pAr6tOZfhicdsz/AA9hjOrJ+5w5tAP5dP8AtCSzHl1bZMvwx9M6M5t9RPeVcO/9LTnAm3gwtpVfpROJbUQVxjETLasfMX+ZYqnaxSGzGGBu+MwJnAIjBsMPTuJsNOSe0UHffzGqrwqq2obbx7bRqcrLgjEA+IzKFJwRuIt+NVhtx1S6obV8zOmKNZ7YgUbDAjrYNWHECJ0DPtlpJ7CafHeVsDpP1Eqa6wIx3w0q4PtQgzgeYLKlGr7jXFzrzOG4e5VekUGzQR5l/QuAGGMSzp3+Y6lsqgwBGBHjO0//xAAmEAEAAgIDAAICAwEBAQEAAAABABEhMUFRYXGBkaGxwdHh8BDx/9oACAEBAAE/IXQaGd3cx/Fn8IA0GU5zF4CFcLDXacxcQBiDoUORg7TZhwIe4C645U9lAY35ryVjBg3GkLlgnSMUVK3zS2iGvmpqalM2HCxUGoI4Yi84NTmxapV5KN4OcfDAgDOGXhnXJjiJ1DMxuqCXuARhTSquiELgrC5XGT9UprHPEA56ZbzPVrgy3ag4gCiOFtK7hxSttDU+kDkXALpbmEFsjKbBwRsEDXsQALqswpKiW6gI5hGrH4yyt0gSuQY9N6mmOZ4lunXcvclbLhZbkPWZVWKZ9YvDVZ9jZVYq5WBWRuXaefxhGVOexxFU5JSavxLVF1DuuBBu7U3sOUKiO3CKNkFIhWHUOtyzAimOi5TnStCiGrOGC3tEU8hsZFCMLLzYQ4PYxnHRMReQcSmU3JeGEgl5M5lo3vMQKhi89RFpTtsPEfsxqjZ6RrIItqK6grwubETDbhaa15iwvTxL/iGCQAZanZ+l3mXCF0ncSFoEmG5F/ECHbiXVzzUP4XErY6zDf1Cl6nAsFi8kqrTIsGmTGJlR8YEcJQw8qiYlZQvYubgfAeXUuhDxhwvQig8ZqJq3l+DHwalqf9Qt7ahCNbsSk2g7QBg5I8oeUP31xBq9L1ElKQHa9EtVSGrreQjPmicVA644zBXIY/DF4ikioc6KQ4V5qTASymp7pjNqbg1H2vEL7S5eZVTyEEsN2JV+UGxlR25mX7BuFpkc+RAtljJKKZkWVjRDnysxYzSLlg1K2K5QmZcCXM3OEZjDXsJYPzL7OAz/AKoZnjLqNln8SZdg7gftnS/MwiDYHiFcA9z2/mNw4csbSCgUV24MkTWXBsyJtJwQz9y9NuUxMF8bYeFpgncrtKcviUIIPI8z8VEE6qUpLRC5ZZm1kNQftaC7VDrahb9ouRMXIUN8xFc7dx+rtiF4CVx3TE9lYdMqpsb2hSbrEqnjHaC9Lln+SJLKAdyst3wmdTFRdV8toI9J6LA2c68PmaiRKay191GWSYLMDMQcaWAyaZMAYbeNQd3yZbkGn1MFSshDhUXaRcLfaZSC6gbQaskctWl6nBQbiveEusUQNSuU3lVrjqXo1L6Zaa81zjDDHEMGDqOtheZkBfkCPeqAOhjw15VMrHjCABdOIK5OiOJDlzLBs7m55uzHhiYPrFWdVLZ2el6L2NedSQwbNfDxLXTBuG0tRsh+6juJlU7QQDrdklKGqGLpuanShgOh3CIubk7Ecgw2jm4MoIKtwyiouCZRp1FEw3AUXNRAr6xKwNDddTAiZM+bMl/53Loc77iOdxoPY5cQ8WVGU4sDMuACzNMMqGiJqEUmfbAURaUXTIstll2FLjmVi9RdqchRP3liCUjDMqWZxGtWbKx7hSoYuIUyl8DviaIGw8lz2wcSpQ6I1UnJHkDncMaHEO2GSeMuPHQbVNyWWdTMniWT0xQtZ2RRDnUKm/5F6+y+H3HAkbtcjHVJCuA0xjPDCy/+EMuEm+a3tZ9qKMcHUSlKDSNVjsWIT2zBU2LjK0OIrsR+dYOGaxOiteCXgFG2KmDNxTipmUQV4I0rpq1yiXFqOVAtXEiFsQUfLnPESrBkuKI+lMNO5s9TOeYEq/uUhVUEIaQsjzNvNqjhl5Y244sLYjO5vKdHcOjhVzBhC1Ux4kdCPGBfPEHWGeYmIEmSRusmoRTkSXK5mKnBVZTIzC8TqCG4GyVLndXcTiMiNd3fMS0tFQMyVqWUC40yLlEIrb3OtDN1/wDJMb1xq4q48l0F1nl48jdQmKikUKUT3bwokFqOBLygpdHcWCj3xWXi3VZW+1qf5lWOoqFuVitwNKr4aSXuF8oP53jkgqCgx/KRrMbQwvkHpNYpuCKuLcGZXhI7zCs9Fq3L4kqkyV32xYcsZTNINpOyXvDLfunM16BwwbE6XuO1ums0ynsd3uzc8SDxBsbo0xG1cMS5Km5jYtR8MVqwmPIKD5E2Qm5UghhlBZ3J3N7ncFPFLJIYYHOeoP1V4SYQ7LuHqjdS8Yrups8sVFKsou4OcEUmlTf6niUBcBhuNpAKiKJrjquJk5xPhd0xzWg/KQ5z8IufiZ1OdS6hf84IY8CP/fiKI1qcxl6EzPNQSffYdeZtonxB7TFqAcZgoYVikxaXgnUIn2ECtIbuDAoxJxGJoP7QPQu+96mpod4yRfkVk+TS7srjgmDUuqFMYea3UtgwIkiW7dpUhqo7hg1POOYMjhGLqlGBzczbHbz2uY1AcBvENK0VFNd2AZkkPyT4COdTxhWXxNjRCLwAMtrbyVAwCjUMtt6NzHT0QinGQl+pgo2QOcBDAw7mB8TIiy8Rk9dIZN29wrbruJVl7jIbpWeYmQmZELDF0KGIblssiCwPXEOuh/L8vrXs0HOIzYpPp9pn+DFV9kHJnhsPllwSFTH5TAwWq5WgUcwZ+MXI/wBx3c/Ii1GqNKqth/NQiOoq9RWg0zRr+kYRNt/EoXunxHDGWeTU+tgZO5RdWRzXAYxQ9/UaAFfyy2F8FloNNXDOHlxcvwHQxF2l3KMChqaYOh7nzLqtR1b2eLiCr4FuVtBVLLMfIZXFsjNEcq8URcXi0UlnV3GObcYjXwkXNU5ICBsQWzG7qdxDN9zC4ovtEpDAreIHGQAipYwsNLbMyJcUzI0nCDHLkW3Q2azEAxFyFgJp4FBECkKgylckYa8tkIBOzNA7bll3wO7GoRUGWujPJF1Rx1Upq2yXQymEhGZUUzVbgYq9rqUjxURL9yzaCo4nypZqxSt3FYwVC1x7ogNmfvRrzBq+ZZ/MeEPvJr+IuZLhlJtAavAcM4pM2HyMl+zeiZ1A98vYwsstt67KsmDoFjTCiC/SF6fKoV4u+IwG0SKlM1GIoWaFPMBIw8xzGAH1fBw+sIc5hNkvXuOB0cVFxXTlLtvAkzVGLmrLaMK+MMp4ybmqqOKhoI28M1JQ5xLxAkAj0bJRCsRBlg4ueGJA4zsuZ2w17MhYcddQC3uEXpnZsvVDlIB6qglmnJNh+ohjxD9QkD+l35ALeRsHw6mIoUCl94i93LsY5EhjaQDLxIrFfaIKYmT+iWdOycuyFbdbFFpLel1K0S5h9kblDScgqYSxFPMRWXQxrcCDPX3kWPikzTmU4MwW54jqzWulPsdggrn2uYQp2zuW0BpUGBWDYe45w54lHmO9xREJxW5mG3zLABpu6l4VRo3smVwNC7gTV6udqHaECq/Ui5QKwzCgcp/jRRfl/wBIcgY5gELd9QVD6xalAJ20nsQJoz6j6+23KqvlJ3KrJxzISZIVv4hLTwj2lomLHi7lyHCzpwIirALqZVlxlCwAtxL09jVB18JS7RWR5+ZtebQV/sL28I2Es2Xi+LlErnIeX1GbHIMVGQFuwD7DeOyJkysqz1BiUEtv/URc2VmYWzrOAEVZn4zNZehB2GB0wct38ZAoJ9wPWOYQq3Dgok821ZUr2JUd8BSXclQmKNZlo3gvD7ute0M1rE8vuX3ZcLlLkHi+RzGqqZv0U3HcFteo0LfJinpjfJGSfKDsnhkqSZ1mHwiq9MtTvj1E5nWnekbyxZBNTnW0v2ChqqVzHzkNQvrRriVpjiGnE+hNdD0PZl44fMNuugDxDyY/aUGobTcwkD3CGSbj41NpDVwWCQdKOX/zWM6xzdJkFYpoYCXYWK+TiO+FWsnymTh4tduiCqWOVVTvh/zXMPqlP6/1CivXTENB+Ykpr4Wo/Eyo1MxTslSPDfV8RLavwEM2XVA+IzvjWF37GpqA1HkML7ZfQMSCwRLonLrcQT3oaOpR8KWCh0xQ5aMw8/M7NVej18SxVs7sqHaRT/CO4D3VSw1Vu0TTWBSPJ7tKghZt3KM3NZ+kDeDhY9XKMxWL/SUKjNJ+LPhhjEuGuSxKAE8LDLBpGFu4KsSjlhdTdesvczpm8SIhlFEXDAx7fwFzGoqVGIQ2EKB2aDyexALtQ9kVD84L8Wl/uYGfdbhonEk+PRAg3aicljD1APP3iU0cVwaTCzzF27BqC8o2yXcMcifYq/WAqw2LZLiuaQ4+PnF8BL6iaGq8XBZuB5Fx+bWV3AyBUTZ1AxQaTEEDasvPKzYzB/ZLkg7L7ljqWdw9pUgsaMwSJxuopsM7ILVUtLguTvNftZZvEnAMFQF8YByc74gspaH8x8yyQsu0zCpXW8hFbXA8+CX3B2Nk08IkhNuhwhAbF17FAl0AdCNUsgR9JyfBcrmeKhRhIa0xoYeQrw/iZVg2mCVgr0RoWj2StoYQoqh27n78YgiZbPzKxByVDNp0RQFq6xG1etx6DWyP4maY2kCGD/hUDVF+iOL4jcVNUUYsoeAwP6EMrrtggt3/AEgK01tKicdrdIbh0oRi0czD8RUuq8pzFCzeC+ku+M553BI6Pg4DMMLYPyqIjbmBZzMzPZpc1omI15Hm0xMissc3Qs2YQE9fb9nIUPuSFIG0vWKTuaFoL3wqVq66Qs4qXfjK7spsHvsfBnM9fZLSL6OalTHwU8gwUnzB8uouxnZMkS0axgPJZg2XhzlMrkKXW4FqhR1u0rFTElRsnKspEzGGl0Ykb2F9QCBQG1XzmgAPV5AVW6ygkVjHRlwhAOCZoJpcx2AGhEFpPPcpfJhGI99NQwKg+1QVqBxL61rmS3PslKANnIiAGPDAuLIru9ys5K4m3oVmXlaQxBOwIuqIDrYdIPisBGKxM0xeEfiUO4VCBwy6bgsFXhGD1Wga+mIpghVKKyQZDffScTa13Jruodb6FmOyK2uAXDPxDcZckYYZRY+0uAo/nJQo5LmIVQ5Y+4sIHo3ajJZlws9sLzAabJS69bD43LeGFvyIw5AKu9DBJbtbk7l6kaij2bgs6Y7XeI27VRsrlYNdEYWBxL3G3liosgaQLprdkNQVYzlJ3gZYBkVjRWIkdL2bdTDXWdbh7ZnmQUAfHzEyNjdXEuhVYSr9gtUdgJuYW+zqFaX1UwWwPhDI4du4FMZiQT1b+SJTBFBWvY9Mo2GTJd9syq/Cgf3KWhyfMRFrtK5l6tIbolGXTJBKsj4lxuECbK8EsOCDRMLEZcykmMXFcsb7S1O5nw+GIy7OuhfXseBpd/jAavtRWEaFxWCjUtWjDX8wcCiYz3DvwKkL+9TDYtXGB4lsegI3mUEVgOpj0dSx5+ZiM5TnzK/q9n8pV3nMjMAb319wxHWluuK9hutNjvFdLLMJ5LyNA5LwR5OQqr2X5QqqJ4J4ZkLeTkKCZYiT5OfP6iR+m/zF9wLUISvALWSurg2Ealdy3MCPO7K5xGbxh/zEPIYpFXqFSt1r3Ap5t3eYewvTEwAXu/cTLHgXAc1H/njjWLaKV9LUoC6qR1HRFeOavaXGGlpNRbbos0R4QUJgaIlcoWGBq9xRoFhQh2ZTiN6ZZehNYPO44LxYsULYDmMLkfaZaumLbYGZeuMquANjfnMNaqLBboJWUZtKnQlmNC2F+ysWy7rgnYWmNdwiu3kwgoG2/wDQmR8dRTkm0fLFILbx7Y8JN8SpMazF67DVvD4lQy6EwEj5DVvVxwwguML5j3Nj8KVzOo1EXBjVrUIopFislMZmsKC97AKx6rmtwvpeOl7iG6Z02Omalje1u2BTeZAxz50wQyV/BWO4tVaeiOoYlLqyC5yDOawHOo9nRwaPrgS9jUEqUTmD5fiY4t55s1ATb4jEU8Up5Y8tGCCLBQUVuO+k3MVcCxb1bNMNi8a5wiyxT5BCgV8LqU3MOujuD1HjsYgn1neIzWEtxuA3b+JmI3SXILYJlYXtLO96MSVuKW5xdDBM3yJY7A2bIB92eS6gr0g0wcwvSYk19kxMFx/+yuY27gXwmYOickw4kZJnFqs/tVuAhHpyHxBvs8Srhi774nNyzzS2s5FQJgyEQ7OYLRSyMDncbjTNvScwVYcRf8JaJyBgli9oBSBcbEuF5U9zuKkH+gEeBnah2SrUq5KzmByaP3eYcmybMACgCj9FHaAaxpKMmPxK1A26jbU+q9joDgHzzAkw9Bh7FjicNKPJeaaLEdRAHbKRF3p7D6AbsPc2/IDFxCqeYxodTmS7Z7i3y8uYUYGW7iTBZ66GFURItrlc+j1CviSiYvqAud8GAjcjcLKN1FUQtd11ORg0jePxYu02s6hRetu0eKPWCCyQP1j4AjR8T1XoTBqg2t10ylpoZuhR9RF7uw+4/HSoyqXxos3wtifaVL8ULgPwuK13HGXMbZFSWruOxpOcQ7uWvZaLuJdsu4J5K96KPafEAqo4QgZjhdmJeHMjv6j2e4QkDNAWr6mQ0yVKeanBuHWvIuBWAKpqOjMHrEEfnL2fYaNss1UvDz0yBK65VDg8TFGcIrXjWkxFjlWnUoBQ+kPh06cxPqNhMsUKYJpphQLFwmcAZPqD0bZM4eVcAavuI7sH9EHcd8kGwtNOvUu5ScGahltfHuchsCcHsAcFqNCYXu5RDORtWDtQ3ZzFsw1k06cQ9LrdDKy71mjpB6gsLiAjCtzEi7HeXSvYajJ9k6hSVtnVmVBveI6iFuUaisvrIqpC83KjC4YctRb+zJG0x7TVpIEQFWwpS2c2x+Zao1YpBtGKpheQ1U1tFwlv3yfEPw8hD10BOTyEEKJV18wxbQttdY4IjdLiKfBKlEtfc362Ur1Reuuxl/4JmqrGGeo8FlRoqU1mt2P6lNgB0pJr6HwBHdFW99y+g2cc9t4x8xVZK4ktGA9ARo9FVVnUQauqnXqceWpZmTmBFv3KbCtkf+ItSkLbib/MrBOXtfMEsVmY2mUgGvcrAds3Up5AtDEsDFYsjY1uXLLkskvJGOACgzDfa4/ucGWqG8FRjNBO2hPn3qML7WC4+EGN7XCYaBgZlCH8oKEaSJPPzBLMLOxgO0SL8IFyP/g4mNh54rm4DEuAL3/UEuTqFf5AIngmFzKU4m8c4bTEF3FQgbWFTivdZXeu4JworCHmauIoNXxDmSDdndQ0qfxgUI7UjRwwwRyi3k4R4xiq5D1DtgYqqfEPQQNB6wg3rXX41ErTbrDU7xbfa5VsK6N0x9OUYrivqcou1YBiD/h98gqgvOxIqjyD/KXefJab9ml5wc+QMGM26vMHAIWYYiAsyCZEX9Glg3Isr6wzOw00QAZ7QaIKiumZjyorxWNxhjrNcy23IWI6HDINwzI1kJV5vYkpxGZSUYQ0kq3y/DqDAwnRvlKnmjpKGaAaLgKwjE2kOnf7TNjqZS9x/QpFdeU5YnHfpKFoS+R7A4qblNMq3VsGJlFPiaIMt+gYLIpcD1CYNlQRV+/8SY9i3B58igaPykRojEeJc1KEuOAlcMnGJfEwTpT8lAwjs5gcQxTYB9EordebeCEsB7z1DlWSJ8BNap50WtlV1qwd93P92uKz8+jwBcwFXNVTi5j60YK/epeA8YvC2ZY6CSo48lIYTaBo1KIDBRK4MvgtOViCqtU6Q+w5bVfkUgLLlaWwl8Mr3MtJU1jucU8h67ue+QxaFRUNdYxHsrli4aVVdniqoFZhcPHRBZKVjAfMzFVnNiYM1SSFWKl+46dp1mVvLGemLC0/O48l6P7RDWK6gpqDq+oS6gSXjbRa78jggUQHmBXhH4i5dzgQkXlQ+RRyPhKnGAqumOqi/BOuB+A6Sj5OByMuhnN8xKv+w7eLh3qaHIfFx4agai9owgXfU7zNa6XikwzF0sMXMhxhknFktw5qNyQby+GENE7A4xA8pC4hSoi1crtYWPCHPcFkCtcL7e4Rp5RQdCcwhxbVqevMqo2PJ7q5Qp2zajC0gqDvLTK5blBdzkx7pltDJrJBYAQHLm5VYvWRJjciNFTFZiJ/tKH4RSilxi501LYW6Tg7hIhQzKdXBGEFS7QckqT2A5NfT+IPZG15H95VCmQD96FrRKxCpWWcVSjqLEyTmpTBWwVmZK5BOmc4wG0uGnJ1B3nN2lxCmeyZAd9Kt2cA4qVnnt6ZR3nGGE8lkTwLg6jexZO2Uy82zsZ8uJw4OnJHBjnio7XapjfUemydmSZYsKVgXzCLetPZwSdo37HZHJhZLvDCHGqhlU+a5vG9HdfXzLji7568hVgqmzyZVLoMjCVmjVD59j+8RLwS9WBP5BYiSuAeCOodUGtiIYUb6zx7H0cFq+mVzZ9NeMytCpVT3UM/8EV3TMJFZm1wQJKBFL/DG0gsZSiVn6yssq1NMk72UWqaiwjmI55ICkBTqYOJee1d8P8A+y6VlHwuoSYoHTUOimyU6YY5CUHmHVDseYH8bfwD5mUIKugYTSyd1SdUoabuowPQ6j3PuZ0PMNbdGekGa90/Iiyb+yYVZUJKy5l24psssZk0NCVl1EBqiQqmyLdorIQ0i8h6Ic1KBT2bjJ8IlzJNKAqbcss9GqLH5mPlW6o/Ew2qrXJAYIUjiKi77TAVMncy+IqIW+yKQ+HoGvmBtmUIQ5ZFaZr+Us7iDVt9TIydO11cY4cFseamW1xj5GVciEj6YjTBUSpAb2LwA4zGVXbTL2PczSLVmVOCGIdB+XUEd6au3tm7O1qjP4gIKiLZrmPshUfYmgJtf4PZVPrUsTBlcmwBDVF7G88b0SFaCxviOJodAj6jlzVG8I4l4K8ZLZulQxfaHiIrNjCw9gnFYV2DTQenUvMsBqpRyL8xNWTMw1jVm5rKA7YiwreZVGA6L/1UtS5/YTNHmLkN3EXEF5VcaxrURpy4mPiN3GUvjyNq64oYfpbWYx3KAfvmT1HIYB+JfN6oS4Y205mYj6SwWYISSuZFdlxFlHZ7RGRMsmu7hyzUu518RestqqoWVw2rw+IABuvdnDD3TWNBmM10u5RLbgVREjBEP9xrTBVsU5jpLBGwKjO+udBxQxE2ZLLdXKasdBXaK64P7EHdEJaEqFIIARRdY+Y04bt24J6NGz4TBZbbv13ELEDc8vkqJFFWOGyt2fu5nn7rQ7iLDa3zMykbwPIZYWctMyaP4WEoa0C2K3cIaiCpIjW0bTdVu5nW40/SByN0DmxDldMNF8x1B44N6RbjqYNYRlNktOF03M0YhXaAucdXwTRe0TbAcMLcQywsGFnFcI5+Zc0P6MHSDCtkW0/YqzqOKKs4aEaQqLRYFck5qQHS/wDxEx6XSYHK/VkvApvoTrSxBt19hJYrnPkMuIMgI28DrXeY7CrN+aF620Fz3YbBqqzGo14FK1GFoRcq3JDRo0bHdUxthijSzQ1i/FCcGQ+EKTX2USoWwvHHAR54903RLaBWh+0RALwi3Gql/KayNPyS9tIUcvswLF1rOpuBx3cw2RUA5+fzDG3KmqxmOQzMbH+RCsohXZYtvBWyln0+ZxPIBlWRgOISGJyByXxMBoLg/lA9IpHmzxBQcrogrlZou2KJ61LlIlGGzMvq42MnOIRlqquIkTRpm+ZjFxa+ozVZ3iD3SHI6QGj5b2cRK7WDf7wpeMnX1FRIl5G+/JzNkODmVKO/xIOHLGhw9ywIwjUqDKyMXERKHiO5zTgNJGlAsOEzlVsuIbSrl6lNU0kxJ1IO4b8Q8lDGZG9QKHxUCjkewKWN5XAZ27lrPhphyI49xhexmTejbcCycIct+SZQlH3zKiajmTPE+FxviVU8Oa/uZZUDA+J01ctD/k+M4qfcxgUu9LCNPjtrKGJjc7bMI5U4+cf8kqZD/CVjTG1XjVRSG8y+OJYppNUx36MTYswxeRKOelJVzwNY1+7jg0jMzeCHie3CXxUTaOXmmzEASX2FW9RMFQ6RLAOgK793NJwccDATSFXZ7DUxvchQrS2c1Hza7SF24cFPR4uG5gvBaLO7nuk5hwS5cRHz3HT6IWtwJ5Vv7w0c7LJca5ofRLJStaFS7wzMbjiuajT/AGIIRXQltUSpDdyyqbF8lAuNa/UDra+5ZIXDpgIbWb6INkEB++FQWhbvMHi7vyszTqt5n8CG+0ljLSA3QVQZGdV6xtlWtcU/sStOkN1Zx8sGrwUbuMQyLwIdOZdMueG+5ne/kXvmA5LdvkcS8iTtQ6xKl8V2IFRVE4lSf1itFyG0gj0jAi+CALg8Jmf1L9g5uqlGFUhe+GWDXWvKkNdxppe4LvJdF6ZSHBlr+Rl2Vw6bYQFYpkz4EgCrtXh6fuPjWHc3zHTNNT9pn4snZMvD3WWOZO1ZKlOS8AwD3mJ251emYHQHVBmsSQ6nFiMBLWK/tDDS0cIzGTALNvNR3ypZCJuYGIBZTOmNDL+/MCOVYZPzK0lY4smjBfAaYkYngPhHVBJPM04yy4eJyAhTUSnW6oYpPlx7QNpMESq77vqIyjIrhqYCiqF6izqaIiAtKZZqGlFEcKDQuZAdR3BFNAfExnRbq/BEz9lao5uoYtzTnvNRQoBqeox1j3P8lilg3NTQ1/RnXCCU5xNbAVoXkmI81bURlWGcLoNzeXkU1LJx9Qfpu+5oGr0y81kLGI3R8D7PmGp2auuJhlB3qh7N6nTAIvIXOwvUJYuxfgIwFb1OaJkQqacU3iEF4BfgxKkt4NjUFtrxH2mZ6dv5JLULAHQk49IrUgzems8TypQF6uey8z1iF6WW1Y8Yi40icnwmdSBcS/5M/SMu297Y4RgTgNRiK4eTdEsHVRpJF7wTQlhgb5AcRXDsJmWHzevsu1YiPHESNkfM8zQVmF9xicQS1TvxLjsGE1AVuZFNYdkq3HBnuGmDHIHws8JdIo3R24guVo/xTviatLco7oX7n5Swi9Q9DPskqXcVWi5oPSvMYt5lD6FlBwAqv0J5CgVsnSWfvI3TeK6jzd2VPiM7egzveO81HAgX7Bl3RshurF8XMsutK2VB7vXcJJKYMAaVMQkUNcliMhS0uJWKBo6dZgBx0yuuWJxe06jMEtzHcFKDTMf/AJmH9Tw6OKKDAcXC+GMXNxITCt3cwBSncF3LTqg0AKzpYlffYXobmeWJ8pWRmF0SZMoWZPz8QUQZDbdyhnwT+Eb5sLRs8nCxnFT6DKOYgFq9v/rhZMH3LuXLk1Su1gO1vMHGplIwDgubh6p4MRIap0u0egx+CJlCc7Z9QqRdxX/wypNbZg4iBwZ7KCWMMMVLpcbHiOCMRO4fqgcF99SmFrcmYkhxHT6mbcgOT11FC4tcftCWEq7YHL7LRVQ0j7LbJQePkMSFLDIQd+ozi84gpXI3oNsVCwt1v5lQbqG3nuGgIrXaOaQin84VQhjA2RhRZWinzKrgx+4ReqbIK/3E2XDzVCuCyGhtTHoavgeTlWYhTsmUtK+0QolufJMEgys4nFhTXCYUai/L5iF6zAKDaPYdwuDgVuNGmUkdK9DZBL03EBwTJAHlZaV4bH2B6witD/YHMtBeGfYLlkDd4I6nJaXjv5mHBPrzuZNW02B+fIwOYTgHYhDdkJb23pR0kcH7jRCZlH/MysBc0+5GTHEcP1M9n4UoYqVtP/gKFiYHwgriuE1G61ZDvuARrSKrcso5m+hF4q6YYDJMVgWAxC21OWV2r04V9xtTFeXK1Aq6sepa9mLxj5nkobAaqVHys9+kKpj6AMkKb+RAevJTpemCytMIFo4DxLl/x5IRbzZj+iXRM0GbnDbeBkQtxxX5DEA24NxBZMnvsySYifMznyB3n6RvAtcAZ5QmFfbbp6Iox5ntzKkFY7RHHGixr1eS9dEP5PqCmuyR8fBzMxwj3YKzfSXnqWqFMtKuwKxNFzn9Zp4zjevp3Ln1FveMIbCUwLYC2cDzA1wqNsP4gW3gDmvIyNXM01BTjGajVI5G/SJAg/hJY7WkfSE4dMBMSKhxV7GADq0LmWwVhVsSmLSMVM4Va4ZQfgEswXqBWJ9EYnTz8y042bvMSwBhDuBiUgJCrjLbzKuwqOHqIUuZur7LaDd5HwwymVEXbxcdWRa7Z4yywu0YYMwAVRwvHwWHMUGtk385xQDgLYeQ1TcjZw0g4gCJp0xxoKu7aYNFWHZ4TWb8SuY2+brNSxFPUoi9FVF0Yww537xU8iv0hj4+JsIQP7CFnPDYBN3LbKdDa4+iBECqHLLxIsKuNy6yhjZCVCVdjmGJVHJ8gQpQCFiOwagjDPVXUceTAE1D4KGkA5FwgrE8N60wHQkoURrGBfd3UwA0FHEau5Ld4lhLWtkQJFnejvNlHb11MeB5VqmmNFZkHNK6NQtc4lJ+spnJAKrlQKgr8OUCvdkpHqfZ07EG2UgGDwqT1C1aVTays4tv9UrXHoi02HDghhVmNjmIV2nnFywzQLzAlZFdEgMAzPOLXtRHzdywUZ8+PiOz09VpiDGLUHB1E4u9MsFfVvhnHqAhZ7fiJEmJmRdKIte6upljfFnbJ1cu4lRfDuKq4F601OzVVvljoTaNmBLOf2xHyeDtVmMiaCg3RjEZjdhieOgNWlIFtVP+sZA/T2U3DlcNe5j7lCtQx8IJKgYCeeraE1q5hTKPDoiktJYXSPTG2hcYRKUlsxwtX3AGBwX3i2Ze0GsO76hQLkHRWSBHhYppvEvoE/qQNnAFUNXLT2evDTKgrsMK3cJ+xgM2HxeqYA6LlRXCPQChzfJu26hhPmawC5T3R4MCNuxxajRaEan+4SDRI4eTKMEAcCMsleotsVAsu05moEBVqUV0dwWQCqcTgCjNzmYXZhmYCkjC5TlwPUaddWLM9xFixpaH8pi6YrPV3CZ8rRF9YECe4GPEgrgPi9x0pnXXssgWKD8kQQEiop8k+XTuw9PuCrmZhTmZB5zFwo9ECZpFtxN08YirCzSA6iGkqsdDKSHW1+ogiFQUh3EFOIHQbGWKeX+6jVlpMuq84mIpoboQ0SBuY/iGkxUKGM+QB8FHI5+IujASqvJajLYkdr4tL6iXrGEMAKNlZTMDYskA6fNeVQgAlOOP9mO/nPWTPyQORKluMZgEG9GSnNSmm9zKbsNk4u5YMKduSBzB7VvFbjTgPm+ZjCby1jIR7JcRsi4hqC7WKwpCfRD4Dv7DefuEAnXCfEoYiOaCcx18cAWdRPF4RKua1Kz7hcc5MCYcpZ7ikbWSbIw5SWM3zF4bjCMBFFBWki4EGu1XA0VDLZOagU+ZW/U0iB38cRR7VlXwvUMVl/Dy4rlVDAipX9JskKMwHnjuOebjQ31SyubK2y3MW7eWFcjbzLk7GL2WF/dk9ZheilsNxbNFpx8rhPkYrlxFmKHPqCcy2RT0uWQjL4XMVhwDg0XNMLW9fOJYA9VYAuPHZ2PxFKQ2hRfQeTFpQsW94hbOF2xLyN1W1BVrcouBabNEgcTSBt/3loJHk8dE308nyAOJohd5f5lov71OYVpb5GZgagr5NYiL0ufZwMYZ88tITHGi4Imgl3ocwnx4+ZQlhHEa1KpYXk2/qY2YBo5WWj61vx+ZgPOE9jMLlU4rsWFUckbBt7MldbVaHeFTYC/1LQuSDhnPPE5Zc6lW+ciV6fEogVsYWYmthA9KQBNfx8VXkSBWUzASshkLYvIFKFpTCyireSUGzkx1UUX/AKCJnWOwTLaUWF7MhfVR73FLtdG6vmYsv8hOh5qOYvg6tTdXAKyaZY9q6NUai6M4OJUNdDj2XZR4o4PYh+6rIXcI6uKyfcIy0p7MRRF8bHxzE/xUuB1a/niIwbnGuqm70i5FcYmJvfJpyxpJlNYmZuMm9mVZBgvCCVarsMeqiwKO2OTEMORGvuw/IeGcFEJwvTK/2V0rmYLcstd3CUl9Cq+fUZWJsvI9n3MzD7M96pUErO2S6McDYRY7g3HR2HE+WQlGB1iZFaiUAW3lnnf4vNQDswNHy4lmWhsZeraOOorkE4GL2HzOUWhuYsVWcjPCMnbMcblSF3QWMR4Ck+6V5epcnc0kNvH7htTUrKzOD2BSzyOKi7XU1KzRl87v2PD4PDSN3eRuuZQimzKp/bNP6D6F5INdO0tePICwGxVmt3MxH7UOoZp5lfp2QnCiGtQQ7S+L2BaZha0xBsUAX5lcCQK61Nh0C4M3ESbTVxfkoUiyd00/xOO5l36iW7MBermJ4NAYNXUN6DqEVahwr3cu/V7N4MIYNgtwjiJuPkwfSKS8q95bcALxpK6i1T0MGf1CtjlhL0pWBv3GxEW5D3Cm1KrYRKobctzZmuNsLtZTUDUYA8wu4qHaLwOvzFBx5LOsmPlKGgcDlzeH2JWvCppL4le1jtXDE1eKOPSNRrXL/KGi/LAdSgBdWcmKqUYxsJzAQaYQ4vcY7khKja+qYuUqqh/gTi3VeGX804Ne0w7QbA91B7ARBFMXuTcgueKjGOIYGBTKnyCi1HwQrM9tGpfFzCzanpS6xCpCNt5a/UWSmORBad0AVzA3Khiq4l+iZfHwho0pmq9jVR3Xh3PM6gHkuGIL3KtCmDuuSGNPIN1ZuDPdBZnfEuGhtnJ5LW3lu+C4vU5reukYk1hik3KoAqfcryANfGBZVYDl8+IA4TvWstTIgzgYX+8LWoOPGHWZVlT2rDyIoldHZVKeM1LStB5YS0xhmz+kF0bgukVtwCcsD+4KKszRhh8R4AnkC9cEvLyUcioDm8LFUE893yBZeE1pmcOWos0WS3ubjP8Am9SYxKPWLeZdr7Zm2VYK6qpdUDqaOnquvc4oXXNpRLppvibeawLvK/jKGL8hBqoIp8jWDtwaWK6/UCLngRFfGqlQ/nii1dqTSoBpMVdPZ21AI27zEqUeXN55mSkS0MbwdTPZSFV0wREbCqxbhSIaycIgCprNg9ImDdexajjzcprYoOd2fMPxmq4OViWIAmPUtS4YMYd+BZRafB+aHRg5mCcmFwSYdw7Pkgqsb52vUQCt006mMEgeO46gK+XHOhtBnyXX6EMBEUzeWoWsCz8i+x00q4L8epz9VZMxyCLHLEQiJSt0XqXrjyXY4jaRrebqZnlFbpqM6Bmar5n5CS40w015N7pBwBafSwxazr1e4SvvjqvZwewQyYSPt+73MFF8BJna7yZlT1h2cTeObTm6mG4RcvUveDnmShAKWZVuI/VsWaJaXdlZX4jJAp5pUMH6eyLIm6mToR3XxVcQus2NincoKRVrgWlBFYi4vNoewh1AK06zMvicbXQgJac9viOSufV+ZfOiCzHrmOz/AIlCZjxbf5Rh3lEc93HslSh4xA7rg5pKDiMNvGqvgQfUHitbIT5Xdr7EBEj+ZaNcEvem4CB6E1QSyAhMhKar+k/mMLzKJnqK6Vef7gI1CTNb/uEyjhVufKgps5xJ/wDgBG7HqMYazxETBD9mt+JR41snxD+GT06TH6yDQYsCg6L0uLOV+U2Etc5Z5pfRYPuVoGjpjmYp6nX1D4TzmPsMzmUOu4CLK/H5Uo9qmxEBcT7UzCAE/wBkZmXleFmKNM9MxPF477/UwMYBenyHPm3ZAaC9LmDwp2nXMpaHRvIkPSK8R5KAr3CMzrCO4NPYkxbNJADiWKDYn+oaImGGUcxA8C8sqsxUY8zMfhGvn6jRT3Nky5MHwl8DcOnqfTsjTK26ubfNRncxCnw9zDYkhekUD2C37HxxwmBvHXsMBmqbR3UDcgA4r79zBlXwVjd+ql4F+pjcEsBpO24xuXUzlCTzLpBJY9jPqoWmh2veJbbjOUfZmNBQ2Likr/5HWg6M4Jh/kPQixjq6TOOA3S9x2sU5/wAz8syAyLif0jtcYi4zKsEOxyajGag2pVY0JdLS8RuLfsgfBMUReofxHBX30OpRAaRgdEJuyq1nqKpQgLYiYdaxyVzB84GI3/UotG6cW8QtjAzFvkK82OTXM2KmeXCGYwiYqcaFAFnbBJHdMvuF1DgaEziNYPuYJtGDQXuD6EOXcL4FP+0XVa1TMF7g3tJWMLE7ZurDLjLdrmc/AqZWXM6pK5SNsSrOY4hhhDK8Ku7uqnIjAz9kRxuu1GBIiAcEyrcH9tfqIgi5h5+o4pg3MQ4wHUdKmTaLqNvyQQX73pLQxrkNctfEFKYD4IVNrtVJ2wV5Pjg6ibjP9JHxEhHA+gZb9jVAvP8AcbQ4Cs5scbp2zkaXDqjPnBw7mHNRrvFr37IGGpsjUyDMlV5JUu2OtbruJq6LZUBJMda9MSbuUFhnu8Dmuoe3ujgjAqcP5QJG8u18mmSQMiUmNA/2nBZKU8wFArTP7EjhDtTj8QtuKfnmbqNjujm4g3B7Q5jIloqgqimQtgHUWcLA4e44lI5a02Qsj2GUa9WmLio/YPMrS2kwScQ5DC9wbNFlaPLgYQAdmN3zYyJpMiWxiJFYN/IcYg49S+9wZrGNauoGTQEu/wA27Ob3mPSTKhwbTJ7DrmEuyNrUq0MARUQM1s6/uH+zybcL4XKrCBHDgj4M2V9zJTAikqKBHx7uVsu54fl+Yn2ptZEIN+jKxKx5KkGMff8AE1vrRv0RyrEZ8Uy1xCK3T/YINBFGMpn1AH0ErVMo87ieL0j8UYhhdmO/lMYjRqqp0anNfmMQpHBwYKxzginUCpW40hDaIyek4heoKDUzFI7U7HsPswQqnDlQp91LZFmJeODMC3uYsSIMHZ/sllSWzZC7iwhvPmZAuqq2Ll9FdWr7hl0X3sEUZjvyPrOSnD7Kl6VHNwKarHstcWoqx0xrU0tMiSqOc3axhBUvlC3ylf5wMRRYy+SyMGTNrjKgF+GAxlY66bxHWbgWxASBYT+ZUdFro9lSlXCzSMRJVE205uPufgIj5qQ7EoFYwyEoOb/5FRUUjX1Z7Cm3knVjLjjANA76JlkaLjx3DtWfP2pUIh3ArIzCMBYFGsdxSo3hqkbEGP6rl9KhZpQBfb+IN4oXO8MvQhZS6j41j2zHBzEB0S9A4dZia4RsXPzcsVKLuqu411VnLG7/AAwFgN0/MLBzlxQMxSViP/w4cxdYDBpCUkJb0Mf8p9ZQxJTNPkeJVjxAuxrIysXDq5Ayw5ssXxKq00z37IPPpW810wi3ay0ngBVHcz5/k2T2IuqKWGGrASuGiA7staTvMsghdFzhqoPUyzu8u1hxQwYuNS+Re7JBEL0eg6iBntLvM6yCCHUqNlH6lHFKctiZxyibItUVk5hSAcj1H5muFGJZlZ4gJtWiuY9EBoLZO8RXmA5sugXFX3cesPVh6HsUNxzg9Iwe7k0V7PveuXFM+A0XcNCJJ4sP1KMKPM/BGJ9Omc5r8QtGsyYS+pQVbJXXU/iGEFx5rmFCy6lcPsXErTT+coaEZc9MtAJcKnXLv+m4FFpoE+yWQYBq694lrC8VyKwswrDyoDGy8++YWwOCqcdS2nreO1fEbmzVH7RDQMzhDrqZV3eJ7DeCAMBmPA1TDmYlj8JtgJZwx9mf9o0vC15HLka1paUf0pt6xzM5zpBRLrF8ROplnk/EABd5KQD5uEYoSwxUHZ0Lq5f50WeTBSbtYlA2IFxZuB1LA8Raws16JTtOxwS9l5ZMCU6Kb4hec0POQYgy24w8lDu2Hg6gmbKYNUvJBSlUvjCVNq4Sw1B/Tq5HlpNISDqfn5qmA2HKFI5I1beP6DG7suhB0NQ8ch9xA7lSCGNCLUQgccwKB5l6cMLbuXkIuFImBLJm3Duy1qXD2e69uJVUJG0iw9hu0+ZSucor8S2VNpeIa26dQiOBA8cMbGIRdWZq7k8OoapRQGcq/Vbj7YIRHtYdy9FrcT5Oy5VxUaOFsD1A1PQMjgKm2NA8yleu4/WATeS16xBRVUfFRe9Gv/jMJ0bL/sFNyU33KemKeX3cx1TV9cy18knHmG5hs7WOrchbJgs7Dikx5rC2rEpSbRVpn9KFuuoMC2FuEnplRln9kbcQlql3eG4IMVSIN8C5bloB3ItzA0W3u9X4mIrjRVdNYiZoEKjNzC5qXzZuEscw4LbWHFM1kXbDu5bZUaHEYy5XuOO5Zjq77h09CW2iZVIBov4h03ahe2lIwLpA0lISUF9H7M18BZtYQ4IoYffIKraMboS0V44mRBXvX+PPiGItVTDUp1xdjyN23u2j9wWImqzTqHCiYc1LGBvDZ3OD4RiC8Fxh2kryMPO33G/XocPUBGmjYOEuMoawfctP0xWtRB5cv9io8qA12OblAhbD5xHUYeHLN/zG0Sq47KFwjmzWy26jMVbuo/7HCLFdk+ahDAywbrnE75TXhLHTjG1aEytacym1/gEEyYL7KzcMcyaXUN9pROCXV+M6m49yBIdy8VBdyP7lwaS69/Es81QxxHYIfe4VYKAysPI6VN8P1CR63Vn7mSgmzbDMO2Dkv5mzCWrhNw7lqPlyoUssVrFRznxvTlHHS8rnswEvW4HmFw8pTl1CbKsbHqG2QrJ3H7TA2x3MLoWsD9Ja351LrRAryK/cRwg3oBnUSbZPpVdRQ5pcHAeSskMyuMoooGnoY7iqVYM18pi+cVWXn9wYFMNp8Molq7KVaRaW6YPQqLTfyKnttw4wqEiK9B8kZzAV+qy0sIqxBkH4Z7JUfmEz7UX1huukjy8BfB9lJFg3VwTQVgFJZkOfK5ZVGs7uTMzU/bowB1GvJH6AQ4eyFvkSz5M9+0K+Rq1r4NzL6UguDkiFULCyjLab/Z03Cwy+VjOccpSMAvXlBhyfb+Ipu8kMWCaBbUN0RFt0TGdQcSEWuc1ETYuSn1LSnoYVGMNqafJ8zOVOLzx/EdmPoioR9JnBDBm2LmKh2DaNRe2VxMpw9jh1B0BJ2xh2GEBiO+dJb9hQt7Q4KgTJhKrBRyq4wedBYuj2Wym2g+Up2PGzpfkIhRYzFr+o02sFohLDYODN7IKV4VYfCXZ/wxCN7CFv6RPCy+AOCZSe0RC9ByKccw5AQE5hKeGNOpcIiKfuRTYaidLnV04e6zFtJ5xTFDFrN+I48A3MNSn9Wa7jidFozfTCWGrRfkI+RwwQvOAuYw64WTd2YMDjIeo02PMbB5LRHr35xMVB02B0R/8AzwNDk3KYW6fqDMVM1vxMsUn6D6jXp4vA4ryI2U4TbKROcea6lCpLIWfNgAZaz9MxfjME56MwCqGre4ZoVwiMPIAOWKdqMWcysE521iFTr3/P7LC5Q8hKSqBt4O5TGTMq6JQQF7h5DCN+/hGCGLco6FIQrFe0sopU2bOqjzZbL7VHaMzSj2UmqdNS76xcmsXmytO69dRkVVOvLfyzbyVVbmY61Dhnf1CmzWBbQBe1AjXxOX5z0/ES3YF7+Eejz3LS0wdst3uo+GlNwtsqC21PdnItBsQJXhn+6malbCxfEx3Q0MiALtBDkXiXRwWNeRZU2QrMGRLGwHk5O22+EA9RjiyIIOQG/wCY64WZWRQsW5K7XEeE7jpg+SOJtnORPm3EwC8gtqvGZNsd+z4jKMxhTqDbQgZDGYpk1V2DslQa8O3i4qZlP3CorPDIsmgzxQZwM/lQv6sLle2LbY2suOEa9ssIxiGS+fyBkcvvavMxkJC4TSnQfR9wlhRpu5qBzYdpex51lJjNhzdos207/VStyMD+JeyRXF0ivwNNHi9cQmqr2Pr7DuFb/tQEcdapC46tnP0jpx/xDPLtwp/cSzVG9dTBhl6tVGYOzwhva8zFOJljn9kaP7mz0DCq9QkhuSrMtI2bDqb7xS0N1BBgLFV2xp6zbtpWMtS382CJmIc389xnUOEVBwtReICF3OnlBDsFOYapP7mMw4Xb5cy2k8sr6zMRJ5GYzJbI2Ny2DqTdhgmN0kmXOWVy1PnbZxIsjFzhZlbPjGcMkDm7gQNE5PaXsALwy/vIfcAgUGXG4uqWSs9R3lltAeY1BSk5Q04Krt6jJISjh5uI6b9sofZW32Pt9EYdTbyOpMWoKgxxXcaWdRDgMGJ2HBIuLBwjVDM3F9Tc2GepaOsvMBSo5KZfAjTtCd2KLZ5CCsoPIYitzJQH/wCSivdZk9h+aOUiplwwrJ6UydEQRaiy3TCAO2ECgGjQW5NS4JJDF3dxEPl3BV+MSoqzGA+Skz9OaJcXktX5LRAOSMuBwcO5mAFRTJUG5JH7ERcFdA2ZxAGl+4ptGycy/XNpKTKi8UQB9idVbxA1yizAaGYYBGZF1EvN/KKjBUMUb4YHpRZs+PSBHLIp56uPV9WV7LG4K39YRTY62x2i8umE7ftP2JHdsBiI8rEMAwAOsrqwAt/KWOpwuGz5au/4lbr2bTr4lZFTcsIKaKsW7qJLfiPkhbHjSWEeoCZvof44mMvn7RiOKhq5zGLljn8+Yyg2wYRjZwPRf1GeCULPrKB9GISedAbP+4GOERT9xWt+3G/PGvBmFqqk06Y6BQLi7+5mFi/olkrv3X5mcyG1i+5g1FLTDCInHLKBrR0MQWKiUlMQaiDQ6VhkyIYgBY9q7wlaGLPD8h2byqJ5M5GtmPzF2vJbdmfxKVLYTDuJj9TGi463hhymqjMrFs1DGIkWXJo+PJiLA2Hwm8PLsQradJf1EQ//ACAiWEBRqZ36wPgmNWgNt24IDeQe/gY7PI8JxAPO8kNRLf0iPeuoKQD+5bZBnFOLeSJ/2M1ajiXifZZmIlTagsq7ipAK7wt1Mf8AU0BVvhMe30rDp6mpwFWFuOSMB6GIFzTV5XUU4ttjfUOeGit0RmA9C9wWCvIGX4hNQdjN3KZXwwy9igysOZt3a4WzBQDuD5HtD6OT5nGuFdxa7fCitVSnzuVpgIRVl8zefiBSEqpFGIAcA7OcsytXyv5/+WjCIeUQXWFDcAMkN4V1BCJoJH6aOxiUTJQFpw4mQ968seynIbN+sodePKi7d2HsjlTLCsGAlvCfv3EbleBxOTh+mauBprRd5nPYV1qA8UxFWxrFwmH5jLYAYBomb32KoAGowg/qM7tQyyp3gLnAk4MhUemspW4BszhwS88RaRaLRj8Ib2Dmz5lr1G157iOB9GmJCm5QB4LbmUuT9xY8oDRLacbM8dQLOqUMp0q3erl1lyOiyyzNRfUd2ZtCLS3l1MJmSqXkXA3rt7gST5F1NeQ41BPXVg1LmcUqBCiypexFlo5YuiwXEGMc2y3P/9oADAMBAAIAAwAAABD4g4skweHZScHpOm8fxFLQWh10V+Kha3dvK+a/sv59FpRev/RG+nQzv7ORXyf2Ri73O6Xsao/zQBpmhOozg57/AFJp6VnriGJJQghAm8u/nOrxaQFTCwU+S1XZ0Dmn2snj5b3j/LiJ4cEU4ThjDJJlyW6IwvSLhJOwut0tWZZNhSS6HIA5N/mf1izClvph9JyoXBHSwtGEZWNxJsPXM7IqcqcHqdn+UIoUX9GkGFqbhGiQ4TSnKOamcriPzmVRr6iuWZpFINs0DjohFxRa9K74oGLCwswq0yCDm6IJintpBsl5kknPsjk0ZaZajl3eGU/Vg/akHFOHrlS4miXlPm/oSbl469BR5ZT+qgkjnwcB08f58rck6n88YCHLuz4Az07vvS/gTQr5amSD/OB7Ublf1vJ0LW8RcLr/AKbCWJmKSMAsHnosFBzmFftEsEq77rj+3cvy2E6CXYUrD5DaSCQhVYXN/wDV4OWerUQ++Vf9SiIbWN/8StQ+g7UFYzSXZdDEwmNvGzMJnIRs8QU/PMxdfRHYzoOvX3rbEjU6SggMs82E7BcIWls+BKeTM+O7recqK0EjFprHd81wtZkht7F4VlAPHFQr9PnOdqm0uxtakklS1/4g9oCH0OJA/UFQpkXF806/q5jx6/iR6L8agTx6umZSjb761r8ILvB103huXEgoLCTasTTHJCWgc5iTRHHae8gQRbzrqqgb8OU77enGPtkP7aRF60MXXlPEFV7asATytM+ula1jEsPFjG5bWVUJi0al4S/P8cjljWWU31vMwRbGWmV3lA4xDQcdBekbP5qr5hJdsXRMcBLaImYfSM5WLzQB5hQsrFpOGOCA7s7ovu641Ioj2v8Aboh+nf8Aj68vJdIz6VTwdtDsHwUlqq2WOpMAUto24NKAlO3/APCMBCAPqsM6TufI4GljYqakLcHH6Cj5oWeynN4Qp9m2tkz96g/+D2SB1Uy4/wAIIMBOKWyyrJBdvOsKVi/uO2Wk0Mm6oUK9Z2a92d7VI0dYJ2Auc6rX5hHVK9yP3mrkDmNeV2XmN3nbXF25EJvVoKLbQfcY9uZKxL/YdFzUAKiTdUNyoYdZKZaV3/kvH3lLR1dLvTK2W/8A/ln4swDDzDPYEgqC10iuhkJRMBD3+f2MA5FSuGr1Iv2D6b/jdy5kn/E2mHadbnrnSly/ug5MJUUpSp/FmbaUImboAJXV8yd1PJG5UL9ztM8PpyAaCVCiizUDEY9/jqzKN4rziyCvigEMmSi4hnsVhMe6DrLxBf0nP2z21lNAK7Qn9EWkJhlJXNryYdYdObqqcZqRjZNCOPm7Zvcsup36J1ZIdmVnFeV8L1lcECgerXxQ6+0+6a5rnCbTFlAfG8M5BYJhsfo+MTOhrEE34pUiM9b1iUS0Uf8Ac/NFBNJvzzOTga5qPAGllSNhhHkux0qfiA8CjXscQV0q2ApAAc+gy6e9SvNRGZFqe26C8V1M0bF6uIIYgeJ9iJD38ogd91zv5dsIw5hvqaFgijeKZeL6y3oAuHtTe+HcTZyL0jSN5YFeXA7649EjKgxCHG52y0EUTteLn9OUUWti9WoPO+XnRA3Z2gMD6iD92bNSPZ7SniIhVsJrRjfNzQyArn883MC6fo2UkpY4dDPTd0xN9TCnNn7ynMTPPYr1DSVKGSYku/KKBkk0C8e2bNN/iYk35KKBf//EACURAQEBAQEBAQEAAwADAAMBAAEAESExQVFhEHGBkaHBseHw8f/aAAgBAwEBPxAWQD+yg9f4EfVwlM8xdBpafGQIvuR00sZ8skvYLQDIZ14zg2ygsZUfyy9gx7YNNlz8XxBPF+EJM8vi8LAKlQ09l38Qmn/uyQgMAYAahvvkXh2xn9gJqXxQcMzj2G2e2YPmQ/YjCZ/bZgL1nL6Eq5t/CAQsg4S4PUg/Uiec/wCMMZPtncYY+rWtRKvjYrl9sUNZTyO+ic3ZXalGzvhspNttbvsCDyZQIe2w7FtwbOMfYLJ3bPe8iGnS4VjGR08/wSmI1/s0aF+sy3kwQJKA6xPjPsOcHl9WPcSZOskF7ZB3kcvuSkl429n2SWMue3uDslC7xKKIMLwgTW/ELD1yHAkBsmY4xG6f8/8A3O4NrDjLmL7JzU1tWq0zbONiAIINIMlB8uqHY9KBgONoqyfwgxtycJ4XB/ha/ZovCOcWZ3lw1gdXPv37JfKdDXtVYPljBx0ZZ1ivMs+kBr7aEarMOtxANgZDWVe/IUhxtOet3Pv5EY8wGvueWBztdJSImO3YLUxBaeXBhYnt+JS9xnfAt3L2Rw2/zPYg/wAh/jA9jscMRcZyW0auEA7FyDoulsPMkeKhsNOZCCMzw2qfbsHCwAyUvUvYl9PfIIPYo7/OXjlJn6Qg26+T9LfTasFxbPBCvMu4uflonIMG22nsciwrz26F7GCwsF/qefFybf8AseE4SBao8H+BOKWXyMHb9Vo9tTsgMUb72WusJWp8iaLJv2eCcjY19hQhgOQMPIcWIU+D6w5lzDt5p7KQX4dZdLfCxZ1slggDAuI3Ev8A6sXuRLzUT5DkXx/2MjqW4k8V0Gx0stTyR6J2ELn5ZNkGuMwvm2gR7JhOsQT5dyOQs/FgATYNgSbd4TrpNwOSWJ/JHeD/AHPsMGzy6EfxBPhYdJDumWBZUxsX4mAMC7sXck3JHd8hAuWDHpIi+yvo5B0urZRfIby+yey5amHYRvt2C8Z5JZGP/gtvzkUpjiGD+3cjlvMtuO1ibZYTBCTHJFfi/gpEn22UeyfG24LZpdDyH4ikmHS9UlhCQA5DtwkDWPRsfyFO2BHyambEn8E+HsYALyGnhGBY7Lj8sB7NoGDjJW9gSUClfYBO3avLFL5GaksXr8uQqTxHGwP/AMoMPX9tm2dL7MuG+ziKX5p317PsZhPAyCwLuBzYXbhyG2g4fIwpwl2k51Ft7M8vJFGyIC6fLXUJDCHVxmCc8SA+qz/hGHw26sYs3f1Ixz2x+xwaWNwIbI5MxVMsJBG4/J/JiL/ipIBpIWAkDczm9GdB8Iz8ZAJzbmKheM5IQfJGfs8RexLd7ChepPHF4Y8YB8kZs42LYGDJTxux7KrCe4LMCEqbCWCntgW0e6O/GQuWwMk7llElzv22Oe2enGNzyIAf7lR8WH4GzLuPL6onkPZa3mF+T9siPkPDHcGZ/W6xDy6A9uEYDAUfUZazFhPd3gyi0RxwjofJDq5QmQ+3IM/Y9x/Sxi0358T5GMejYBNJ1z/xniMcs0gddndCPvhC3fJUeScbLODIewmlBw7ahMuae1mahw/F7byKyqAgJjtz6lnQnmnkpp/y6H/aR35kwScq9+xsQ3ZtmZ/gJR9wGx/iD4vsO6dh5hJGr2P96wRZjXjGpchN4SM5fFOQaHyB9T7LiO/8urDat/dpv19tMD2D9E9ixnbCTMLYzvyFO+3q+yc3IRzJo+xIbKPOQZsiSQLEdEND3bG3kcY2HdkHfl7pUvhPPxEH6ysDNvYQIeT1jD95K8tcb2yv3hAB5cys9lwcr6sr0tKiYzj6kfwnIuE5I4QHvWcBduhBz/7GTHP5Iu3NhyFesku2JOv5lH+llh9/xN+DyHsQO/LbgyeMgOkQoxYNfmNHbGHJ0adb6Bsch/rYP1aOsHLcJzsftIy2TPUjN9gFR1s4QRZXeZ5PX8bdb2mkB51kzXdkup/8aQnCFj4kwWVWvkUAQ0rWzmHsoJ9uXLQ9Th52JFg0SdkM3xkDdgvCQAfto7YA5ezGXlHuPn9ywB6T2WkkDKSar28z+xIGJPE+d5OuFwfEpIvtz4JekDpLJ5/yGA5d2wSmWOpa2TSHU8maHCXh4bCPdgaLq+bNXqGyNSGiSvEcQ0vYf+IozheoZLSLnwmyvI+qQ6EGaSC8sYnJ1FtoB/ZaIpB7+WIKu3W689s1nq5x6gCnsVnpaA+wqfRHo+l1H2EFCcmIMgWzstNi+K0FsCGYr/uNYy/liwZyeDb12jB/sM8WwmYketuxsvXkhdgI82eILNsZ7N4Ei59tW7yO5yOo7sg5mS/HkhpoCL9+wfboM5NIZbynIA51ghj5Ht5gGli0+yjHtg7a3XdfIvBJyQC4u+DlgY9RagPtvRdnUHZRf1KxIyqDBkg209JgdJo2EYIHsjiXm5etkpXhFQdkgJ0hsi3ntt5aM2IGMHvfBBEvycsyfIdyDtaq3kWygkNf+Y9nPot0XW/Lya1sUOQCwjnY7Ewfu2Op7Y4J5dsY8wszq2HOy77LD5BhkOPtp55BwhIIDM+Xmro+kwLy9v1IEM+8lGwBz2A99twySHsEgbOtsS7u3lOzD+zBWJfbcX2WojVfSBYVBf4eKGyAAgIxEo/7GYcssBX4u0HLLek2OYW+jSM65LMWD7b7mDI+YFhIZF6kLr5G/GW7lncnn8BfNzsLmvtp7+Q1y/C0ADAe+W38tw4SgiMDyf8AxI/wRvU3O2jtqZsIDpky5DY6BjaHkEAwdIAOdb0vYGJ7PR4bgX2YwdbiDye4ukiisqDAA+T4Py2BEzyNf3YTFl0mhuXKj18XySdTsSQP7MqeEBed3Nt9fIRxRfGxO3s24ykWAEPY6FiHtt4t+MF0R8LZvxansXWEkphJuvllFtk8juLWpJ+BnQQHzdifchTUyB1v79A15Cwj5Y6cJyDyfs9md9k8bant3IpMOp3N5IP8iMvtyBt8cumw3mc6PGK7UlxY09scbIPOxf4ia+28qz1zea26tejF+eeN3pKYPbN1seHEQ9h3pcuYmttC/Jzdq5hu2KeTpg29jYLlhfSCYyOZEP8AA83FjAYw5gjEwbATGtD+TTCiSTxsk6OQoPb7lkpvrJjRhDHZHfEf8k9AQnP2U4YY1JOPyIez5BW3k7PseF5NsqIh32TOkK6nI/cy4WpQxMS1g5+ROZL6Zaa6TmQNBfj7Gu4UwTFmOwsTpemTID87HsWPS+Q0iD/iRrXAtxdJr4bgjbYPUUNn5PgrZmwsHZkPMsD2yRmSGfDDkDMkfySkJEVEgEFcs4yHCCHxcoHi2KkmgdLhL5/jmjmH+00vWzU7PPowBjxt0WQ9eSpJJQWgb204k5xHsQzLEMQOhdGnbekQcJPcLQvZpzyONvbLA+F4KST7a0pmdAJ1qO6SRyNX/cQ/N2m2z5CIez+rLtIAQGr2QD97SUBD2UQ2LTtM/YMnkGxEDblo2CXCWDDgxZjlwv2fmPJ7iaW/spY75G2TejUvP4lroWhmSvySyO8sAHlrMe2Cfr9sHH2R3Gfznefku3WzPFA1D18gnkLQa3X8T/dij/hLXrt6FqR7IwFRBgfkiYPImx2O17fMkrJ6Y3+NkHS18f8A/wAgnrkJ19sf5n76lixPtrBwf6SDzJiPI3x2L37GDGjkLeyAcZ3nsfNo4UNLfUZj19uMinMHrcObJg2hOpH0y48IDTGDBWGjajNuvk8O/wDIh1sD2SYDb5Tc0nYBdk/8uGrxuCgAPZWcudZAaOwDIbpk5eWb4MggYzuk+WB/uF09upu/1CGU3/kL8sk4yQwkusI9tk/vOS+TJbt1BLCO/wBrAerRa28gvupBTzN0m5rdNGxd20OfJ0fLj/MfJhiIEwmkwM5/f8WVY0ffswSwfqN/aJooRgyiIep/heiP2T0dIPbaKKM57A+QtZPle3jI5z2S22oHeOSpITph8LsJL5cNScCroHt7jApzF/SBB+yBN+T3Dy8wg6WLRL6jySOsOj42jNgETiXdZm6MwzyAeSl7JCAGGmk0SIGQjnbRRY57OoPLrfkp35eAeQHQlbywgLgyVHM5Bn0nkXtgMLWibnzcWBXHtuF6ORS+pTSw0XcJnKeSL3tnSd/YGcufkgB5KGEQ4WFCAfMRpyZOwj0Pk6XYJFtlA9vyHFk6WlNkuXywUJfqY8+X7nTsscvN4LjV5BmZNW/yP2Thd2UveWMYFF0VfN26g62Hc1gl/Yjg9n7IBPbe6R3kmSwdO3c3ISV+zvA5IuLDmhjN+9dI3bIf2wB9lq+SJAUYgchiO+6H+C7BHltW+tt8nXP2Vjnt0vs8h/5nepqd8stKboPpHNvX2Ti6f1CRMcQA8TonlmA0yv4nzRgHsCekh/Fo9NjkDIDJ5fFg4yAirZnC253sb/D/ABl9E+wXQ+wzp5JGjYAdh8FsR0RbDUH3sGnWAT/ZaNzQ9gxthoxAPTH9d/8AUnCQz10vI9LMnmvsV6WsDKnnHDw+Re4DXsBTcmG9SmcB3SVSt9VyBJTW4yXpfLswDDbyOmGNWS86T5Gr9mQagytfpSP9kJ3SOdXbS+X8RsFRkfH7IvTZYHyxD+3cvyX8IgOnkDsOnZCfFoBNL/s/bT2r6w+mP0wPYDWeHyWfLOx6l4TrHwwY8/ZHdr27PZ0jsANZeHJ5k0jMoHhcu7aX+AT5KRIOEOsld4XdT5Bjy11o2QEclJnmRfDbdJHF6fbHo3fKRaY757wLKPUQ7rL8OIBs0Lgv8VMY8INH/uA/i89AH6uzy+WtPIDwe29hYvpO68lD2ZIrI4HZYEflriul1qwEVM9sIMZmPxMopyBeWQTu3c3RMTqCgV+N7zsx1G5fPbt34zlo/C3ZyAS7mSOLmD2M69LWjhF9bau+xNRVAEGcIHT0j0v9yTZEyGzPybGku5EijOX++RWjE4ds2YMBt0r3W0XuwGZNDufZRpkxAhn/ALiZ/LPv2FV/6j9/+3Ge2J4n+wjd8z8XyEd9iSp5c0LgnCGB8IW/DAl8kKEFvisovpsu6cuEGZdY8g2k7+yB9NqU9BPJSNSNdAMbZvyL4F0H8lZHkvig2xzLUwjBn7j7Wa5ailT4tkx2JJ7OPcf/AO/k233/ALYhME8IVQELPS2F8Q/TY4LbEgX/AAXFNzQJPVreMgsdJC8CF38WsDhdEwvmiwYeXVQ5+xmOj9kHfJB6zwewwjyUQIXwhZGqavQ/GNGwQy18LsYLxlXHjIayPDs+mWiDllKeMBgZDl9Qn6WrbaPpf+BIlPj/ACfFN/xBSP2YCgTxh6tSbodmgI07LA/Pt4PFLOSRIMuI+JHxjL4t6RzbJp2axwH7Hk/bZ7uzsPZV/iQ6gp6Y62jcp42+xyYfEb7vIrkMJlBxl35YNdQgon5YfutILtib3gRP5gOET8mT/wCER10jD8ZrfsxfafJIH4kLiwpYgv8Ay8tuxeRpa6+S+uQYwAD1Ewvshf6YvZ0noEwPAZcY3Dt148T25/2zKWPxEvhDsuF/rrRq13wRTpNz1LEPJwNbMV3h5Li4P+2rRr+2xiaa8n65NjyQChJUDrZGnYBfEaDsbj29z2KicWFjTkS5LJmOEeg+Qw1B+qEK1GIz8uD8YrfkQzKexH93fHIYIsbjAzPJNpcdQesl5sXW7QRn5bJSaA3HD/uZSSn2tPDyRT7Ad3koW/8ADbLCWLyI+fsvSch8spyHYuq7m8c88DNN3keWP0Wtr7C18mESFC/ppf6KUTbvPs3iHywY9X7LhLeJ4m+jLGBNtMBu2LztpCxT6A3TiMEp6XedF0nyXA8iZP8AqIBhetFt5XQu2D/iv9q3Qzlln+F4pyxT0tHyk5rbMjrBIblWH9Sh/sTR7Ce8RWD/ANupfbyPIQ1MhcI5CfMnhGP2Buwob5fx6MDPLCsyy8sZbAsPYMpgf5h6J4p21eLY/MnfTcU7NnCf602GQBluWiDs6IxIDe8kAekt7ILD4uFhg439o25HtO5Ah7G3pIb32fRKCxSNtDYDj/5PdB7AGg/5bcdSagd6hhDOCyJeQgHz5L0GQFD5aF9/JNDYA7bT0/5N65AfttGDyECaWZDlpvqDGpe31lh6z3cBdjPYv/UkOo/mbH6WEUdloAO+y/D/ALCb+IU1xLOzLg+yvAPyZYbGGZb9Oyd/L2QRPhDjwQjPEJc/je2dhhX/ABUq4XmPLX15bNuepstRj2Ej6bBZ2UYPiPL8rYJPJ9V+Az4PLZlgh0pDG5jaiIJ+wiml0Y5Z1LQ20pt+iVKzsPlkYiT9QYTC7F5G2hPSMVtx8ls44wn9i2sdjWfieAHZB47LirfYyeHy8MbI6icF4RryRUctP6bIIXWcsYlZgQpyHgeEexfYLARxlXXkeATX7HshiewER/qLw7B9eXn6Tm+2pF0zskC8ZwbTB7JmkBGs74WQ+FibsCZ9b64/2d4x/kU03TNlWkol8jsv+oJUSVtNcSGevIX7FrudJfHMkjBIXy/uIWHTZ+eQh92Nv35JcODDDPkkA6sPWQUP28eZY/1mA+rAB8mD4MMGtk0iXvLiQYw/EWhA6yDvyVj+TqnsDA/YEw8sn6tXc33LZ/SXFcn9ymcl4TwjGQExihaZ/wC463IIuuKyl1sAFjwTm3mQ7Nusvq6lo343D+WsfkWy9J2fVva8mI2DTmznDdsc9PyX68JFiPMK/X21heWAnX9hurLnw3SDR7jEjsBbM7xsc/G6Glxvy2SaxH7LBfyFQHb0FNe9JDxnXRyEJwC8/wAAIf1HhbE4mTwS14TsEAR8QvhtonZME6T5ku6JhQ22/FgLcks/bRVZzvbd3IBR1kQGvPLD8YsCbW+MA45Jn7KMY+WVwjCPMh+qJzYQM+fttDktd8vC8ZRntoEWyxA721vSUMSw+P8AjvUSyh7YzcdMRDn2xM9ieQKD0t36vcWl8Fk55ZMPtrm4BfYXyYwTwiPZI0EQRX/y6Qdk/A3U2cm3v+p+vhbD5Y+bktNvpx7S1fVtKdj/ANoQOM9eWg/JdX5cb2B7X8gM3lrQ/bPQnD+RPgsS3aOSlThNRz+IG2KjAPtI2vPfsmPtKAduwXLfYOPixekaB5Pu+QUuNsF569ZXdwC1fi7vGfkEtNNW5E5ADQl+Flc2/WkywJDhJ2OPbsHxZOvJw+xv47POeWORRoXLHsgIHs/V2b4c8j6dYbiEcviTdjp/+ZUOBfIYcY8hGilz+JH8E68nYXN9hP0yxmR8tuSrJEvjL+j+wD9fI0YS+Pv2/BoHDr+RgDKVsiC/jtD72xKHS/trkRYIXpET4tn4smvZLJGfp8kx1mXXJx6Lle2+EvWg8sRMVj393EksT9uPW+yeE2ef9R68TaFuSZfYuUZ+tuj2Dqa2yOFyuVy1aylbJ49hR82RcYJyA+dn0YWzPosw8JYM/I3A6vMRkI6TNj5/5sO9t4WLvGew9f8A2za+XPeMAB7PgzY/LzOJYPBpHz5I+ocFtObyUr5iu97LGnsCfd42WQH2x04fiZEHpCfhkonz/wDNvGxYfjI3RyOGLI35ew1sBg/bLOsqDzYYfU9jE1Pn0H/Jlvi8mHsAJh+xQeWru9ajxgHH2TR8bLz2AcFwBYD8Ysr8g3fJnvWJbschCiKJ7fYy9P8AV5AjxAeQTSvkdNnkj+j2b19ToOPn4tObEPWfhEIuWoujYbORvEVnlxjmTrPJGj9s4Yk+j2HREuZ/4g9/ZOqCUF9gfId7IQ3dEjdCLyNvD8txBDnpKiZK/qN1IK8LTni6ilHz/YfU8kXOWjvshx2+P2eNd7z7Kk+ex5mcX8HPZQPEAT9vaSPfbB1KD6tp9DrFlOAPIK8nfXhYGEBfY0faWdGaNc/kn2kAXkaPWdg6s8xz9kUxGWAPsIxh9m/oW6YgPRHuMuvIP6UHM9w2zB19t68rcp6Z7ScS3P3ZdPbpDLED5PvPI385nV35biHtvrOkgCI/Yb6vYbx7AYbezsmhl9XW54iApyD4F4vRb4iPgP8AUK/CAZ8RqAz4G5hz7LEDAu28I/pTa+rktnzCMcnSd7LvVg2Z3OoS8wsO8O8l0eQSHhni3Xjyxnwk+Kfp7AXdkJnxJWVrByVV0Sn5S+RthfqS7zJGL7bzIo4RDR1erXH2R3XK9S78sA55uwcYA2U4zTbnf2R5bcpATNOl00NO3yewjViR6g2vwv8A/fkhOxkFxXD2QxdP3/8AUvDyCs9nO8kJe3RHL1eGBjqXo+wkHYG3kjp6SbFtl4xonHboXS08vOCSYcsQ7Ea+QGD7MeWvrPws4OEMkyZijqMAaEgfGxm9ufYEptODf8Bn4IE9Ipdh6CV64ZiYu2njHQdiZx+2VLplP0RnlEYPJcF2IAOsIex/5a/aAfUsCMZkEewyPUFfu2ByOzxIIDSnkQeBLaE/ldt2ZgQdCH6jM+2bmyLn2/QZ5adxZpk2vKbabaqLhmu4fu6Cyg7CB/EfJYkZ39bRo0ssBx9gBoIJ1LdJAsVh2XrewXnc5a5eyH6Cy0kONQF8Rot1AQ6j4gTYFO+Q/wDon7yk7cj5J/7lrjYFxpjFgzIL3uLRyaVnZgYXYSyYQ5RxgydYoB5Bz9j1+zuX2fN0g+l2Bl7PFj4VC8hcuzjvG+zyx+XlgyKWB79sYxZkBAmGWQvL2MhtVBzD2Q7jO4DDnLix35LGOfYlbh/duKk3p7bO+QLGWOPYGB5IC0xRha9hC6LkLYMAKSmFwlnxp/yV2p/YeHWMC/JC87YKZiBDwR1977OXUywElLGUzDWSd61YmD2eDmEuShPIGuatwaewCHYNiQCxcgb7pOBPGfkmBfbKwjSkMw9lCsaYBBydf25+ZcJybeMuwYHv/lk83Bez+PsAywFwj0OSDhBeyh2CNp0/yHgsbkBs42OCMg7GlxnelDmyT0I15/LzT6uiO7OUcY/6NshOA+Tdz3fk6ASne9gdNdgAkGbuWITmSc2cLcx2c3TcxfcS/dyvMmedmDEvJnFfH+JGNX7PWEEMfY7zOxgNl4uRQ+Sz/wCibUgHj2C8J5JPorj8Y4iJiP6gI+ZGB+oOyEcEII76OXYOQHYJLSyONteGfTexmnYZuSLmWF83IVLN9kd3lvjYuewIN9j77ezxaj/1mTSBCHlq7xDvBPeRS8SHXYqPYDgtsELNagWijrhEBSklPqxCJBgw+w0D7b6x7l8lxxFm/qC2JhnsNy+D2JS7KY5k40BzPJab7JfI+W/uALPv7yOU+fbsEEodshHpsD2Bx/6t9ZO0PEw8Au3nIgLBHW3/AMxID+wDnDeZHN+yEsbYfscVLZCFhdsKkt/w1gj2OTiY4OMPN+SDSIp6x7PbM2R6SwGJjVhB5egvDybQdIcfSHFdQMQMe2V1Yuvmz29h9tIMxkbB5DETA7+WBXlsgvfPsSCCZFnTZ9zmSddEhkuoLLpM8k9bIIcZ7Fi5NSD9ksY+uxYHN+QtqkVi3adU/baoPm7XE3i9u3vs1+3wjcDyHvLsvsSPvyV0uIeQ48ZLmDFEPdiNnS2YnIxv/ElDbOca2DyIKi3LTwjzv7Fn85An2HFYf7g+1vlvryd1N8hemSujcl6XkH6knDy63O2nWXQ+T0bdQoVjvGyKcHwu1aT922cWRhD6gJP5bh7LwM/s7WmenhCPr89gbxDAY5+GWrHAfiyAFlqcjW5kbOZILN2B/Rv5V/xQ4OXIfF2wm7rAPxL9wumPYch7+yqcF8kfHI3Pqaa+yDvbqNslh9kPvW5eX22078/+9i9NbR45OoPkmnzO2voOXd48/wADPS/4YKbZ0iyYKlmF3t3LeCcY9uIfYMAyfj+WMfIV3DZe49nApB8+LlYnsRFZT6BLd1BbuR3g/wAaH8ubgSIZ7YB8m0Tm2b9oAKdaiQef2fSNHbdgzI6u7AdIqA/1MR8w1x3+3aZLj7LZ64TvobB6MjFU4wTZoGscxGGNhGMSxpReX4YbhKEIAKzj0zlO7DhPbsbAPEnTy3KMmXko74TPbsV6CNu3OZ/YU1tsN7MAciHcbxybh+3OCOCDcBX8vAIe6TU/JuoH9y4PJ4sn6JP9LVLpPj+2AhCmfbwZOzhDWnspHsFxFjPMSuQuiMDFgyOYdEnQXWXg5Jn3MNez8LSGF0ZomShIA0uyM1cu8zQ5HE3myhGOOy/Pkxfmn/d/Z6HGPLpwkTEA/wDS/8QAIhEBAQEBAQEBAQEBAQEAAwAAAQARITFBURBhcfCBkaGx/9oACAECAQE/EN3iTnZDhMHbVYTmbMILonSdY8xn6LNkVC/6QcMpQeT4MPLB5u1v297KsgzfLN4e/wAEFxcXpj9guGu2lWCWahcmvrg5HvSO0nggcfbbu2ETSfpybuNfGBexaVyFE3cORVVnhaB8S+IDpkJoG/bbCJYGTjV5cBWKyedmp1mJAYVwnBt7JRkU5DCZ8DshiXqCfDyMe9kHY/XsKGzcMsNCaXxkWYGcR6P86agW5IxZGrT8g4MLYN4RsJLkHskLubX274ALwZFtl1jsT1IEEyI1Qu9tTPtlnchQFqfEvZXmQEJZozIJEmX6EjxiQc3YJgWzIxNv1ZzsZxDryAJiyPtYNtu4BdrxLAGbaRsAjHWFJectDSJwX/E6cEFjFi5pxsZuoEHq2rao8sgZAWeKX0YwdGvy1jIMXsUNZOPbeBbHyAAbARIYARhPCasJs9kqZDAeoS9SZ+Ew4k75Dk5M5WbEg/7Gs6mdzdZFZ44yCbsLpWTpmHqGHYwD7fYtoLcE8uUdtwOy8lr5jzBsALQYJC3FsnDCHTIM/pKH5dE7do2vavhCBj7Mya25/EP8jLl6S4zh72HDW2nvjYD4hzGdWRWdsJ8h0XY9l5etg9fbxkidJjiCsy+bDnSMOkP/AGlxsmkneWWoyySU6HLtqQwP4rPYWkX6mD/bB17HNEHa5E9FnXIe/M5fGcmrGNcbUp2bwcgjVqjCHj7/ACceXWJ/97VEOZ8vdyASrPJLr8siJqYuBmCuDbcuTH4t419/LiqwOTd2Q2YbkC76teDsITlpiUKnIInTZd5M6YzDMicpepiwyQTshIcSvSFp4gMIMonNtbY5s34lGv8ApCCP7dP5hFFMDM+XobB6gJ/JGZbzLRjyINXbEElEyq5Ki1s/PYzxcvLbVlaGuyVW4mDOD+y+EvP+2s1kbdIxjZNLRrdcZPXydRctJpsBMIE2LOx5F1LWZPnbXFHD+BeKMiIRdCN15bQmxCjGZP3yUPJgnAol5kAN2DgbHC2nBBVujLaY2aWG/wAV3EzJQHY3hmenZkYePyWNHtmTBdrvk3ZLqnlmL2ctZibAnWuHqhFyUcvewDCXpZf6mUZeEGJGuC103kN8n8UnHyFPC6Cf5EHlJ2CVQ8vy+FEAHSFPEIDs07L4bIqI8CCsGLk7Ca5Ke7EA8gWwZeCDoNtOuyOR5bguWw//AChYw7IvEsr5BbyHDGP5mENhRY49Le/Lp09ug2BtGG2CdhhIHBF6SHtmOE/H3+Ve6VstLs3cYTRy4uGEtXbkDaTFmozo7UZCYfx8BbcZ5MsRmid5/ACwJu5Zrt0E5NC0RGvpev1irqRxuC8YbRvxaeLqbsWOCA8+QuyK52A7EcEHm+xfIaaYdLHXL5LnW3+LOWur9lo1tLUJMGnsU43KzXZA6TgzP0SRVNIHx9gTPs3xMufomOF/3E9s5EXeQOoAra9vLEEB4smT2ezHnJXQ7ABOictlH/5TyL5b3IA6WBC4PyyYcatUezl/IccQXfRTViXYnzGTryWl0YwhpEOjl00OR+JH8hpWcTijmwOnJjtANISLfYXBsJEOohTiWB25c5f4Q2LYfpLp6v1S2y/l4gNpxbLfY3Mnhy5xySRbMnZB2Qw16e/kKfpHHwhdfIDu9Za1G4ewmntvwJyK4AsMjaO2QxJeMsxM3ZcJQ6vIHywXLby09J8Ujt8pbHbCC+b0C4g7AxPHsil+IP7YGezCGyqe2wQYx7KQOQuVix6szcbIZyWC9sgEXb2AOdgXlqy/KQMg7tgDJEYi/VyfUwsYNeXssF2w21hlOQNEjwgULJ67N6YgxHyQS8umTRjYePlkyD3GCsfB2GtjrsoS0yF9yyIexMntD36SK9kchxnVsmCVWPeWGCOBAf8Ab4fZ43JaBFgSCvthOxhhaykyj9Setp2MTfWXUhsf9/69ioPPIdNIgoi1gSS+5E6YFrsAyZPJJwXcEc9kfZC62uZJwtGNOs/K7TCLLi5vbbyxif8Aa0Ddd2Z1I62RwF0uTb1qD7IbF/iUeS5sGzEOEg5FMDCeQDmZi0aS5KCNs23CTASiOo+d8y0KMC/iB4aB4sMkAkwMdsT2XCIB9gwZ/E1hskpSxu+nkiZlxUuB9h+j+HORvljSXXbCwMu9jrycYsnzZ3MgLFkObH2dbj9k3wRH4yjYGIGKRk+wY+42gP1eRsh5EVRiMZVyGMk+c66wPCFgH8C6EJpeAykPtszBB20sKMC/Ms05MZld/L1sBdg57WwuRNAPJCbYMIXW8a4LFifUf7LrLC1t67KzZpOw4JbOp9ISEeS9ft4LaXkJpFtZ9MMN4WemTkWJEE9GrWKfxvta6Hy+CSQjUimQEIcjHvkvgJRJwG2NdtEG3V62+eNit8jq8luFsn2QZD7AekPb5OXqOQx4gGludSr7e+TeoRy1pIwIGQncrZ57IHL7KKx6XQtnJxlEwYjbJWkFf7aHkYdvWxDN0f7CHRKNQTsMKXD/AGOOzTy09jOvsruOlhWeCDNH8B1YoYy9BLe4sBX7LcT0nDImxjrrLBbFmvIkU5JHWAwfEg2XrZHLGB9Ttg8hft0WYkuMYzm8cYc3YbRpLc5IHUmicuvJxovqjrrYOSGAiY+h1kKP2eMLiUOlo2fV1DkrlS9XYwfxh8IqhMUQoddhsR7uQZFvCEwu7H5Z3+JtHS6e3qG+tRD9TvJOMBnqe7OE4YTnVucjGkD9Xm7bzNnbnstYxcDdGRztuaYawAQJMC4bArRokDI7Ngg7Im9LX8U4LghN0ZPtw2/28iddkjT21MZRbx7ODwWm7A5capsJm11ItB+wEmioJ2DUPojTGdeSxxnztovYXz+wScW6Ea9bG1jpI8F8GSdvkLgJa04lvtEGXX+WT2H7uFNiOUX8FPFOA8lhjGf0txEOC1oZD6XKJf8AcOv4mJerwEGF8ki7+7D1fU9g4xmrk2BuxKRzOhhB9PIXrfhaNtfZjsQcurfIhz2fc/hGQHLYDlhWdWEuouuAmMAnLGHDX2ceS+NibEQB15ERg/BtNPlx0lASOnSNXxedYOGfJgy9iagJggOTZPsHD/b1EMd/hvSH38bA0+QL2ZhutLbySD0gLEdbKj7nK8nVkeMAD2TOyvyNXsjjxdg5OJC2cg0Jw2EtwhEuM+8n2b0XDYEeQktL20OMY+SzjAsJHGXGkLCAiY9IqzbXbs/LHXpBAxdy4SQ9RM7BZvIQvItV7H8lzbL5DTGG4fIIB5I4y1ULJ4uQb+VjzYUclYt7Dfn8gq8nXk8lsP7csCaAbI47Mo4CSj7YWru5GvZEbtjLmEfMYmkiTy+7H0WhdeWb1tR8wiLxcBQNzR6Wpy2i/YVCZm25xL6tp7Ly5ZILq0IEfbu4RzsrMyZuMuQMYGbLB7k8QHBtttuI1ZGHtk5aYtXOIGwN9SQNgGHk6Mn62zAsdLJ6Q7o23GA8jjly5YBzyONnPEMg47N2eWAEE4wqle2Ap8sMdOQ7ch8t+6bo2TYOMbA9lETto4gGJW5DbKaRdDyTWOQgWA6chO7jvIN9sgxBfFnbCyXizyY1NhXlocZIcgzUbhw4dn8Y5Dw3oj4x7fBactmQuCc9Lg7IjCZp+2PpNUOq+htsDPthR7FzqIWPQYetlxhbotmMNic4J4Lkw1rsaYlrx5dHUjLxM8W65AI+yEYmw3llsOJuxJl1gjnW0YR4XByzm2LSax4jAcZh22UOzEb2M9juEu5n3YxLR7GZ2b6WGBKVt63MS7BZMbHIqhkWOGjsP05egturNyT/AG3WXGCMdPZIR+iDRftmcTO3sCkOPyB8sD4tbl8EV+AM8BJrh8mBA1P5Co2aynk+nyOdJvtwjLLRy4gidEgvHsDJLRo7dJAoOWnfu+g7fr+BHp5aOr3niQvL1jzLrLZy9CWzVpv2P12ZsXj8m9ZwYEs9s9xLE/bHmSVYA33IokCv3cawOpGaPEMdGIp9psB88s5PZQDywGNjR8jiFonZ5aGkEgwRDHZ18kXbO6QDLDpDBCV8SVlVJx24DIfwmLsshQa0h3G5KWPGBDYLy6hxiSEuh5EgTpL1j0JATh8Jh2ULrFtGp2Ns/JEPow4cgmMBi8hruJgzJCBnyNj4fIIw3PZ+bdB4wYkbNgzxtWybBxfEA6TnqB8sdbDhsHHyPg8g2NMPto8SHdZ9kfUF4s+RwO3we3u9TOQofZa5Ptrg7Ois9xjsINI7xEYA/wAQsDDB7tdDNC8C9sI2dRBHPLU2ZwWZGYasWxviaueSZLSz5GRs8+2vYhmZOunkfDGPkPyOcni3snyX7JAWAFxtHyAAuAs/MewTFyLbA+IwxmcQdRDnqCh+3y1jklwdiNNyfj/EAuebinNkE1HXFrqx3sdCBxCMOuy8iBfuL0PJ+CAWDkjaTGHk8KhNh/KOjIBzL2Psr/mDMEiy5jI3y3DSYlndukXeXGvE+gtfhaYTY45KnZGsYxEqW8S8ANkDCWoh/ZEf7BvseBtj9MdD6F+EKmD0swB5Is+ROPUWzT/+sfRg0G49mOhdY26O3pgmM4JUZsogyzLiFPYBuItLWemNp1csC/5GPXGy8bK8L1nWQmw0F/8AYBO2Ljan+LTDOJy+VYq2XF6DLJbqZtjoxdJwl9cKmpOUT1Sb5PYLtL2Lw8v+SR5AwLXTYy+C1pGzbZo7CvcZY8GTphAtBS1wl67A6+xnZ4CYsQTgWZhZFtNx38MnKC3G1ujJyhvEbmW3Uk8nrtnggDuQelp5IPbH4IM2ExI/XYFtd3iY4wlrjM7G8eRyA73+IoM3i+JSlF7A4OxIX7aeQhiWwaZcB7PQ+zGL4TiizxXyyjkDsinWRPJfKN4Mu4We4Hl5lhhAJ9WGmT228K7kHpZ4cEJxJ8biCER8tdkOkOsgGGw4kXh8lWnkZ625wdu0vIs4NblJMZ8gm2nqcu6cYLh+3zL/AL0PyrD2jt6uj7b/AIkjknS0IuplL9gSB6leJAfCZfiO5MyaqWi7CUBaikcQTA17cj9gH/JxQte/ZYuGSqEhwhwtLt4Jz0h9Z42jsIiBansNIJ2aDR20oZ1J0ZMM2IcepI/gHaDOj/JcyfQo2fUo6MJ6iK+dmRAMWnTt/vrAp+xnE0tfYfqdB8lFgQF34jXTiWgyPu4eTjdiPDWHQeQiWuJll2DQYyrto4st4RHv35BH03QajjK5NivkH1L02M26TZhImPv8Ecbj0v8AFwFnrGwTfLktxdguol1tEQD9rQ17N8SUHSDhJ+2eFgTaw+32XPwSjU8kJRn0WJRDt0PyPk9scW4JIDL9asEwgAkOECAMdpkRkPTzb2YzeicwbSKzCwCDbdckOxSxeQlgZcGWNw9lPZ69t9bklAgztksLnloPkjBgdV9UIG7OkwCFuUqj8/JCv5DBIhDlgv8ABtxIOpM/ha5gcI0+WIHxYOPI0Pr+IZye6cZVXm0BiZppO4mTiw+LVQwDVOdGRFdcPIqI+69LdYsZmwUyCci823Oz7N0LCUiEfVg4I031eD5E+2JsT8EaAXhpYfhl0ewjqSYbWgKL7A9IZAGMUwlUJNXkQZfAhlOPkodZMH2/OIAKNIEO6gD9sVjnfsEYXZxxAWzPBB2WExAlmvvFymGFPYj6niyifsDJ+Jb2WDoyHNZYJCDLFKNXWEGE0/U55EgIUs+BKamQPNoYdZaB8g/pBZRpv2PRHLkKMpuwwJL54tMAnHXn8BgUTmzDJt2F5C7gcfcAIck6WHDfde2Z7YbgIw73JunxvH+RMiSPGTF8/gT1L2UOU98C4vxvPZMchxawuD9Wi3GXjXB8SBw8vESXSWCBHkhBmqS8M2FDho9Jum3n4kG7m2O8LW6/Jlp5I5NizbBYR4uyWuYMVll05d/ZAP8AlwD2Vz+NmwB7IOGQioXqMdYzmDghnP22m+SwXOI+w5b9/I+RyGbwYxNl/Ep+lrV4eWjknYd9sRDYr5bNN6fkNxVscZAYgxQYUkYyBn8Zydg0JAVnbMzLDopV79kDWgOE2nuTXCHlI9IID5bgdyYBgaNqPSwH7G6eXf8AaLDuJPS0b8g6typz2BMtIKAcfkseYkBy5itjcZWY8F2r5cD8Icr98TxUkLJ/EgGRqdldx8sfXI6IKAiaiIMY5v21C7xCIQnZGUIYR5DxsN2VS4bn5nWPX5NYOQpWM0JF15PQ7z4wubhATlk9idxT0nOeI2KPD2Ppv8lLuOxGxvV4rTh0ldO2Hv4g9SOljWOhXXgvDCOaJvsgUDyD6h0kLm/xuDhGMPrt2uWTl+dv1cHYrk18ug/hjmpdE6sQJia7AFQb6/imKdW5hL8dnd5FJfsSD5fct2HP5D+y++QehnG7aGZ+TwDIq/IjAtjUS/ICXUeEbUrfJuRnC12W5C6YR4T9XLlI/oEhntuuQLFnCPCRrB722jI0WjXyC6thZmBENjnqDbK+QV1JY/wtEFoGBtdZ5mFzJPz2IHCMYIJg5ojWNraXyiCEQULEx/IKOuzHlCY6LLj2fS4F2vFwsID+AvyRI5OGTq7xnq8XYzkjDxa9D+CG6CMfDKOzIniVOeSdCzUBh7G+rVPMsjgs2ewnljgQGlh35cwgPeP83DJmXUk0GDMcSNLdUyx1EbPf+wdnhAnJOCZNBBRjkeEk0nZntp77BDPsMGdgJ2AdmfCyuTZu9IEAik/iiOqPx5O8SM/7McfIjUvieEhx+woxkgyba2C6AgNeJDsD7O6fZYy+eRtIJQyN3Zw0HnZDizy50W9UgafS2OT74d0tgSOiPjtFDsv9cAYeysK7hDsxBnA9SrJ5Hkup4v8ASR9/boHuKr7ANOxHYHnOa7Ijb6scRNiOW+3yHgeTDMtm24ScNlXOCQSBtmF9TZ2Sx5O8PLJw5dNJDyMwxOQPt3PMLHyc/GUe4PC79vg+3quR/JRnuxumWH9IrMG2nfbLBWBl7IKBBZzeHyMb7Bh/bGEvMuTEOa8belx9k6WETRYEtHiyVPl/8H5AuPD2eAiYPIlkHwfl1MOSM/ZaBT088hx8SuGQxlDYQc8lj5LA+SA5yzNsLDa2pkTH83MCGDABiBOpCUcfwS2Uy54dvGS457bJ95Bo4kwyCQnzZFHYDlm+5J6NnljGV9tYm2rc+0/kMDbYCcsHSwCW7fE8yW/nCxfBGRIqnv5P+4lnEkZ27b1lOuwsiaqkn+IE/tglMAJunsrnb0+tkT5KAIvuV2gtyF0h+2+ByHhabWDmy8Fi62fUHBJyzmDl3A5a88l21pJjosIbhPZ4J8gtMl+43eXkhwljrdIGDo/1Adexc/i+pZCqDxsCNgeEsrXM+oe/JvU/8TYTi7COeTkiG9bJmWm+RKZ8te/k3rBhknp5A4ew0kgEb7JBU007Q8gdImVOJzjJgXAyK9CDw9hO9MHyRAH22Y2iglOkx3ZH+T+vJU58h8XQnGOCZBaSnHkdQcI4JczPzwkMc/E+ElydbG0MYsFmb37qTkH2Ds5SCb+WPfpHiNhZLtt5jGM/k7wlacvkJh7APNvKZB1YvCuTF5TFWBBEdiSYRoe2EjysHHhYGSnZ0xI/DL1EGgeSTfk7AMOvhY4SGMOQjeBUD/xOULeJKRO/wgWfZlBcPIIwijC5tR7yyUkxbufYlu6+WAb/ANkRAD/JrnTv2Mn9lj+L0Dv/AL8sSPZYX0tlYHt7bee2M036aTgy1zknhIjrBvnYuhgRjsCZJChs7D5IOOFgtgslqWYCDgsSl/wLUrxpJnbPG9mvPk9HjaLYchBnuApdgGpksXkNEYg4nufN2hjyPX5AAFzuWHDfFgMnmF+6Q5Pto1ME6wYsWPURfLrpaOM55Ef0ywD62HOIwnp5Nph1LDQckxft4iA5cVKuJhhMJnIwzydf8zhz0jt11hECPi7cwI31kDDfTYAQpk4k8hbj4jUHyT1W9PLl9rZ/vGTuQvLDhgTh8WJeMsD0nOeTZpbKHZGC/OwEcjqWM4kiNcogWdJZOZhjeWAx5a8632+lYMgaFlGwGsvCjEOv5XOhCpoOTdHJ2Vy303LDq8ZU8lfD2cCu3AiPNgn25Gy6wgNfYf0XyzYEC16zpEo2ET8tEPIKuNm03fklebHs0nQ9GAtnf4T/AIBAjhnINPkgqBp/9sBTuJ5Gq016fL5HrOVzpBx6sSPNlEAOHs1AM8WYDy9d2YL2Xh4yeuQ0qzvzI21n+zGT5sr4u1cAbNz5ab9S0z9YzdSSAZyIT9Ld8G0k9kyM/wBiuCIe3k2NXL7QFFtHd7CPrAHvYV+2V3hnyy5Y8tH9QuuSgGh7P58nC+TZDbAOgzvRkmNfbgj2T29JGs5YILRzxaEgnyx9zbOixuC6RfsgPcg/7QGxA/lkdkWuzJPv7YdEm1jAteEF/GJOF0y/8/y5zfmCbf8A+ltNcJb9J75EXbxHbWMOh5dlscutkBfdCRFxWQlbZNQTiz2y+M6ms+VbzmSuiXL0zakOo7ZfGUEHP/e2geHiOa11mSXDY3T2xHb0ZdM2EpEbIAmfMu8HJm6zDDyJd0SPdd/gS1ex2tjiIvTv8Z8aSIgaqTFWo2XarbD/ACUR65bb9k5IrJB0vy3o8mUeSKmZiX9zhpMMLUIzOH5A6xmGJ9t+r3k+xZgvmGOi9spP9tvZvVuE9jTwchxJPpZLCADy+WezGSBuwHHspr/Mu8D4ThLhpJGfxDIO2xiXERFgds9iCA28CAMemSGCZNv8oFmdhTsRMnr2/8QAJRABAQACAgICAgMBAQEAAAAAAREAITFBUWFxgZGhscHw0eHx/9oACAEBAAE/ECmlUFMgEScAwreyR64ZGryOhNF8TFeZEgps3iNtLXDQU2Q9/wBY3mwhn5c4jKE71jWxJ4Dkl0UPfjDF3hAu8c+HmSRlibFUcY71KJfebD61w+C4r4llPow7B8pZYr2U5yU3i6+854HDcfGQGd2aJRwbVcF/ONIoKHGc0CB7XrC36Bcl0/vAW4ruMNLINSrhOy0gB3B/GQGM7Omtz7wUOoLQfhcQXQVN+8l+46T6ufZZLH9OCMcaITe7/wCYtnXsmDgnEeD3+MchUjgvZiw6TsKTIlWQH3i0T3gqD/OOAQgDD43iMr1lHz5wTFEAIidYaOVBPPnKSdbv9sBM0H/rJvIZcWQkA4uEadQ7+MQbvreMPNLx04Q4Qq5YdfnODCbbGWVKNlhiek3TTDXbN43QAYzeIQhZhQ2T5ZLjyHD3mxnziyfCQB2OK6+dl0ACaP7wDewgHyF5MWCcCTjBF1Ddi+Jg4WcXXvKHI1dJ5x7HIHb/AHmne4eB4uHgUQo1MLCPenxcETgE18axX1FtJu4a5ep9PpwVzkBa+D1zhB1L0vAO4+cUT4TvI2kItE6/WLVQfrYgDYvPnBEcURyZetScT9XvH6GU5hPTnZCJxznOKCiQO8AVBVdOeHAzHGm0NW8XrC+zJ0/DkoHtMjvxnFp10lyMZ5xZlgo58Yqoa01r846aTj/v/cYEapIb7zauGPZ3iySynZxBKGnoZxGTFh/rg+KExTXGsDDHZ3yl/wBvHtl5OTamTS168vGb0GG8njLEJYNt5o+OORMIN9Ixy6A+LVye1inQ74wMa8HZ5/eDHPoNUM83hcRe8YchQW8ioT/1zpB177wfIjfg7uR8BTe8+BHaye7Lzv3h9+adK4rSXiu8gIpuSGx46xXIJ4F02DU5wYWuvrBkbE1KbwCdUjkYZKDcaDEUm1BS4JPNLgRCmEX5TvO1ogCt/GWCOen3hRfDvGcpChya58YK3MF8s1hbwlhBAVaaLg6Kcu3RffGAaLJtwfXxnDHdAwf0i8dm8E5PQYphokzadmRpSAOXnWJzG3ePCf7nKAehs8k/3WChNjS3XDiojoQDPP1cS6VIPC84oeStUPOVrs9lbuvf/uaccfYVd+Bx12S48/5zbCE0CPjBxKiG3z+YZzoD9GOLahwXnHKaQ3w/rCFIB3/GMdkhCP5zdl0ntxzjplfsGOeJ7eDxgi118HT7yW2/W2Tf+9YQY9S7UyIadNHJPCDLtXD9mQWY5DFLjhYbs9eMEz22HW+vxlyYt2nO8AzRAgXxju0L3BL/AFnCn0HrCLu7oHTzjAmEXejhsHYKd+8gJyxcSPQCsHKlvOBTsw4OKkQ2qXZ/7ggnJE1QhUcp8scfvfcFxjmCaDo05cDsftvvN86P7tzXOIAziCb+BvEwIjnjnDTzWwYl9NS2vzlSRiOcmUQQj8ZvZIk71jMtr9mDCOUqhovHGLLeBEhXo/1hZTcHZ685DDFLY+8qiDoG9kyRIhXWAkKkR/eVwroSmGSdIq+vGNsoail1fNvMuVG4XDqnD/GBZ0NaBaH6wkhwKSu2+n+sX1arw68YPFKicznC1CUtzXlH+hh8Q6g8/OAWlUV26wH7+Ka1m2djeM2XJuQ35w1shA8mImGIgmsAIRN8tj/OBiEV5BnGeV3N+sJbh2ld3DGak5FN8/OBU68bXn+MVzuS5PN9cZU9gCxeLMIT0ROOsTRyFo1xhV0jgOsqWpN881PGhNfvHUPmLxvjFHoUjjGGopCb7bh1wYnbN4YMVNQfnDpdUcP3lg3qoNYelmipHR3kL8H63BdUwXyZ0ofoDfX3jmI4ncprandxmUiEvtiE1N1HS4UqqsNXBW/UhdKeCdHvFxBqDYad+94inyRD+dYEpESKnetZG72B63mogADvKGbCfE3jkljg4l2g50F848bA+pBWZqlzp4D4cUF8I1gFNnrxklBk2XX+/OOE5BeMSXsG2UxDRQn054xOCkdN3f7LkI8CuzgVNjxp+MnuikRtFa2+fyeQatHDgyt1NYF1AXdWrXGqdD4PP8YTVpWPzilkZNHJJ+8G5iq2ZDV8uaNjl43M2jtVL5yVLMrXjeE4pGUrkaR5pOJ7yq0NNUo+HBX0EdHHreN4GuJCY+V5YA+cfkITB94qg0U5H/GLplJqNh/X4zRYs+GMcAQX2L+MHkbrsMLpyT0ZbPh27/0yukG9p6xaZSd5yvI9fnJyR6be8TbZoHQ4TwqDS/vHTfSh8Z14NT/KzE0p0hvPHS5PcKskOxL0qnxhl5DCUQeCccYLGr0LQlnOjAuTiAhQJiYjO/vG2qNws/1zhSJL1EMvjdwWdEq7DfPvOdkJOGCyR2V5/rFRiBPi4k41lsyc0aNg7y19vdMDqLngeTLiMUjbAdAt/jCW0R+4NeZGYD5gmvj+s4mPShf4948yhyGjhMEULl86zXfTTTi096r9a+cclcILD85uddEb/vOFr2sDb3r6xHXBMu1QZxlMDxxHKDziYlqSgYKaZscODHQbCt+ecgizu0l8ZZtIb677+8A4awrpLc4CHY44f3j0R51Df/n5wyhgOBxWg6QGjgGNw0ME+mq11rGoZ1JEOMApO6lXAklukut85Dw8HPXGsEIcLwPOsCpMEKDgO4BeRjDDbPDjOqkGN3u90X8Yvq/A7ZRhwE9c5oi2nYxOgwXnbP7xtkB6VuMLNGzDZGXMfQh3FB4t54/OI5lP84p8FI46yY0lKO8Br/aREXWcMdTjGIruBcAIN695RlY7GEXXYGQjAN8tvEnCQups3k0bsK1KuAtw/toF3KDkXx7yt5QWp4uLMsGtHHJbLXv85Ki1QlPWDMjNiq5KzW1lyn+vOsNY1pteZWHGLaGmA6FHDGUwuyZZ6ypvfWNjgJolH1gWxEBE14YTephBKiZPnfTjzkHKl8PeLNUA26rhdQDnE5f4w5uqjEQSCkAYu8MkFlBT8esAP7lyesXRLWk0cAyu7qEoYDcqFb0ifNxUAECPt/GLngdEe7/ushyLxHnKkICvRxoMQT6P4x8m6cVldMJTjBjuATv3kilG6by3WEHH7e8dA2043vE+yhOcD5Sitxnkzg2gdphW/jbrfZib5FB7lwosjo2HeElPbkmTGoezrOEuE85bu0Z6w6oWv8ZDZRDQC4a1Ab2acfJhWbwphBO3LdWCNdF97x33KBq2uJfnGe2oHaLV3RJ4w8QGoLyRo0uJVLsoncHhZcezqBO03pdecsO26o6K51x95f8AR7yzT7sGqzKotTyzdLa69GcDii4yTjiuEQdG9aWj95scq9pcqX1AceYVoyzkUdgxjEbRyx1mqOWKGsDBeOGADQ3k/OEgpFAhiCV2YjoERopoy7GCB1KPJecB7RoAVEnLxgElSGxKUeGZp2miuiP/ALk2lBaj3/veGelUKvP8fvFSxi2Fa+s8Hhha+O8fpGqez6MJoNN5Oe8nhBLDvjGkGq4nmvvFTB+WXnFrWNm1Hnf0YgWzwGTBoD+GCF6f6/eJQAtWfjzitAADkuE2NUpMVVtosJxdfK9GHRigCjrCKR7e39ZIKdmTiySm3jNaIDSF4PrF4HIoI6a+sKhc2OsRSit6uGKcgdnesFDDaWmJaQVSRwvoUOzOT9d8b/3WFhiSru7MuI1f+PrDTylZE+MtGC7NVVMSd4QijV3bD84z4XIMBnaDhbFKgS02V3r4yOgqelTUTmZSRqptX4G3jIXcGNWvKY9Ybr4PH84fM+RLgZmdCHB4W+HOwq2DxC5CdY0Fuq1qw6N45xwaKmtmrm0y5Vg3C3mqmrmm8O3n/LhZgqeYf+MTwG9NoAw+MC4YXuy/KG8QkK7BygvBD94jFFmvIYvuYPyq2604bS1woIIW6UDit6yPseOBBnnCCvI6DNuFsqEg09YJsGBkHnvASYdEhxuGBvgiYBL9eMICoijc5p1jwUEgr6GIgRC6vGBxkUqO3kfDjvyskteOselpY5Tj9fvBtqBoSd4z0FH1rKRVYbH+hivJhcjCGG1rNYWsJAsxm4K00TNNfHxvAxl24+sVaRoGgzdUEL0t/wCH5w+kBewbk+8Yz5ivCb4zbwB6PrD6rA/Ux9ARs7xqcUHAX/5h0MmNHXnGbH5OsrtJKxH4yHzYKHH8Z7B03PWILXXsN8/OKb2VaXeagfXNPrBwtYlNafH/AJmv/wBq8gbC753hu0AqloaeeMbE06D1ejzifjg+mNLtEtMeDOAELSM7/RlSlMrTXzm0WYXejqcYByvGFd8b85LMliqoXseskXCw6HCFJ5mShiykOefrNmgNolMPgJvcoYuYDbo2n5x8E3LhecO7i3NupP1l5qiJQqeLs/WEAdaaI0n+uG9XrQiqm3neCBOj2g2K8ST4x0vnOKFT9Nw4ZYqLcvHPs8YnyIuYv1jXCGdDF3+MQVMtCWxPPnL5QNaXxx+PGQjo1K6c+MV95A8/FmHLDWWHWTcQT2frIKDLgA4UwWiOlOx+et4S4S3M/hmLoiPqcA3Ml4P/AD+MJkCek95G9TWj8YnW0zrcBiAeVvJFB2bOIOPUBoNRdz4wYpLHhecSkVvafOc6PAPr9YOwMjuWxyrbGYEXIySYcusNJNo74xA6xB4gz+cEzrc19mN9g0OcGvZZ2nG/xjQBiB47YQkMc0x0zuEri0CnOL67+s5A7mI2InrKT2jaPGj3lmEisADp7c8ZunhTEu9nZvj1j8sYSyWEu49YkV/IisPJzc5OPfHB5fWFkxFqQanfvH7zDr4OgHCoHWWF1d9/3gqJhkcvLRswo9DeftHpsmLO2M7FHlVB6zvefI672b6yCYS4APKz1hHSQSHkZXWOCLiCPLJj/Fqjjp1zxhYtW5g4UbfGXNUplb/V7zfnlaRdvGGF0QBCceTjFNeKgR5Dnj3kcoZMsmy+pq+cYCEyvEoln2fjGuJasdm5DN4wj+oYquZMgDTS85rzQVxSz7x+1sG1fOSWJJI1rHSQW3s8Yaww7jx3rGNCgCmDbiOIrmeMfBKHSroUykhUHBTrvJI4I57NbyLKA9peteMX9UD85GHSccsEzin/AGxpu7blTvILD03fu+McRDfMnpcSMQALpxvMSNXCoT1zlwl6w7X3i/OVvIGeeCOGodx9Ygdyt2vHBjqdpfZ1jkJ2HhwPTOlsbzMm5U9Z5/vIkGDcXziPBIi+e8VtAEv4YOwZaJmpN8zCSRB0CkfWN7+fUNs6y00PtIwkk0mS4RiQuCiTbic49yhFqAMe8JKWAAME+UuXKlHqpQ01iJ+dK6onvzlbf9oAUf1igo6ujfo3cIOGlJ/geZlx4RDKgnw39YRMkAhOqa8ZZCCh5RlM5Gy3V8FOeHGM6dMD1gAowCPSmL4fFTQp1PPMwgVrBFRBppOPWDqKKFfE3FxDAKS2yKOQpFedpo3f7ylpAISgeXE184AN1vDWMKQBTvxiToqQXvjp8484UYVHvvGwgSumucUDH0MxTvr1Dg0MoXR0wnjd0h5xFSDg1mjyc5aDyUVP7MDilHB0nrH0oVI/LNElA5E5f96zU1AUOpxn0gsNav4cXcQDGsW5XgW+sFsSP9mEALPkvf6/eDUsHm15wTpbAaw3DyM/jBCFR1ryNyQA0C+ER3kpPL365GtdTWBED1nAS/8AMcRuGpp1gQFZNHiX7xgo0XT84iDtk6Tw4EFdHy+8eMeacuVjhN+HNaM8hDZm/hoBAQClcs+tIGrXsHX3vAR3iNHSkefkx+CEiJcU2gYlPN+InfVcUUyJAnk0Mf8AgkG7z1y6zQDB8R2HOr3gyUIDgfGH+snUc+x/3Nk8gApU4tHXvHWKOJ7EefOJ3HaI+RZbTjD/AKApgLo63rWBdJvaepFq041lrzYqGsXzQg0g4wgB16vAl434xa+fIdI99mHfFbHfroJ3jNFy4DtOjnN7RxEAgF4LMl5Q5qXaTCiqm3hijh4CCiVO34cByQUtKrjS8HWvhTApuPCXDBQqDw4iJDcT8sbgLICvh+jJrtch9B3imkAmzpX9Yakd834Hkf6ygYdnZrXiOGaGMQM6w97Q/BgQRQieXF/GHGvJvVP/AHIluT1cDY6oRjX85ROp4hcCuoB51sfvEteUTrxiY1MWx6xeyFx2ufxzh2oROTxWzjO1Ck04w0RffP78c4gCteAC2/gcAFEN5Q0/WIehrg0cJcDxm9Zp/N4dOV4h4Pnm/f6yRCAphqq9/lz/AFiiwp65vF2KiJ494dL0lxYyd842DXLSThuj5xsrBUQ1HTmwHW0WeU05Bsb+QAlUd4hIF3d6YJ/WHj/NgmmOzvnEARokPA8bccYZU9v3hNq/hAdZoSoFKbj5cYGwMU5jwvJhS7EhgdpKNeskEwSj/wC2b3jQgqZdXw6NdYW/DYMcjrCcT6oNWPWD04P0Xjjj9ZcAEJ4NxfGJYaIgPI1z1kQfYA0AO6YwGSuuoXsDzlhvHJMReOQ4ovFKht1gg96w8kDi3rEPlQdfL8bM0rbPQuCBAPGY8E3KdHnL2MFrNOfnFWiBOkzzTnAh6UNjQOgsfrD8WQAeY+sh+BKFKlXV0YPYAQgP83hrmeCv9/5gEgoHh5j61j1Rh0E7/WB7QJCQGv8AecLLTh0MjV7bjs5D65oibNe9YugADb5ZBd/IHDwCZD/TIDQ/F1hk9wUwzU/GJPm2p4cAc1HmLvjxoygZXkcn8uNeSCcUJ/X7xEkoJsgxxGgKRwaihRye8t6mg58YvX2ADecAqQ9pleU1Ef8AP6xOMXx2OMFqjzw9/wA5Xd6WyXyj5LiVix6aAeB9+ceLwwCHIWbXkLgkiHSjYE5NRwq/GtT30PP7w451dFJo5Q/nLgPV2DH4cmUZBjev5zoC2Qd7+Tf5yUqwT+1fGbk7JB5mb46wqd9aFbSd/eLbpc8nR54YzrB8NlM2dDwMLCAvgGy8qfziGC4s8d68THHpgUbqPP6yEd02JrQ5feco3Plk2a5/jCeuBSmqnk4uN+ZD6R0DlkHtLFNm7HR4wKqToA1eenWPRiXstXaZDTRPjKg+HnFfnxwNCbzx5NwuF+8hYlcVf+ZpEbqNX4yu0i3GwfF25yS5OKo/4xe+6BEcru3NwN/JKMXoxdxwTNOH7zdV443xhaIgNWw5DqGgUfzhtuEilcn4w2rKTz8e/wBYAwVGRE2YCgxEpuXjFCfGI6/X7xZwxOkQk/Mw2lEMV3iVswMQOHIsoYrsms3xa2yC8+cOhoW1b5vvBGfhOCfwYJt+5GusOKKEbvT+8hwSoA5FDjFWjy6dZH6eDNOPbh7PfnH+up7kyPHRwj4cGXsd3BBQJXPvO9lQn2j49457agTQp5Fugzv8uQihvWV4w2XNUMqbn/cJ2Oq1Ha8d/eb4jHAxbDYff8ZYdevpzqD1cG6G5nOr9TZhhKtM1KXnVwTWiwMSqPfGai7HRdb+du8345HoN9fGLdd8qCqA2yY1aR9X8naiTnJWAA+SOaeL9ZCFomHuE845lh8u8jTrr3j/AASQbK6HnSXB5uWqfIfTjcDYakF7cfR8imaj4uPU/JEXCFVp3xhvmYWFGjh8nvKcI7SCKvWs09AanoBj1mqeNdP/AHIPHOQJpD1xMeQqr0FyngFiGvzjSMmtHBcqlpXY9n0YtLUnZcRPOXKGzBzlb5uBNIWzjP5xUBW8D4H7zZbU9N0C+MpEwROL6wkOiB2FDhL+8T0QRsPfjeRyKIdxjsSV6EHWPoHkxvHxgIFkadfePwNDCgXwfeSnIh//AIDMBwtHR96zjHVNDIN6+MYTAvC3Xw3jZEwHVQn4yf3UXhhLedcDJpIUL242cmLgmr0cBRF5ci6ypFGWgh/zFHSQHWM2L0NNe8jUaq69Y6JDwt9+eMqWjxR7Lg3w5CQDYO6vpZiT9MVY2i/51hg4p+Ag7le3Ie/2BBE1yYuQVJCqcV1ibdDUdaUnnnNaeDRNeBkxHVaITdjnzjAaiqOo7XzvOiV7Md6m8W8coVVX5XlwYxokARyO9aMC22+zIGm+n6zY2enYoG3mZYo7SIkr4dQyhtAqiU8hOfJmioZ2qnXQuFNMPg60TmXKomcMFOrK8JggyPHhxyU+lGPkOMBBBvTkfb/7jB67MKpXx4x/QLwAFb4E5w0qKLG//jHcd5wb3dc+cUEahLqlr94IBek2zWAZxktx/ebflYomya3J+cRlVXDWCDy1vCoNoPRDngzYtvotO8VCCiUBsfGKSCkluM3iLloUg2HxvLIfUB8PuYBSG/pOB53cSTisC7wwZaPg6i/j94AwMHSoscnjYhpZnTo7uPfzhpcco6c/xrKVD9b+++sM4HQx5/eDSi5rnWG1heMBjnWbIxuYFQoHWbdbyF2yEJHgn3hfQDuMnh4UtM8ef/cDbBAaMhRAR4Yc8obT5yHj2jad5WhqCnGIArvEBA/4YXSWKmgC9c9Y/X1diHwCtwtBFeGSH1hUxAs7ELa/3gu2EHk8uaauAleT9Oi+8IVRWBoajZLzgwaoCqA1eue8iAQKArbXr1joHUozfga/jJkNOJBITDR9FkkTOX/OcJCxPGTX6MIIRS+KuBz3l/BklKPXHXDYPxZKxf6wQHRlSOD1kfNo+AvvEZYvT/aYOC+Xn12DdHzkarMZBUTRdYzv6NtWkci15SK0h51r3gH2VKIyHPfPnK/AZxTmz+83XRTQt0+cNW1Gp7To8ZIIuyI7Pea4H4AezBL4SLvW/FxGBJfERuxfLiWaAhq8K85yx2LZzWc43mwDpyzrjHltLeO6XnR+c1oBg34VzbwyWE3HfWK0A9YOLs04iq+gTrOPgxqv+/rEoNinOBT7Q8HreBfRdDkbfvLuhsIU7b/riDSCXtE8Jjgf380H/d5ENwqi3D95oJDhpIubRdK9dpgdJ7m3r/vOHCdmiJ3qYvGMD+P64wm1SQ61/wAwjYBQjhekCCmrgXMPLejC2xJnUwf+8ALOMgiOjopwXzhC1UZsIb5sHGXy53gWci/zh4vxkJt71v4w4IGtSjW9jky9D9m06p58awhcHAEdD3c5OjBVKc8O5J+sQeZQI9L2Ylv6QseeUrc1WQLy1V2pc4rQYOUhex7zQxZPdpe3XGcy9AjI1vW5kUfs7isNIcazjLAwLoOidTBJIHE9c6X+MsoMiWOd/OrvNoCFskqflnrFn7PnmgdnKYLLroA40brJz3jGamrdINaFI+s0le7Ruo4TrzfWMTGGATZOw/jBDokVJsC7vWFIIhHvAzvVzsbNqsjvwzKTNgS7A794fKiKRF2scss6Unwwmdt8NQv8ZwU4ERDZGH1Oi+A/GOjQH2CIef8A3I0TghA7EldXKkzxmK2P5/GKrDZfBxhxJosKC/xiynUD7s+dYX0UEVa0czKp0s6TWA3OUYsnB9uRpWQbVsfzh/aMegtwtmqVS4fGOuoqj0twnTxUvz1x+8YmAEFoeLkfZJ9jyPrAA6xalrP5xkc3MjyfWDHddAgTWOwQ6kfA/eLlahoGeMPkm1qsc/xvXB1ibhYzzm5jbPymtYGiojl8/wA4fcEg8QfLesP1V35QE4d5VFhppQtmyceMOaznEOlGdO8KRIOKl3B4n7coDGBtVB4c3ORk2NsDhx8JA2cNg63/AFgHBBZZOHR3PWB05QwUlMJ4xchygQOPrxj9vjABU9ly3sO8Bx5TWsbxurRabwH/AF8YYm2KOiLmeT4wN2CGiG3t4maz+Wqmgld1wFdpFtdlcNuGTCABB09ebkgyQxDYvF6mA68jQWu0H95LREjddAR1r95A8GjKkPFubWR6qLrXL5zrrNU3O21q5rclNIWvvj5wYTaDtmJ1jIYvdE3Txlm5j71zt1ga/wCOKdTlwUNeRlHC+OMaMPI9Hpm9Yasap07H9Y3kwyGt1nWI59QPz6Pj5wbbioRPrEIkAEOmDuV/WCfMs+cus1wkEF92Yqn8pAXSDxjSjV8+rj0jON2B1hwKYuB04kJSknUn85akdBVXX7wky3H30q/f4yZ0B9l5zqrBbresf+D9Bd/WN2eY9gTf6zQAvOfHfvGWzbai2WTJodxoiy4QP0OAu38YRgHRcHREkXjTkvLIOGJx7rPx/WAZNhJHnjCOyScHD5nOaNdWqhw5HDJwI0prmx85s2reImrfW8NISBYyF5DBATejWo33vWJKTYlYLH7zcTRe9CF1y/nBa4FwhEHl3i6Wu8L6IOMmQJU07+Z5zgLQL31Xky4pIUagR527j0YqxZdlNijGXvAIPLBAu2to5q918YcDne8d3KwUpVymDPpIgbDsXLLLCS9mzbxB94M1hbFAZYS34HJYBoCN2+ouOB6SSKXwId4xamgpHHg13m+DwwqQU4B5wRhDteYK6+zKlqAuiQDXzvKspBxou3jWLmkeY8Dv4zgHTsQ6GfP84Rg6dg2z2YvqkKJFA95oPlLkQRn94/xvFh5W84OyIFSUevnNVbZ2exzx+8nkOoEvf7y1YRIsaxsGoSEavS7MQmeUIsBNKRxpZhNwtOtuJ2N6YumPp4I9h8Y1TPSG8CeULmyKylCtfON3jAinhMgTLWJLfvAJVD+4vrEmAzsjM2Vp5qL/AOTG5ZCsJyP1nAUFKF1cL8PHAlie9GADFINtj+8vHr7TesjKXI0DLMMWfFl4TFZdx02ZyC7rPqeM4zbipdhvG8PrlabSs8cpgO5Ly4Qe6mP36cLW7awbuDfEj3vBwswfp9VJU+Qq4+HKOKlX5J/GUwAcHbR694iB3FNHW+TeTQ1ucJXaOXN1duRWg+c3EYuwiny4yRy4bdvyC/xiddOxQDp8+8AX61kUA4+cUhUW0fsNcYHzBDnE7tJiRh3CHgfjE4rQgXtPBcmwt0jOB2mIb0a4NG9Oy83Ar3RkeQQ2MP3idIgJx6FqobuSQK+E+C4+HnEbY+dIOH5/jGYFO03xXdx3xWWAi1OL/eKZis8GP8MMiwwEutrTDCoq8JhP+5wtOVBBXtBcgXWBAmqa6xTA0hAHnmx/GNuxFdDyDjnB5hpBzXI6XWcMIBo5qdpHy6xM4A0Kr2Cp+8BDqCrms75wYk2BgiS9msaoFwAfv4wIQ23rtMq4DUEmF3agS7kwGa08if8AuDaNNI7H84sFvNpkK+IYLM/gOx8YzUdg1sf+/nCCUOURBH1rHqDF1wmI3XVDyG/zlktp5iF0+cTaUj5FX7MdIqaVR4/WaTyMIkvXvJOVBofcdn946VE0pc37ww4IMjXf5wJ1H4qcz947ctIadz85fyYUsbjjmuTX1HRikjvIEUCUB4TsLdXNTj2q8XhoTx2Y8hAu9L34W31hpcfBwT0axrMAAlQQ1t24zDGJg9OD3gpwoqMLZ5bh2V8e02TZeZxlRkIsePbl6O1KyugN85sojej2HhiEvWA+hv2uKMu5TrGUbyqEF6W7MsQfu5adGk9+cFkNZfCvk04jtb5qOV9E94ka/SRbKaDX7x/bASR2EtAn3cWJsOppV744MJwbEh1Hym8sKSQDpzuTrEgbd3XSe76xSmSU1eKnMMCrBiMaRkb84BlNA1cpOsv6IYENNfnLc1E42O3Wk494UREMOyTnBnU1Nx3rjeLwiINBh4Vy2GQLZtB86zeo0YCFn5y3qhSqz16/jGPiMwY5h2YBzboptLZzS+84uiNGfJvFfk62e15xwiOCgdeDOihSIvjFiDjfbeC4JQOi94CoMTD3J81w5DBFuyD94fc+xH/6y+OwrSbj85wImnS3L74xAyAVHzmmnkFZ/wA/OabijUdVPnJRxOr421qZKV6o1DV/Wb2VAikE4xiELII7ReMXEJWej7fOX1XpTR5njX6yJrkOk49byJAigUc385TzFRN7dbC4YKfZvl3w3qY6RVxRyg7hgpaVl4BzTrIppdEo21c3xgdDAAqxQ5cdIEBhCAp8b3gmLEMsQr4n8Y0bdqgPT94wJqGh4jne8JYgL6xGkNWfeCsrKoAk67wYDIlJjwVi/jLC4umAnTmUPzgGXsN2hONuPWBZs2U6+SbwGgIVKEeF/jAyEi1LEvP9ZoaWJgrx5O36xEVZ3OByzENjVg2E8Te8ZBchRTh2d6wfEFEfEvxMbSHWwV9cYV9HUU6b7yC5QnpSa4caqjMb3VMLlpITscIcTvF19q7R5q+MLdWiW3HMcNsEROr0rs+cpRfUKQXy/jBEcYJWwdsb17wBIvijNrsXABYkSiAnneFAUTq8kTjQnjIVBzWktDcd5Ms4xI4H8ZSgwB0weXENxeU8B7y4cUgexfjLtpz3c6feFYgCuHNPrHbLhbr2Gb86QhLn2zBqDfPf7+M5E8esAn8mAYiv3hiwx2hHnL+MbEsvou485BGIUTVV4cU4dhBJpxdDKC74/gyfoQR5NYn1lC69n4MaeSFeVYUW+cRhclhfffvIUNTUHRXLdQKOCKd09ZvTOQKOkPrGGjCmUag1TB6XSntyUljignBT6xgkxBR0BwJPZgKThFZh7A/ts158PQY6jy0x03o/7ii4mxU4HXnBTOJHmnlt5xGyZMKGpehDI0RxX2/qB7xWIiINk2dPfvDFZFhQjD2O8P1cju7CLpozWvC4QVD3194lqXg9Q8x95vxkpF0XVesuJmt5Sjia/GHhgOoOCeeFwEZgCHQ+D3PeIpDAAemSnrDsEqitRnDMbX0Si1uuecMXQjah5Gq4faLkYK+wuWbiYjMDygZS1FwOqvs/4wS9uRDSsGxU84dAfM61gdwpivV+cILASJGn9GEhhBVCc3swvtmPTx5Zy/OHCYwSHl88YlZcyuRrxrLCWXE/FHjI6lEDLWszj1623bU9ecb9ue6+X2R5wNp9Yhx4Nc4tcBlvowzxh6nl17wAEJAy8y94z+IkBoTw421LaRZxjtbdnsubbHKwmy+MUaPB4DDwtZnBa5IBspB3N77wsACeyFV96cDjXsoyauNbN75vOgrq8FwK6IFC7PDHLiJKbv8ATJIIBTgKN4mVGmAaebe/rAccIEMEnd5uP8yvyICpltDnQ8FC5SX4WqGNcuccPE2V1teXjAHWRO8lvD7w7PogfSH1vnAaTauxeDy9YYIwUAG19cvF8ENkLz3rxnC1MlkQNFR3+s2umBvoYN1afGCHigdgasbCuV3gI5RMfJPvDh4yOSNfY++MZnGMFbNQeNa85pEqmMdTveLtpoIBRfDr1hz63lRVHgP3iACsqJCeL0/ExbBLtvRVPaHWOqi9yAh0V/WLQqCs4V9XvDaHh1FE7nOQ8FoBTtb/ABkig0ET0bJhekEANtU6+cGyqzW4XwZqGceK2l4x7YoDHaMfz6wwskKHNfrvAxzI3iSdYggQC2/dOYzWOCQOXRztn1iKusGAacyXN82UbIC92GOGtZDxbO7nAg/o0SnxxlkEjzZsou4mD+ALm7YDjE2ZC7iQutXnIB95E8RPnPPvy78P84ZRIOgThvxjVA1FyQ6zQ8Ar5m8eWkjk6mXGZBIo9Ga4W79e/eMQ1N3OR+MMesjYr/zIg2II66Pxl1qRIlH9/wA5Cw3AOD5yKiR0HCYWp0GOv4yG32g0eB/3OctsxzDrIayCDTQQ6HKOsaWWaTLFOg31hBlJ0HyvHrLdTuwBNCUwHJgYQNnUtwOdR/DmnE3jic2EgoKaBDhMt4magV0OTE6cbBZI6HX4x1fImgBPDMFH6YaZVoAtmHM4a8DauVuBzjrSyq8ayCmpSydnaXrKPvVskgsXqD4xpVTwmCoRLrDLoiSiy6OA74ybY0HVs1eHeO2XFlCXW3wuOGisJ9ftnA+9JupORf5zRUQix2dg/nN0/CK9F6Tf3ic71AtxrzvnGECVBaUIc7t8RMINaDRy/XX4yQG71epe+m4QoCKKBV0YxwyEUZ8znAFVlBcwXE8YQgKj2C7PVwRnFtKC6J4xSxoY+G3yOarJg0YbPLglBm0lc2RyfOgblLz1hxHKCU0iOT6xsOioUmnxh6ay2wKOkTDQkyO2aHriYud34RCh0Y5fAseLDlh+8veCH2O9uOOMkGTNRpHHWB9dT6JT3v8AWR42IR/KWYF2NqQWsZhLknd/4jDFwznJEHnATK/CLdMAK+Vkr0mWwpBsvl8dYdPbkQSG8EYk0Qq9fBiQMlJo54/ebgJAt1M0DcxpRvNDmkxU1Lz1kyVgGGjwA5fjAl+21fih2WY2jkpjfk+cOeaUAN0WB43h5EEMBC/fcMMBA0trV94tWwRJleVbMFnBU6aztOOcAxBPIPYzkMKh2H3swat1Y7HWu2OKEVEEl6NblyE9aWAzu4xPHqeb0uyxcAa5cAiNb3N5LHCJoy13Q/nLwIlgpe1QdYAopM1SAO184jaYducBfIax/YE6BuCTbf5wDV3rewnA4QHoJskCHl4xDUsIHTEpOl85CHZFzWeK/pxBGtBQULwN4j3yAIyFOXm97zZCCCowjrQwEgRgQkEzXHObTkB4z1zsGlad7F9b+8EyulhqRnW8gaMeO12awMajJQ0pePeIG0SNik9l5+TFKdVemt+9YII+mbHtMU4IEFOCPbnSi0INiT8Yw5F06U4DaLMdA31kmPhFqG3CRuOa88UnX/1h64hbcNtxMUcFVWjcIhirM8n5Ys5SQAT+GSdKWIZZzrGo1Ciz85rY0iD8uN4gKR5bNvwR/Oa3IXUzYfG8iySTQwGLpfWneer7QZ5cVhtleDzbgA57xesX7AhJPDZFM0jXB5tJvKqaJSmonZ+83+c1zq8Iod4YQ8YXbvudT7yeZzSi7HQutYyQUaGuF1R5weakA+QLSeclZWaUrhzLlkWpDHh9FS5bn2jqmDi7wHtNgRDaPL1xi/1M6N7dxuMMIGe1dDrTBFrRQE0Xy04IkYe6CKnN1iLBRYM7HO/LgkYognVDR8uIfPCuwAFnnKrGY5gj0u/jHYr7XdX6fzlRVCh2q+NTeaDvkukm7+MdGSD+HHGCgn+gfImG8CWZrCzQJtw+TJu+ccTb846Xenih4lUwUOp6vkCtSfGCmmgi3O00HOLE6USvNnObNvODGtExyRuHs7A9g/rEeo919YOkswkfFKA1sep1jqSNNbzXWI/OFsvB8wzUyMxRYpOq47ukrrAVl5uWcoWsmk72h+HFOdDJhuTXQzNuTh0fZ3KZXJvfLl7NwyHb3xAk9RIvjIsRlCyg+1xjZkW3lO/jE0rnKReMlg5pb7fzgEzicXv4Ewe8DHkCPrICxCJXx+cKdegHEd61xlrvrjd1/wB4dCEA5NV9vH3gZSCu68L8TNQOT7Hv4wZoKWjLjEmAcljvrdwz624BvrZkt3tgqbQa/wDcDUgatUaeGEar3bi/7zhGRMiygFinn9ZV/ebOLyXQtM093EBchDzq4bGitykBr5MSh0+WnJ8mbLUygX8jAXN9++QE/DgxpTeRCwHxhEmyKJohyvbrFiNjbEAFGut+MFLpSN0bkkzS5dR5aQ5lzjsC6KJvpxex3LmROTX6yydbvsD5K4fgYKGWb2aP4yc71TOpJrrAbmJh+lOZhJFWBcsj5xX6KI/3KCOMWCoSXC61es1EkpPmeXeCQYgSaagHjAeQ4TuHwkDJstd7dYOqRuYJPtdGlb31vCqd5X83wwmmQrUjt+8YYZlaNaeT3jDCy+82XyBv4wKdwrXV4kEVloUZwNfxnigIwOyeaLiTehYaGXvX+3m1ny71mjRf5xcfPNGASFh4uOqcYkR49T+Ms8TymkNe5l5TjoA3eWn96xCjOdgvKVjeD9ZG+ITWNSPbjFIMUQFOTlmh8BjhOObcRS7YyUR10+MYOZlBxO1Fwvw6Ah3P95w+yjJiSPnnH4WleLTkRpTY9x+MqnWIQ2z3T8Y5st2IPB/GC9mE2gynKUFvQGYhg8hdjVzoQwVWpf8Ac5DSFaQu38YNkpyQ+qHj1iYLygMfN3s1ifBKwdct7TvJ9amphPYuSDFsh+Vrlx2UmsE3Vk1AmL3qilyq9zvF8lC0dFTVHe7imztIN3PZreJS6GRcDJvr84fbLZa6eUZK94jP0+HbBz1zkt0ZFKHZpF2uGBgkEl0u+0xEhOSs7T/ucuR4yIOETbgqhuhy7FNz+LktzLbtlT53itgkVLeB5TXGNISa92reA7+88lhs9AndhlRCAis6V6MqNcQ0OY6xLjL3R3OtdYh1ogJSjoUfvAjeChbLmOMv6bT4OzSqGToHRgWQc6/jF7US56W+m6xhwbJpIB4Ex1TnTUEB4cPEoCnxb2esT0NchQkvesnFBI2SNG5gdcMVODQu0ePfrKb6pE07nh7zkivQfk7mdO0sCGo0mHteZVJx+XBzBQznN+kMfqrXJPKa36w615oG+2qZR6mU1aROd/n1gQxpErI9Ey+J8aVCWdEjMZqKkAAy734wyhZyw4ddj+8JCAK6jVQHIc4b2lEBNodwnOTVBUwOEa71cRD7oUgOfW82+tDrYgh4zWcq7xfHWLK0EgvPzjoepdp3Pxgu7YGudfzkhGTHO3j/AG8ehJDX+PeHkyDy7E38/nOkjvY2RYusEw+EGVitNmMkRNQp4fhxttjus4i7w+qlGOju5fGcR2xFmAvD4zibggYksU4wwkXOmsONfmYwUc626DUHZlvQ1UXJnLreLcZeClV5Lt9Y6BDVe9erxgYYNXt3aHEkmJKnBprUzkvT4xAsy/TlPF4cogYQAzh18fjHJuWx8nrxjYw5FthJyb8YAtWGoq7LxcBwK4wY+AbL2ZEAtkAuk8dXBtdnPjDmXGNkomAWFx3m/wDGGDyQtVpndI8jGbeqYHRexMb+zyaxO0zEx0t8L9M5zWUEC105FEcqUX4NwaZbzTC2eNYIg3dwnKmQoko0JoL/AF4xM1PHvBE6woBGJOUo/wC+80zvwdYIaAMc5/SiVQQ2nFMuWgck0Xu3CsRyDezhw/eFtgjXtgDi1xfrcxYSHkeM9iHkITo7wKNUmLhC8nGM1Ud0Ilh6yf2AGtqwcOV0DawQHCzIeLiIyCmoi5Eac7YPTJDivKDycYRQAJp2m/O94g5NDieH3/GTWjoykTX94QSxwrhNJaChFQxv92sG3TjZgxW6a47CfeD0aA+BcUKpVqHtxhTx0CNEfxjUjbyh6ubqClS8zdrbr84JURgtPDPP8ZHSqcK016Pr9ZMLcYBqERTHB4MN9mwXrItDRBBkuQmESbjThkHfvDIOg0peB4I/rAQGdAETmq6nGsXzrwAj0azhKEm0F8olw0YE1FG3ptxjmsKjcVswwElVQv6cfeapNyADaXi1ZhsIgmzl9YaMHQA/b5wzl7pJ0hQNe/WEmVasFpe3RMJ3SU7n2PCFPFxdwSwDQAdbzXsNgU529Yl7wOQb2ZJjJqoAdKexw6ORIlut6vszuHCQiaOpvHIUQtDTRbo4cVOoMbpHY84zQqJKpurxN7PGFdJFUEFeY/xkkg2Fn0+L1lMcYkelx5bcO0yb9tuJRgCbHab/AA/Wc96Tle5PGdwCOnN+5ZgwUttiSHw/GJVo4rNor6/WPApJXQOnjHC7D0hpOTNYSw3Y30Gj16wVfzk72Jyc5cdx/wCQpvrLRvupAQcU3gw7hAut4u8BEWe2olXWl/OElvGofJ5a794P8vD0gCT7w5wPvAqfH/caD2E6vJfhynLgMe2bxrh4b5ML9XKoPR94I0ClidfvFcDFUth/NPrEFYExq+H5yV9Rc2f/ADBLA6NU1+zCxbQQU/8AmSXmHZpR26Hecpi4yRF8vvDFGK7iOhuQxD0WXRrbub68YMzCDeU8C+MSgadLlVaQMUmvMo0HEm/nHM/NSNP9W+3DF2NiZK913tzpU9qyNQI35w4AAyTinFItynkVDTEE5DxhEQ+mE4PvI5Z9p7CEQ5cv0FpyWKJyBcUIOuNiWvfWLIleUmX5c6xpVqSooTd+MuUb8hETg7OsRsJpSJpW7XbjJdtyNrjWNYA3VRdBmh89YaQqVpu6aHrHsrkU21V75DEFWr6SkOXHiOtdCgfkOsWlPum3h5XJ6mAUy36g86bi9oRVMDBdwF5x9LUMbwpyJuYjwuW2RF44xGJ0AGBf5MpuiiOp/eIkYg6HZC6Gv4wQjWMERpDiWAdSNh1xXCb0OkjAezAAxDaL244vzhxA90OQTyxY0KvocfwcB1AQanKe8Q5RQCWs8zWHKvhyU2dDvIMOe0BUfOshUEiitH0yFYo1BbJk7DGt7T8gzn1OTgBmcVOPK9sNomU1PTVp4xJNBT6v1MN02IWAGiZCVnLcSP6uVwu3wmVz46nZVeIrh7piQOmcasCIV377wTtgt1r66/GcplnQXJh0hdlfCNU5djj0dAn5y3pnHrIbQ11v6KGbO2+Harijz1MVbiS4FUoil5wIUIko5N2THNednRDnb4x/Nkiew1oGzDNtmAAbnZebiHcNsTgmuevWICyuPHkVgSuGxqqEoOw0cZD+ytNHq3yb85pPbBNIltU1nF3qRcr75xKUABq8CcmrMAjDpBCpLxxgI9G1VCPfOsMEoGL3PpxhlVhlGZdP0zmIozY9PHkyukeVcMg7eMUIdYVVnmCZEtLCsIs0S946XaqiQn0/9xEo6iKKj1q//cAFQS2Rn2YZCGhXzXxjnZ4dZqznf8Zsf5plku+8M76siNgePOAAjv3ET6piYdlVte/uYIY3bX148YFwSwNvoesO9LSLsZ66xBAWtCyj4S5MfGOmB3x1hgfkmx5nvAro8QCN46xw5sSIIozNeVhMQRpdUMYm9uiTHeAwuojnScTF21eR1weTj7yXSPBHInjjnL2WMn748f8AcCta6FGhpTfPeIJ3ChHkOzWPexdQDv8AeUreEpRWEkDi2L1nbcygicrg8sDnEXVObMSRN4WxG+NfvClKdgwn9Mh8j2y079n7y/VwaGx33lABiEuofxmzh/HcxODZjZFH2Cdz1cKmuESDKSbHnrKGFxodSne9YzA5hac+oYW+cmvo6Agx+bmuNOgnKuz/AMzevNa7upxHeKUwtes+E51in2cgNjblOfrEiiBcHyCdHWnzrIEV5MI19POafhhUBKXZgKtT8iCF2ZGFKEBboleTWBxzcxd9vnIvxOYVJ8uOzP1oAges3O5mryl1y5WtynIL+dfrN3BCKsYE6eMQidDUInMSO9fONFgfByYKS0wS3dYOsQ0tYTy+HZj0S5paRcDj3z7zb4Qd55vmyecU5y0QaQ883FYJAN78dE/jK90sFAh94s3tELuF8/8AMTpoPSwvzcYdQF67GHl37ydNoCpQFdyY2p67BU8KLx7zhrHWy6zLjqbvADrn+MStoDxlH7wkk5WgNhicvCQGOd9XGeztVQNXkrnllXuunfh+cTIUVV2HlrvJ6LuWPVfjNVuwpweZzrKwZr+au+WJ+8G6RjW00S6OvWbJyXpcAcK+MLLylSxX2Njlw2qIVFf/AGZFq75CqnrHaKgEEoXn3jVwFdIdB8ZuJqJx1rDwigXJL/f6xVAiC4X9JnZkj+8615ICTnINA2N63M0ufBCHjOhX4wFh4Kp4bcGLVty47IuttDg4+6ZEePtzh+pTAfaah3cegsSnQNR8hxmq6wFlZ5kecn+3vmsTkyrVGhmzp9Z09jCQSbNecAfFM7gROo7awlLheYTYKu8Kb4F2dpFezwc45X/YA2j1U+8QKDKcR9FePjJpL+wAuLP1h6d06PF4pvnJMuQUbqvJxJbEkY4PWculRGmTzgkNdBUKx7wTX4AA7g2OchAT2IAvAx+cqctZlLpZUzVY3HR35bM0up4SNXbo0wtkZRN59nv4zQ2HgZ/kw/G9sDUV1oxTS4dseDd3WJlig0rxDDddJsAvGFDWYYejQ6d5W2GxiPJ8vrCNGoCqoraQxUpKY2dn1zkBjMcJUte+8ADrLWndOC4xNbURZQ7m8gxKYqf4wQldqAH5V6ymuaxVKScc5chYww8gc+8s2U663b0FzZq66oKPnDWeCaYKca1g6HrI4vyRy9uLFqg1NhmyuvjIsI1VsPaQ/wA5TR0ZROW+pisdArTzO9OBAgg0LtHHeNsxOFZ160YKqp4D1nG0mwgcPpyLgUmzXXjImdpRGnNA+dtHs/3eCJK1wf6YifFK3KeCbZMRuASUInuImLmsQ3sBdbf4xIjbvtJe1HesJw/rYKK9MF8t2gnkxNaxCE2wgcw5Z3ijVKk4FHrX84cVaAYHI5F8YIqQoHJyPPwmUbeZ7gpxClwJ5EBRq9yfjJPIyK3b8rWe8imcTZktOh2fZiAoB3MkZpwvUaaKV6EjJhM1PILSBCaI7cPyrNueWzfFwls2hFKEZrDUVyNTVZxGY+WoEuhSaEDDLbTyItgcCU3hq7EiQO0OLP1ibM5s22/hj7Rbx2+VGhyAHquKp5KC7yhHBC8QZ84YNEc4aD6/jOLvTIvX0zGmzy5aD5hr24O7zeIeMOK/rO4oRC5aamD1Lj6q6z8OsSA6KCzgHw2e3Nd9Dc7aeQuITDaBrBS94nqsEpB0fvFggdkoJ4DrDhik/A/7nGlSCZU94X20gZjXk73mtOL8TY+A84C4OgBolxwByFSxo44F+sunE+GSLoK34wlWR2Iuv9OBU0LpnYdc48J1Noew11/GWhKd+IK/jLETDdjvTq3CaVVR5XlsNmUk0t1zvARQDgG3B7xdZrzgHv7+sRgXGAvevbktu/LJ5OGJGEybLmqcioef94xSAOg6ibPzMLnZDOlOXWWXnqg+PY83NWu3FN3we8CI8mabd9U4xRPf7kacccZejoN2nhIM1j7uzzq6XmmSZl5vE0/PnCvhcWoRETnO0lkIqjQVZr1hmG0Tx7Ot88d48niNyEAR7rjwmgIOhPLhLsoF+U5uEnm+5gr7MddsgjDWbydBhYHaPel35w3YnASbD2N4WsQvRP3tMFkBdWdamvD/ADjtZEFII2/H7xo9Uqs7DkPGGJUFDph4Be8jAAER3CRvjv5xzlAg0Ihep+MeqCGr6wGonPvCwIVHJ0HkypZVkVp9mIB6gUQ0a6es2zPspzwlWe8U6p222q8W2YsJSIAdmuLcTMEiqXGauvOKE50AZvwhmNBCSzzhery4gUGhdO/FOMcy13LVj7Ji0AbIDp98SRUSCanTccVAUgFBCPLk5hbCOtzk+c7bXOLUd1lyBDGoINBflwTworr6H4D8Y9fj4Y7T7vnvAONwUbQvDvLaldoKBfMwosJtG7UdJ/OLZ3EJOg5feHVH1hUpyOr941kMdBrH84qSyBqqph7SmrYeXu4MwXgUBYd4qWSehcz5xDum8Y9/Nxcgc0JE5e+MacuiUzpxsCYpdOj1/wAyrkSQNh5aMKpXrOPK6xhBAgGgBdm8qBpvfgrXdwnTTu0yFJdhi6RGRyv9BlbxxVdD+ZvAcPRUg8tcmBqMKAKcB5HKrrDZUt/Ay/Odie4Yr4p4Hi+sHHY7vD6o4ASK0ybVPB37xQy3LwbekCx/vCqIABGiB5N4CYAhoFUnRvFD4hV6B+ZgDArwBdlyKcl16bBz6y5YEgIVdhXC6vQkGX6Vwrwe6ckg4dD6cP8AstuTaDkj5xgfan5D6b+cmsDNNUEvJg24DguY86y88KZXq1w5XLhXlnaiGsMF9DHHLW01kSOZgabNC9c8YZ+SpTaj5+MdxHluR25Z7yKUDZHSMcE/WaGBKAcUfH/MDmgUF5IUO76wV4i76QPPEyzdTQHHReS9d53hwzDwzyzJU4RoDIpwQznBEEax6r+sPUIUCSgh7O8IaqGPizhI/OI5pat8p6iT5xYNuqkYov8AeG+h3spQL3x+MJPYmILwCeDWLtUwQbI+MBk/w39jrfznDgDljT9kmOjO5aHYnC3m/DWu5RvnFD822NUveUQseY0T5Zlj0soPYfdw9yZt/C5qRifu7/GQYU12oiYKAi7Mv0/7lWMvpP8AzAsAxVF+u8F4Bh+E03Kce8BFUqpt4aZ1cW4AF4U107cYCQNhbnlTV+cB76tAHC6veB6wNdvSuKaEN8A8VuSjIhDlf4yctvLHbbv3hy1jTYaHhN+7iz1DYiOvkBJ/OLrA2emPOuf6xLEpurDl3s4yehzYTyHxceBdwDlF66+8aXpZkKDtZwZBhIxFCa+e8T3QkFH2jv494gO2GIdp7/Ws4vuIhIzwMuRcHo1N7H3lBDe0TSjg9YQcKiq60fGR8KJwS6eph7JgGwn6YTTabK9CX3gPkC+BYd71MP3oxI6o6Hv5yBionekbBf1hDBhwc8ACl8+sSK8WGEPl1ihBoR2BvGnEpfHoCr4s11hGRyqcgveboooelSvInxcPKUrtGnkv+98DYbReU3eMeAB0aoH2Pz6ycNo5QsbrjnEJqAh+H1+8YbQJRCj81f1m4ypOXU8GGboTcG+e7+sMjFkJMcejKbcliIefjEImBEvE71d4aDBFOiF05xN2K2K135d4M1YGtNHsMKvLTqm7ZveTRo7O2nDgfvOUJHZ+V5MXDMO1TY+sDiatZd3r/wBzQeEVHtT8Y2+kQ7Ob9mUnuW0zRPesGcoEYiRwqD1x/GEpO3kS9ZbcDbvi7cGBibblKpLu136xAzIaI9uJO8EIkstUidJ59Y4/BcB7HcczeM/SgDAFt6c5yt2dpCKcXAwiZoEJvXnOOSxlEB6ZMTyUAVhV1Hfl6yFvD3YQ+6n3gA6iWdWzRuJ55amN8BneDrzh0LA6TnIreXEbqdjefORd+AKCm33iKFxsesavHzg7YhxpXT1vWbtmiEEOkTiY47dhLnbxiIIwuGgr0bxoovGtrT5y7G8nQxqmOyitO+XGVPd0dL5uBiCEcE/9zVGNANQTxoxv0/2rwW0y4cgVZS2XkNyMqqLZYr1NuWaJW0EA7VzdFITFRTTPfrJlApSNGTk94vhIoBRTdPO8o0fVvYecPAJFAO/dcRl5hgafmGYtcbCUDL5rM4j58b2351nFNBEXwYEUkWoSg3vh1kmhjsAQX4S3Gk8KBVQ/iTNG/wBKHU+N4b1U7FOEZo485LlPXxeJ0aMans6dCA4ExocpOh+cFDJQDEbTxhRiAB0hvg85cFBttx+j94jbAAWeP86wUAOBU3Pzi20wNfPo5w80DEmvsd41VgsIdnw/8wFCVsJDDilTqxl1m4cIxHD/AA5YbfcnBiCpbXhNHhX84dOQnvNjTvjE2ZDvV003EutYQugLvYjE6+/OLLjEiQByQGVecoJwEDP/ADCxcpUyVXTfOG14C5tEdt1p4xFjIwho6NQfX3hVE5iYA2ZwnDPstC5zOCjrWz/uE7UdCOAm2zjKjQkVtU0Aw1kslvdCS3Xn6MK4UbQDk+B8YHGfW9o61fWBLegbbrDk1vFY4zTY01NKKeM2ADaXQi6EmM6/GW6N0F65xChfoCAH2435OaBcK02ua0JQg7LO9/vOczovavpioEMzdJE/kyNThp4ocw27xSbmza4Hhd+rkd3Cadpey6mIW0y8bh7iLkSFHEF143iNWkurwB6/jEy2h1AiOyyZEiiqkczrnELqWoU+9V1d4vLZJCW/lgJ8vu10o37xkZK32uj894tEOZmhD5MRqYIWR8G3FzgJ0Hd8OLRAcDZsPXOJIQoQgqLrfnHtwic/Ur1nJosKW0d1hDCHT+dcR0lYjLdSJN+GGcJ17Dn1kMRztX+YZUiIL13SnbkyL3GrbU06zjRrc7+n/mX9KUqkRTiTvK9Qlj0n+4ym3PBJtTjlZjtCFhEgL8XE9LA4IifNME8lPAgU6cdAaqDYtyc/rJMpN7o7HWzETRwB2QR/OJJTadvn4cSbZzD53FhCs0ds8m9YoCUbb5DeHsuSuxjOFAgF8eMIYEWY8ePJvnFOliocIzVda9uKpmoZYLZxokxeoF6AVfRDZ8YfygnIhAn/AMw9oCowhXqDWsvcQ4vY50Oz1TDVhb7Rsx45mBsOE4t2ZqL+wNWJ06Z85stRfUtOcYsJmVbX63KHKhgCI6RJ3m/LG33RyfvPIWz68P5J4x1dJWUAKPJcb4zBZitJ+3rJI7ujVVbFhx3hDbM9ps+L4wiUqEAtT513kfgW0P5wZ1jzrjOm23kznNkAijxEr3cU4hXADRCNYYnCvcA4PMneaUtI7TN8Q/jNix6ZC39HGOdrhFj2ODnvIVs4AvHwTEiwmn7B7stwnw5yRHTrIKjXmUR96znWqSAdg7OW4MQgUfIS/C47wfhtB28nWdLCwMXh3Xj3hWiroAk2OHC6Ae6tpd9fvF8CMFQgdznAg/yXSoa4msF01Pt05NYHrO2mmv7c0VUkFeB8/wDM5wrEMe12uHV5ir0Xzg4IjFSx/LAGK0hp5OPOO3ElSjxfvByVbYIipt4mcDgGADuT95Ua4ZLqry4XzBqMhfGGOWpQGgkYfDj3YCPkvL/3Oz8h74wrC0HO4xXTQ/ckTwHxifsBPWuQ+e8qC/4G4pd63vDm6p29CeeExVQQNG/JQfcwsJAbsqq8F9Y/pzwAlAbP+4ofepQgPNc3WKvtV09Q4XLxgwBPmGyvDNQvEdlaHe/jOTBhBfyRmPlKiZ7tmWYScI4JxP7wVmONkK7+ZfrCLWLuGD1JU/WViRl2sML0sWJiry7ma18SoXRvjWCuCionLtOMCTN2dOASqydopa+dlOO8g2+vNHRKeVOscCMX6FPhjk4F1yaABsh3lOIwbuAHi7/OCdAfOBDzG/nE4cLxu0O+XrHpQAAQHJE3sN46aMYQ7ISbxQCJIBsXz4xUzrQjiupjIU8A4mn0awgSXS7GqNVN5pxGcp4H5Nd5uyAELeT83IUM22/RDiHFtZ3ADgA2rjClY3wvBdY7/QBFuetpiVVhCP2/8xDqFo3uLxrrHzJiLHBRwL5wiiAaVKeDbxhUh0hIrZ3O8OOuyW53/ucEEd3l3V8/GXhdkJyRxpMQHQFs6/OczAcGKm7rAN19azaV/wBsKD6kPrGDx9uNLfdxGRkS1YeXThqkUHbafC4Z3aHbch9Yst2Ar/j8YcMCnbgOtY94AE65iq0ObR5l7MJLUgCj4PGGWa5xRE8Zpcth08vw/wB4i0HVaKzjlilUuAayBW1mR7nKbFNmq71i0EnDD57oyRZ9VoAdRGnrEInI9kofJKefyPKsKKO/2P7x4MeET083jnG0dEGyhsm0+80Vlr3NufDhM2lEKJBXyDgOCFI1CJyT+8ArDuxhvvwwubjIK0O96xG2hcQFGkah3lilMFAPLh16wkS6AapNHjU84N/xKm87hJsZmvh9q0CnZNjhvhBAgeHrdazhdkVN9DL3m9qwiuwvUmGg4oQOZh+ZQ9gsOy/3iJuLpMo+d7zjy8LamGpsBPSOs4CVuibRvf8AeOq4NrWafI4hQCqj0/3jBloMQHxwawNeDh0V9sGD1OiiI/nDBGwBTW3Y+cOrRdo6I3ouL8sgxt2w5wK9gER5l6HHPggNpWA74x3cQJ4DTR6942J4xBIF16uCbEUiAIT8OPwNegeL4P3iQ3VRUGv0ZDGNBqnA704F9ivaR/8AuLgTqtGtSZOd+eDUzQT956FRdB+OsWq4Yrop8Zw4UGCgH1dZdUTgDAWTnVpxchDLuGp9tUxKx8lOvwxv2dESQ3eE/jDDJLIG14XoMRKaiPWE/wAYqwIQchQ70/rEI4uyfO/s49YXVBcrrr7E+3CX59yJQCzX8ZH4TC0WwvWCBXqyGIui2/WM4RklncNpswVdhOKkEtX3hjoskBBbwEfnBWFa5ZC8nvHSoJAD2b5mBBQEjfI8DSYWcWYSu4z1Zc0sdhDDSktiXB6MOp6E5a4bNVXIacHn1hmAOBmQn/mJPPNIT3K3blE+wSF6p8zFgHSV9LTXJj7WuVkulm7j3pQwwW/IObTc6EPADzw55kUZGx7bXBptDeDWk1O8cvMNqNh5dT7xCng9c0zhFvxkOYhjyXXHOKhwpGnvfNxkLIpkq+uLCas0ej4feKqE7dTgX9YBah6OfKJf1jCB/LUTw74wZaS46vi8YSUBQqQsOJomM9GcpWnk04S17TxzjVdfWGgBuxmLoyzNu8639vePZyaHDQ8460cwZ5YFvmJcRK5tMXH200HxTGp9F0qI4FVwuqijocFQQqFZzcW4bna7jy4hsHo4UJr+HLS8FlJxfvO8IZPQR6YcoZMOxPw4gLAhkTROxBuTOg8GEeyX/cY01PRqzAeXY5RPuWFqrrbJ+8oEA8Y6eR3kudwA02HnmZGlwaY8nQ5t7SOZ2TfzjGgTcDw9LM4ZGOlY0JovPzgyDeqB2QUD29ZCxYQB8na/9w1xpqVK4qc71xkuyBURa6dAx+nIS+DCVbtdty2XAROCpOLaesbt8kApQe/7YGVijbzXSh+cG22JCyl8ax+aVIFZOjJv3lHokJsu9Xm5WonElQDrfjJUBFkdxaXePNbwrPRzGdTJThJgjRPXOGXgSB06HvJxPEUgQDOLhExPXsVnlDWLV4cQQyX7xMP6Q7mx8R/WBfSBvT2cJxkMcaEC/JvGKsQ1nm5VcYKEFu8PWHne8ViaAalHbszJq84CN1Ty385TsKTwAs0JkNs5dU9ecRKiTupS/GT6nZQABvvaYGYVMG4GjZvB8ITYTsqxXvKPAG48m6v1jGfpsG6F08WeHDbW1QIrr3f5xQTU0IV03vfOaX0JMe0ce8RWUJV6HvTlu9a9Y0G9PGL448cm9zrOP8UoSCLs5yDPYynZ9YIUSQCDQfrJcNKI3RyO+MLbIi5eL2mADHZ2c33nR8Y1TlM2Ockm6Xqd/rAbMIBVRP1iarBCyezrX/3Cuc808K38OMgflS8B51cLmWG1mnnVyH0iqA/JcN1Hu8Es9+8EZGnl9hdn95vqCbXw/H6zYBbAh3d/eKuQB9QbPvrDA0YJfK9ejWD14FaHu6+s2ihWViaMEOvMwgOJoI8HciGsdFB6VpdJQ+c+DU2wjUq/nBr2RdVpsmmP5xz2DMQIvLzvG8oo9e18YJCYIneEbRkwgFN5QbHq0mRb6NbNb733/GHhEzCrT7Q694c6AUPFHeAhIUjRv73xlVAplV4caLkUrGBdmzB2jIDxo9a7ymvcA0AQvLDHyKm0DnXNXjE5RcMnUgTrzxhRAQUdK8Xz84pzRTSdDwcTKl46ErfYMMK5Q3qPc8XeLENbgMQ2A094Y9JREBX785qswKib2d3WH3kmoeAs2ecTapgSlBPTNZoFp2IWfDDfrBQkJaEOfLjG2KIik0Hw9mQkwGquw504duRGXkj3rEwOejHLjWeGi3h3vHzXXtw4PG+sNLRW4dz5esJ4JWw8HnLge6QNF8YvKkSipCvrHYLYQvMvrGsT+wI3Hh+pJALry5xE46KNqTeD8ucKsCbO84dpQD0nY847r08Lya/Jg0RDBKgDwq/kwoFcF1ZPA3fvEnOiHw/dOMGlHBXvK+K58G4yIvzyYyuFWm0XyF3gZVUeicgX3hTfcEPPjxjkXGWrwY/ligG2Qg8adGGtpUt0vk2mGN2IqXYN5LscFptDRz848YGw1kDUxFSIX1DhIuFDsRSEXkunB3pHmeF6KvwYJlfehPTqYCXGAUb0estxEAhKeVFfnDaEhA22801jdi72Jugq61lppdTJ9IYgMmuMto5f+4NkYVHnueO84gC0U3oasLPZiS5lqsdvLoccYUQET6dODzFWTtIuSslLGcouF5+MbFbzGgQusCoGQm004Zd+5ix2kpXUfPjGKDoTJFXF/vCJtl5aw9x7xAcybHWxeMJSsVsjETlVhM1kDPipEvv9YKUZiW1L994luAIFwKx+MSfE6IVDXVXr9Yz+bIRbTsuSUSUOvA+N+MQ8RZDlxF1rH9O2hLtODv8ABjBEZsBDpOVkwBkKcjcH5MJx+kagJa8ZvoibKkTvj8OApIhCCyuXThuLNlev+ZJIxK4jPhzdSUHfosxigJbtZOdo4W0WQAT8i/xjp2g324vjJ4CItPGvbhcMGJDiu795ZyEqDArhjTcS3qZrGbecNKF0JbB8ZuDPjQtZ8+MsaMNE4vzvJm46Cy2l0aXCO2LabA8mMHuihuga8jWdHGP7vQQF1HeUCLou4jPen84HTCkANAH6wenL+JRU84V2sUW3t2t1PeLGj7oCLl4NYnMuN8QAul3vjjFkodWKSjS3enCZBOqQRmoVLcHKXhwKckL/ADj2xv1E0rpd7w7XAhNhTfKtcqHRKg7L9GEC/MAj4fyxd/ceFtd4CKBLC2r44ax8JhwY0jyZGkG4UUkvu5dhG8PZfHP7w85iVXryxhMw8IfIb4MYHrApi8GucbmCKUlB2XDCG1SAqHNI4+zmqGqEkpMO8pES2r2fB4yZhghnC/8AmN4QXRtk2vgzcwdNHEROUmHeKqwoivTf4ylyoSNFDaqW40Qs8qKircH7b/Cmz1l/4C1r3rekMMT0QI1ZvOOg7ZpDo53+MG8TnoB1/Vw0P3edDjoQdGEecbLr8lwXjaHYVHhDpwSpjJaBknzFAD0QeEP5x0m+kgO/lpjIimaHEU6/7hPIKlt6GJJTkA7j8YzcWjsXW8G6WVRN/ZigpEGN07PGbEKinb45wWPQ4PTXKoFxpeJFoIo7MbpBXAg9HbDvECqVSDo2t9YCP7UN9HxXq4foyzScb6xeRO0EjT4yp5AC0tDcd76zaED0sSi6b18Yd+0188Qb1ZgM3Vktyvkqaxk7FQNFZQyqUemUKeQJcvmxLKw91i6cNjB7JtD5kJ7xroo5d9brP6xR2hBG03YF43MWSY+0XTUkd9XXOOldNwzZbVHTmweCcF1OE84EadqJIDrS71gYkzlHLXwGarnRiIIrvkpe8Om4PH8DzNPOQlvhELvhyc5zaPNBqz5xGjRwUklOtfxlucTE0/8ArOM9B+dB71gkeK4LeXOBYkIAoRF3gx9QQmmvN1ipCAoW1ByB5wG/fELr1uZOvdC3KLQXnABODDvBKQ1j8E4USPFO+MMvCjgkdfUdZt3znBYTx1hsliArpl5cAAnanGybBDEHTjTaBeTgxCtawApHu0P3j1w3Ae0M0c7wkgWwLZCvGzccCjHZhNkcB8uaipObY3ga1+8asIhEaOA25wF6sBKaQfOPbnyRSJO9H9Y5xScCQQ6R/GV70YKvKGnrArFt5jVnFXeCM7X+xD+8NNw+1s6CYIgsOAXPo1irlorRSuimSfmro6h59ZDMpVQQ479YnKQBFF28cecFkYNJYT8pmnvgIW2L4aSd4hqhOkE65J1k8cAhENeXGEYAR7U8+TWI+cA7Tb0ms0iVz7Sfs74yS8uwKU8zf1jIKY1O+/hxQZxU23DnrWCIjJqvQOg5uJ0Ib2XhdR3zhh53V0a58/6Y25UGpa3qH5znSSHqB08N+MDF8EkoHTox4iCC3BvTucY2lGqUiE7jWMClozT33TjUygCpRFiLSJMtUNLJbRyZzsMSBaFlRTpt/jA/OAgir7ezDmJoSB0Pncwvo5zgT27crc3Ec2m6cX7yqXIH5Sc7ecLko+bc+JdYg/G0Q8PYmaxar4azw4ZSGvMFB6FecB/ak2qovu7xCDZYqtBXa39ZpCDwM0Z4db+sR8Ap3CgXV4MPJvWIuyaZpms0f1fG2a9OHFgtougO4dYULpAoKVobesQ7VXa7L2nfvC+Wl06l9Kw9YmjZuobdF9/xgbhZjos7B+csPiu1VT7eMG/21AsG+E1kN6jGweGp93BOqpuJkamCMFIjRKe8hfa4Zok9KfvAgMNhJivUubxmkIvTM49AINdPynGT6AaTG28syF5kI7DfBtmW4GdK6WpHEUdksHh39ZDzUioooL3lpbWkOQvWseWmcBtEe2A23VfAHpM5uEDp4L852qwA+GOzKasuWPW8M2Iw8u0PWNA0i1GOk21/+4LyMIK6CO7MH4z0GiXoD+MiI+1TiJ7c4okyCKZRDwEzYRweFIhOHB2lCpMACc884VRLp8qJqmakPbuntvyzZm+Ku/yHvN/oYClsAHr9ZFlflShGrs/rLYnvCihd7QA+cWcKX1sK48NeXKtLkCSgZzBxRzIaZu8a5wClQdciDrn6xc4WZUDD1r95dyWgAlOmvnL+YSbboE1PtwHDJmXQvw62/OIXKYgNmnLeL3U1I8/HON5I0FEHSgcH3izy19ABtd/xkdDpHdEzc/LLiITAqxRpxgpDhtHscn/zLs9WBXdr4uMqkWqOydYTTflquzjnAx2ICI+xvnApkbU6gv1hKDaCWvR4CYYs5brtenjCzVQhY7eecNWfCiX+M7xAgB4Zxzh5ZNmk9Yw94b06hzvFBNAJEOh9OIK4p74t3BziTDA+XXB/eEPeLPNterxjTNIbWq9C4TSoNFbAfuYHYALk9z4OMFto50zA4MACqu9dHeM1kDTs+ftxnWCRFSPxgQkvEtwJumPljHvjFN3zjVwr2OtE4UAw3Z6CFoT9GD3YA5QbV4xcwrLnceOMLvZVaeb1L/GSVpFIE3dzc37MhjBa1j1Jo+MokVWACmg9axebq2NG06GAF+3SrwH4wfSkNmEOvKbx3rYEBeEEZveRRhuZoh8/8xlJb4hp4brApgFEg9UeU7wQfGF6AoEL844Iqkl8h0znFBM7VIFvL9sqVbgeE2mzFX6APfGo7H1jJpYb0u/IvPvEUROUCaOCExF5Yrq6qdsmus2lQMC1d8hk3BV3xwuizDT3gXAXyLSmCw6M4VEq+pCYNwa90/f5uBNghQezE0a2glourfG8it+RraLqOTjcYinez1XCxLdCAqne/wAYVQsMZCrzs8+MmA91H6QGsrw0N1orf4HD9CCyCh4J1iFrFHYa+Uk+Mcuyug3Q4zVA4d7rZxzju/FT3sb8YHVNk4Mo3eOsVLQIIgDrR5yQG0Iiobvn9ZsB4rb2U7xoB44a2w7usA2p3pVYembTLIltAvGAW9tjQYe6usb5xIzhLWhcXhYaQ8Dz9amFoEDfnu2c5PGxO/nF0ci+hOMsZTze3zJ95q1Z0U9OXn9YC9Aum+x4wYlHAzz7d4RhD8qFeUWnEJFgyEpQ86/GUaRBbamHXOWCHPkFN5XRDQ2QhraNf/uahlwCXcilx4PlJx38icd4ldWq+AOxxe0qYcBj8u8XwC2qn5eMWAd87qO0ydfGPaWg4Jr4aFwg1O4xyBhS0kEgTWvGDWp5WCVPPvOzWCsgfDf7yY72YqmwX/uTIONdcTTsm8Ft51UBy6OOc3rALP0R6p3koPAIu62GcMOK5EE2d4AsYwvRt7fnL6pXLnEeHc+ZiyfACHh+KGLHnC8VR6ScZdD46ao9ML9SrXfwTQNYp34DT11avONhxg43VDikwXtSwhf0kx7+PiK1wr9YltJGiC9p6xFAitOMVHRjpWt1kqmx+fOOABKW1bd/Llrwp6i7fBjkG76OvynbnCuqmlObg04GMAKhiXg0uTo3YPhwJt51iwsXos0N8H85uzyuUgeuf5zhqrQduPVXXV7yQyaaXgzouS9T1j8h5cbbavW1HdFPvFBC40aAoXgcYdJupcd8mcriBQlPKUDNOvSJrXfb0a4xTSZcId+LcbHo9GhxoZhRu3gyPntquu/3i5ll0g8RtwGeT5UhP5zm+kpsRAArHfxlcGiIJ5FYNwNMltnQH84Xkap04AdiNC6NDk8e8eElBNCoXzhggCoYnjxh5AQDpyL7wARSWHX2yrFVaVHgJ4ykhXBDVR3kojTqmh2bMrYpjyXQxoSRDTdX51jSSAWwvHxjdA2cCOdpXaBc9nWGPsuwNe9fWGKcbx0tvjISXx5x4Q0Kcd5Ybt27SAeG8CN/bqBXwa5G05HReaz2v5yVzWFHRKR9aw0MPJi2HTjijV+pHz0FodOT31YBZ19/xk0AzR4J7JNY7zWOy7W+duKyeu6SheinGGEs2ynK984UgCBuGcH1jZN6kejebiGNxQonZ6zjq4RFLaDHA2lXZcRQCfIa1DrAHLgB6AXjCbP9PC8M9ZqNYpLS6IXXOARADqG+jHpT6inJw44yqTyUQHtNusde2WAF0GxxFoKgAPiZUGc1xHjeH4niEoBNJ28GAOIY2p14MbAMF7mduMt+2UWxa94lcQ10DVfFw6MQIF3XNtUAabQtxA0ELzY9+Mp4gsTF8ZeittMeLvEOqQDyVtYKjNfiHjD/AFjdIvE/9wBkY6twbwLMJpqWDhB1MJYppol38dYVePECG/nWApZZTQbW5//Z;" vertex="1" parent="8962rQQDY3VNNf6We3Pp-1">
          <mxGeometry x="680" y="800" width="51.99" height="50" as="geometry" />
        </mxCell>
      </root>
    </mxGraphModel>
  </diagram>
</mxfile>
